<svg xmlns="http://www.w3.org/2000/svg" xmlns:xlink="http://www.w3.org/1999/xlink" width="60" height="55" viewBox="0 0 60 55">
  <defs>
    <style>
      .cls-1 {
        fill-rule: evenodd;
        fill: url(#linear-gradient);
      }
    </style>
    <linearGradient id="linear-gradient" x1="30" y1="55" x2="30" gradientUnits="userSpaceOnUse">
      <stop offset="0" stop-color="#0093d8"/>
      <stop offset="1" stop-color="#4ac7f4"/>
    </linearGradient>
  </defs>
  <path class="cls-1" d="M58.8,19.607H58c-0.78-3.948-4.783-10.9-6.555-13.845a3.167,3.167,0,1,0-3.58,0c-1.772,2.945-5.774,9.9-6.555,13.845h-0.8a1.194,1.194,0,0,0-1.2,1.192A10.341,10.341,0,0,0,60,20.8,1.194,1.194,0,0,0,58.8,19.607ZM49.659,2.384a0.774,0.774,0,1,1-.776.774A0.776,0.776,0,0,1,49.659,2.384Zm0,5.037C51.68,10.826,54.8,16.5,55.572,19.607H43.751C44.476,16.7,47.286,11.4,49.657,7.421Zm0,21.307a7.956,7.956,0,0,1-7.86-6.737H57.52A7.957,7.957,0,0,1,49.659,28.728Zm-9.021,19.42h-3.16V45.121a1.194,1.194,0,0,0-1.2-1.192H33.248v-33.3a4.5,4.5,0,0,0,1.344-2.987l5.054-1.085a1.192,1.192,0,1,0-.5-2.33L34.077,5.316a4.536,4.536,0,0,0-8.542,1.833L12.9,9.861a3.162,3.162,0,1,0-4.347,4.463C6.779,17.269,2.777,24.221,2,28.17H1.2A1.194,1.194,0,0,0,0,29.362a10.341,10.341,0,0,0,20.681,0,1.194,1.194,0,0,0-1.2-1.192h-0.8c-0.78-3.949-4.783-10.9-6.554-13.846a3.159,3.159,0,0,0,1.344-2.148L26.03,9.482a4.568,4.568,0,0,0,.847,1.15v33.3H23.841a1.194,1.194,0,0,0-1.2,1.192v3.027h-3.16a1.194,1.194,0,0,0-1.2,1.192v4.467A1.194,1.194,0,0,0,19.486,55H40.638a1.194,1.194,0,0,0,1.2-1.192V49.341A1.194,1.194,0,0,0,40.638,48.149Zm-30.3-37.2a0.774,0.774,0,1,1-.776.774A0.776,0.776,0,0,1,10.34,10.946Zm0,26.344a7.956,7.956,0,0,1-7.86-6.737H18.2A7.956,7.956,0,0,1,10.34,37.291Zm5.912-9.121H4.432c0.725-2.911,3.536-8.211,5.907-12.186C12.361,19.389,15.485,25.06,16.253,28.169ZM30.062,5.276a2.139,2.139,0,1,1-2.145,2.14A2.145,2.145,0,0,1,30.062,5.276Zm0.8,6.592V43.929H29.267V11.868A4.487,4.487,0,0,0,30.858,11.868ZM25.036,46.313H35.088v1.835H25.036V46.313h0Zm14.407,6.3H20.681V50.532H39.443v2.084ZM45.166,4.229a1.2,1.2,0,0,0-1.42-.915L42.875,3.5a1.192,1.192,0,1,0,.5,2.331l0.871-.187A1.192,1.192,0,0,0,45.166,4.229Z"/>
</svg>
