<svg xmlns="http://www.w3.org/2000/svg" xmlns:xlink="http://www.w3.org/1999/xlink" width="68.063" height="60" viewBox="0 0 68.063 60">
  <defs>
    <style>
      .cls-1 {
        fill-rule: evenodd;
        fill: url(#linear-gradient);
      }
    </style>
    <linearGradient id="linear-gradient" x1="35" y1="60" x2="35" gradientUnits="userSpaceOnUse">
      <stop offset="0" stop-color="#0093d8"/>
      <stop offset="1" stop-color="#4ac7f4"/>
    </linearGradient>
  </defs>
  <path class="cls-1" d="M58.177,8.29H38.328V1.355A1.356,1.356,0,0,0,36.972,0H5.558A1.356,1.356,0,0,0,4.2,1.355V19.7a1.355,1.355,0,0,0,1.356,1.355h18.7v4.626a1.355,1.355,0,0,0,.837,1.251,1.339,1.339,0,0,0,.519.1,1.36,1.36,0,0,0,.959-0.4l5.587-5.584H33.3v2.323a1.356,1.356,0,0,0,1.356,1.356H38.12l4.082,4.08a1.357,1.357,0,0,0,2.315-.959V24.736h13.66a1.356,1.356,0,0,0,1.356-1.356V9.645A1.355,1.355,0,0,0,58.177,8.29ZM35.616,18.347H31.6a1.356,1.356,0,0,0-.959.4l-3.669,3.666V19.7a1.356,1.356,0,0,0-1.356-1.356H6.914V2.71h28.7V18.347Zm21.2,3.678H43.161A1.356,1.356,0,0,0,41.8,23.381v1.2L39.64,22.423a1.355,1.355,0,0,0-.959-0.4H36.016V21.057h0.956A1.355,1.355,0,0,0,38.328,19.7V11H56.82V22.025h0ZM53.3,13.072H41.868a1.355,1.355,0,1,0,0,2.711H53.3A1.355,1.355,0,1,0,53.3,13.072Zm0,4.07H41.868a1.355,1.355,0,1,0,0,2.71H53.3A1.355,1.355,0,1,0,53.3,17.142ZM22.043,28.661a5.134,5.134,0,0,0-3.73-1.616H14.857a5.109,5.109,0,0,0-5.1,5.44l0.154,2.354,0.358,5.5a6.329,6.329,0,0,0,12.632,0l0.41-6.28v0l0.1-1.569A5.126,5.126,0,0,0,22.043,28.661Zm-9.58,3.648a2.4,2.4,0,0,1,2.393-2.553h2.585L16.936,31.1c-0.178.255-1.3,1.67-4.411,2.156Zm7.731,7.852a3.617,3.617,0,0,1-7.218,0L12.7,35.974a10.509,10.509,0,0,0,5.242-2.049,5.085,5.085,0,0,0,.671.409,10,10,0,0,0,1.915.677ZM19.86,31.926a2.537,2.537,0,0,1-.275-0.161l0.471-1.257,0.007,0.007a2.367,2.367,0,0,1,.646,1.729A5.327,5.327,0,0,1,19.86,31.926ZM32.187,58.4l-0.573-3.158a9.543,9.543,0,0,0-9.4-7.843H20.492a1.357,1.357,0,0,0-.959.4l-2.948,2.947L13.637,47.8a1.358,1.358,0,0,0-.959-0.4H10.954a9.548,9.548,0,0,0-9.4,7.844L0.983,58.4A1.355,1.355,0,0,0,2.318,60H30.853A1.355,1.355,0,0,0,32.187,58.4ZM3.941,57.288h0l0.283-1.56a6.832,6.832,0,0,1,6.73-5.616h1.162l3.51,3.508a1.359,1.359,0,0,0,1.918,0l3.51-3.508h1.162a6.832,6.832,0,0,1,6.73,5.616l0.283,1.56H3.941ZM58.873,28.661a5.133,5.133,0,0,0-3.73-1.616H51.687a5.109,5.109,0,0,0-5.1,5.44l0.154,2.354,0.359,5.5a6.329,6.329,0,0,0,12.632,0l0.41-6.28,0.1-1.571A5.124,5.124,0,0,0,58.873,28.661Zm-9.579,3.648a2.4,2.4,0,0,1,2.393-2.553h2.585L53.766,31.1c-0.178.255-1.3,1.67-4.411,2.156Zm7.731,7.852a3.617,3.617,0,0,1-7.218,0l-0.273-4.187a10.509,10.509,0,0,0,5.242-2.049,5.094,5.094,0,0,0,.67.409,10.053,10.053,0,0,0,1.915.677ZM56.69,31.926a2.544,2.544,0,0,1-.275-0.161l0.471-1.257,0.007,0.006a2.371,2.371,0,0,1,.647,1.73A5.338,5.338,0,0,1,56.69,31.926ZM69.017,58.4l-0.573-3.158a9.543,9.543,0,0,0-9.4-7.843H57.322a1.357,1.357,0,0,0-.959.4l-2.948,2.947L50.467,47.8a1.357,1.357,0,0,0-.959-0.4H47.784a9.543,9.543,0,0,0-9.4,7.843L37.814,58.4A1.355,1.355,0,0,0,39.148,60H67.683A1.355,1.355,0,0,0,69.017,58.4ZM40.772,57.288h0l0.283-1.56a6.832,6.832,0,0,1,6.73-5.616h1.162l3.51,3.508a1.359,1.359,0,0,0,1.918,0l3.51-3.508h1.162a6.832,6.832,0,0,1,6.73,5.616l0.283,1.56H40.772ZM31.26,6.387H30.444a1.355,1.355,0,1,0,0,2.711H31.26A1.355,1.355,0,1,0,31.26,6.387Zm-5.576,0H11.269a1.355,1.355,0,1,0,0,2.711H25.685A1.355,1.355,0,1,0,25.685,6.387Zm5.576,5.436H11.269a1.356,1.356,0,1,0,0,2.711H31.26A1.356,1.356,0,1,0,31.26,11.823Z" transform="translate(-0.969)"/>
</svg>
