<svg xmlns="http://www.w3.org/2000/svg" xmlns:xlink="http://www.w3.org/1999/xlink" width="67" height="48" viewBox="0 0 67 48">
  <defs>
    <style>
      .cls-1 {
        fill-rule: evenodd;
        fill: url(#linear-gradient);
      }
    </style>
    <linearGradient id="linear-gradient" x1="33.5" y1="48" x2="33.5" gradientUnits="userSpaceOnUse">
      <stop offset="0" stop-color="#0093d8"/>
      <stop offset="1" stop-color="#4ac7f4"/>
    </linearGradient>
  </defs>
  <path class="cls-1" d="M14.517,32.727A3.273,3.273,0,1,0,17.867,36,3.316,3.316,0,0,0,14.517,32.727Zm0,4.363A1.092,1.092,0,1,1,15.633,36,1.106,1.106,0,0,1,14.517,37.09ZM59.183,0H3.35A3.316,3.316,0,0,0,0,3.271V33.818A3.316,3.316,0,0,0,3.35,37.09a1.092,1.092,0,1,0,0-2.183,1.105,1.105,0,0,1-1.117-1.09V30.545H3.35a1.092,1.092,0,1,0,0-2.183H2.233V3.271A1.105,1.105,0,0,1,3.35,2.181H51.367V4.363H5.583a1.091,1.091,0,1,0,0,2.181H6.7V19.635H5.583a1.091,1.091,0,1,0,0,2.182H51.367v4.364a1.117,1.117,0,0,0,2.233,0V21.817H64.767v6.546H63.65a1.091,1.091,0,1,0,0,2.182h1.117v3.273a1.105,1.105,0,0,1-1.117,1.091H60.211a7.639,7.639,0,1,0,0,2.182H63.65A3.316,3.316,0,0,0,67,33.817V7.636A7.646,7.646,0,0,0,59.183,0ZM17.867,19.635H8.933V6.544h8.933V19.635h0Zm11.167,0H20.1V6.544h8.933V19.635Zm11.167,0H31.267V6.544H40.2V19.635Zm11.167,0H42.433V6.544h8.933V19.635Zm1.117,21.819A5.457,5.457,0,1,1,58.067,36,5.527,5.527,0,0,1,52.483,41.455ZM64.767,19.635H60.99l1.426-2.785a1.079,1.079,0,0,0-.5-1.463,1.127,1.127,0,0,0-1.5.488l-1.924,3.76H53.6V2.181h5.583a5.4,5.4,0,0,1,5.583,5.455v12h0ZM42.433,36a1.105,1.105,0,0,0-1.117-1.092H22.244a7.638,7.638,0,1,0,0,2.183H41.317A1.1,1.1,0,0,0,42.433,36ZM14.517,41.455A5.457,5.457,0,1,1,20.1,36,5.527,5.527,0,0,1,14.517,41.455Zm37.967-8.728A3.273,3.273,0,1,0,55.833,36,3.316,3.316,0,0,0,52.483,32.727Zm0,4.363A1.092,1.092,0,1,1,53.6,36,1.106,1.106,0,0,1,52.483,37.09ZM16.75,45.818H1.117a1.091,1.091,0,1,0,0,2.182H16.75A1.091,1.091,0,1,0,16.75,45.818Zm26.8,0H41.317a1.091,1.091,0,1,0,0,2.182H43.55A1.091,1.091,0,1,0,43.55,45.818Zm22.333,0H48.017a1.091,1.091,0,1,0,0,2.182H65.883A1.091,1.091,0,1,0,65.883,45.818Zm-31.267,0H23.45a1.091,1.091,0,1,0,0,2.182H34.617A1.091,1.091,0,1,0,34.617,45.818ZM43.55,30.545a1.091,1.091,0,1,0,0-2.182H23.45a1.091,1.091,0,1,0,0,2.182h20.1Z"/>
</svg>
