<svg id="map" xmlns="http://www.w3.org/2000/svg" viewBox="0 0 997.27 533.34"><defs><style>.cls-1,.cls-2{fill:#fff;stroke:#3a3a3a;stroke-linecap:round;stroke-linejoin:round}.cls-1{stroke-width:.68px}.cls-2{stroke-width:.45px}</style></defs><g id="g21404"><path id="path6622" class="cls-1" d="M92.4 381.71l-1.74 2.13 1.74-2.13" transform="translate(-64.79 -75.12)"/><path id="path6624" class="cls-1" d="M92.4 381.71l-1.74 2.13 1.74-2.13" transform="translate(-64.79 -75.12)"/><path id="path6628" class="cls-1" d="M103 399.39l1.12 4.11 2.77 3.47 1.28.11.51-2.7.54 2.35 1.89.74-1.88 3.44-1.08-.56-4 2.65.52 2.67-1.19 1.08-1.19-.26-.36-2.54-2.14 2 1.93 6 2.57-.85 2.05-3.35 1.47.29 3.3-4.34 1.49 1.19-2.42 2.83 1.1 1 3.12-7.68-.17-1.89-2.4-2.09-.38-3.14-4.71-.88-2.43-4.46-1.27.87" transform="translate(-64.79 -75.12)"/><path id="path6644" class="cls-1" d="M157.88 368.51l.83.66-.83-.66" transform="translate(-64.79 -75.12)"/><path id="path6670" class="cls-1" d="M157.78 448.55l2.89 2.62.89-.54-3.78-2.09" transform="translate(-64.79 -75.12)"/><path id="path6690" class="cls-1" d="M157.78 448.55l3.78 2.09-.89.54-2.89-2.62" transform="translate(-64.79 -75.12)"/></g><path id="path20277" class="cls-2" d="M91.49 367l-1.91-1.76.61-4.3-1.3-.83-1.46-8.45-2.93.9-6.15-4.42" transform="translate(-64.79 -75.12)"/><path id="path20750" class="cls-2" d="M1021.44 504.45l2.84 12.46 4.91 1.24 1.27-1.83 3 .85 2.76 1.65" transform="translate(-64.79 -75.12)"/><path id="path6288" class="cls-2" d="M334.35 157.56l-2.75 2.15-1.05-3.81-2.14 1.41-3.53-2.06-4.19.18" transform="translate(-64.79 -75.12)"/><path id="path6384" class="cls-2" d="M911.73 607.7l-2.86-2.12" transform="translate(-64.79 -75.12)"/><path id="path6398" class="cls-2" d="M131.62 216.82l-9.29-22.55" transform="translate(-64.79 -75.12)"/><path id="path6432" class="cls-2" d="M184.92 226.43l3.82-.85 1.61 1.3 3-4.29 5.8-4.12 7.6-.78 2 1.19.86-1.81" transform="translate(-64.79 -75.12)"/><path id="path6558" class="cls-2" d="M1006.8 152.27l-3.89-1.78 3.89 1.78M906.16 91l-6.48 2.59-3.21 4.13-.89 3.78 1.77 8.42 2.57 3.5 6.2.63 2.3-6.69 2.38-11.2-1.52-3.82-3.12-1.34zM957 96.56l3.92.85 6.81-12.51 9.55-3.9 5.55-5.63 9.6 3-5.15 3.44 3.18 2.59 1.57 4.1-1.39 4.17 12 5.31 1.42 6.74-3 5.4-6.06 3.13-3.54 4.85-4.87 1.76-4.38-1.26-2 1.37-.29 4.46-3.09 8.36 3.48 7.38 2.27 8.43 10.69 2.15 5.25-1.23 4.41 1 3.89 1.77 3.41 5.08-.15 3-6.52 5.25-1.73 3.56.72 19.46-4.29-2.3-5.08.67-1.18-1.8-2.9 1.81-.25 5.73-3.79 3.31v4.32l-1.85.51.26 3.18-2.31 2.93-5.06-1.79-9.86 5.07-2.42-10.08-4-.81-2.15 2.19-4.67-.66-2.9 3.93-4.83-.14-.36 2.9-3.13 2.06-.37 2.14-2.73-.83-3 1.7 1.16 2.49-5.18 1-.15 2.14-2.13 1-.07 3 1.54.19-1.51 2.58-5.24 2.76-5-.5-3.28 3.28-4.77-1.06-6.62 2.86-3.82-5.67-5.1 1.74-1.13-5.31-3.64-1.48-5.54 1.19-2.65-1.67-1.27-2.67 1.47-1.62-2.54-.17-.45-4.52 5.78-9 1-3.9 4.17-3.12-2.15-3.69-2.51-1 .26-1.47-3.52-.64-.24-2.17h-3.76l-4.25-4.6 3.79-6.51 4.11-1.31 5.52-6.24.6-1.76-2.07-7 1-2.77 2.71-2 1.57-6.82 13-14.69 3.33-6.87 4.63-2.08 10.77-8.86 1.69-.54z" transform="translate(-64.79 -75.12)"/><path id="path6560" class="cls-2" d="M123.59 192.07l7-.47 3.06 4.17 3.26.59-.1 3.75 1.39 1.72-.93 6.27 2.27 3.22-2 3.52h-3.45l-2.3 2.16-.64-1-6.63-14-2.11-7.37 1.17-2.49" transform="translate(-64.79 -75.12)"/><path id="path6562" class="cls-2" d="M137.16 201.3l-.41-1.19.41 1.19" transform="translate(-64.79 -75.12)"/><path id="path6564" class="cls-2" d="M136.67 199.52l-.05-1 .05 1" transform="translate(-64.79 -75.12)"/><path id="path6566" class="cls-2" d="M209.47 204.87l8.31 4.13 4.12-.45 13.1 2.84-.8 2.61 3 6.4 3.48 15.21 5.52.34.76 2.35 1.93-.54-1.52-1.64 1.63-1.22 2.76 3.24-.29 1.86 2.92.17 2.2 3.61-1.49 1.22 1.88 1-2.16 1.64-4.51-.81-1.31 2-6.77 3.84.75 1.94-2.89 1.87.77 1.17-2.63 1.13-.62-1.19-1.82 2.06-2.79-2-2.43.17-.24-3-1.72-.86-.51-2.14 1.29-2.35-1.92-1.16-.12-2.68-4.06.64-1.52-1.27 1.68-5.17h-1.95l-.32-1.8-3.18 1.53-1.72-.3-.84-2.14-4.69.79-1.75-3.44-3.7 1.74-1.34-1.44-.07-3.65 2-3.64-2.74-4.23 1.29-2.39-1.53-2 6.41-.26.9-3.18-2.66-5.79 1.94-4.79" transform="translate(-64.79 -75.12)"/><path id="path6568" class="cls-2" d="M222.56 220.15L220 224l.76 2.78-1.37.19 1.77.85-1.89.94 3.07 2 .18-2.23 1.64-.5.61-2-.48-4.44-1.76-1.45" transform="translate(-64.79 -75.12)"/><path id="path6570" class="cls-2" d="M185.39 225.86l3.59-.28 1.75 1.23 2.66-4.26 6-4.61 4.64 1.71-.89 3.6 2.74 4.23-2 3.64.87 4.34-1.48.9-1.77-1.36-1.83 1.5.89 2.25-1.51.2 1.61 4.35-2.31.74.4 1.67-3.9.29-.08 2.88-3.33 1.68 1 1.95-3.07.18-.12 2.81-2.11.54.16 4.56-4.67 1.66-2.06 2.64-1.25-3.22-3-.34 1.25-3.23-.57-2.73-4.58-2.83v-1.39l2.62-1.1-.58-2.56-1.86-1 1-2.09-1.86-2.6 7.47-6.85-1.09-1.96 6.05-1.88 1.22-5.29" transform="translate(-64.79 -75.12)"/><path id="path6572" class="cls-2" d="M318 153.94l2.8 2 3.74-1 3.43 2.15 2.74-1.47 1 4.13 2.48-2.17 3.52-.07 4 3.15.7 6.74-2.16 3.49 4.2 10.57.72 12.44-1 4.17 9.67 8.36-12.4 20.52-21-1.75-7.11-4.2-6.86-10.68-.66-17.32-1.95-4-3.34.71-1.19-1.86 2.23-3.88-6.56-10.26 2.57-3.39 10.74-.72 2.59-5.86-.46-3.8 3.33-3.31 4.69-.73-.46-1.96" transform="translate(-64.79 -75.12)"/><path id="path6574" class="cls-2" d="M235 211.39l18.81 1.74 6.56-1.27 2.23-4 1.85-10.3 1.65 1 4.4-.81 1.39-4.44 4.29-2.48-.9-1.79 1.15-1.61 1.56-.89 1.32 1 .84-2.51 4.16-.9.43-1.22 1.61 1.72 8.65-10.92 6.53 10.23-2.23 3.88 1.19 1.86 3.34-.71 1.95 4 .69 10.64-10.24 10.67-2 3.63-1.24 8.92-7.7 3.17-2.58-2.24-1.85 5.24-2.75 1.12-1.28 3.09 2.11 6.31-4.72 3 1.08 1.15-1.52 3.19-5.07 3.1-2.25-2.37v-2.23L255.1 245l1.37-1.43-2.08-3.38-2.92-.17.29-1.86-2.76-3.26-1.63 1.17 1.52 1.64-1.94.54-.76-2.35-5.52-.34-3.48-15.21-3-6.4.75-2.58" transform="translate(-64.79 -75.12)"/><path id="path6576" class="cls-2" d="M222.56 220.15l1.76 1.45.48 4.45-.61 1.95-1.65.56-.18 2.23-3.07-2 1.89-.94-1.76-.85 1.37-.18L220 224l2.52-3.85" transform="translate(-64.79 -75.12)"/><path id="path6578" class="cls-2" d="M201.5 235l.81 1.2 2.3-1 1.48 1.09 2.88-1.84 1.73 3.45 4.69-.79 1.3 2.37 4.49-1.49.32 1.8h1.95l-1.68 5.21 1.51 1.23 3.89-.74.33 2.89 1.86 1.06-1.29 2.35.52 2.14 1.72.86-.29 5.8.94.76-1.63.79 2.89 3.22-.56 4.55-3.09-.15-2.82-3.41-3.32.35-.85-2-2.06.79-.52-3.86-2.41-2.36-1.93-.14-.06 1.46-3.25 1.47-2-1-2.63 1.5-1.46-3.12-4.33-.57-3.78-2.87-3.71-.63-2-4.83 3.33-1.68.17-3 3.81-.21-.4-1.67 2.31-.74-1.66-4.6 1.53.08-.89-2.25 1.83-1.5" transform="translate(-64.79 -75.12)"/><path id="path6580" class="cls-2" d="M167.53 266.82l4-.1 1.94-3.18 5.85-1.9 2.15 4.82 1.67.24.22 1.91-1.09.05 2.93 2.14-1 .89 2.48 3.69 8.11 1.49 1.36 5.34 2.87 2.12-1 3.2-6.02 4.74-5.36-.42-1 1.27h-1.48l-1.91-2.47-1.78 1.59-1.4-3.58-2.19-1.29-6 2.93-1.78-.85-2.37 1.25h-5.07l-.41-3.38 2-1.54-2.46-5 3.42-1-.41-5.16 1.94-3.46 2.12-.39-.21-3.94" transform="translate(-64.79 -75.12)"/><path id="path6582" class="cls-2" d="M189.33 252.66l3.39-.22.69 2.89 2.13 1.23 1.61-.57 3.74 2.85 4.33.57 1.46 3.12 2.63-1.5 2 1 3.25-1.47.06-1.46 1.93.14 2.41 2.36.55 3.87 1.43-.9 1.92 2.3 2.87-.55 6.19 5.74 4.1-.92 2 1.13-1.71 6.63h-3.69l.06 3.43-2.5-1.24-.26 1.46-1-.66-.5 4.86-2.05 2.13 1.06 3.35-1.58-.34-1.4 2.15-2.63.69-.32 1.59-1.08-1.45.63-3.26-2.89.28-2.08-2.15-2.44 1.83-.4-2-6-2-1.62-4.8-1.81 2-1.16-.84-3.62 1.18-2.9-2.87-1.66-5.6-3.26.38-4.55-1.62-2.48-3.69 1-.89-2.93-2.14 1.1-.06-.22-1.9h-1.44l-1-2.08 1.91-2.37 4.7-1.68-.21-4.59 2.12-.57.12-2.81" transform="translate(-64.79 -75.12)"/><path id="path6584" class="cls-2" d="M161.41 286.83l-.19.87.19-.87" transform="translate(-64.79 -75.12)"/><path id="path6586" class="cls-2" d="M149.89 283.1l2.76-.31 1.22 1.35-.26 3.12 2.14 2.08 6 1.43 7.33-1.3 2.38 1.21.59 1.77-1.11 1 2 2-3.46 6.15 1.42 3.4-1.9 2.48.31 1.73-4.83-1.7-.27 3.39-3.85.3-2.07 2-4.86-1.34-1.84 1.14 2.82-7.94-1.84-1.09-.91-3-2.86-1-1.36-4.1-2.24 1.38-3.08-2.24 1.51-4.3 5.23-3.52 1-4" transform="translate(-64.79 -75.12)"/><path id="path6588" class="cls-2" d="M171 289.58l3.71-.31 2.12-1.89 2.19 1.29 1.4 3.58 1.78-1.59 2.14 2.48 2.25-1.34 2 1 4.05-1.11 2.14 2.27 1.11 4.14 3.45.53-.34 5.14-1.83 3-3.75 1.52-1-1.48-2.49 2.68-5.68-5.2v2.29h-4.06l-.91 2.42-8.24-2-1.74-4.61 3.62-7-2-2 1.11-1-1-2.86" transform="translate(-64.79 -75.12)"/><path id="path6590" class="cls-2" d="M148.21 312.33l2.4 1.83 1.86-2.31 3.48 1.52.88-1.26 1 1.17 2.05-1 .18 1.3 3.63 2.07-1.55 2.24 4.74 3.28-.69 2.61 2 5.49-.42 2.62 1.27-.15 1.25 1.59-.4 2.09 3.18 2.75-1.56 2.24-3-1.53-2.5 4.25-.78-3.64-4.95-4.49-1.28 1-4.21-2-2.06-4.58-3.52.37-1.75-1.44-.34-2.06 1.1-.58-1-1.64 1.51-1.11-2.24-1.79-1.86-4.68 3.11-1.5.46-2.65" transform="translate(-64.79 -75.12)"/><path id="path6600" class="cls-2" d="M230.46 257.8l2.54-.22 2.78 2 1.82-2.06.62 1.19 1.5-1.29.05.9 1.08-.74-.77-1.17 2.89-1.87-.75-1.94 8.19-5.87 4.4.85 2.16-1.64 7.61 2.16 4.14 5.81-5 9v1.84l1.89 1.22-.3 2.25.86-.65 2.2 2 .51 2.7 3.16.86 2.66 5.83 2.1-1.82 2.6 1.55 1 4 2.41.26v3h1.5l1.22 2.16 4.72-.68 1.05 1-1 .8 4.3 5.68 3.22-2.45 1.84 2.44-1.63 1.21L300 299l1.74.29.74 4.36-7.05 4.51-2.35-2.31V309l2.66 1.4-3.84 3 1 1.19-1.57 1.32-3.27-3.47-2.73 2.45-1.88-1.46-1.61 1.26-8.22-7.44-1.44-4.07-2-.35 1.08-1.32-1.55.34-.27-2-2.56-.17.55-2.66-2.3-1.17.52-2.73-2 .52.52 1.41-1.43.94-5.63-2.89-2.26 2.31h-2.31l-4-3.81.88-6.22-2.21-3.65-2.56 1.56-3.81-4.52-2.61-1-1.84.74 1.61-6.21-2-1.13-4.1.92-1.35-1.44 1.86-2.38-1.25-4.67-1.71-.19-.16-1.26 1.63-.79-.51-3.54" transform="translate(-64.79 -75.12)"/><path id="path6602" class="cls-2" d="M164.48 307.51l4 1.91 1.64-3 8.16 2.07.36 8.14 3.81 5.13-1.77 1.63.91.5-.68 2-2.51 2.21-2.36.17-1.85 4.88-2.39-1-2.28 1.29-.52-1.66-1.27.15.42-2.62-2-5.49.69-2.61-4.69-3.15 1.74-2-4-2.64.49-2.24 3.92-.37.2-3.32" transform="translate(-64.79 -75.12)"/><path id="path6604" class="cls-2" d="M306.49 203.6v6.75l6.84 10.65 7.41 4.19 18.75 2.1 1.94-.42 12.4-20.52-10.06 23.45-1.19 9 .37 4.27 4 7.56 1.2 5.13L351 258l3.79-1.78 3.59 3.52-7.64 9 3 1.56-1.42 6.82.83 1.38-3 2.33-3-3.72-1.62 1.24-1.8-2.53-1.67 1.2-1.3-1.68-1.61 1.26-1-1.27.91-1.3-3.41-3.32-9.84-6.15 2.1 9.78-3.55 5.85 1.3 3.2-5.16 1-4.35 7.61 1.11 1.13 1.46-1.42 2.84 3 3.95-4.08 1.22 1.67 1.6-1.23 3.39 4.47-12.65 8.7 1.79 2.36-4.86 3.79-5.21-2.39-1.92 1.58-1.79-2.39.91-1.65-2.87-3.54-2.6 1.62-.59-.77-.15-3.59L300 299l-2.11-2.84 1.63-1.21-1.84-2.44-3.22 2.45-4.3-5.68 1-.8-1.06-1-4.72.68-1.19-2.16h-1.5v-3l-2.41-.26-.52-3.46-3-2.06-2.11 1.78-1.44-4.38-4.39-2.31-.51-2.7-2.16-2-.88.63.27-2.24-1.88-1.22 2.83-8.58 2.9-3.29 4.42-2.1 1.52-3.19-1.12-1.09 4.76-3.08-2-4.09 1.18-5.3 2.75-1.12 1.85-5.22 2.58 2.24 7.76-3.15 1.24-8.92 2-3.63 10.24-10.67" transform="translate(-64.79 -75.12)"/><path id="path6606" class="cls-2" d="M415 208.15l3.37-2.67 6.38-.72.62-2.66 2.26-1.61 9.47-2.49 2.36-4.74 9.36-2 8.1-7.36 8.5-.22 8.51-3.15 9.18 1.31 6.7 4.19 3.95.87 10.57-2.37 3.81.4 3.93 2.82 1.12 2.88-.62 4.28-6.22 5-23.69-.56-6.73 1-18.07 6.54-19.27 9.45-5.82 8.52-1.23 5 1.5 8.4-.87 3.28-5.27 2.07-8.9-6.81-4.83-9.24-.69-14.33 2.5-5.08" transform="translate(-64.79 -75.12)"/><path id="path6608" class="cls-2" d="M476 105.92l2.46-.59 6.9 2.16 5.28 3.79 2.93-1.4 2.87.89 2.1 3.61-2.38 3.56.47 1.76 5.74-5.42 7.53 1.82 4.8-1.26 3.87 1.47 10.79 10.13v10.19l-1.3 3.1-4.06 2.2-8.16-1.54-6.17 1.89-3.13 2.59-6.62-1.35-1.58-2 .17-2.56-6.19-7.13-8.32-2.4-7.4-9.19-.6-14.32" transform="translate(-64.79 -75.12)"/><path id="path6610" class="cls-2" d="M455.77 94.47l3.76-2.39 2.13 2.27.08 2.78-3.58 1.17-2.39-3.83" transform="translate(-64.79 -75.12)"/><path id="path6612" class="cls-2" d="M199.05 285.09l3.62-1.18 1.16.84 1.81-2 1.62 4.8 6 2 .4 2 2.44-1.83 2.08 2.15h3l-.76 3 1.36 1.81-2.58 1.79-4 6.25 1.77 3-.87.88 1.36 1.45-.5 1.83 2.9 1.62-3.64 6.3-3.38-1.27-1.73 1.68-1.63-1.47-4.92 1.32-2-2.14-1.84.84.08 1.56-3-.37.82-3.41 2.26-1.17-1.42-3.08.91-1.65-2.6-.36-.89-4.28 2.31-3 2.82 1.24 2.21-1.88.32 1.1 1.73-.79 2.73 1.23 1.08-3.12-1.08-2.85-2.65 2.86-2.2-1.31-1.36 1.58-.84-2.47-2.26 2.94-1-.36.64-2.56-4-1.29-.59-3.32-2.2-1.44.09-1.25 3.67-1.82 2.75-4.38" transform="translate(-64.79 -75.12)"/><path id="path6618" class="cls-2" d="M146.7 326.32l2.51 3.44 3.52-.37 1.71 4.38L159 336l1.32-1.08 5.16 5L166 345l-2.07.29 2.08 3.36-1.29 1.44-.8-1.12-1.12.72.44 4.16-2.64.7-3 5.64-3.73-.35.71-3.49-1.54-1 .32-2.22-3.45-.26 2.79-8.36-6.89-3.5-.51-5.65-3.39-2.31 1.21-3.42 2.58-.93 1-2.45" transform="translate(-64.79 -75.12)"/><path id="path6620" class="cls-2" d="M180.14 306.66l3.91.13.22-2.45 5.68 5.2 2.49-2.68 1 1.48 3.67-1.54.7 3.5 2.57.35-.89 1.69 1.14 3.94-2 .31-1.21 5h-1.19l-.57 2.58-1.61.34-1.71 3-1.63-.86-1.53 1.7-1.69-1-2.16 2.89-2.58-1.08-2.05-5.71 1.77-1.63-3.47-4.29.25-2.85-1-.66.73-2.64-1.14-1.73 1.71-.65.62-2.33" transform="translate(-64.79 -75.12)"/><path id="path6634" class="cls-2" d="M201.15 299.07l1.32.07.2 1.91 1.5-1.58 2.16 1.33 2.73-2.82-.45 1.13 1.49.16-.65 4.3-4.9-.16-.35-1.1-2.2 1.88-2.23-.77 1.38-4.36" transform="translate(-64.79 -75.12)"/><path id="path6636" class="cls-2" d="M232.61 278.89l5.7-1.17 2.61 1 3.81 4.53 2.56-1.56 2.21 3.65-.88 6.22 3.56 3.2-1.08 3.79-7.19.8-1.78 2.71-2.35-.47-2.67 2.24-7.09-2.6L224 304l-1.62-3.44-1.66-.42.77-5 6.31-3.37-1.45-2.86 2.05-2.13.11-4.1 1.38-.1.26-1.46 2.63 1.14-.19-3.33" transform="translate(-64.79 -75.12)"/><path id="path6638" class="cls-2" d="M176.13 328.25l5.73-2.56.91 3.4 2.58 1.08 2.09-2.86 1.86.95 1.44-1.7 2.18 1.57-.52 3.26 4.18.89-.31 4.67-8.27 4.76v8.74l-4 .78-1.38-2.88-2.69-1.64-.69-4.41-2.63-.64-.54-3-6.2-3.19 1.94-3.3 3.32.52 1-4.43" transform="translate(-64.79 -75.12)"/><path id="path6640" class="cls-2" d="M168.3 339l3.14 1.44 1.21-3.31 3.39 1.51.75 3.28 2.41.38.89 4.79 2.49 1.26 3.08 5.06-1.66 1.85.51 1 3.43 2.07 1.71 5.36 1.59-.07-.9 1.26 1.47 1.06.16 2.88-1.06 3.24-3.43-1.28-3-4.27-2.63.65-5.75-1.62.31 3.67-2.4 2.23-3.3.3-.27 1.34-3.09-.7-3.35 1.14-3.42-1.4-1.48-3-2.86-1.57.67-2.8-1.56-2.75 2.79-2 2.45-5.41 2.64-.7-.44-4.16 1.12-.72.77 1.13 1.43-2.15-1.7-.42-.5-2.25L166 345l-.35-2.2 1.4-.22 1.25-3.58" transform="translate(-64.79 -75.12)"/><path id="path6646" class="cls-2" d="M219.19 298.47l2.48-.73-.93 2.4 1.66.41L224 304l2.58-1.48 2.11 1.34.65 1.56-2.83 2.94 1.05 1.76 3.27.43 1.55 4.34 4.13 3.49-1.26 1.92 2.08.51 1.71 2.68-1.42 2.6.83 1.43-2.31-.91-.93 1.33-5.8-.58-2.1 2.32-5.2 1-.65-.87-.64-3.12-1.7-.65.6-1.33-2.72-1.63 1.39-1.55-1.88-1.9 3.32-6.1L217 312l.46-1.92-1.36-1.46.87-.88-1.8-2.74 4-6.54" transform="translate(-64.79 -75.12)"/><path id="path6648" class="cls-2" d="M197.88 320l2.9.34-.07-1.54 1.83-.86 2.17 2.16 4.76-1.34 1.63 1.47 1.73-1.68 2.62 1.43 1.28-.6v1.54l1.73.78-1.46 1.38 2.72 1.64-.6 1.33 1.7.65-.29 1.6 2.54 3.57-.86 1.41 2.45 1.71-3.21 2.67.16 2.74-1.67.07-.65 1.44-3.58-1.58-.53 1.31 1.93.24.1 2.6-2.67-2 .07 1.87-1.88.75-5.71-4.86-2.79 2-2.13-.24-.94-3.85-5-.74.42-5.12-2.84.14-2-1.84.74-3.87 3.22-2.59-.22-1.53 2.42-2.58" transform="translate(-64.79 -75.12)"/><path id="path6652" class="cls-2" d="M227.36 302.12l5.83-.44 10.9 6.74 3-2.33 1.05 4.79 4.09 1.75-2.57 3.4 1.79 1.15 1.63-1.44-.83 2.17-3.55 1.09-2.27 4.29-2.25-2.16-3.18 3.21-2.25-1-1.41-2.49-2.08-.51 1.27-1.89-4.1-3.5-1.6-4.36-3.27-.43-.95-1.52.66-2.12 2.06-1.06-2.33-2.22.36-1.12" transform="translate(-64.79 -75.12)"/><path id="path6654" class="cls-2" d="M188.57 340.85l1.88.31 4.75-4.16 2.08 1.07 1.83-1.06 2.31 1.48.68 3.5 2.2.25 2.77-2 3.67 3.27.18 1.21-2.73 2 .29 2-1.14.19.74 1.17-2.23 11.25-7 1.36-1.39 1.76-5.77 2.05-1.07-1 .64-1.88-1.6.05-1.7-5.35-3.96-3.06 1.84-.93-1.67-3 4.12-1.47-1-3.92 1.18-5.06" transform="translate(-64.79 -75.12)"/><path id="path6656" class="cls-2" d="M238 302.62l1.87-1.08 1.89.78 2.19-3 7.1-.76 1.2-3.5 2.7.28 2.19-2.31 5.7 2.89 1.43-.94-.52-1.41 2-.52-.52 2.73 2.3 1.17-.55 2.66 2.56.17.27 2 1.55-.34-1.08 1.32 2 .35 1.44 4.07 3.2 3.43 2.34.56 2.69 3.46 1.61-1.26 1.88 1.46 2.73-2.45 3.27 3.47-2.43 1.9.83 1.08-1.57 1.29 1 1.66-1.39 3.11-1.69-1.67-1 1.33-1.2-.81-1.92 1.13-2.08-1.42-2.13 1.44-1.15-.66-3.26 2.77-2.87-2.44-2.15.22.5-1.56-2.73-3.62-3.94 2.9-7-1.56-.26-3.8-2.8.58 1-2-1.69 1.44-1.74-1.07 2.69-3.16-4.23-2.08-1.05-4.79-3 2.33-7-4.25.88-1.54" transform="translate(-64.79 -75.12)"/><path id="path6664" class="cls-2" d="M353.84 206.39l8.94 6.73 1.79 4.34 4.17 4.43 2.12 7.08-2.69 5.34 8.28 6.45 10.82-.28 4.43 2.47 11.41 1.52 3.66 2.3 8.85 11.23 5 .25 1.25-4.93 4.72-5.42.33-4.37 5.32-2.07 3.46 1.67 2.45 10.52L449 265l4.14 8-7 2.66-.53 1.47 3.18 2.81-.44 3.56-1.66 1-4.27-1.5-1.1 1.9-4.18.1-.28 1.86-2.27 1.44-2.94-1.22-3.42 3-8.29.89-7.82-4.3-21.5-15.71-10.79-10.13-3 .58-1-1-1.25 1.75-16.2-2.33-3.59-3.52-4.19 1.69-2.4-2.25-1.2-5.15-2.17-2.67-2.25-9.15 1.19-9 10.06-23.41" transform="translate(-64.79 -75.12)"/><path id="path6666" class="cls-2" d="M378.36 227.36l5.35-3.91 5.88.41 2.48 2.87 1 5.47-.79 3.26-3.84 2.34-7 .59-4.9-6 1.79-5" transform="translate(-64.79 -75.12)"/><path id="path6672" class="cls-2" d="M222 330.61l5.38-.93 2.1-2.32 5.8.58.94-1.34 2 1.09.83-4.35 2 1 3.15-3.23 2.25 2.16 2.25-4.27 6.22-1.89v3.55l3.6 1.58 3.74.31 3.08-2.6 1.7.25 1.9 3.06-.5 1.56 2.15-.22 2.87 2.44 5.89 8-5.06 2.79-3.72-3.62-5 5.39-5.29-3.09-1.87 2.06-2.47-.89-.82 2.17 1.28.88-2.12 1.16-.38 3.77-4.79 2.07.32 4.77-6.19 1.9-1.47-1.46 1.76-1.78-1.9-.41-2.44 1.83-3.57-.74-1.69 2.92-3.18-2.85 1-.85-1.89-2.42.7-3.28-1.59-4.58h-3.36l-3.25-3.78 2.38-1.64-2.5-2.08.85-1.4-1.09-1.27" transform="translate(-64.79 -75.12)"/><path id="path6674" class="cls-2" d="M210.32 344.48l2.46.59-.37 1.93 2.12.56-.85.71 1-.6 2.17 2.32 1.27-1.62 2.56 2 .81 2.58-1 2.46 1.91 3.79 1.52.9.92-2.26 2.44.24 2 3.73 2.28 1.75h2.59l-.73 6.29-1.3 1.31 1.24 4-5.15 6.18-2.68.17.13-2-2.25-1.1-4.42.75-.82-2.86-2.35-.06-1.5-2-1.32.76-1-5.23-3.6 1.15-1.79-4.75-2.88-1.5.1-1.92-1.77-.16 4.12-2 1.09-11.61 3-4.44" transform="translate(-64.79 -75.12)"/><path id="path6676" class="cls-2" d="M215.74 340.36l3.62 1.53 2.28-1.47-.25-2.67 1.32-1.3-.65 1.1 1.1-.53 2.45 3.83 3.33-.06 1.58 4.57-.7 3.28 1.89 2.42-1 .86 2.8 2.79 2-2.87 3.6.73 2.34-1.8 2 .38-1.74 2 2.37 1.26-.18 1.19 1.32-.27-2.36 5.51-1.81 1.16.73 2.22-1.4.66-5.06-2.41-3.77 1.09-2.55-2.1.26-1.61-3.41-2.29-1.61 2.37-1.81-.77.18-1.31-1.82-1.3.76-3.65-1.97-3.9-1.46-.62-1.36 1.62-2.08-2.31-1 .6.88-.7-1.75-.41.9-.68-1.3.52-.41-1.69 2.69-1-.07-1.87 2.79 1.79-.23-2.34-1.88-.1.47-1.45" transform="translate(-64.79 -75.12)"/><path id="path6680" class="cls-2" d="M192.31 365.77l9-3.83 2.54.78-.1 1.92 2.88 1.5 1.79 4.75 3.6-1.15 1 5.23 1.27-.73 1.5 2h2.35l.82 2.86 3.15-.86 3.46 1.16 1 4.5 4.31 3.33 2-1.14-.09 1.54 2.24-.6 2.19 1.53-1.87.74 1.89 2.51-.92 3.31 3.06 1.14-.83 1.27.44 1.52 1.39-.12-.56 3.46 2.24 2.7-1.45.85 2.72 3.67-1.58 3.62-1.62-.09V412l-1.74 1.5-3.48.31-4.47-.8-2.61-2-1.94 2.59-6-.76-1.15-1.84-3.4 7.92-4.87-.45-.77-1.92 1.55-9.12-3.25-1.51 1.07-1.51-2-1.52.86-3.22-4.38-.84-1.33-1.26 1.47-1.15-.66-2.33-2.63.79-2.86-3 3.51-2 .58-4.46-4-5-1.26.73-.87-2.2-4.8-1.95-.47-5 1.47-1.63.61-4.59" transform="translate(-64.79 -75.12)"/><path id="path6546" class="cls-2" d="M66.48 360.14l5.09-1.22L72 363l-1.16.21.71 1.22-2.12 3.44-1.26-1-2.51 1-.66-4.47 1.46-3.26" transform="translate(-64.79 -75.12)"/><path id="path6548" class="cls-2" d="M70.6 347l2.83-.58 4.92 1.72 6.15 4.42 2.93-.9 1.46 8.45 1.3.83-.61 4.3 1.91 1.76-1.27 5 2.94.44 4.36 6.51-4.85 2.54-2.24 2.71-3.32-1.68-3.34-4.93-5.29-1.44-2.67-3.29-6.61-1.07-3.34-3.55 2.34-1.38 1.26 1 2.12-3.44-.71-1.22 1.14-.11-.7-9.35-2.31-3.83 1.61-3" transform="translate(-64.79 -75.12)"/><path id="path6626" class="cls-2" d="M93.47 381.48l4-2.44 18.53-3.17 7.8 5.88-1.65 1.69 1.61 1.61-3 2.19.76-.64 1.52 2.32 2.23-1.17 4.55 5.76-2.38 2.08 1 1.06-1.93 2.94 3.16 4.64 1.08-.16-1.91 1.56-1.84 5.18h-1.49l-1.79-2.41L122 410l-1.7 3.92 1.91 1.37-1.59 3.57 1.24 1.54-2.53 1.53-1.66-.65-.23 4.2h-2.11l-.09 2-4.89.07-1.71-5.14-1 1.43-4.68.77-1.59 1.88-3.56-4.78-5.13.93 1.4-16.64-3.46-13.21 1.33-4.71-1.51-4 3-2.67" transform="translate(-64.79 -75.12)"/><path id="path6642" class="cls-2" d="M124.31 376.11l3.94-1.72 3.13 2.34 2.25-1.08 5.54 6.47 1.61-1.59 3.57-.22-.48-1.69 1.06.32 1.6-2.53-.66-1.61 3.14-1.08.5 1.6h1.37l-1.27-1.83.65-2.35 1.67 1.62 3.58.17 1-3 2.58-.8 1.48 3 3.42 1.4 3.33-1.12 3.09.7 1.12-1.4-.37 9.87-6.38 4.07 1.94 2-.65 5.48-2.53 1.87-5.38-2.46-.78 1.87-.82-.67-2.63 1.88 3 3.37-2.51 7.27 4.58 5.44-1.46 2.44.83 1 1.51-1.15 3.11.33-3.33 4.38-2.7 1.84-6 .12-1.42 3.34-1.09-.2.55-2.1-2.94 1.4-2-1.92.13-5.23-2.35-1-1.62-5.42-2.22 2.63-1.3-1.42-2.13.7-1-1.94-1.57 2.37-3.74-3.54.47-2.7 1.91-1.56-2.2-1.09-2-4 1.93-2.31-1-1.06 2.38-2.08-4.55-5.76-2.23 1.16-2.39-2 3.15-1.88-1.61-1.61 1.65-1.69-2.1-2.07.84-2 2.47-.79-.66-.79" transform="translate(-64.79 -75.12)"/><path id="path6650" class="cls-2" d="M103 399.39l1.27-.87 2.41 4.46 4.72.88.39 3.15 2.39 2.09.17 1.89-3.18 7.74-1-1.09 1.86-1.33-.1-2.64-2.36 1-1.85 3.33-1.47-.29-2.05 3.29-2.65.84-1.85-6 2.14-2 .36 2.54 1.16.29 1.22-1.11-.51-2.56 4-2.65 1.08.56 1.88-3.44-1.89-.74-.54-2.35-.51 2.71-1.26-.09-2.79-3.49-1.04-4.12" transform="translate(-64.79 -75.12)"/><path id="path6658" class="cls-2" d="M103 424.64l4.68-.77 1-1.43 1.92 3.11-.81 1.39 2.11 1.1 3.36-.53.11-2h2l1.5 1.18-.78 2 3.39 4.46-4.63.18-.2 1.25 1.9 1-1.55 2.63-1.1 1-2.21-.87-4.66 2.8-4.79-5.25-.07-2.89-2.37-3.68-.39-2.74 1.56-1.89" transform="translate(-64.79 -75.12)"/><path id="path6660" class="cls-2" d="M122 410l1.77-1.55 1.79 2.41h1.49l1.22-2.49L134 415l2.2-1.12 1.14.77-1.6 1.54 6.37 1.6 1.17 6 2.47 3.38-1.13 6.34 2.31 4.51 1.81 10.07-4.27 1.71-3.07-.74-.92.76 1 1.73-1.69.92-2.75-.89 2.59 2.87-3.26 2.39-1.86-3.4-2.19 2.31-1.81-.67.85-2.14-3.47-3.38 2.79-1.08-2.13-.27-1.22-3.21-3.1.62-3.05-2.82.6-2.46-3.67-.83-1.16-1.51 1.55-2.44-1.9-1 .12-1.21 4.84-.69-3.52-4 .78-2-2-2.61.85-2.87 1.66.65 2.53-1.53-1.26-1.3 1.6-3.7-1.91-1.37L122 410" transform="translate(-64.79 -75.12)"/><path id="path6662" class="cls-2" d="M176.06 365.57l5.79 1.61 2.61-.65 3 4.27h1.88l1.31 6.2 4.83 1.9.87 2.2 1.26-.73 4 5-.58 4.46-3.51 2 2.86 3 2.63-.79.66 2.33-1.47 1.15 1.33 1.26 4.37.81-.85 3.25 2 1.52-1.05 1.56 1.26 1.08-2.76.79-.29 1.5-5.05-.31-5.43 4.25-.71 3.9-6.3 1.52-1.5-5.62h-6.12l-2.45-1.87.75 1.84-2.55-2-5.47 2.26-1.69-1.69 1.32-1.27-.88-1.85-2.9 3.64-1.85-2-2.25.48-1.78-1.16-2.74 2.29-4.19-5.5 2.51-7.27-3-3.39 2.61-1.86.82.67.78-1.87 5.38 2.46 2.55-1.87.65-5.48-1.94-2 6.26-3.84v-8l.8-2 4.32-2.11-.11-4.1" transform="translate(-64.79 -75.12)"/><path id="path6668" class="cls-2" d="M133.46 409.55l1.07 1.89 2.13-.7 1.3 1.42 2.28-2.61 1.62 5.42 2.35 1-.11 5.29 1.94 1.86 2.94-1.4-.53 2.08 1.09.2 1.48-3.31 6-.12 5.85-5-.49-1.76-1.3 1.19-3.53-.85 3.81-4.66 1.78 1.16 2.25-.48 1.28 2.17 3.47-3.77.88 1.85-1.32 1.27 1.69 1.69 3-1.12 1.12 6.19 1.38.77-2.05 3.78v5.54l4.55.93.61 1.53-3.54-.68-1.94 5.71.55 5.2-3.84-.38-.73 1.39-4.88-2.3-2.83 3.64-1.65-.61.67 2.85-1.43.83 1.09 3.1 5.64 3.66L165 456l.66 3.23-2-.81-6.66 2.7-2.91-3.49-.58-3.76-5.06-5.7.55-2.17-4.48-12.51 1.13-6.34-2.47-3.38-1.06-5.89-4.62-.47-1.86-1.26 1.69-1.44-1.23-.87-2.34 1-1.8-3 1.45-2.32" transform="translate(-64.79 -75.12)"/><path id="path6678" class="cls-2" d="M110.11 440.89l3.53-2.53 2.26.83 1.12-1 4.77 2.15-.6 2.46 3.05 2.82 3.1-.62 1.19 3.15 2.17.32-3.6 1.46.52 1.7-2.35 2.49-2.59-1.12.31-1.25-2.79 1.31-.13-2.25-5.4 1.68-2.13-1.21-.24-5.28-1.93-1.77-.27-3.38" transform="translate(-64.79 -75.12)"/><path id="path6682" class="cls-2" d="M113 451.68l1.63.82 5.4-1.68.13 2.25 2.79-1.31-.27 1.24 2.59 1.14 2.35-2.49-.84-1 1-1.32 3.6 3.55-2 2.77-2.15-2.6-1.32.95-1.57 2.81 1.22.56-.3 4-2.72 1.22-.8-2.27-1.28 1.78-2.76-2.25-4.09-.86-.91-2.55 1.68-.41-1.38-4.35" transform="translate(-64.79 -75.12)"/><path id="path6684" class="cls-2" d="M125.88 454l2.47-.29 1.7 5.55-4.12 5.41-3.25.67-.76-1.72-1.66.81 1.45-4.15.8 2.27 2.72-1.22.3-4-1.22-.56 1.57-2.81" transform="translate(-64.79 -75.12)"/><path id="path6686" class="cls-2" d="M130.35 454.48l1.94 1.24 2.19-2.31 1.86 3.4 1.28-1.25 2.53 3.2 1.1 1.82-1 1.13 4.22.64-1.11 1.29 1 1.9-5.72 1.35-3.47 6.49-2.74-2.05-1.5 1.39-4.7-.22-3.23-3.56v-3.58l2.94-.67 4.12-5.41-.81-3.12 1.11-1.68" transform="translate(-64.79 -75.12)"/><path id="path6688" class="cls-2" d="M174.4 412.23l2.45-1.14 2.55 2-.75-1.9 4 2.21 4.23-.52 1.62 2.24.2 3.57-3.11 1.55 2.55 5.43-1.7 1.43.58.9-1.9-.07L184 431l.48 1.94 1.59-1.28 3.89 5.07-.36 5.75-2.38 9.47-2.51-.88-.87-1.93-1.65 2 2.61 5.25v7.09l-6.72-.52-3.57 1.18-4.33-4-3.79-.18L165 456l2.11-2.59-5.64-3.66-1.09-3.1 1.43-.83-.7-2.82 1.65.61 2.83-3.64 4.88 2.3.73-1.39 3.84.38-.55-5.2 1.94-5.71 3.57.65-.59-1.61-4.55-.93v-5.54l2.05-3.78-1.38-.77-1.12-6.19" transform="translate(-64.79 -75.12)"/><path id="path6692" class="cls-2" d="M137 451.55l2.75.89 1.69-.92-1-1.73.92-.76 3.07.74 4-1.6 5.06 5.7.58 3.76 2.91 3.49-1.93.26 3.35 1.51.86 2.63-1.56 2.48-2.71.5 2 2.85-.73 2.6-5.18 1.35-5 4.42-3 18.63-6.3.55-3.25-1.16-4 1.43-3.3-4.22.87-9.79-1.82-.65-3.28-10.77 3.75-1.44 5.12.42 1.48-1.39 2.76 2 3.44-6.48 5.72-1.35-.61-4-.34.89-3.34-.94 1.21-.87-3.31-4.71 1.66-1.46-2.54-2.86" transform="translate(-64.79 -75.12)"/><path id="path6694" class="cls-2" d="M325.84 264.58l9.84 6.15 3.41 3.32-.91 1.3 1 1.27 1.61-1.26 1.3 1.68 1.67-1.2 1.8 2.53 1.63-1.24 3 3.72 3-2.33-.83-1.38 1.42-6.82-3-1.56 7.64-9 16.2 2.33 1.23-1.73 1 1 3.05-.59 8 8.06 31 21.71 9.39-.51 1.78-2.52 2.89-.64 1.65 1.42 2.31-1.44.3-1.86 4.19-.09 1.82-2.07 3.6 1.63-3.46 5.45 3.3 2-1 2.92-2.25-.56.21 2.77-6.12 1.51-1.71 2.71-10.95.6-6.85 5.26-5.8-.7-6.34 4.17-4.4 1.11-1.46-3.21-4.84 1.25-.38 1.91-2.6 1-1.18 5.76-2.65 1.11-8.21 8.63.37 2.29-2.51 3.65.86.84-7.93 8.87-3.91.1-11.26-8.23-1.26.82-.79-1-2.49 2.32-2-2.33-1.61 1.31-1.94-2.31-3.84 1.92-4.68-5.62-1.55 1.34-.64-.76-1.29-1.61 1.54-1.34-2.21-2.71-1.62 1.3-1.57-1.92-1.59 1.24-1.91-2.46-3.16 2.6 1.77 3.88-2 2-1.32-2L316 332l-.34-2.59-3.36.4-5-2.8-5.86 4.99-1.44-1.43 1.8-1.54-1.89-3.27 1.9-1.5-2.49-3 3.54-4.42 3.52-.81-.38-2.48 4.8-5.51 5.22 2.35 4.84-3.75-1.79-2.36 12.65-8.7-3.39-4.47-1.6 1.23-1.22-1.67-3.95 4.08-2.84-3-1.46 1.42-1.11-1.17 4.39-7.64 5.16-1-1.3-3.2 3.55-5.85-2.1-9.78" transform="translate(-64.79 -75.12)"/><path id="path6696" class="cls-2" d="M232.8 363.1l2.51-.67 5.7 2.3v-2.77l2.5-2.8.93 3.27 3.14 2.28-1.18 2 1.51.61 2.45-1.26-.29 1.42 2.74.26.78 3.25 2.37 2.14 1.51-1.69 3.16 1.11-1.31 4.66 2.58 3.24-1.06 3-2.61 2.39-2.51-.16-.13 1.4-5-5.61-2.16 1.35-2.38-3.28-3.35 2.29-2-1.75-1.6.51.19 2.5-1.85 1.58 1.36.92-.03 3.41-3.7-1.88-2.24.6.27-1.5-2.29 1-4.21-3.24.54-1.42-1.28-.76 3-1 4.53-5.63-1.24-4 2.2-6.41-1.5-1.66" transform="translate(-64.79 -75.12)"/><path id="path6698" class="cls-2" d="M255.39 338.18l3 .39 2.16-2 4.79 2.73 1.38 4.31 4.75.2.27 1.73 1.84.68 2-.9 2.6 2.29v1.52l3.49-1.53-2.24 3.4 2.57 2-1.26 1.84 1.39 1.59-2.16 2.87.68.88-2.61.42-.26-2.09h-2.33v-1l-1.8 1-1.45-1.51-1.49.25.13 1.29-3.14-.47-1.22 1.07-1.59-1-.56 1.1-1.26-3.66.84-2.06-2.24-2.72L263 349l-9.49-3.4.74-3.69 2.13-1.16-1.27-.87.28-1.68" transform="translate(-64.79 -75.12)"/><path id="path6700" class="cls-2" d="M249.23 347.52l5-1.93 2.73 1.83 5.29.8.75.78-1.33 1.78 2.24 2.72-.09 5.83-2.73-.72-1.41 1.79-4.24-.51-1 1.31 2.38.24-.56 2.67-1.64-.53-.84 1.74-1.11-1.13-1 1.81.34-1.48-.74 1-1.27-2.59-2.86 1.52-2.73-2-1-3.62 1.83-3.87-1.39.67.11-1.37 5.7-2.06-.52-4.67" transform="translate(-64.79 -75.12)"/><path id="path6702" class="cls-2" d="M247.46 364.47l.31.95-.31-.95" transform="translate(-64.79 -75.12)"/><path id="path6704" class="cls-2" d="M293.11 305.81l2.35 2.31 9.65-6.13 2.87 3.58-.91 1.65 1.79 2.39-3.36 4.79.84 1.57-2.86.28-4.2 5 2.49 3-1.9 1.5 1.89 3.27-1.8 1.54.9 1.1 4.68-4 1.36.74.37-1.41 5 2.8 3.36-.4.37 2.61 6.38-1.51 2.9 4.94 3.45 1.59.09 1.92-3 3.92-5.31 2.32-.86 2.82 2.06 1.13.19 1.73-1.8.66-.59 2.75-1.72.06-1.67 2.67-3.57-1.88.57-2-1.2-.75-1.45 1.24-2.78-3.88-3.15-.39-2.4 1.68.06 2.61-1.89 1.14.07 1.42-4.57 1.47-2.5-1.73-1.91 1.82-.77 5.56-2.63 1.59-1-1.17-1.77 1.51-1.38 4.19.86.68-2 .68-1.71-3.51 1.44-2.3-1.17.48-.62-1.15 1.51-4.4-2-.62 1.7-1.71-1.18-2.68L282 353l-2.56-2 2.27-3.32-3.53 1.49v-1.52l-2.6-2.29-2 .9-1.84-.68-.27-1.73-4.74-.19.18-2-1.91-2.1 3.37-1.95.19-2 2-1.4 3.72 3.62 3-2.33h1.94l-.79-2.79-5-4.72.14-1.21 6.35-3.32 2.08 1.42 1.92-1.13 1.2.81 1-1.33 1.75 1.67 1.39-3.11-1-1.66 1.57-1.29-.83-1.08 6.84-7.39-2.66-1.4v-3.19" transform="translate(-64.79 -75.12)"/><path id="path6706" class="cls-2" d="M247.31 364.27l2.73-1.36 1.2 2.59.83-1-.34 1.5 1-1.81 1.12 1.14.82-1.72 1.65.5.56-2.67-2.38-.24 1-1.31 4.26.51.42-1.51 3.59.49 1.19-1.27 1.59 1 1.22-1.07 3.14.47-.13-1.29 1.49-.25 1.42 1.52 1.8-1v1h2.33l.26 2.09 2.37-.16-.28-1.23 2 .61-1.45 4.51 1.89 1.22-1.41 1.09.18 2.38 3.46 2.5-2.43-.47-.41 1.89 2.08.61-.55 1.18 1.85-.25.45 1.84 2.17-1.6 2.05 3.51.91-1.66.35 1.13.88-.66-1.19-2.37 3.89-.05.85-1.26 1 1.08-3.17 1.58-.57 2.17 1 1.94 1-2.35 1.88 1.62-4.94 2.29 3.21 1.6 1.44 4.86-7.83 2.17-3.13-1.63.81 5-4.17 2.52-3.69 5.69-1.48.22.33-2.09-1.45-.34.65-2.23 1.33.7.36-1.5-1.61.09-1.14-4.36-3.25-.14-.42-1.79 1.18-1.14-1.36-3.12-1.37-.06.74-.92-3.33-.57-2.11 1.82-.73-1.7-2-.27.59-2.44-4.13-4.79 1.33-4.66-3.16-1.11-1.55 1.71-2.37-2.14-.78-3.25-2.74-.26.29-1.42-2.4 1.25-1.51-.61 1.68-2.09-.81-.39" transform="translate(-64.79 -75.12)"/><path id="path6708" class="cls-2" d="M239.24 380.65l1.6-.51 2 1.75 3.35-2.29 2.38 3.28 2.12-1.37 5 5.63.13-1.4 2.51.16 2-1.72 1.63-3.67 1.53 1.55-.67 2.32 2 .39.73 1.7 2.11-1.82 3.33.57-.8.87 1.41.1 1.38 3.12-1.18 1.14.42 1.79 3.55.64-.59 1.55-1.72-.61L272 395l.33 2-7.15 3.71-.18 1.89-2.76 2.78-4.54-.09-1.87 2.33-1.74-1-1.21 2.38-1.64-.26-2.39 3.13-6.45-.26 1-2-2.74-3.61 1.44-.87-2.24-2.7.56-3.46-1.39.12-.11-3.28-2.56-.64.92-3.31-1.89-2.51 3.55-.59v-3.11l-1.36-.92 1.85-1.58-.19-2.49" transform="translate(-64.79 -75.12)"/><path id="path6710" class="cls-2" d="M242.4 411.62l6.45.27 2.39-3.13 1.64.26 1.22-2.44 1.74 1 1.87-2.33 4.54.09 3.56-5.17 6.53-3.2-.46-1.67 1.39-1.43 2.37.43 1.37 2.78 1.26-.47-.37 1.5-1.33-.69-.64 2.21 1.45.34-.38 2.13 1.53-.15-1.64 3.79.18 6.29 3.47 5.59-1.8 5.24 1.78 1.11-1.35 1.38-.67-1.14 1.06 2.73-1.7 2.32 1.77 1.67 3.59-2 .71 2.17 1.54.28-2.23 3.3-2.86.48 2.28.51-.84.24 1.25 2.52-2.4 2 .55 1.5-1.64 1.64 1.25.65.71-2.14 1.17 4H287l1-1.16 2.25 4 3.26 1.36 4.49-5.38 1.79 1.44.59-2.25.82 3.26 2.19-1.86 1 2 2.77.52 1.73 2.38L308 452l-3.12.81-.47 3.06 2.66 2.83-1.79 1.24 3.4 2.64-.76 1.42 3.29 3.3.27 2.56-1-.32-3.84 4.46-8.22-2.83-1.54-3.91-3.79 2.41-2.46-1 .85-1.73-4.5-5.63 1.31-2.54-1-3.06-1.85.55-2.18-2.72-1.73 2.22-2-.66-.46-4.11-3.52-1.99-.66 1.26-.55-2.26-9.61 1.86-2.36-6.16 1-1-2.37-3.54-2.42 5-2.13-.2v-1.35l2.65-1.84-1.17-1.77.33-4.09-1.77-2.71 1-1.76-.83-2.66-5.6-3.48 1.4-4.36-4-1.52-3.22 1.22.53-1.31-2.46-1.07 1.7-.84-.18-1.23-2.45-3.56" transform="translate(-64.79 -75.12)"/><path id="path6712" class="cls-2" d="M291.39 357.77l1.91-1.82 4.77 1.7 4.12-4-.05-2.65 4.08-1.86 4.24 4.46 1.44-1.25 1.22.76-.57 2 3.57 1.88-1.79 2.3-.33 4.47-4 3.58.8 2.26-1.89.76.85 1-1.47 3.39-2.06-.65-2.5 1.82-.83-1.64-1.58 2.49 1.71.67-1.25 5.36-4.22.93-.71-1.14-2 .61-2.85-1.26.13-1 2.32.18 2.42-1.72-1.88-1.62-1 2.35-1-1.94.57-2.13 3.15-1.62-.93-1.06-1.36 1.34-3.43-.05 1.19 2.37-.88.66-.35-1.13-.95 1.64-2-3.51-2.12 1.59-.45-1.84-1.85.25.58-1.16-2.1-.63.35-1.92 2.46.49-1.18-.84 1.49-5.41 1.77-1.52 1 1.17 2.65-1.57.77-5.56" transform="translate(-64.79 -75.12)"/><path id="path6714" class="cls-2" d="M301.47 376.59l1.76.73-1.76-.73" transform="translate(-64.79 -75.12)"/><path id="path6716" class="cls-2" d="M323.15 326.48l3.16-2.6 1.91 2.46 1.59-1.24 1.57 1.92 1.62-1.32 2.28 2.76-1.54 1.34 1.29 1.61.64.76 1.55-1.34 4.68 5.62 3.84-1.92 1.94 2.31 1.61-1.31 2 2.33 2.49-2.32.79 1 1.26-.82 11.17 8.17 3.89.57-3.43 3.47-1.18 4.45-2.73 3.43-7.42 6.19-.65-.82-3.63 1.09-2.49 2.29 2.36 6.65-3.25 3.8 1.2 1.84-1.36 2.77-8.25 1.5-.81 4.51-3 .56.28-1.57-2.91-1-4 6.33-6.12-1.57-.44 3.05-2.69 3.5-2.59 1.07-2.38-.8.1-4.53-3.55-.81.3-2.5-5.46-1.52-1.73-5.12-2.29 1.41.23-4.73-1.7-.6 1.58-2.49.82 1.69 2.5-1.82 2.06.65 1.47-3.39-.85-1 1.89-.76-.8-2.26 4-3.58.32-4.44 2.53-4.19 2.65-.84.59-2.75 1.8-.66-.19-1.73-2.02-1.23.62-2.52 8-5.21.44-3.26-.89.45-4.56-4.16 1.65-3-1.77-3.88" transform="translate(-64.79 -75.12)"/><path id="path6718" class="cls-2" d="M301.47 376.59l1.76.73-1.76-.73" transform="translate(-64.79 -75.12)"/><path id="path6720" class="cls-2" d="M285.29 389l3.4 1.29 7.65-2-1-5.47 2.38.91 7.31-3 1.73 5.12 5.29 1.39-.05 2.66 3.52.79.07 4.83 4.75-.55-.79 3.62 2.08.41 2.69 2.91 1.75-.28 1.21 2.72 1.72-.7 1.74 1.26-3.94 3.33 1 1L326 411l1.8.19.5 1.68-3.53-.9-2.86 1.62.11-1.18-1.61-.33-.57 1.48-1.15-.73.78 2.3-1.25.48-1.51-1.48v-2.79l-3.48 1.88 1.76-2.82h1.35l-2.82-4-2.3-.45-2.09 1.47-.19 2-1.52.59 1.86 8.67 3.78-.06.68 2.07 4.32-.16 1 1.27 4.39-1.81 2.15 2.06-5 2.77-2.18 4.18-2.15-2.13-2.77 1.65-1.83-.56-3.43 3.77-2.6 6.47-1.11-.54-3.63 4.18-1.07 4.55-1.83-1.49-4.54 5.37-3.23-1.32L288 445l-1 1.16h-4.26l-1.17-4-.71 2.14-1.25-.64 1.64-1.64-.55-1.51 2.4-2-1.25-2.53.84-.24-2.28-.51 2.86-.48 2.23-3.3-1.54-.28-.71-2.17-3.59 2-1.77-1.67 1.7-2.32-1.06-2.73.67 1.14 1.35-1.38-1.78-1.11 1.8-5.24-3.46-5.69-.18-6.29 3.48-7.77 6-4.3-1.12-4.64" transform="translate(-64.79 -75.12)"/><path id="path6722" class="cls-2" d="M269.66 449.08l.67-.52-.67.52" transform="translate(-64.79 -75.12)"/><path id="path6724" class="cls-2" d="M339.38 428.13l1.21 1.35 1.19-.65-.32-3 1.83-.09.38-1.45 3.09 1.14-.48-1.43 1.77-2.14-.5-5.89 1.19-1.85 4.62-1.37.34 1.38 4 .82.46 1.74 1.66-.92 3.36 4.24 2.63-2.85 4 .72-.59 6.92-.95.34 3.39 2.4.48 4.41 1.38-.4 1.36 2.4 2.17-.17 3.35 2.89-.73 3.13.89 1.06 4.16 1.49-.61 1.7 2.14 4.78-1.49 1.32-3-1.47-.95 2.94-17.29-3.62.46-1.14-2.27.45-1.44-1.5-.44 1-2.14-.71-1.26 2.45-3.69-3-4.87-1.28-.87 1.11-.67-1.47-3.43-.71-.84-2.57 2.73-1.77.41-2.15-4-1.18v-1.62l-3.55-1.3 1.7-4.48" transform="translate(-64.79 -75.12)"/><path id="path6726" class="cls-2" d="M309.05 407.5l2.09-1.47 2.3.45 2.82 4h-1.36l-1.75 2.81 3.66-1.78-.16 2.7 1.51 1.48 1.25-.48-.78-2.3 1.15.73.57-1.48 1.61.33-.11 1.18 2.86-1.62 3.86.56L326 411l1.79-1.78-.79-1.33 3.73-3-1.66-1.68.93.6 1-1.66 5.59 5.94 3.52.5-.83 1 2.56 2.13 1.3-1.87 2 1.25 2.8 5.4-1.24 8.93-3.09-1.14-.38 1.45-1.38-.31-.12 3.42-1.19.65-1.21-1.35-.49 3.06-1.29.63 3.61 2.09v1.62l4 1.18-.4 2.15-2.72 1.66.81 2.5-5.85-1.5-1.61 1.52.26-1.92-2.76-1.54-1.16.69V439l-2.26-.39-.27-2-1.41-.1-.54 1.37-1.82-1.24.54 2.53-3.35.54 3.92 4-2.37-1.17-1.93 1.89 3 2.57 2 3.58-.76 1.42-7.72-4.55-4.22 2.31.19 5.06-3.76.65-6.08-1.3v-1.42L308 452l.93-1.61-5.49-4.89-2.18 1.86v-2.37l-1.33-1 1-2.18 3.64-4.18 1.11.54 2.6-6.47 3.43-3.77 1.83.56 2.77-1.65 2.15 2.13 2.08-4.08 5-2.77-2.15-2.06-4.39 1.8-1-1.27-4.32.16-.68-2.07-3.78.06-1.86-8.67 1.53-.59.19-2" transform="translate(-64.79 -75.12)"/><path id="path6728" class="cls-2" d="M323.17 388.63l6.46 1.34 4-6.33 2.91 1-.28 1.57 3-.56.81-4.51 8.25-1.5 1.36-2.77-1.21-1.87 3.25-3.8-2.36-6.65 2.49-2.29 3.63-1.09.65.82 7.44-6.19 8.21-13.67 1.72-1 1.33 1 1 1.42-1.09 1.87 6.06 4.69 4.53 10.4-3.33 12.58 1.86 2.4-2.89 8.71 6.12 5.7-.61 9.52 1.52 1.47-2.29 7.87-3.92-.37-1.9 1.34v-1.46l-4.83.23.52 1.48-2.83 2.64.74 1.3-1.74 3.08 1.26 1.37-1.53 1.63-1.66-2.09-3.74-.77-2.87 2.9-3.36-4.24-1.66.92-.46-1.74-4-.82-.31-1.38-4.65 1.37-1.22 1.85-2.35-4.89-2-1.25-1.3 1.87-2.56-2.13.83-1-3.59-.55-5.08-5.75-4.2 2-1.3-2.67-1.75.28-4.83-3.37.65-4.48 2.94-2.6.11-2.82" transform="translate(-64.79 -75.12)"/><path id="path6730" class="cls-2" d="M380.15 328.14l8.22-8.63 2.64-1.1 1.14-5.74 2.54-.92.47-2 4.84-1.25 1.35 3.28 11.65-5.22-.4 5.62 1.7 1.76-4 6.18-2.46 1.29 3.92 3.86-1 2 15.63 4 3.43 2.89-2.46 3.29 3.8 4.79 5.09-1.49 2.08 1.92 1.27-.92-.35-1.75 2.38.51 2.31 3.34 2.36.8 1.71 3-2.09 1.63.28 4.67 2.8 1.51-1.53 6.44 6.12 1.29 2.91-.9 1.29 3.92 4.19 1.87.88 2.28 7.51 1.63 2.47 3.22 2.24-.39 5.88 10 4.36-.54 6.52 1.9 1.18-2.23 5.61-2.83 2.19.18.47 4.11 2.13 2.69 2.84-.74 3.36 1.73 2.43 4.59 3.29-.74 2.67 5.25.32 5.82 6.61 4.32.41 1.91-2.27.78.12 1.16-10.2 3.49-2.06-.12-2.37-3.29-2-.37-7.9 5-1.4-2.07-4.88-1.35.08-1.55-2-1.21-8.85-.27-.62-2.82-7.89-1.28-4.8-3.24-1.67 4.12-2.56 1.19-4.08 9.92-5.63.43-2.5 1.76-.71 3.18-5.07 2.46-12.52-7.9 1-3.19-2.72-1.43-.85-5.84-3.77-5.34.15-1.65-5.15-1.29-1-2.06-5-2.9-1.66.47.66 2.3-5.49.06-2.67 2.88-12.22-.41-1.54 3.2-3.21-.52-3.69-3.12.61-9.54-6.12-5.67 2.89-8.71-1.86-2.4 1.84-8.61 1.36-1.47-.14-4.1-4.36-9-5.93-4.51 1.07-1.91-2.1-2.37 1.08-2.65 4.06-3.56-.87-.84 2.49-3.57-.34-2.37" transform="translate(-64.79 -75.12)"/><path id="path6732" class="cls-2" d="M413 306.56l4.81.67 6.25-5 11.65-.88 1.72-2.72 6.17-1.55-.27-2.72 2.25.56 1-2.92-3.22-1.64.14-1.47 1.21-2.73 3.88-3.16.08-3.42-3.07-2.58.68-1.57 4.81-2.56 5.92.92 5.19-7.79-.5-5.18 2.17-4.36 5.23-4.7 7.78-2 7.75-10.08 6.59-4.13 1.91-3.23 5.63-.12 3.56 3.65 5.39-.09 12.64 4.51 2.6 2.79.22 2.86-2.46 4.41-5.41.51-.35 4.44 8.44-3 .87 6.49-1.52 3.45 6.36 6.36-1.63.18-1.17 2.8-2.83-.64-1.56 2.29 5 6.26-.44 5.57-1.33 1.63.87 1.06-2.94-1-4.23 3.27-.85-.71-.27 1.39-2.84 1.4v2.57l1.81 1 .47 4.5 4.28 1.64.56 1.81 3.17-.07 1.25-2.22.81 1.63-1.12 1.82 2.84 1.38-1.06 1.17 1.46 5.49-1.46.78-.55 3.38-2.87 4.65-3.31-.29 2.09 5.66-2.39 3.4 4.39 9-2 2.32 1.61 4.09-1.88 1.4.37 3.29 2.76 1 1.89 4.9-2.95 6.47 3.68.58.65 2.73 2.7-.64 1.3 1.21-1.2 9.74-3 1-2 3.39-1.79.52 1.72 3.3 1.67.49-2.33 5.65-8.45 7.81-2.67-5.72-3.29.74-2.43-4.59-3.36-1.73-2.84.74-2.13-2.69-.47-4.11-2.19-.18-5.62 2.82-1.18 2.23-6.52-1.9-4.36.54-5.88-10-2.24.39-2.46-3.17-7.5-1.63-.86-2.31-4.18-1.85-1.3-3.94-2.91.9-6.12-1.29 1.53-6.44-2.8-1.51-.28-4.67 2.09-1.63-1.71-3-2.35-.78-2.3-3.34-2.38-.53.36 1.76-1.32 1-2-1.93-5.08 1.5-3.81-4.79 2.46-3.31-3.44-2.88-15.62-4 1-2-3.91-3.86 2.46-1.29 4-6.18-1.69-1.73.39-5.65" transform="translate(-64.79 -75.12)"/><path id="path6734" class="cls-2" d="M372.69 412.6l2.83-2.65-.52-1.47 4.83-.23v1.46l1.91-1.35 3.91.38 2.29-7.87 5.37 2.17 1.54-3.2 11.05.73 3.83-3.2 5.49-.06-.66-2.3 1.66-.47 5 2.9 1 2.05 5.14 1.29-.15 1.65 3.79 5.37.79 5.84 2.72 1.43-.95 3.22 12.73 8.59-8.64 3.59-7-3-2.86 1.11-4.09-2-.59-1.7-5.32-1.41 2.31-3.73-2.1-3.04-6.54 6.21v5.64l-3.05 1.34 1.35 2.48 1.55-1.71 1.5.49 1.19 9.39-2.76.75-2.06-1.64-.42 2.12-2.86.19.78 2.08H405l-.69 3.96-3.28.15 2.33 1.28-2.12-.32.29 3.14-6 3.69-2.62-4.18.67-1.59-1.74 1.3-3.53-3.18-.52 2-2.65-3.24-.4-4.73h-2l-3-2.59.73-3.13-3.35-2.89-2.17.17-1.36-2.4-1.38.4-.48-4.41-3.39-2.4L370 419l1.49.94 1.52-1.54-1.36-.49 1.78-4-.74-1.3" transform="translate(-64.79 -75.12)"/><path id="path6736" class="cls-2" d="M411.45 422.92l6.55-6.22 2.1 3.09-2.36 3.69 5.33 1.4.62 1.72 4.1 2 2.84-1.12 7 3 7.86-3.28 1.18 2.17-2.62.66.58 2.15-1.52.65 2.42 3.47-1.51 3.83 1 .38.88 5.82-1.07 7.22-4.39 2.38 2 .34-.89 1.84 1 2.26-4.2-.87-4.35 2.16.27 1.57-1.78-.88.46 2-1 .22 1 1-2.3 1.44.49 5.53-.93.91 1.31.45 1 4.7-1.44.35-1.93 5.28-2.51-.15v1.37l-3.72 1.19-1.7-1.08-1.8 1.44-1.22-.7-1.61 2.7-2.66-3.74-4.43 1.3-.81-2.15 1.79-2.48 2.93.12 1.45-2.19h-3.93l-4-4.41-1 .92.8 1.6-2.18-.31.61-2.5h1.17l-2.43-4.31-.12 3.51-1-2.13-1.34-.73-1.44 1.64-2.24-2.2-1.34.73-.35-1.55.37-2 1.29.94 2.56-4.08-1.23-2.11 1.57-3.79-.3-3.08-2.46-1.06.51-1.54 3.14-1.18-.29-3.14 2.12.32-2-1.92 2.93.48.72-3.96h1.73l-.77-2.08 2.86-.18.42-2.12 2.06 1.64 2.76-.75-1.2-9.4-1.5-.48-1.75 1.64-1.15-2.42 3.29-1.8-.26-5.17" transform="translate(-64.79 -75.12)"/><path id="path6738" class="cls-2" d="M396.79 455.61l1.16-.58-1.16.58" transform="translate(-64.79 -75.12)"/><path id="path6740" class="cls-2" d="M523.36 252.34l3.23-5.24 7.39-2.42 3.39.16 7.35-5.41 3.8.56 1.79-1.17 1.56-4.19 7.63-2.34 1.56-4.41 3.57-.16 2.13 1.59.29-3.49 1.45-1.42 3.92-.59 3.81 2.7 4.39-2 1.23-3.59 7.82-.53 1.17-5.37 9.61-7.42 3-.19 7.31 4.43 1.85-3.44 5.18-.86 4.9-5.41 4.73-2.23 14 3.88 1.82 2.56-.79 4.12 1.71 1.12 7.5-1.8 7.69 1.68 4.84 3.36 3.28 7.4-.11 10.22-5.88 7.39-6.28 5.17 5.8 1.9.42 1.36-3.69 4.1 2.14 1.51-4.28 3.46 2.31 1.46-.77 1.7 1.92-.42v5.47l3.24 2.77-1 1.77 2.54.49 2.26 2.3 1.64 9.46 3.53 1.36-.26 2.12-10.17 7.92 1.32 2.88-3.09 1-1.23 2.31 1.48 2.47-.76 3.28-5.1-.43-1.12 2.61-5.05 2.49-1.93-.56-1.35 2.28 4.42 7 1.58 20.22-3.75 2.58-.49 1.73-2.29.56 4 2.53 1 4.22-.88 3.73 2.48 2.46-.15 4.45 3.27 1.84-5.19 6.73 1.65 2.07-1.7-.24-.8 4.33 2.65 2 2.42-1.9 4.92 3.26 1.47-.83 2.15 1.49 1.48-1.09 1.13 2.44-5.48 2.81-4.55-1.55.93 2.26-1.47 4.5 1.77 1.77-.57 1.14-1.25-.46.14 3.08-1.69.65 2.64 5 2.09.81-.1 1.73-1.86 1.48.24 4.63-2.92 3 .7 2-7.21 5 1.76 2.2-2.54 1.53-.88 3.2 1.67 5.72 5.74 2 .42 5.08L648 439l-1.91 2.68 1.62 2.8 1.8.22 1.21 4.24-3.7 3.6.33 2.51-2.35 1.02-1.9-2.25-2.17.78.54-1.88-4.15-1.82-1.32-2.68.76-.54-2.15-.5-1.31 1.73-2.17.18.7 5.91-9.91 8.73.25 1.77-2.23 1.3 1.15 5.05-1.46 1.24-2.6-2-2.36-6.92-2.74-.12-1.77 3.89-3.21.91-7.23-1.63-4.72 10.44 2.34.88-1.53 1.87 2.28.48.51 5.63-2.37-.09v2.52l-1.66 2-1.57-1.14-1.2 3.42-1.55.76.9 6.34-2.19.89.22 4.56-1.61 4.87-3.61-.79-3.4 3.44 7.57 9.85-1.93.95-1.55-1.5-1.15 2.16-2.92-1.15-2.68 1.95-1.43-1.47-1.51 1.27-2.48-.32-2 6.06-3.15.8-4.45 7.87-7 4.35-2.79.3-3.81-.17-7.88-3.35-1.9.44-2.14-3.58 3.62-5.56 3.07-.15 2.12-3.15.2-3.24 2.34-.28 1.72-2.1-3-6.44 1.49-3.57-1.76-5.89-2.35-2.27.54-2.54-3.21-1.18.22-2.07-2.63-1.61-5.55 1.09-2.52-1.8v-2.74l-2.84-1.87 6.84-4.82-1.77-6.11-2.36-1.27-.85-3.58 1.89-.94-.81-1.31 1.46-3.67-1.42-.68 1.8-.82 1.52-3.37 1.33.47.79-2 1.58.24.61-3.75-8.25-4.19-.35-5.44 4-4.48 3.28-1.2-.78-3.8-4.93-.31-1.63-5.8-2.2-.65-.15-2.69-2.72-1.46-12.7-1.86-.62-1.09 2.49-4.76-1.87-7.4 10.22-3.5-.16-1.15 2.41-1.07-.54-1.62-6.61-4.31-.32-5.37 9.45-9.36-.31-2 1.67-2.15-1.63-.37-1.74-3.33 1.84-.56 1.91-3.32 3-1.05 1.11-7.24-.3-3.14-3.55.06-.65-2.73-3.67-.56 2.87-6.48-1.89-4.9-2.76-1-.36-3.3 1.88-1.39-1.59-4.25 1.91-2.19-4.36-9 2.39-3.42-2.13-5.59 3.33.24 2.9-4.67.55-3.38 1.46-.78-1.46-5.49 1.06-1.18-2.84-1.37 1.12-1.82-.78-1.6-1.28 2.2-3.19.08-.5-1.75-4.28-1.62-.49-4.52-1.81-1v-2.59l2.86-1.4.24-1.37.87.7 4.19-3.15 3 .82-.94-1 1.33-1.61.44-5.57-5-6.26 1.63-2.35 2.75.7 1.16-2.78 1.64-.24-6.37-6.32 1.52-3.45-.87-6.49" transform="translate(-64.79 -75.12)"/><path id="path6742" class="cls-2" d="M584.71 155.65l1.19-2.22 2.28-.87 8.23 2 5.88-1.67 3.49.92 6.54 8.11-2.17 5.42.77 1.68 3.95 1.3 3.66 7 5.83 1.14 5.42 4.52 4.31 6.55 7.24 4.68.08 4.26-3.35 1.73-8.68-2.71-5 2.44-4.18-.41-5.11 3-4.43-.34-1.51-2.75.51-2.32-4.66-6.4-8-3.72-6.69-.71-2.14-1.88-.86-3.88-3.34-2.67-.16-2.1 2-2.23-.14-4.25 4.83-7.39-4.81-3.74-.9-2.49" transform="translate(-64.79 -75.12)"/><path id="path6744" class="cls-2" d="M554.63 152.45l2.07-2.12 3.34-.39 4.44 3.72-1.64 2.1-3.3.52-4-1.41-.88-2.42" transform="translate(-64.79 -75.12)"/><path id="path6746" class="cls-2" d="M542.58 165.06l2.06-2 2.94.47 4.42 4 .18 2.79-2.52 1.46-4.25-1-2.4-2.6-.44-3.11" transform="translate(-64.79 -75.12)"/><path id="path6748" class="cls-2" d="M543.38 226.63l1.72-1.63 2.79.45 2.34 2.8-.47 2.91-2.07 1.12-2.2-.63-2.11-5" transform="translate(-64.79 -75.12)"/><path id="path6750" class="cls-2" d="M590.8 195.54l1.56-2.29 2.58-.5 2.18 1.38.31 2.83-1.6 1.81-2.42.2-2.61-3.44" transform="translate(-64.79 -75.12)"/><path id="path6752" class="cls-2" d="M531.93 231.82l1.62-2 2.63-.2 2.45 2.26.29 2.45-1.68 2-2.5.14-2.53-2.11-.29-2.58" transform="translate(-64.79 -75.12)"/><path id="path6754" class="cls-2" d="M444.1 430l2.62-.66-.63-3.21 5.07-2.46.71-3.18 4.85-2.76 3.28.57 4.1-9.9 2.56-1.21 1.65-4.13 4.8 3.2 7.82 1.31.69 2.85 8.77.26 2 1.21-.08 1.55 4.88 1.35 1.4 2.07 7.61-4.88 2.33.25 2.37 3.29 2.44 1 1.5 6.46-1.67 2.15-.34 3.57 12.89 2 2.72 1.46.15 2.69 2.2.65 1.63 5.8 4.93.31.78 3.8-3.29 1.2-4 4.47v4l.39 1.44 4.87 2.93 3 .56V464l-1.83.26-.21 1.74-1.9-.21-1.52 3.37-1.79.84 1.4.66-2.06 4-1.08-.94-5.67 2.82-.13-1.64-1.83.62-1.48-1.1.42 1.25-1.07.3-6-2.44-5.61 3.57.6 1.06-3.13-.85-7.21 1.76-.74-1.24-1.94.16-3.51 4-1.23-.37-1.5-1.19 1.89-1.8-1.36-4.92 2.27-2.35-.88-1.73-2.25-.1-.8 1.4-8.88-.15-1.47-4.47-7.15-.43-2.83-7.78-6.8-5.47-15.82-6.3-.88-5.82-1-.38 1.51-3.83-2.42-3.47 1.52-.65-.63-2.18" transform="translate(-64.79 -75.12)"/><path id="path6756" class="cls-2" d="M432.21 462.67l2 .56-.21-1.57 4.49-2.16 4.2.87-1-2.26.88-1.85-2-.32 4.39-2.38 1.07-7.22 15.82 6.31 6.8 5.47 2.83 7.78 7.15.43 1.47 4.47 8.88.15.84-1.41 2.2.11.94 1.69-2.27 2.35 1.36 4.92-1.85 1.66.59.85 2.11.84 3.51-4 4.34.83-1 4 1.25 2.81-1.58 1.4 1.94 1.53-1.51 4.11 1.35 2.76-1.69.82.85 4.14-5.22 2.64-7.55-1.1-1.34 2-1.49-2.06-4.58 2.82-2 3.38-2.83-2.28.57-.83-2.82-.88-.48-1.37 1.51-2.19-2.38.18.95-1.32-3.22-2.14-.48-3.73-4.24 2.52-3.57-.28-4.37 3-8.09-1-.27 1.65-2.2-.14-.47-2.23-2.19-.21.24 2.07-2.41.5-6.83-13.17 2.56.27 2.48-3.23-2.44.8-2.81-1.27-.76 1.09-4.48.37 1.93-5.28 1.44-.35-1-4.7-1.31-.45.93-.91-.53-5.53 2.3-1.44-.7-2.94" transform="translate(-64.79 -75.12)"/><path id="path6758" class="cls-2" d="M442.2 499.38l1.72-.58-.31-2 2.19.21.49 2.17 2.2.14.27-1.65 8.09 1 4.37-3 3.57.28 4.21-2.57.48 3.78 3.22 2.14-.95 1.32 2.38-.18-1.51 2.19.48 1.37 2.8 1-.57.83 2.83 2.28 2-3.38 4.58-2.82.77 2 2.05-1.93 6.83 1.18 6.29-2.88 1.24 3.94 1.61-.1 3.19 3.8 1.07 5.44 2.87 2.53 1-.51-3 3.8 2.86 2.43-1.6 2.33 1.65 2.35-4.51 1.5.26 5-4.95 1-2.17-1.79-1.1.52.11 2.11-4.21 3.64-10.46 1.56-1.73 2.49-1.33-1.21 4 3.49-.69 1.06 1.14.74-1.46 1.6-3.37-.1-1.29-3.58-2.94-2.6-2.37-.53-1.5 1.34-1.95-1-1.95 2-6.1-2.66-2.85.13.44-2.89-3-.48 1.69-3.16-3.41-2.47-.74 1.37-1.69-.15-.39 2.78-3.77.56-.36 1.44-6.72-38.65" transform="translate(-64.79 -75.12)"/><path id="path6760" class="cls-2" d="M442.9 504.53l.59 2.54-.59-2.54" transform="translate(-64.79 -75.12)"/><path id="path6762" class="cls-2" d="M443.94 509.31l.2 1.06-.2-1.06" transform="translate(-64.79 -75.12)"/><path id="path6764" class="cls-2" d="M444.41 511.73l1.76 8.3-1.76-8.3" transform="translate(-64.79 -75.12)"/><path id="path6766" class="cls-2" d="M455.23 532.88l.64-.87-.64.87" transform="translate(-64.79 -75.12)"/><path id="path6768" class="cls-2" d="M455.9 532.05l1.07.8-1.07-.8" transform="translate(-64.79 -75.12)"/><path id="path6770" class="cls-2" d="M481.47 541.12l1.33 1.21 1.75-2.49 10.39-1.53 4.29-3.64-.11-2.14 1.1-.49 2.24 1.7 4.95-1-.77-3.74 2.1-2.59 2 .21 4 3.89 2.2-1.17 2.37 2.28 1.57-.33-1 4.15-2.67.56-2 2.86 1.6 1.25-2.13 2.18 3.68 4.21 2.45-1 .91-2.18 1.62 2.42-.3 4.73 5.57 7.86-1.94 1.8-1.1-1.38-2.14 3.06 1.75.48.77 6.35-3.34 1.43-1.09-.94-.4 1.54-2 .49-.54-1.33-.58 1.45-5.22-1.37-2.66 3.55-5.07.61-1.11-.81.53-1.45-2.4-.78-1.07-4.2-1.62-.63 1.91-2.6-1.48-.5-4.26 3.77-4.72-3-2.87-.25-1.38-4.62.76-1.82-5.76-4.35.58-3.14-1.06-1.8 3.37.1 1.43-1.6-4.43-5.27" transform="translate(-64.79 -75.12)"/><path id="path6772" class="cls-2" d="M500 478.48l6.17-1.16 3.13.85-.6-1.06 5.61-3.57 6 2.44 1.07-.32-.38-1.25 1.46 1.15 1.83-.62.13 1.64 5.73-2.85 2 .44.21 1.89-1.69.53.25 2.62 3 2.23 1.76 6.13-8.39 6.53 1.52 6.06-2.51 5.2-1.5.58 1.81 1.52 2-1.53.69 1.89 1.24-.59.7 1.19-2.32 3.16 1.41 2.72-1.55.12-3.1 5.12 2 1.59-1.57 3.66 2.18 2.9-5.61 6.64-2.35.65.87-3.49-1.8.13-2.4-2.28-2.16 1.2-3.84-3.08.63-1.39-1.63-2.16 1.6-2.33-2.85-3.22 1.92-.72 1.09-2.29-1 .51-2.87-2.53-1.07-5.44-3.19-3.79-1.61.1-2.52-6.34 1.8-3-1.4-2.23 1.47-4.31-1.9-1.33 1.57-1.41-1.25-2.81.29-4.32" transform="translate(-64.79 -75.12)"/><path id="path6774" class="cls-2" d="M515.19 539.23l2.09-3.24 5.53-1.78 5.44-6.53-2.19-2.9 1.59-3.62-.76-1.67-1.26.21 3.07-5.22 1.62-.19-1.41-2.72 2.33-3.16-.7-1.19-1.24.59-.67-1.81-2 1.52-1.86-1.66 1.5-.43 2.34-4.44-1.4-6.51 2.14-2.09 2.3 1.91v2.74l1.44 1.27 2.36-.26.46 1.24 4.44-1.41 1.95 1.52-.22 2.07 3.21 1.18-.54 2.54 2.35 2.27 1.75 5.84-1.53 2.88.67 3.58 2.4 3.6-1.72 2.1-2.34.28-.19 3.21L544 532l-3.11.18-3.65 4.68-3.07.4-1.44 2.33.62 2.8-1.69-.21-2.6 2.55-1.7-1.19-1.63.63.27-1.43h-1.1l-4 .86v1.86l-2.51 1-3.39-3.16 2-3.19-1.74-.88" transform="translate(-64.79 -75.12)"/><path id="path6776" class="cls-2" d="M522.06 543.48l3.62-.84.1 1.57 1.42-.66 1.91 1.21 2.57-2.52 1.72.18-.6-2.87 3.26-2.71L539 539l.49 2.34 7.74 1.15 2 1.76 6.6-.13 7-4.35 4.45-7.87 3.15-.8 1.84-4.22-.68-1.31 4.86-1.49 1.38 1.48 2.71-2 2.92 1.15 1.15-2.16 1.55 1.5 1.69-.61.74-2.11 4.55 2 2 3 5.45 2.06v1.73l4.91-.68 2.8 3-3 .43.51 2.41-2.72 3.85.09 1.92 2.73 1.62-1.91 3.9-3.4 1.77-1.12 3.66H598l-2 5.54 1.6 2.28-.26 2.54 2.67 2.35-.21 2.29-3.73 5.25-1-1.06-3.88 3.15-2.87-2-3.88-.84-.93.9-4.71-2.56-2.92 1.83-4.53-2.37-3.17-.06-1.67-2.57-.53-4.76-9.67-1-1.31-1.16.59-1.7-3.15.85-2.15-2.63-1 1.91-4-.32-3.64 3.22-4.16-.1-2.44 2.42-9.71 2.69v-3.78l-1.75-.48 2.14-3.06 1.1 1.38 1.94-1.8-5.58-7.87.35-4.62-1.44-2.38" transform="translate(-64.79 -75.12)"/><path id="path6778" class="cls-2" d="M580.53 513.33l3.4-3.46 3.62.78 1.54-4.41-.15-5 2.2-.91-.9-6.33 1.54-.76 1.19-3.4 1.64 1.14 1.66-2v-2.52l2.37.09-.42-5.44-2.37-.7 1.53-1.85-2.35-.86 4.71-10.45 7.21 1.64 3.23-.91 1.77-3.89 2.74.12 2.36 6.92 2.54 2 1.2-.6-.82-5.72 1.43-.08.55-2.95 9.61-8.32-.84-5.77 3.94-2.47 2.3.59-.77 1.19 2.8 3.19 2.21.15-.28 2.2 2.16-.75 1.94 2.23 2.32-1.07-.34-2.47 3.7-3.61-1.22-4.24-1.83-.23-1.58-2.76 1.84-2.66 3 .25-.41-5.12-5.77-2-1.66-5.73.89-3.19 2.55-1.49-1.78-2.24 7.21-5-.69-2 2.87-2.88-.19-4.72 1.87-1.53.09-1.68-2.07-.8-2.65-5 1.67-.68-.13-3.11 1.25.45.59-1.14-1.78-1.85 1.49-4.45-1-2.22 4.6 1.54 1.86-1.9 3.23-.23-.44-2.67-1.25-.28 1.85-1.22 2.93 5.68-2.88.67-.63 3.28 5.65-.29 2.28 2.38 2.6 6.78-2.06 3.94 1.49 1.85 2.79-.56.76 1.59-1.88 5.59 2.52 4.55-.3 2.94 5.3 1.56-.68 6.25-1.46.46.69 1.06-2 5.07-.23 7.73-1.59 2.9 3.35 5 4.34.31 2.47-4.26 6.37-.27 1.86-1.08 1.6-3.67.52 3 2.5-.6-1 2.37 1.11 3.33.06-2.95 1 .6 4.32-3.74v-4.44l3.29-2.72 2.09-6.32 2.25-1.26.49-3.55 3.08-1.51 6.12.87 3.55 3.67 2.39-.26-1.85 1.9 1.57.26.1 3.56 1.22 1 2.2-.06 1-1.48 1.3 1.24.27-2.71 1.26-.46 4 1.92 2.82 10.3 3 1.11.79 3.21-2.73 1.59-3.63-2-4 .63-1 1.67 1.32 1.72-1.11.5.82 2.94-2.09 2 1 2.19 1.39-.16 2 4.64.59-1.47 1.48.1-.69 6.81-1.2-1.48-3.27 3.92-3.42-1-1.67.93-2.81-1.16 3.18-2.91-2.44-1.18-1.73 2.17-4.09 1-.95 6-4.42.8-1.62 2.72-3.1-1.69-4.42.9-2-3.42-1.72 1.77-2.5-.89-2 1-2.32-2.6-2 4.5-4.2.47-3.81-1.49-1.75 4-2.54-.06-5.14 3-.48 3.26 3.72 3.84 2.14.32-3.08 1.92-.93 5.59 1.88 3.43.19 6.67-1.07 1.78 4.18 1-.36 1.26-5.9 15.45-13.51 13.06-4.04 7.2-8 3.57.28 4.53-3.25.24-3.1 2.23-.3-4-4.63-.74-.33-4-3.89-2.36-1.78-2.91-5.21.15.26-1.27-4.52-4.11-6.53-4.13-2.69-5.59-3.11.8-.3 1.52-3.74 1.24-1.16 1.85-2.47-2.58-4.83.71-.09-1.76-5.38-2.06-5.43-5-2.93.59-6.36-8.67" transform="translate(-64.79 -75.12)"/><path id="path6780" class="cls-2" d="M603.09 539.3l2.56-3.37-.08-3.47 2.43.9 1.17-3.12 7.1-3.57 2.69 5.59 6.61 4.13 4.52 4.11-.26 1.27 5.19-.17 1.73 2.94 3.89 2.36.33 4 4.64.69.3 4 3.1-2.23 3.25-.24-.26-4.48 8.06-3.57 4.06-7.14 13.51-13.06 5.9-15.45.36-1.26-4.18-1 1.07-1.78-.19-6.67-1.88-3.43.93-5.59 3.08-1.92-2.14-.32-3.72-3.84.48-3.26 5.14-3 2.54.06 1.75-4 3.81 1.49 4.2-.47 2-4.5 2.32 2.6 2-1 2.5.89 1.72-1.77 2 3.42 4.42-.9 3.1 1.69 1.62-2.72 4.42-.8.94-6 4.09-1 .95-2 3.18.8-3.8 4-.56 4.16 2.07.08 1.22 1.57-.54 2 2.79 4.4 1.55 6.8 3.52-.5 4.51 3.65 1.35 2.93-.67 3.77-8 3.44-3.53 6.56-8 6.8 2.11 4.54 2.19.54-.25 1.45 1.87-.12-1.3 5.57-3.29 3.56-8.05 2.9-1 2.13-2.64-.66-2.2 4.55-5.26 3.35-1.94 4.07-6.16-.49-4.28 4.12-3-1.81-1.06 1.3-2.47-.51-1.7 3.37 1.75 1.6-3.62 5.07 5.68 2.82-5.78 3.25-1.72 2.45.47 2.37-4.45.26-4.52-3.91-4.14.55-7.89-1.71-8 2.82-2 2.32-7.39-.27-.35-1.64-4.92-.89-3.16-3.64-1.94-9-6.17-1-6.52-3.71-5.81-.32-1-1.84-5.83-2.24-1.52-2.82-1.43.12-.18-2" transform="translate(-64.79 -75.12)"/><path id="path6788" class="cls-2" d="M745.54 216l.4-3.05 3.29-1.15 5.21 2 1.57 2.85-1 2.51-2.42.93-5.59-2.24-1.46-1.85m20.72.64l-.13-2.64 1.83-2.58-4.53-2.42-1.81-3.31.85-2.83 2.64-2.16 15.56 1.83 5.13 4.58v2.27l-2.39 2.63-9.41 3.23-3.93 3-3.77-1.67m-28.35-14.7l-2.13-7.57 1.76-1.72 3.21-.48 2.42-7.38 5.11-5.36 20.78-2.74 3.2-2.62 17-6.21 3.22 1 1.77 5.23-3 5.91-5.43 3.47-9.69.63-6.41 11.28-5.14 1.81-5.56 8-5.89.88-7.5-3.22-5.61 1.11-2.15-2m-94.5 142.21l2.3-.51.49-1.73 3.75-2.58-1.56-20.22-4.28-7.38 1.25-1.95 1.93.56 5-2.47 1.16-2.63 5.15.38.68-3.47-1.47-2.19 1.3-2.41 3-.89-1.29-2.9 10.18-7.92.23-2.06-3.56-1.39-1.64-9.46-2.26-2.31-2.54-.45 1-1.8-3.23-2.82v-5.43l-1.9.43.78-1.67-2.34-1.55 4.28-3.39-2.12-1.54 3.69-4.1-.39-1.35-5.8-1.9 6.54-5.47 2.17-4 2.47-1.32.23 3.35 2.82 4.09.37 7.22 1.58.38 5.23-2.59 13-1.05 10.69 5 4.21-2.91.49-2.34-2.8-7.37 1.42-2.74 7.48-1.87 8.64 2.31 6.47-1.53 10.18 4.16 4.17 8.2 1.16 6 4.41 2.45.85 4.39 2.33.26 1.46-1.72-1.37-9.68 1.35-3.4 4.4-1.49 2.43 1.69.82 3.07 1.91.14 4.19-6.24 7-3.22.3-12.53 2.18-3.35-.9-3.77 1.41-2.39 5.83-1.3 30.28-13.89 5 .35 4 2.69 7.09-.74 6.13 1.54 7.72-12.4 6.78-6 6.82-3 1.26-4.08 4.22-4.87 7-1.41 2.22 1.35-.51 3.72-6.17 4.31.15 1.58 4.86 4.61 1.36.54 3.42-2.91 2.65-4.26 4.23 4.6h3.79l.23 2.18 3.45.58-.2 1.52 2.51 1 2 2.89.11 1.1-4.1 2.83-7.25 14.77.91 2.69 2.54.17-1.47 1.63 1.26 2.65 2.65 1.67 5.56-1.19 3.62 1.48 1.11 5.29 3.83 2.45-2.89 3.13v4l-4.87-.52.58 2.38-3.81 1.51-2.83 3.82-2.49.43.47 2.73 1.28-.28 1.11 2.42-1.85.56-1.08 2.21 4.14 4.57-2.14 4.29 1.91 3.67 3.35.82-.45 3.48 1.58 1.14-1 1.56-1.94-.69-1 3.77-3.36 2.83 1.07 2.13-3 .62-1.44-2.08h-1.62l-1.11 4-3 2.1-2.75.11-.24 2.24 2.8 1 1.06 4-2.22.52-1.52-1.62-.27 2.94-5.68 1.55 1.21 3.49-1.91 3.19 1.66 1.28 1.47 6.08 6.74 6.62-1.21 1.94 1.9 1.89-.54 9.49-1.65.78-2.11-2.46-.24 2.49-1.23-1.75-2.88.44.41 3.05-1.95.38-.58 2.05-2.92-1.23-1.25 1.86-7.63-2.56-1.66.53.12 1.81-1.24.72 2 4.66-1.08 1.65 1.29 7.11-3.46 4.28.72 1.56-1.29 2.4 1 3.26 2.29 1 2 6.49 4.05 6.32-1.12.44-1.14-1.9-1.87 2.31.64 2.62-2.82 5-7.49 1.66-.4 6.23-3.44.25-.91 1.69h-3.5L834 395l-1.2-.61-3 4.43 1.18 8.45-1.83.86 1.89 2.92-.77 1.8 1.41.47-5 .71 6.87 4.17-1.55 2.36.8 3.62-2.8 2.02 3.27.65 4.22 3-.49 1.55 1.53 2.39-2.07-.4.21 1.56-1.73-.17-.17 1.71 1.18 6.7 1.79 2.17-10.18 3.87-2.63 2.24.7 2.58-3.6.85-2.31-1.2-4 1.2-1.12 2.67-2.59-.94-4.3 4-2.63.65-.62-1.5-2.14-.46-1.74 1.56-2.88-1.3-5.1 2.22-6.32-4.83L781 458l-2.81-1.23-1.7 2.13-3.91-2.36-3.8 1.34-2.5-2.68-6.08 1.08-4.36 3.27-2.2-1.22.18-2-3-2.72.11-2.3-1.68 1.77-2-2.8-.47-5.54-1.78-4.44-2.84-.78-2.77-10.25-4.11-2-1.22.46-.28 2.7-1.31-1.24-1 1.48-2.21.07-1.2-1-.14-3.6-1.54-.27 1.85-1.87-2.38.27-3.57-3.68-6-.87-3.22 1.5-.49 3.57-2.67 2 .44 1.83-2.1 3.75-3.24 2.75v4.44l-4.24 3.69-1.11-.55-.08 3-1.09-3.34 1-2.37-2.45.64-.58-3-1.62 3.69-1.83.98-6.33.26-2.53 4.28-4.31-.3-3.37-5 1.59-2.9.16-7.73 2-5.07-.68-1.07 1.45-.45.73-6.29-5.3-1.51.29-3-2.54-4.52 1.86-5.67-.75-1.54-2.83.56-1.44-1.81 2.13-3.89-2.62-6.79-2.3-2.38-5.63.29.63-3.28 2.88-.67-1.91-4.91-1-.77-2.42 2.15-2.12-1.48-1.78.73-4.68-3.17-2.18 1.88-1-1.58-1.49.76.45-5.5 1.71.25-1.67-2.08 5.15-6.73-3.27-1.84.15-4.45-2.48-2.38.89-3.79-1-4.24-4-2.57" transform="translate(-64.79 -75.12)"/><path id="path6790" class="cls-2" d="M673.53 241.93l.4-2.65 1.68-1.45 2.52.06 1.84 2-.33 2.52-2.2 1.67-2.44-.28-1.43-1.87" transform="translate(-64.79 -75.12)"/><path id="path6792" class="cls-2" d="M680 566.42l2-3.39 5.4-2.88-5.68-2.82 3.62-5.07-1.75-1.6 1.7-3.37 2.47.51 1.06-1.3 3 1.81 4.28-4.12 6.16.49 1.94-4.07 5.27-3.35 2.2-4.55 2.8.58.81-2 8.05-2.9 3.29-3.56 1.3-5.57-1.87.12.19-1.46-2.19-.54-2.11-4.54 8-6.8 3.53-6.52 8-3.44.64-3.83-1.35-2.93-4.51-3.65-3.52.5-1.55-6.8-2.79-4.4.54-2-1.22-1.57-2.07-.08.43-3.69 1-1.4 7.66 1.24 3.35-3.93.94 1.4 1-.54-.89-3.91.9-2.34-1.46-.1-.57 1.41-2-4.61-1.39.16-1-2.19 2.09-1.94-.84-2.72 1.12-.74-1.31-1.71 2.05-2 3-.24 3.6 2 2.75-1.56 1.25 6.41 2 2.79 1.67-1.77-.11 2.3 3 2.72-.19 2 2.31 1.24-.88 2.17 1.84.46 1.17 2.3 2.19-.44 2.74 1.84-3 2.78 1.68 3.46 7-4.56 3 6.28 2.62-2.38 2.08 1.1 1.85 6.46-1.36 3.73 1.76-1.21 1.14 3 2.09 1-3.1 1.49 1.53 2.83-.81 1.36L783 494l2.86 4.59-8.75 4.7-4.52 8.54 1 2.35 2.85-1.65 2.42.65-.1 2.69 2 2.09-.09 3.23-3.56 4.55-.39 8.23-2.6 10.44 2.38.28-.72 4.31-4.53 2.51-4.37 7-7.32-.57-8-2.86-5.69 3.07-6.3-2.83-4.49.06-8.2 7.58-2.59 4.88-12 4.27-4.5 3.11-3.72-.39-1.45 1.52-9-1.4-5.74 1.05-5.44-4-.17-3.55-1.54.16-.73-2.19" transform="translate(-64.79 -75.12)"/><path id="path6794" class="cls-2" d="M755.08 461.77l3.4-4.75 7.8-1.82 2.45 2.67 3.81-1.32 3.91 2.36 1.7-2.13 2.14 1.22 5.92-1.09 6.33 4.83 5.07-2.21 2.91 1.29 1.74-1.56 2.11.45.65 1.51 2.55-.59 4.39-4 2.59.95 1.11-2.67 4-1.2 4.51 1.08 1.87-1.36-1.16-2 3.66-3 7.46-3h3.37l7.94-5.39 5.63 2-1.27 3.4-1.81.87 1.44 1.55-2.16 1.43v2.51l-3.81 5.64 1.37 3.75-2.46 1.81-.31 5.72 8.24-1.44 3.2 6.3 2.39-1.68 1.36 1.12.87-2 5.4-2.62 3-6.27 3.32-.08 3.29-4.35 3.77 1.18-.77.78 2.37 3-.68 3.34 2.73 2.42-.08 3.36-10.74 1.77 1.22 2.88 2.63 1.85-4 2.81-.81 3.76-1 .22 1 .9-.68 1.51-5.92 4.6 2.66 3.82-1.48.15-1.26 2.74.04 8.21 2.79-.8 1.25 3.46.21-1.16 2.68-.23 2.12 1.73.64 2.72 1.42.32.84 2-1 1 2.92 2.58.15 2.49-2.28 1.42.9 3.39-5.64 4.42-9-4.16-3 2.35-3.3-.41-.51-1.38-4.32 2.7h-4.47l-3.22-3.32-.33-3.38-2.71-.32-2.27-5-4.49-2.59-.9-3.46-.69 1.25-1.41-3.39-5-4-.17-2.6-2.29-.18.57-1.45-5.13-2.71.4-2.2-1.26.53-1.46-1.32-1.06.9-1.41-2.55-4-.28-1.72 2.13-11.33-2.26-10.83 5.21L783 494l-3.46-2.6.77-1.39-1.56-2.72 3.16-1.63-2.09-1-1.14-3-1.76 1.21 1.36-3.73-1.85-6.48-2.11-1.07-2.58 2.36-3-6.28-7 4.57-1.74-3.58 3-2.73-2.7-1.82-2.2.43-1.2-2.31-1.84-.46" transform="translate(-64.79 -75.12)"/><path id="path6796" class="cls-2" d="M843.86 468.67l.37-5.62 2.47-1.68-1.36-3.81 3.8-5.61v-2.52l2.17-1.43-1.39-1.66 1.76-.78-.28-1.63 1.7-1.55-5.59-2.25-8.78 5.55-2.8-2.48-1.05-8.39 1.72.19-.19-1.57 2.08.4-1.49-2.43.62-1.26-4.28-3.28-3.28-.59 2.84-2.15-.9-3.57 1.59-2.31-6.87-4.06 5-.91-1.41-.47.77-1.8-1.9-2.92 1.83-.85-1.19-8.43 3-4.45 1.18.65 2.21-1.64h3.5l.89-1.68 3.4-.23.46-6.3 7.47-1.64 2.8-5-.59-2.67 1.81-2.23 1.16 1.91 1.1-.45-9.39-17.09 1.32-2.35-.71-1.63 3.47-4.31-1.28-7.09 1.06-1.7-2.08-4 1.2-3.21 3.54-.58 5.73 2.62 1.23-1.86 3 1.23.58-2h1.83l-.27-3.39 2.86-.45 1.25 1.75.35-2.5 2 2.48 1.06-.39 1.62-6.7 3.44-.65.69-2.08 4.63-.18 5 2.41 3.86 4.72-.75 1.73 1.93 3-2.38.75-.34 5.53 3.75 1.35 2.12-3 4.89 1.88 1.91-1.11 1.79 1.19 3.24 7.37-2.94 5.76-6.26.71-7.53 5.28-5.69 7-.41 9.21-2.18 6.37 1.6 6.2-4.77 20.93 1.08 3.66-7.15 24.07 3.6-2.82 3.83-7.48 7.4-2.45 2.5 1.37 1.47 5.12 2.6 1.35 3.86-.54L903 427l2.29-1 11.63 4.86 4.7-.83 4.2 2.83 10.49 19.81V459l1.76 5.55 6.18 6.39 6.26 14.45 2.32 7.47-2.08 11.35 1 5.78-7.06 1.8-.19-1.86-1.47-.26 1.16-3.68-3.07-.64-.31-2.63-1.4.8-1.74-2-1.61.19-1.48 4.84-2.45.93-1.13 2.8 3.51.73-.67 2.23 5.68-1.71 1.45 2-2.69 6.3-3.81 1 1.23 3.35-1.31 4.3-2.94 2-2-.32-.45 1.32-2.81-1-2.68 2.21-.28-1.81-3.77-.41-3.66 5.67 1.67 3.23-3 2.49-1.77-4.13.45-2.39-1.67-2.13 2.14-3.56.15-3.66-3.77-2.78-.24-8.49-3.21 1.8-2.12-1.11-1.64 2.59-4.61 1-3.13-.16-1.13-2.14-2.92-1.32-2 .69-.88-1-2.73 1.93-2.27-1.71-1.12.63.56 3.09-2-.24-1.83 2.75-6.41-12.32-3.32-1.04-1 1.53-1.43-3.52-2.54 1-.26-8.36 1.26-2.74 1.48-.13-2.66-3.84 5.88-4.54 1.62-6.45 4.05-2.84-2.65-1.82-1.23-2.86 11.23-2.27-.55-3.32-2.5-2 .63-3.29-2.35-3 .75-.84-3.86-1.16-3.08 4.38h-3.25l-2 2.81.33 1.76-6.91 4.4-.87 2-1.36-1.14-2.39 1.7-3.21-6.3-3.86 1.5-4.45-.14" transform="translate(-64.79 -75.12)"/><path id="path6798" class="cls-2" d="M906.56 603.8l5.34-5.27-1-6.66-2-1.41-1.78-6.32-7.58-8.33 3.85-3.51 1.14-6.09 11.18-.81.72-1.93-1.85-4.86 1.65-2.43-1.39-2.52 1.07-7-2-3.93 3.58-3.43-1.7-3.15.85-2.84 2.83-2.9 3.77.41.28 1.81 2.69-2.21 2.8 1 .43-1.36 2 .32 2.93-2 1.3-4.29-1.23-3.35 3.81-1 2.69-6.3-1.45-2-5.68 1.71.69-2.15-3.52-.76 1.22-2.87 2.45-.93 1.43-4.78 1.66-.24 1.74 2 1.61-.68.07 2.49 3.09.67-1.16 3.68 1.48.26.11 1.81 2.57-1.4 4.56-.35.15 1.11-1.29 5.41 1.7 6.72-.21 11.9-5.26 25.83-.72 13.33-8.53 15.8-6.09 5.33-11.74 3-5.35 9.86-3.39-.75-2.51-3.81-2 .13" transform="translate(-64.79 -75.12)"/><path id="path6800" class="cls-2" d="M874.42 529.76l-.36-1.76 2.7-2.11-1-3.3 3.09-1.14 1.74-2.73 1.91.28-.61-2.78 1.2-1 2.26 1.74 2.79-2 .85 1 2.05-.68 2.78 1.24 1.2 2.2 3.13.16 4.69-1 1.54-2.55 2.08 1.1 2.9-2 .95.9-.55 2.65-4.8 2.48-3.48 5.69-3.78 2.27-.83 3-1.32.35.5 3.34-7.35 4.48-1.05-.67-4.47 2.38-4.56-3.3.3-3.16-1.79-2.12-2.51-.5-.21-2.49" transform="translate(-64.79 -75.12)"/><path id="path6806" class="cls-2" d="M1043.37 448.55l-.62-11.49 1-4.48-4.08-8.78 1-2.84-5.88-5.68 3.91-4.82.59-2.83-.55-1.78-4-1.29-1.63-2.13 1.15-3.3-1.6-4.91 1.92-5.59-4.16-1.24-1.37-2.37 1.48-2.94 4.34-1.62.18-2.14 6.73.37 1.34 9.87-1.1 9.48 3.28 4.4.84 4.64.54 10.46-2.14 3.66 2.87 3.08 2.09 8.68-.31 14.72-2.45 2-3.3-1.12m-19.26 67.56l-1.46-12.65 5.1-5.47.73-15.34 4.05-3.2 1.21-3.4 3.67-3.22.26-8.25 2.12-5.55-2.92-5.59 1.26-2 2.34-.37 4.46 2 .91 6.33-1.41 12.73-3.69 5.34.27 2.53-2.93 5.16-2.59 9.63-.6 5.1 4.38 5.34v3.28l-3.67 9.87-5-1.63-5.61.37-.85-1.09m-87.8-63.47l-10.49-19.81-4.2-2.83 3.55-6.48-5.38-2.71-1.08-2.42 3.68-5.5 6.94 2.78 1.71 3.52 10.59 9 4.64 9.11L963 452.15l12.66 9.68 5.5 1.78 3 2.83.21 2.56-2.15 1.9-9.71-3.21-4.06 3.08 6.23 16.29 6.91 2.59 2.14 2.21h4.49l5.75 5.43 1.43 5.9-1.1 2.2-2.69.28-2.69-3-2.79-1-2.13 2.53 2.88 9-5.09 2.1-7.35-7.64-2.68-7.83-4.56-5.31-1.45-5.46-7.75-6.21-3.7-9.85-10.3-13.55-.5-3.89-3.92-2.7-3.23-.22" transform="translate(-64.79 -75.12)"/><path id="path6808" class="cls-2" d="M875.21 324.5l.81-3.81-1.9-1.89 1.21-1.94-6.13-5.72-2.07-7-1.68-1.33 1.93-3.2-1-3.76 5.44-1.24.27-2.94 1.53 1.62 2.22-.52-1.06-4-2.82-1 .28-2.19 2.77-.12 3-2.1.74-3.88 2-.1 1.41 2.08 3-.6-1.05-2.15 3.36-2.83 1-3.77 1.94.69 1-1.53-1.58-1.16.46-3.49-3.33-.8-1.96-3.74 2.07-4.24-4.15-4.58 1.11-2.23 1.85-.55-1.07-2.48-1.26.29-.47-2.77 2.5-.43 2.82-3.81 3.79-1.5-.58-2.38 3.32 1 2.06-.91-.5-3.5 2.87-3-2.23-2.31 3.45-1.92 3.9 5.69 6.62-2.86 4.77 1.06 3.58-3.36 4.88.52 5-2.71 1.49-2.57 1.4 1.62 3 .09 1 3.1-1.06 1.93 3.18 1.5-.07 1.78 4.24 1.35-.18 2.26 2.64 1.36-.49 3.21 1.4 1.23 4.28-.8 3.81 3.31-.97 4.2 3.17-.48-.34 1.73 3.54 1.47 6.36 9 1.13 10.78-3.05.41-1.32 2.71-7.54-1-5.27-4.78-3-.29-2 1.44-4.68 8.96 2.15 4.2-.61 4.49 2 3.71-.38 11.89 2.93 2.24 7.46-1.92 2.41 3-.22 2.31-6.09 8.95-3.54 2.71-.64 3.86-7.63 8.32-4.93 1.39-22.63 13-3.24-7.37-1.79-1.19-1.91 1.11-5-1.85-2 2.93-4-1.68.62-5.17 2.39-.77-1.93-3 .78-1.7-3.9-4.78-8.3-2.61-2 .64.32 1.56-1.73 1.11-3.39.51" transform="translate(-64.79 -75.12)"/><path id="path6814" class="cls-2" d="M1050.56 279.92l-1-2.77 2.23-2.13 7.41-1.3 2.64 1.85-1.67 3.46-6.87 1.71-2.74-.81m-11.71 7.15l-.81-4.85 3.56-3.21 8.52 1.39 3.54 3-.45 2.26-2.3 1.22-9.45 1.12-2.62-.92m-49.48 58.8l-6.75-7.59-5.34-8.86-.52-5.2-2.5-3.41.82-3.33-3.07-.76-1.35-2.55 1.94-7.8 2.35-2.93v-6.61l-4.87-17.16-.21-7.78-.37-1.15-2.68.4-1.13-10.78-6.37-9-3.54-1.46.34-1.73-3.17.48.93-4.23-3.81-3.31-4.28.8-1.4-1.23.49-3.21-2.64-1.36.18-2.26-4.24-1.35.07-1.78-3.18-1.5 1.06-1.93-1-3.1-5.85-1.88v-2.82l2.14-1.17.18-2.16 5.18-1-.77-2.7 2.67-1.5 2.77.81.36-2.13 3.12-2 .34-2.9 4.83.14 2.92-3.94 4.67.66 2.15-2.19 4 .81 2.43 10.08 10-5.1 4.87 1.82 2.35-2.9-.22-3.23 1.84-.49v-4.35l3.79-3.32.24-5.7 2.55-1.82 1.52 1.8 5-.68 4.31 2.31.24 5.66 3.46 12.46.2 9.53 4.08 6.47L1009 226l-9.61.73-3.88 4.38-1.14 7.58 2.33 7.91-2.29 3.49.41 7.83 4.85 3.29-.7 8.68 7.23 8.32 2.26 6.55 7.06 1 6.94 4.84.58 5.7-4.77 2.85 2.5 5.06 3.51 2.73 5.31.82 2.13 2.2.69 6.45-5.06 5.37.2 5.14 1.51 3.52 9.07 6.54-.26 2.14-2.63 1.63-2.2 4.59 7 12.43 1.32 5.55.38 15.39-8.89-1.56-8.61-7.34-8.89-4.91-26-19" transform="translate(-64.79 -75.12)"/></svg>