<svg xmlns="http://www.w3.org/2000/svg" xmlns:xlink="http://www.w3.org/1999/xlink" width="34" height="34" viewBox="0 0 34 34">
  <defs>
    <style>
      .cls-1 {
        fill-rule: evenodd;
        fill: url(#linear-gradient);
      }
    </style>
    <linearGradient id="linear-gradient" x1="17" y1="34" x2="17" gradientUnits="userSpaceOnUse">
      <stop offset="0" stop-color="#0093d8"/>
      <stop offset="1" stop-color="#4ac7f4"/>
    </linearGradient>
  </defs>
  <path class="cls-1" d="M29.018,4.982A17,17,0,1,0,4.982,29.016,17,17,0,0,0,34,17,16.868,16.868,0,0,0,29.018,4.982ZM17,31.511A14.512,14.512,0,1,1,31.512,17,14.528,14.528,0,0,1,17,31.511Zm8.818-18.838L22.812,9.647A1.25,1.25,0,0,0,21.05,9.64l-4.257,4.236a1.246,1.246,0,1,0,1.755,1.768l3.372-3.358,1.258,1.264-8.2,8.162-4.167-4.187,1.265-1.258L14.1,18.305a1.246,1.246,0,1,0,1.769-1.755l-2.9-2.923a1.232,1.232,0,0,0-.878-0.367H12.08a1.255,1.255,0,0,0-.878.36L8.168,16.633a1.242,1.242,0,0,0-.007,1.755l5.916,5.95a1.232,1.232,0,0,0,.878.367h0.007a1.255,1.255,0,0,0,.878-0.36l9.972-9.916A1.243,1.243,0,0,0,25.818,12.673Z"/>
</svg>
