<svg xmlns="http://www.w3.org/2000/svg" width="43" height="43" viewBox="0 0 43 43">
  <defs>
    <style>
      .cls-1 {
        fill: #24a5df;
        fill-rule: evenodd;
      }
    </style>
  </defs>
  <path id="Forma_1" data-name="Forma 1" class="cls-1" d="M14.813,0A14.8,14.8,0,0,1,26.607,23.763l3,3c0.019,0.019.036,0.04,0.053,0.059a3.74,3.74,0,0,1,.755-0.078,3.644,3.644,0,0,1,2.594,1.075l8.916,8.916a3.668,3.668,0,0,1-5.188,5.187l-8.916-8.916a3.643,3.643,0,0,1-1.075-2.593,3.7,3.7,0,0,1,.078-0.755,0.743,0.743,0,0,1-.06-0.053l-3-3A14.81,14.81,0,1,1,14.813,0Zm22.909,40.94a2.275,2.275,0,1,0,3.218-3.217L32.889,29.67l-3.218,3.217ZM28.691,31.9L31.9,28.691A2.274,2.274,0,0,0,28.691,31.9Zm-1.268-3.6a3.679,3.679,0,0,1,.4-0.473,3.769,3.769,0,0,1,.473-0.4l-2.586-2.586q-0.418.454-.872,0.873Zm-12.609-.061A13.42,13.42,0,1,0,1.393,14.811,13.436,13.436,0,0,0,14.813,28.233Zm0-25.263A11.842,11.842,0,1,1,2.972,14.811,11.855,11.855,0,0,1,14.813,2.97Zm0,22.291A10.449,10.449,0,1,0,4.365,14.811,10.461,10.461,0,0,0,14.813,25.26ZM9.976,7.376a0.7,0.7,0,0,1,.761,1.168A7.478,7.478,0,0,0,9.046,19.569a0.7,0.7,0,0,1-1.074.887A8.871,8.871,0,0,1,9.976,7.376ZM13.2,6.089a8.929,8.929,0,0,1,1.612-.147,0.7,0.7,0,0,1,0,1.394,7.514,7.514,0,0,0-1.36.123A0.7,0.7,0,0,1,13.2,6.089Z"/>
</svg>
