<svg id="icon_" data-name="icon " xmlns="http://www.w3.org/2000/svg" xmlns:xlink="http://www.w3.org/1999/xlink" width="20" height="22" viewBox="0 0 20 22">
  <defs>
    <style>
      .cls-1, .cls-2 {
        fill: #fff;
        fill-rule: evenodd;
      }

      .cls-1 {
        filter: url(#filter);
      }
    </style>
    <filter id="filter" x="0" y="0.531" width="19.313" height="21.469" filterUnits="userSpaceOnUse">
      <feGaussianBlur result="blur" stdDeviation="2.236" in="SourceAlpha"/>
      <feFlood result="flood" flood-color="#3c3c3c" flood-opacity="0.16"/>
      <feComposite result="composite" operator="out" in2="blur"/>
      <feOffset result="offset" dx="-2.779" dy="2.877"/>
      <feComposite result="composite-2" operator="in" in2="SourceAlpha"/>
      <feBlend result="blend" mode="multiply" in2="SourceGraphic"/>
    </filter>
  </defs>
  <path class="cls-1" d="M0.689,0.543L0,1.213V20.657l0.69,0.67L1.379,22,19.31,11.27V10.6L1.379,0.543H0.689Z"/>
  <path id="Forma_1" data-name="Forma 1" class="cls-2" d="M1.469,22A1.407,1.407,0,0,1,.106,20.427V1.559A1.408,1.408,0,0,1,1.469-.012,1.911,1.911,0,0,1,2.408.26l16.7,9.434a1.544,1.544,0,0,1,.89,1.3,1.545,1.545,0,0,1-.89,1.3l-16.7,9.434A1.9,1.9,0,0,1,1.469,22Zm0-21.029c-0.313,0-.359.37-0.359,0.59V20.427a0.488,0.488,0,0,0,.36.59,0.9,0.9,0,0,0,.438-0.14l16.7-9.434A0.638,0.638,0,0,0,19,10.994a0.639,0.639,0,0,0-.388-0.451L1.907,1.109A0.91,0.91,0,0,0,1.469.969Z"/>
</svg>
