<svg xmlns="http://www.w3.org/2000/svg" width="61" height="50"><path d="M56.816 8.2h-14.94V5.312A5.082 5.082 0 0037.076 0H24.924a5.082 5.082 0 00-4.8 5.314V8.2H4.184A4.43 4.43 0 000 12.828v32.54A4.429 4.429 0 004.184 50h52.632A4.429 4.429 0 0061 45.368v-32.54A4.429 4.429 0 0056.816 8.2zm-34.3-2.885a2.552 2.552 0 012.41-2.668h12.15a2.552 2.552 0 012.41 2.668V8.2H22.514V5.312zm36.1 40.056a1.9 1.9 0 01-1.794 1.985H4.184a1.9 1.9 0 01-1.794-1.988V19.843l19.351 9.851a4.962 4.962 0 004.717 4.432h9.084a4.962 4.962 0 004.717-4.432l11.462-6.153a1.389 1.389 0 00.554-1.768 1.146 1.146 0 00-1.6-.613L39.989 26.9a4.824 4.824 0 00-4.448-3.355h-9.083a4.823 4.823 0 00-4.447 3.355L2.39 16.9v-4.072a1.9 1.9 0 011.794-1.986h52.632a1.9 1.9 0 011.794 1.986v32.54zM24.068 28.835a2.53 2.53 0 012.39-2.645h9.084a2.658 2.658 0 010 5.29h-9.084a2.53 2.53 0 01-2.39-2.645zm32.884-9.572a1.146 1.146 0 00-1.6-.613l-.733.393a1.389 1.389 0 00-.554 1.768 1.19 1.19 0 001.076.746 1.088 1.088 0 00.521-.133l.738-.394a1.389 1.389 0 00.552-1.767z" fill="#0a9adc" fill-rule="evenodd"/></svg>