<svg xmlns="http://www.w3.org/2000/svg" width="60" height="60"><path d="M32.5 40H25a1.249 1.249 0 100 2.5h7.5a1.249 1.249 0 000-2.5zM60 1.249a1.25 1.25 0 00-2.135-.884L39.432 18.8A14.63 14.63 0 0035 16.15V7.5h1.252V0h-15v7.5H22.5v8.65c-6.578 2.516-10 8.887-10 16.351v13.23L.366 57.864a1.25 1.25 0 001.768 1.768L12.5 49.267v9.483A1.25 1.25 0 0013.75 60h30A1.25 1.25 0 0045 58.75V32.5a18.7 18.7 0 00-3.832-11.9L59.634 2.133A1.244 1.244 0 0060 1.249zM23.75 2.5h10V5h-10V2.5zm-6.565 21.24a12.062 12.062 0 016.208-5.256L25 17.87V7.5h7.5v10.37l1.606.614a12.172 12.172 0 013.554 2.084L30.732 27.5h-15.1a15.053 15.053 0 011.553-3.76zM15 32.5a20.67 20.67 0 01.15-2.5h13.082l-5 5H21.25a1.25 1.25 0 00-.437 2.42L15 43.23V32.5zM42.5 55v2.5H15V50h27.5v5zm0-22.5v15H15v-.733l9.268-9.267h11.983a1.251 1.251 0 000-2.5h-9.483l5-5h10.581a20.671 20.671 0 01.151 2.5zm-.633-5h-7.6l5.122-5.121a13.113 13.113 0 01.925 1.363 14.985 14.985 0 011.551 3.758z" fill="#0a9adc" fill-rule="evenodd"/></svg>