<svg xmlns="http://www.w3.org/2000/svg" width="54" height="60" viewBox="0 0 54 60">
  <defs>
    <style>
      .cls-1 {
        fill: #0a9adc;
        fill-rule: evenodd;
      }
    </style>
  </defs>
  <path id="Forma_1" data-name="Forma 1" class="cls-1" d="M15.152,34.728a2.091,2.091,0,0,1,1.479.605,1.152,1.152,0,0,0,1.618,0,1.122,1.122,0,0,0,0-1.6,4.415,4.415,0,0,0-6.194,0,1.122,1.122,0,0,0,0,1.6,1.152,1.152,0,0,0,1.618,0A2.09,2.09,0,0,1,15.152,34.728Zm20.6-.994a1.122,1.122,0,0,0,0,1.6,1.152,1.152,0,0,0,1.618,0,2.112,2.112,0,0,1,2.958,0,1.152,1.152,0,0,0,1.618,0,1.122,1.122,0,0,0,0-1.6A4.421,4.421,0,0,0,35.751,33.734ZM38.842,44.9a16.9,16.9,0,0,1-23.683,0,1.152,1.152,0,0,0-1.618,0,1.121,1.121,0,0,0,0,1.6,19.209,19.209,0,0,0,26.92,0,1.121,1.121,0,0,0,0-1.6A1.152,1.152,0,0,0,38.842,44.9ZM54,35.947a6.3,6.3,0,0,0-5.2-6.171V10.848a7.269,7.269,0,0,0-3.3-6.088,7.443,7.443,0,0,0-6.538-.8L31.771,1.544a28.813,28.813,0,0,0-16.8-.55C7.8,2.948,3.695,7.083,3.06,12.957A8.541,8.541,0,0,0,1.751,15.4L1.193,17.029a1.925,1.925,0,0,0,.821,2.289,1.975,1.975,0,0,0,2.444-.249A3.993,3.993,0,0,1,5.2,18.511V29.776a6.263,6.263,0,0,0,.358,12.4A21.836,21.836,0,0,0,27,60h0a21.775,21.775,0,0,0,15.411-6.313,21.318,21.318,0,0,0,6.063-11.518A6.308,6.308,0,0,0,54,35.947Zm-9.772-29.3a4.952,4.952,0,0,1,2.281,4.2V25.655A7.378,7.378,0,0,1,40.23,18.4L40.136,5.962A5.055,5.055,0,0,1,44.228,6.645ZM3.7,16.772l0.222-.65a6.371,6.371,0,0,1,3.549-3.8,6.475,6.475,0,0,1,5.229.082,8.82,8.82,0,0,0,10.187-2.1l0.284-.318a1.122,1.122,0,0,0-.1-1.6,1.154,1.154,0,0,0-1.615.1l-0.284.318a6.5,6.5,0,0,1-7.506,1.545,8.8,8.8,0,0,0-7.1-.11c-0.207.087-.408,0.186-0.606,0.288,1.33-3.506,4.549-5.976,9.614-7.357a26.508,26.508,0,0,1,15.46.511l6.812,2.286,0.089,5.846a20.133,20.133,0,0,1-12.5,7.787,20.308,20.308,0,0,1-14.827-2.895A6.26,6.26,0,0,0,3.7,16.772ZM2.289,35.947A4.024,4.024,0,0,1,5.2,32.1v6.133c0,0.529.019,1.056,0.057,1.579A4.025,4.025,0,0,1,2.289,35.947ZM40.8,52.085A19.493,19.493,0,0,1,27,57.736h0a19.537,19.537,0,0,1-19.509-19.5V17.977a4,4,0,0,1,1.87.628,22.6,22.6,0,0,0,16.506,3.223,22.446,22.446,0,0,0,12.075-6.5V18.4a9.655,9.655,0,0,0,8.567,9.534V38.446A19.052,19.052,0,0,1,40.8,52.085Zm7.958-12.278c0.028-.451.044-0.906,0.044-1.361V32.1A4,4,0,0,1,48.753,39.808Z"/>
</svg>
