<svg xmlns="http://www.w3.org/2000/svg" width="70" height="60" viewBox="0 0 70 60">
  <defs>
    <style>
      .cls-1 {
        fill: #0a9adc;
        fill-rule: evenodd;
      }
    </style>
  </defs>
  <path class="cls-1" d="M36.167,34.613a6.661,6.661,0,0,0-7,6.925V42.69c0,5.608,3.206,9.231,8.167,9.231S45.5,48.3,45.5,42.69V41.538a6.662,6.662,0,0,0-7-6.925H36.167Zm7,6.925V42.69c0,2.082-.569,6.924-5.833,6.924S31.5,44.772,31.5,42.69V41.538a4.35,4.35,0,0,1,4.667-4.616H38.5A4.35,4.35,0,0,1,43.167,41.538Zm-8.132,0H35.022A1.173,1.173,0,1,0,35.035,41.538Zm5.709-15A1.163,1.163,0,0,0,42,25.473l1.166-14.982c0.259-2.746,3.991-5.877,7-5.877H52.5c3.071,0,6.8,3.118,7,5.858l1.167,15a1.161,1.161,0,0,0,1.162,1.064c0.029,0,.061,0,0.091,0A1.158,1.158,0,0,0,63,25.294l-1.167-15C61.518,6.07,56.352,2.306,52.5,2.306H50.167c-4.246,0-8.954,4.022-9.33,7.988l-1.167,15A1.158,1.158,0,0,0,40.744,26.534ZM51.273,10.018a1.171,1.171,0,0,0-2.213,0A3.925,3.925,0,0,1,45.5,12.691a1.159,1.159,0,0,0-1.167,1.153V18.46c0,3.854,2.662,9.23,7,9.23s7-5.377,7-9.23V13.844a1.16,1.16,0,0,0-1.167-1.153C57.116,12.691,52.15,12.618,51.273,10.018ZM56,18.46c0,3.136-2.081,6.922-4.667,6.922S46.667,21.6,46.667,18.46v-3.6a6.352,6.352,0,0,0,3.589-2.211c1.633,1.616,4.241,2.122,5.745,2.28V18.46h0ZM23.333,11.537H24.5a1.154,1.154,0,1,0,0-2.307H23.333A1.154,1.154,0,1,0,23.333,11.537ZM39.7,43.845a1.154,1.154,0,1,0,0-2.307H39.689A1.154,1.154,0,1,0,39.7,43.845ZM11.711,13.56a13.6,13.6,0,0,0,1.245,4.262c1.057,2.092,2.656,5.253,8.044,5.253s6.986-3.162,8.043-5.253a13.623,13.623,0,0,0,1.246-4.262A2.309,2.309,0,0,0,31.5,11.537V9.229a2.3,2.3,0,0,0-1.167-2V6.922a6.97,6.97,0,0,0-7-6.923H18.667a6.969,6.969,0,0,0-7,6.923v0.31a2.3,2.3,0,0,0-1.167,2v2.307A2.309,2.309,0,0,0,11.711,13.56Zm1.122-4.331A1.161,1.161,0,0,0,14,8.075V6.922a4.646,4.646,0,0,1,4.667-4.616h4.667A4.646,4.646,0,0,1,28,6.922V8.075a1.16,1.16,0,0,0,1.167,1.154v2.307A1.16,1.16,0,0,0,28,12.691a10.723,10.723,0,0,1-1.044,4.1c-1.214,2.4-2.285,3.977-5.956,3.977s-4.743-1.575-5.956-3.976A10.725,10.725,0,0,1,14,12.691a1.161,1.161,0,0,0-1.167-1.154V9.229h0Zm28,43.845a1.175,1.175,0,0,0-.648.2L37.333,55.15,34.48,53.27a1.175,1.175,0,0,0-.646-0.2c-6.749,0-8.167,3.138-8.167,5.77a1.167,1.167,0,0,0,2.333,0c0-.927,0-3.36,5.485-3.458l3.2,2.111a1.176,1.176,0,0,0,1.294,0l3.2-2.111c5.485,0.1,5.485,2.531,5.485,3.458a1.167,1.167,0,0,0,2.333,0C49,56.213,47.583,53.075,40.833,53.075ZM61.91,39.229h0a1.159,1.159,0,0,0-1.167,1.148L60.667,58.84A1.159,1.159,0,0,0,61.829,60h0A1.16,1.16,0,0,0,63,58.85l0.072-18.462A1.159,1.159,0,0,0,61.91,39.229ZM17.5,11.537h1.167a1.154,1.154,0,1,0,0-2.307H17.5A1.154,1.154,0,1,0,17.5,11.537Zm9.31,21,0.976-4.818c5.891,0.13,10.13,1.582,11.43,3.942a1.171,1.171,0,0,0,1.582.462,1.147,1.147,0,0,0,.467-1.565C39.434,27.228,34.336,25.4,26.908,25.4a1.2,1.2,0,0,0-1.219.926l-1.167,5.755a1.153,1.153,0,0,0,.915,1.358,1.1,1.1,0,0,0,.231.023A1.163,1.163,0,0,0,26.81,32.534Zm40.329-1.381c-2.287-2.257-5.723-3.448-9.938-3.448a1.173,1.173,0,0,0-1.2,1.15c0,0.235-.083,5.759-4.667,5.759s-4.666-5.523-4.667-5.759a1.167,1.167,0,0,0-2.333,0c0,2.58,1.26,7.279,5.833,7.969v5.862a1.167,1.167,0,0,0,2.333,0V36.827c3.938-.594,5.42-4.158,5.754-6.785a10.909,10.909,0,0,1,7.236,2.745,7.36,7.36,0,0,1,2.177,5.288V56.537a1.167,1.167,0,0,0,2.333,0V38.075A9.646,9.646,0,0,0,67.139,31.153ZM21,25.383a2.323,2.323,0,0,0-2.333,2.308,2.3,2.3,0,0,0,1.167,1.986v8.4a1.167,1.167,0,0,0,2.333,0v-8.4a2.3,2.3,0,0,0,1.167-1.986A2.324,2.324,0,0,0,21,25.383ZM8.166,39.229A1.16,1.16,0,0,0,7,40.384V58.844a1.167,1.167,0,0,0,2.333,0V40.384A1.161,1.161,0,0,0,8.166,39.229Zm8.141-12.912a1.229,1.229,0,0,0-1.22-.919c-6.129,0-10.816,1.3-13.207,3.656A6.012,6.012,0,0,0,0,33.46V56.537a1.16,1.16,0,0,0,1.167,1.154,1.161,1.161,0,0,0,1.167-1.154V33.46a3.744,3.744,0,0,1,1.2-2.772c1.818-1.794,5.684-2.861,10.69-2.972l5.639,26.75a1.168,1.168,0,0,0,1.38.893,1.152,1.152,0,0,0,.9-1.365Z"/>
</svg>
