<svg width="204" height="290" viewBox="0 0 204 290" fill="none" xmlns="http://www.w3.org/2000/svg">
<rect width="204" height="290" fill="black" fill-opacity="0"/>
<path d="M62.4902 227H30.8102V201.8H37.2902V221.96H43.4102V201.8H49.8902V221.96H56.0102V201.8H62.4902V227ZM83.1902 227H76.1702L85.7102 201.8H92.9102L102.45 227H95.4302L93.8102 222.5H84.8102L83.1902 227ZM86.4302 217.82H92.1902L89.3102 209.36L86.4302 217.82ZM138.089 227H131.609V216.74H122.609V227H116.129V201.8H122.609V211.7H131.609V201.8H138.089V227ZM173.746 226.64C168.394 227.12 163.954 227.36 160.426 227.36C158.074 227.36 156.346 226.808 155.242 225.704C154.138 224.6 153.586 222.872 153.586 220.52V209C153.586 206.48 154.15 204.656 155.278 203.528C156.43 202.376 158.266 201.8 160.786 201.8H173.746V206.84H162.226C160.786 206.84 160.066 207.56 160.066 209V220.52C160.066 221.072 160.222 221.516 160.534 221.852C160.87 222.164 161.29 222.32 161.794 222.32C162.298 222.32 162.85 222.32 163.45 222.32C164.05 222.296 164.674 222.272 165.322 222.248C165.97 222.224 166.618 222.2 167.266 222.176C167.938 222.152 168.79 222.104 169.822 222.032C170.878 221.96 172.186 221.876 173.746 221.78V226.64Z" fill="black"/>
<circle cx="198.5" cy="215.5" r="5.5" fill="#57B1BD"/>
<circle cx="5.5" cy="215.5" r="5.5" fill="#57B1BD"/>
<rect width="172" height="172" fill="black" fill-opacity="0" transform="translate(15)"/>
<circle cx="101" cy="86" r="82.5" stroke="black" stroke-width="7"/>
<rect width="162.947" height="162.124" fill="black" fill-opacity="0" transform="translate(19.1148 5.76077)"/>
<rect width="162.947" height="162.124" fill="black" fill-opacity="0" transform="translate(19.1148 5.76077)"/>
<rect width="162.947" height="162.124" fill="black" fill-opacity="0" transform="translate(19.1148 5.76077)"/>
<rect width="151.546" height="128.187" fill="black" fill-opacity="0" transform="translate(22.9737 11.036)"/>
<path d="M133.301 61.3262C133.301 61.3262 117.339 61.8537 117.866 78.5585C117.866 78.7344 133.652 77.6793 133.301 61.3262Z" fill="#57B1BD"/>
<path d="M144.877 84.1854C144.877 84.1854 132.599 79.2619 127.337 92.0982C127.337 92.0982 139.615 96.67 144.877 84.1854Z" fill="#57B1BD"/>
<path d="M41.917 90.8673C41.917 90.8673 31.5683 82.6028 22.9737 93.5049C22.9737 93.5049 33.4977 101.242 41.917 90.8673Z" fill="#57B1BD"/>
<path d="M61.0356 97.7251C61.0356 97.7251 51.7394 88.2297 41.9169 97.9009C41.9169 98.0767 51.3886 107.045 61.0356 97.7251Z" fill="#57B1BD"/>
<path d="M53.318 34.4227C53.318 34.4227 42.794 42.5113 51.3886 53.5892C51.3886 53.4134 61.3865 45.1489 53.318 34.4227Z" fill="#57B1BD"/>
<path d="M92.0816 15.7836C92.0816 15.7836 82.0838 6.99165 72.9629 17.3662C72.9629 17.3662 83.1362 25.8065 92.0816 15.7836Z" fill="#57B1BD"/>
<path d="M54.5459 114.957C54.5459 114.957 39.9876 112.496 37.532 127.618C37.3566 127.618 51.7394 129.552 54.5459 114.957Z" fill="#57B1BD"/>
<path d="M157.331 36.0052C157.331 36.0052 144.351 45.5006 154.173 59.0403C154.173 59.0403 166.627 49.3691 157.331 36.0052Z" fill="#57B1BD"/>
<path d="M133.301 49.7208C133.301 49.7208 118.918 42.5113 111.376 57.4577C111.376 57.4577 125.759 64.3155 133.301 49.7208Z" fill="#57B1BD"/>
<path d="M133.301 20.3555C133.301 20.3555 118.392 26.334 124.531 41.9838C124.706 41.9838 139.089 35.6536 133.301 20.3555Z" fill="#57B1BD"/>
<path d="M109.622 65.898C109.622 65.898 95.4142 73.2833 102.956 88.2297C103.132 88.2297 116.989 80.4927 109.622 65.898Z" fill="#57B1BD"/>
<path d="M68.4025 114.782C68.4025 114.782 82.9607 121.639 89.9768 106.341C89.9768 106.517 75.4185 100.187 68.4025 114.782Z" fill="#57B1BD"/>
<path d="M109.797 105.462C109.797 105.462 111.025 121.463 127.688 120.233C127.863 120.233 126.109 104.407 109.797 105.462Z" fill="#57B1BD"/>
<path d="M133.652 108.979C133.652 108.979 129.793 124.629 145.93 128.673C145.93 128.673 149.262 113.023 133.652 108.979Z" fill="#57B1BD"/>
<path d="M75.4185 139.223C75.4185 139.223 90.8538 135.003 86.4688 118.65C86.2934 118.65 71.2089 123.398 75.4185 139.223Z" fill="#57B1BD"/>
<path d="M153.121 99.6593C153.121 99.6593 167.855 105.99 174.52 90.5156C174.52 90.5156 159.786 84.7129 153.121 99.6593Z" fill="#57B1BD"/>
<path d="M158.383 81.0203C158.383 81.0203 174.345 81.1961 174.52 64.3155C174.52 64.3155 158.734 64.6671 158.383 81.0203Z" fill="#57B1BD"/>
<path d="M66.4731 81.7236C66.4731 81.7236 74.3661 95.7908 88.9244 87.5263C88.9244 87.5263 80.6805 73.8108 66.4731 81.7236Z" fill="#57B1BD"/>
<path d="M54.7212 59.3919C54.7212 59.3919 55.5982 75.3934 72.4367 74.5142C72.4367 74.3383 71.0335 58.5127 54.7212 59.3919Z" fill="#57B1BD"/>
<path d="M31.5683 55.1718C31.5683 55.1718 25.2539 69.9423 40.8646 76.4484C40.8646 76.4484 46.4774 61.6779 31.5683 55.1718Z" fill="#57B1BD"/>
<path d="M78.4004 42.5113C78.4004 42.5113 73.4891 57.8094 89.4506 62.9087C89.4506 63.0846 93.8356 47.7865 78.4004 42.5113Z" fill="#57B1BD"/>
<path d="M65.2453 26.1582C65.2453 26.1582 69.2795 41.6321 85.5918 37.4119C85.5918 37.4119 81.0314 22.1139 65.2453 26.1582Z" fill="#57B1BD"/>
<path d="M101.553 11.036C101.553 11.036 93.134 24.7515 107.342 33.5435C107.342 33.7193 115.41 19.828 101.553 11.036Z" fill="#57B1BD"/>
<rect width="162.947" height="162.124" fill="black" fill-opacity="0" transform="translate(19.1148 5.76077)"/>
<path d="M116.813 5.76074C116.813 5.76074 125.583 30.9058 106.114 48.4898C88.5736 64.3154 93.3094 92.9773 99.6238 103.528C111.025 122.518 110.323 152.06 93.4848 167.885" stroke="black" stroke-width="5" stroke-miterlimit="10"/>
<path d="M107.341 167.709C91.0292 152.411 89.0998 122.518 100.15 105.11C100.676 104.231 101.378 103.176 101.904 102.121C103.658 98.4284 110.674 87.3505 132.073 80.141C158.032 71.3491 168.381 57.2819 171.363 43.7422" stroke="black" stroke-width="5" stroke-miterlimit="10"/>
<path d="M138.037 12.7943C138.037 12.7943 154.875 52.1825 134.704 79.2618" stroke="black" stroke-width="4" stroke-miterlimit="10"/>
<path d="M102.255 101.418C102.255 101.418 117.339 93.329 133.827 101.418C150.315 109.506 165.048 113.902 182.062 99.6593" stroke="black" stroke-width="4" stroke-miterlimit="10"/>
<path d="M146.456 106.693C146.456 106.693 166.101 118.298 165.575 136.586" stroke="black" stroke-width="3" stroke-miterlimit="10"/>
<path d="M73.4891 99.1317C73.4891 99.1317 57.5276 106.869 59.6325 126.739" stroke="black" stroke-width="3" stroke-miterlimit="10"/>
<path d="M128.565 99.3076C128.565 99.3076 146.631 100.89 153.823 84.537" stroke="black" stroke-width="3" stroke-miterlimit="10"/>
<path d="M98.9222 101.418C98.9222 101.418 83.8377 93.329 67.3501 101.418C50.8624 109.506 36.1287 113.902 19.1148 99.6593" stroke="black" stroke-width="4" stroke-miterlimit="10"/>
<path d="M42.0923 28.2683C42.0923 28.2683 38.9351 84.0095 75.5939 98.6042" stroke="black" stroke-width="4" stroke-miterlimit="10"/>
<path d="M20.7608 66.6603C20.7608 66.6603 31.8086 84.8663 56.1483 82.9829" stroke="black" stroke-width="3" stroke-miterlimit="10"/>
<path d="M83.8377 25.279C83.8377 25.279 104.184 30.0267 104.36 50.2483" stroke="black" stroke-width="3" stroke-miterlimit="10"/>
<path d="M61.7372 37.9395C61.7372 37.9395 68.0517 65.7222 94.1864 72.4041" stroke="black" stroke-width="3" stroke-miterlimit="10"/>
</svg>
