<svg xmlns="http://www.w3.org/2000/svg" width="34" height="34"><defs><linearGradient id="a" x1="17" y1="34" x2="17" gradientUnits="userSpaceOnUse"><stop offset="0" stop-color="#0093d8"/><stop offset="1" stop-color="#4ac7f4"/></linearGradient></defs><path d="M29.018 4.982A17 17 0 104.982 29.016 17 17 0 0034 17a16.868 16.868 0 00-4.982-12.018zM17 31.511A14.512 14.512 0 1131.512 17 14.528 14.528 0 0117 31.511zm8.818-18.838l-3.006-3.026a1.25 1.25 0 00-1.762-.007l-4.257 4.236a1.246 1.246 0 101.755 1.768l3.372-3.358 1.258 1.264-8.2 8.162-4.167-4.187 1.265-1.258 2.024 2.038a1.246 1.246 0 101.769-1.755l-2.9-2.923a1.232 1.232 0 00-.878-.367h-.011a1.255 1.255 0 00-.878.36l-3.034 3.013a1.242 1.242 0 00-.007 1.755l5.916 5.95a1.232 1.232 0 00.878.367h.007a1.255 1.255 0 00.878-.36l9.972-9.916a1.243 1.243 0 00.006-1.756z" fill-rule="evenodd" fill="url(#a)"/></svg>