<svg xmlns="http://www.w3.org/2000/svg" width="43" height="43"><path data-name="Forma 1" d="M14.813 0a14.8 14.8 0 0111.794 23.763l3 3c.019.019.036.04.053.059a3.74 3.74 0 01.755-.078 3.644 3.644 0 012.594 1.075l8.916 8.916a3.668 3.668 0 01-5.188 5.187l-8.916-8.916a3.643 3.643 0 01-1.075-2.593 3.7 3.7 0 01.078-.755.743.743 0 01-.06-.053l-3-3A14.81 14.81 0 1114.813 0zm22.909 40.94a2.275 2.275 0 103.218-3.217l-8.051-8.053-3.218 3.217zm-9.031-9.04l3.209-3.209a2.274 2.274 0 00-3.209 3.209zm-1.268-3.6a3.679 3.679 0 01.4-.473 3.769 3.769 0 01.473-.4l-2.586-2.586q-.418.454-.872.873zm-12.609-.061A13.42 13.42 0 101.393 14.811a13.436 13.436 0 0013.42 13.422zm0-25.263A11.842 11.842 0 112.972 14.811 11.855 11.855 0 0114.813 2.97zm0 22.291A10.449 10.449 0 104.365 14.811 10.461 10.461 0 0014.813 25.26zM9.976 7.376a.7.7 0 01.761 1.168 7.478 7.478 0 00-1.691 11.025.7.7 0 01-1.074.887 8.871 8.871 0 012.004-13.08zM13.2 6.089a8.929 8.929 0 011.612-.147.7.7 0 010 1.394 7.514 7.514 0 00-1.36.123.7.7 0 01-.252-1.37z" fill="#24a5df" fill-rule="evenodd"/></svg>