<svg data-name="icon" xmlns="http://www.w3.org/2000/svg" width="20" height="22"><defs><filter id="a" x="0" y=".531" width="19.313" height="21.469" filterUnits="userSpaceOnUse"><feGaussianBlur result="blur" stdDeviation="2.236" in="SourceAlpha"/><feFlood result="flood" flood-color="#3c3c3c" flood-opacity=".16"/><feComposite result="composite" operator="out" in2="blur"/><feOffset result="offset" dx="-2.779" dy="2.877"/><feComposite result="composite-2" operator="in" in2="SourceAlpha"/><feBlend result="blend" mode="multiply" in2="SourceGraphic"/></filter></defs><path d="M.689.543L0 1.213v19.444l.69.67.689.673L19.31 11.27v-.67L1.379.543h-.69z" filter="url(#a)" fill="#fff" fill-rule="evenodd"/><path data-name="Forma 1" d="M1.469 22a1.407 1.407 0 01-1.363-1.573V1.559A1.408 1.408 0 011.469-.012a1.911 1.911 0 01.939.272l16.7 9.434a1.544 1.544 0 01.89 1.3 1.545 1.545 0 01-.89 1.3l-16.7 9.434a1.9 1.9 0 01-.939.272zm0-21.029c-.313 0-.359.37-.359.59v18.866a.488.488 0 00.36.59.9.9 0 00.438-.14l16.7-9.434a.638.638 0 00.392-.449.639.639 0 00-.388-.451L1.907 1.109a.91.91 0 00-.438-.14z" fill="#fff" fill-rule="evenodd"/></svg>