<svg xmlns="http://www.w3.org/2000/svg" width="56" height="60"><path data-name="Forma 1" d="M55.86 33.379l-3.669-7.341a1.342 1.342 0 00-1.726-.632l-3.731 1.589a2.662 2.662 0 00-5.005.653c-.145.748-.241 1.569-.333 2.364a11.631 11.631 0 01-.9 4.039 6.626 6.626 0 00-.893 3.2 10.3 10.3 0 01-7.9 2.711c-.925-.139-2.163-.394-3.474-.665-.986-.2-2.046-.422-3.13-.626a13.907 13.907 0 00-.18-14.264l-.879-1.428.229-.367A18.859 18.859 0 0026.842 9.14a6.057 6.057 0 00-.18-.689A12 12 0 0015.779.117L13.466.009A12.014 12.014 0 001.873 7.248a16.425 16.425 0 00.845 14.56 23.6 23.6 0 00-2.67 10.443c-.356 6.86 1.223 15.054 4.693 24.349.013.034.027.069.043.1a5.431 5.431 0 003.553 2.852 11.769 11.769 0 003.392.448 29.529 29.529 0 007.683-1.241 49.97 49.97 0 0011.553-4.935c7.769-4.647 18.137-10.29 18.241-10.347a1.341 1.341 0 00.441-.386l6.1-8.327a1.334 1.334 0 00.113-1.385zm-8.2 7.9c-1.675.915-10.952 6-18.073 10.257-6.254 3.739-15.971 6.83-20.47 5.464a2.876 2.876 0 01-1.887-1.39C.656 37.96 2.569 28.49 4.506 24.205c.268.337.529.681.775 1.032A1.338 1.338 0 007.475 23.7c-.427-.6-.888-1.2-1.375-1.764a9.7 9.7 0 01-.835-1.075 13.749 13.749 0 01-.924-12.572 9.322 9.322 0 019-5.61l2.313.108A9.307 9.307 0 0124.1 9.248a3.491 3.491 0 01.1.376A16.2 16.2 0 0122 21.2a112.82 112.82 0 00-2.412 4.021 1.339 1.339 0 002.331 1.319q.272-.48.567-.98l.147.24a11.237 11.237 0 01-.412 12.391 26.7 26.7 0 00-4.3-.307 1.336 1.336 0 10.071 2.671 48.394 48.394 0 019.695 1.354c1.403.291 2.613.542 3.613.691a8.605 8.605 0 001.266.086 13.7 13.7 0 007.3-2.2 16.058 16.058 0 00.493 1.923 1.339 1.339 0 002.543-.843 14.848 14.848 0 01-.54-2.469 5.84 5.84 0 01.4-3.632 12.825 12.825 0 001.292-5.148c.087-.746.169-1.452.287-2.08a19.713 19.713 0 01.074 8.124 1.339 1.339 0 002.619.565c.014-.066.13-.609.243-1.454l2.539-1.933a1.337 1.337 0 10-1.626-2.124l-.69.525a19.591 19.591 0 00-.153-2.3l3.007-1.28 2.746 5.483z" fill="#0a9adc" fill-rule="evenodd"/></svg>