<svg xmlns="http://www.w3.org/2000/svg" width="54" height="60"><path data-name="Forma 1" d="M15.152 34.728a2.091 2.091 0 011.479.605 1.152 1.152 0 001.618 0 1.122 1.122 0 000-1.6 4.415 4.415 0 00-6.194 0 1.122 1.122 0 000 1.6 1.152 1.152 0 001.618 0 2.09 2.09 0 011.479-.605zm20.6-.994a1.122 1.122 0 000 1.6 1.152 1.152 0 001.618 0 2.112 2.112 0 012.958 0 1.152 1.152 0 001.618 0 1.122 1.122 0 000-1.6 4.421 4.421 0 00-6.195 0zm3.09 11.166a16.9 16.9 0 01-23.683 0 1.152 1.152 0 00-1.618 0 1.121 1.121 0 000 1.6 19.209 19.209 0 0026.92 0 1.121 1.121 0 000-1.6 1.152 1.152 0 00-1.619 0zM54 35.947a6.3 6.3 0 00-5.2-6.171V10.848a7.269 7.269 0 00-3.3-6.088 7.443 7.443 0 00-6.538-.8l-7.191-2.416a28.813 28.813 0 00-16.8-.55C7.8 2.948 3.695 7.083 3.06 12.957A8.541 8.541 0 001.751 15.4l-.558 1.629a1.925 1.925 0 00.821 2.289 1.975 1.975 0 002.444-.249 3.993 3.993 0 01.742-.558v11.265a6.263 6.263 0 00.358 12.4A21.836 21.836 0 0027 60a21.775 21.775 0 0015.411-6.313 21.318 21.318 0 006.063-11.518A6.308 6.308 0 0054 35.947zm-9.772-29.3a4.952 4.952 0 012.281 4.2v14.808A7.378 7.378 0 0140.23 18.4l-.094-12.438a5.055 5.055 0 014.092.683zM3.7 16.772l.222-.65a6.371 6.371 0 013.549-3.8 6.475 6.475 0 015.229.082 8.82 8.82 0 0010.187-2.1l.284-.318a1.122 1.122 0 00-.1-1.6 1.154 1.154 0 00-1.615.1l-.284.318a6.5 6.5 0 01-7.506 1.545 8.8 8.8 0 00-7.1-.11 8.622 8.622 0 00-.606.288c1.33-3.506 4.549-5.976 9.614-7.357a26.508 26.508 0 0115.46.511l6.812 2.286.089 5.846a20.133 20.133 0 01-12.5 7.787 20.308 20.308 0 01-14.827-2.895 6.26 6.26 0 00-6.908.067zM2.289 35.947A4.024 4.024 0 015.2 32.1v6.133c0 .529.019 1.056.057 1.579a4.025 4.025 0 01-2.968-3.865zM40.8 52.085A19.493 19.493 0 0127 57.736a19.537 19.537 0 01-19.509-19.5V17.977a4 4 0 011.87.628 22.6 22.6 0 0016.506 3.223 22.446 22.446 0 0012.075-6.5V18.4a9.655 9.655 0 008.567 9.534v10.512A19.052 19.052 0 0140.8 52.085zm7.958-12.278c.028-.451.044-.906.044-1.361V32.1a4 4 0 01-.049 7.708z" fill="#0a9adc" fill-rule="evenodd"/></svg>