<svg xmlns="http://www.w3.org/2000/svg" width="70" height="60"><path d="M36.167 34.613a6.661 6.661 0 00-7 6.925v1.152c0 5.608 3.206 9.231 8.167 9.231S45.5 48.3 45.5 42.69v-1.152a6.662 6.662 0 00-7-6.925h-2.333zm7 6.925v1.152c0 2.082-.569 6.924-5.833 6.924S31.5 44.772 31.5 42.69v-1.152a4.35 4.35 0 014.667-4.616H38.5a4.35 4.35 0 014.667 4.616zm-8.132 0h-.013a1.173 1.173 0 10.013 0zm5.709-15A1.163 1.163 0 0042 25.473l1.166-14.982c.259-2.746 3.991-5.877 7-5.877H52.5c3.071 0 6.8 3.118 7 5.858l1.167 15a1.161 1.161 0 001.162 1.064h.091A1.158 1.158 0 0063 25.294l-1.167-15c-.315-4.224-5.481-7.988-9.333-7.988h-2.333c-4.246 0-8.954 4.022-9.33 7.988l-1.167 15a1.158 1.158 0 001.074 1.24zm10.529-16.52a1.171 1.171 0 00-2.213 0 3.925 3.925 0 01-3.56 2.673 1.159 1.159 0 00-1.167 1.153v4.616c0 3.854 2.662 9.23 7 9.23s7-5.377 7-9.23v-4.616a1.16 1.16 0 00-1.167-1.153c-.05 0-5.016-.073-5.893-2.673zM56 18.46c0 3.136-2.081 6.922-4.667 6.922s-4.666-3.782-4.666-6.922v-3.6a6.352 6.352 0 003.589-2.211c1.633 1.616 4.241 2.122 5.745 2.28v3.531zm-32.667-6.923H24.5a1.154 1.154 0 100-2.307h-1.167a1.154 1.154 0 100 2.307zM39.7 43.845a1.154 1.154 0 100-2.307h-.011a1.154 1.154 0 10.011 2.307zM11.711 13.56a13.6 13.6 0 001.245 4.262c1.057 2.092 2.656 5.253 8.044 5.253s6.986-3.162 8.043-5.253a13.623 13.623 0 001.246-4.262 2.309 2.309 0 001.211-2.023V9.229a2.3 2.3 0 00-1.167-2v-.307a6.97 6.97 0 00-7-6.923h-4.666a6.969 6.969 0 00-7 6.923v.31a2.3 2.3 0 00-1.167 2v2.307a2.309 2.309 0 001.211 2.021zm1.122-4.331A1.161 1.161 0 0014 8.075V6.922a4.646 4.646 0 014.667-4.616h4.667A4.646 4.646 0 0128 6.922v1.153a1.16 1.16 0 001.167 1.154v2.307A1.16 1.16 0 0028 12.691a10.723 10.723 0 01-1.044 4.1c-1.214 2.4-2.285 3.977-5.956 3.977s-4.743-1.575-5.956-3.976A10.725 10.725 0 0114 12.691a1.161 1.161 0 00-1.167-1.154V9.229zm28 43.845a1.175 1.175 0 00-.648.2l-2.852 1.876-2.853-1.88a1.175 1.175 0 00-.646-.2c-6.749 0-8.167 3.138-8.167 5.77a1.167 1.167 0 002.333 0c0-.927 0-3.36 5.485-3.458l3.2 2.111a1.176 1.176 0 001.294 0l3.2-2.111c5.485.1 5.485 2.531 5.485 3.458a1.167 1.167 0 002.333 0c.003-2.627-1.414-5.765-8.164-5.765zM61.91 39.229a1.159 1.159 0 00-1.167 1.148l-.076 18.463A1.159 1.159 0 0061.829 60 1.16 1.16 0 0063 58.85l.072-18.462a1.159 1.159 0 00-1.162-1.159zM17.5 11.537h1.167a1.154 1.154 0 100-2.307H17.5a1.154 1.154 0 100 2.307zm9.31 21l.976-4.818c5.891.13 10.13 1.582 11.43 3.942a1.171 1.171 0 001.582.462 1.147 1.147 0 00.467-1.565c-1.831-3.33-6.929-5.158-14.357-5.158a1.2 1.2 0 00-1.219.926l-1.167 5.755a1.153 1.153 0 00.915 1.358 1.1 1.1 0 00.231.023 1.163 1.163 0 001.142-.928zm40.329-1.381c-2.287-2.257-5.723-3.448-9.938-3.448a1.173 1.173 0 00-1.2 1.15c0 .235-.083 5.759-4.667 5.759s-4.666-5.523-4.667-5.759a1.167 1.167 0 00-2.333 0c0 2.58 1.26 7.279 5.833 7.969v5.862a1.167 1.167 0 002.333 0v-5.862c3.938-.594 5.42-4.158 5.754-6.785a10.909 10.909 0 017.236 2.745 7.36 7.36 0 012.177 5.288v18.462a1.167 1.167 0 002.333 0V38.075a9.646 9.646 0 00-2.861-6.922zM21 25.383a2.323 2.323 0 00-2.333 2.308 2.3 2.3 0 001.167 1.986v8.4a1.167 1.167 0 002.333 0v-8.4a2.3 2.3 0 001.167-1.986A2.324 2.324 0 0021 25.383zM8.166 39.229A1.16 1.16 0 007 40.384v18.46a1.167 1.167 0 002.333 0v-18.46a1.161 1.161 0 00-1.167-1.155zm8.141-12.912a1.229 1.229 0 00-1.22-.919c-6.129 0-10.816 1.3-13.207 3.656A6.012 6.012 0 000 33.46v23.077a1.16 1.16 0 001.167 1.154 1.161 1.161 0 001.167-1.154V33.46a3.744 3.744 0 011.2-2.772c1.818-1.794 5.684-2.861 10.69-2.972l5.639 26.75a1.168 1.168 0 001.38.893 1.152 1.152 0 00.9-1.365z" fill="#0a9adc" fill-rule="evenodd"/></svg>