<svg xmlns="http://www.w3.org/2000/svg" xmlns:xlink="http://www.w3.org/1999/xlink" width="60" height="60"
	viewBox="0 0 60 60">
	<defs>
	</defs>
	<path class="cls-1"
		d="M15.927,54.145A5,5,0,0,0,6.51,52.8,4.157,4.157,0,0,0,6,52.493V36a1,1,0,1,0-2,0V52a4,4,0,1,0,0,8H15A3,3,0,0,0,15.927,54.145ZM15,58H4a2,2,0,1,1,0-4,2.173,2.173,0,0,1,2.063,1.35A1,1,0,0,0,8,55a3,3,0,0,1,6,0,1,1,0,0,0,1,1A1,1,0,1,1,15,58ZM59,8H40a1,1,0,1,0,0,2H58V31.585L30.707,4.292a1.006,1.006,0,0,0-1.42,0L2,31.584V10H13a1,1,0,0,0,1-1V5a1,1,0,0,0-1-1H12V2h6V4H17a1,1,0,0,0-1,1V9a1,1,0,0,0,1,1h3a1,1,0,1,0,0-2H18V6h1a1,1,0,0,0,1-1V1a1,1,0,0,0-1-1H11a1,1,0,0,0-1,1V5a1,1,0,0,0,1,1h1V8H1A1,1,0,0,0,0,9L0,34a1,1,0,0,0,1.707.707L30,6.409l28.3,28.3A1,1,0,0,0,59,35a1,1,0,0,0,1-1V9A1,1,0,0,0,59,8ZM56,52V36a1,1,0,1,0-2,0V52.493a4.159,4.159,0,0,0-.51.308,5,5,0,0,0-9.417,1.344A3.006,3.006,0,0,0,42,57a2.929,2.929,0,0,0,.185,1H25a1,1,0,0,0,0,2H56A4,4,0,1,0,56,52Zm0,6H45a1,1,0,1,1,0-2,1,1,0,0,0,1-1,3,3,0,1,1,6,0,1,1,0,0,0,1.937.349A2.173,2.173,0,0,1,56,54,2,2,0,1,1,56,58ZM34,20a4,4,0,1,0-4,4A4,4,0,0,0,34,20Zm-6,0a2,2,0,1,1,2,2A2,2,0,0,1,28,20ZM49,34H41a1,1,0,0,0-1,1V46H39a1,1,0,0,0,0,2H51a1,1,0,0,0,0-2H50V35A1,1,0,0,0,49,34ZM48,46H42V42h6v4Zm0-6H42V36h6v4ZM40,55a1,1,0,0,0-1-1H36V35a1,1,0,0,0-1-1H25a1,1,0,0,0-1,1V54H21a1,1,0,0,0-1,1v4a1,1,0,0,0,2,0V56H39A1,1,0,0,0,40,55ZM34,44H33a1,1,0,1,0,0,2h1v8H26V36h8v8ZM19,34H11a1,1,0,0,0-1,1V46H9a1,1,0,0,0,0,2H21a1,1,0,0,0,0-2H20V35A1,1,0,0,0,19,34ZM18,46H12V42h6v4Zm0-6H12V36h6v4Z">
	</path>
</svg>