<svg xmlns="http://www.w3.org/2000/svg" xmlns:xlink="http://www.w3.org/1999/xlink" width="58" height="60"
	viewBox="0 0 58 60">
	<defs>
	</defs>
	<path id="Forma_1" data-name="Forma 1" class="cls-1"
		d="M57,57.987H50.229V55.926c0-4.72-1.247-8.365-3.706-10.829a10.912,10.912,0,0,0-7.229-3.149H34.3V38.737a14.022,14.022,0,0,0,6.433-5.481,16.744,16.744,0,0,0,2.368-6.02,1.029,1.029,0,0,0,.01-0.144V26.876A3.516,3.516,0,0,0,44.905,25.8c1.411-1.578,1.329-4.065,1.228-5.062a2.616,2.616,0,0,0-.983-1.841,3.755,3.755,0,0,0-2.037-.7v-8.6c0-3.163-1.3-5.28-3.964-6.467A1.1,1.1,0,0,1,38.4,2.165a2.067,2.067,0,0,1,.093-0.794,1.011,1.011,0,0,0-.387-1.21A0.99,0.99,0,0,0,36.857.3C35.433,1.756,34.012,1.783,30.931,1.7a42.866,42.866,0,0,0-7.8.361,8.9,8.9,0,0,0-7.44,5.747,12.306,12.306,0,0,0-.823,4.664v5.713a3.75,3.75,0,0,0-2.045.705,2.616,2.616,0,0,0-.983,1.841c-0.1,1-.182,3.484,1.228,5.062a3.51,3.51,0,0,0,1.816,1.084v0.211a1,1,0,0,0,.01.144,16.745,16.745,0,0,0,2.368,6.02A14.024,14.024,0,0,0,23.7,38.737v3.211H18.713A10.9,10.9,0,0,0,11.477,45.1c-2.459,2.465-3.706,6.11-3.706,10.829v2.062H1A1.005,1.005,0,0,0,1,60H57A1.005,1.005,0,0,0,57,57.987Zm-8.766-2.062v2.062H35.084V43.96H39.12v3.9a3.7,3.7,0,0,0-2.029,1.921,5.766,5.766,0,0,0-.533,1.758,1.044,1.044,0,0,0-.006.113v2.738a1,1,0,1,0,1.993,0V51.717c0.044-.291.34-1.892,1.572-2.043,1.231,0.152,1.528,1.748,1.572,2.043v2.671a1,1,0,1,0,1.993,0V51.65a1.044,1.044,0,0,0-.006-0.113,5.766,5.766,0,0,0-.533-1.758,3.7,3.7,0,0,0-2.029-1.921V44.242a8.838,8.838,0,0,1,4.005,2.282C47.187,48.6,48.236,51.761,48.236,55.926ZM29,48.3a5.272,5.272,0,0,0,4.092-1.953V57.987H24.843V46.259A5.274,5.274,0,0,0,29,48.3ZM44.151,20.939a4.959,4.959,0,0,1-.725,3.509,1.6,1.6,0,0,1-.313.27V20.21a1.667,1.667,0,0,1,.815.273A0.593,0.593,0,0,1,44.151,20.939ZM17.546,8.554a6.934,6.934,0,0,1,5.87-4.5,41.168,41.168,0,0,1,7.464-.341c2.253,0.058,4.049.1,5.669-.713a3.109,3.109,0,0,0,1.8,1.961c1.945,0.866,2.775,2.25,2.775,4.625v5.624a5.418,5.418,0,0,1-3.879-1.734,6.161,6.161,0,0,1-1.011-4.5,1.008,1.008,0,0,0-.563-1.1,0.99,0.99,0,0,0-1.2.291c-1.8,2.3-4.381,3.175-7.656,2.6A15.485,15.485,0,0,1,22.158,9.08a0.994,0.994,0,0,0-1.466.583,6.726,6.726,0,0,1-3.828,4.707V12.452c0-.019,0-0.038,0-0.057A10.2,10.2,0,0,1,17.546,8.554Zm-3,15.894a4.96,4.96,0,0,1-.725-3.509,0.592,0.592,0,0,1,.223-0.456,1.687,1.687,0,0,1,.838-0.275v4.524A1.579,1.579,0,0,1,14.55,24.448Zm4.43,7.781a15.128,15.128,0,0,1-2.1-5.22V16.486a8.189,8.189,0,0,0,5.334-5.117,17.357,17.357,0,0,0,4.2,1.367,9.743,9.743,0,0,0,7.827-1.548,6.98,6.98,0,0,0,1.458,3.56,7.363,7.363,0,0,0,5.424,2.484v9.776a15.122,15.122,0,0,1-2.1,5.22,12.152,12.152,0,0,1-9.927,5.656H28.907A12.153,12.153,0,0,1,18.98,32.229Zm9.83,7.666c0.022,0,.043,0,0.065,0h0.25c0.021,0,.043,0,0.064,0a16.822,16.822,0,0,0,3.119-.492v3.515c0,0.009,0,.017,0,0.025a3.308,3.308,0,1,1-6.616,0V39.4A16.821,16.821,0,0,0,28.81,39.895ZM18.326,49.94a1.766,1.766,0,1,1-1.75,1.767A1.76,1.76,0,0,1,18.326,49.94ZM9.764,55.926c0-9.079,5.051-11.271,7.565-11.8v3.937a3.743,3.743,0,1,0,1.993,0V43.96H22.85V57.987H9.764V55.926Zm12.162-38.4a1.2,1.2,0,1,1-1.189,1.2A1.2,1.2,0,0,1,21.926,17.527Zm14.147,0a1.2,1.2,0,1,1-1.189,1.2A1.195,1.195,0,0,1,36.074,17.528Zm-0.9,13.64a1.011,1.011,0,0,0-.15-1.413,0.989,0.989,0,0,0-1.4.151c-0.011.013-1.208,1.333-4.381,1.333a7.728,7.728,0,0,1-4.982-1.45,0.989,0.989,0,0,0-1.4.07,1.013,1.013,0,0,0,.065,1.421,9.6,9.6,0,0,0,6.319,1.971C33.394,33.25,35.007,31.381,35.177,31.167ZM28.743,25.8h0.514a2.406,2.406,0,0,0,2.392-2.414,1,1,0,1,0-1.993,0,0.4,0.4,0,0,1-.4.4H28.743a0.4,0.4,0,0,1-.4-0.4,1,1,0,1,0-1.993,0A2.406,2.406,0,0,0,28.743,25.8ZM18.326,51.08a0.626,0.626,0,1,1-.62.627A0.623,0.623,0,0,1,18.326,51.08Z">
	</path>
</svg>