<svg xmlns="http://www.w3.org/2000/svg" xmlns:xlink="http://www.w3.org/1999/xlink" width="56" height="60"
	viewBox="0 0 56 60">
	<defs>
	</defs>
	<path class="cls-1"
		d="M34,20.984a1,1,0,0,0,1,1H45a1,1,0,0,0,0-2H35A1,1,0,0,0,34,20.984Zm6,6a1,1,0,0,0,1,1h6a1,1,0,0,0,0-2H41A1,1,0,0,0,40,26.987Zm-1-11a1,1,0,0,0,0-2H37a1,1,0,0,0,0,2h2Zm-12,10a1,1,0,0,0,0,2H37a1,1,0,0,0,0-2H27ZM32,54H13a3,3,0,0,1-3-3V4.978a1,1,0,0,0-1-1,5.006,5.006,0,0,0-5,5,1,1,0,0,0,2,0,3.007,3.007,0,0,1,2-2.83V51a5.006,5.006,0,0,0,5,5H32A1,1,0,1,0,32,54ZM17,21.985H31a1,1,0,0,0,0-2H17A1,1,0,0,0,17,21.985Zm0-6h4a1,1,0,0,0,0-2H17A1,1,0,0,0,17,15.983Zm16-2H25a1,1,0,0,0,0,2h8A1,1,0,0,0,33,13.981ZM47,0H9a9.013,9.013,0,0,0-9,8.97V9.014a9.038,9.038,0,0,0,4.5,7.763,1,1,0,1,0,1-1.73A6.99,6.99,0,0,1,9,2H47a7.01,7.01,0,0,1,7,7V51.019a2.917,2.917,0,0,1-.409,1.471,1,1,0,0,0,.355,1.368,0.988,0.988,0,0,0,.506.139,1,1,0,0,0,.863-0.493A4.911,4.911,0,0,0,56,51.019V9A9.011,9.011,0,0,0,47,0Zm3,46a6,6,0,1,0-6,6A6.007,6.007,0,0,0,50,45.994Zm-6,4a4,4,0,1,1,4-4A4,4,0,0,1,44,50Zm-1.8,3a1,1,0,0,0-1.366.366L38.676,57.1l-0.342-.516a0.993,0.993,0,0,0-.774-0.447L36.942,56.1,39.131,52.3a1,1,0,0,0-1.733-1l-3,5.194a1,1,0,0,0,.807,1.5L36.941,58.1,37.9,59.55a1,1,0,0,0,.834.449h0.031a1,1,0,0,0,.836-0.5l2.963-5.134A1,1,0,0,0,42.195,53Zm8.433-1.646a1,1,0,0,0-1.733,1L51.058,56.1l-0.618.037a1,1,0,0,0-.775.447l-0.34.516-2.142-3.715a1,1,0,1,0-1.733,1L48.4,59.5a1,1,0,0,0,.836.5h0.031A1,1,0,0,0,50.1,59.55L51.06,58.1,52.792,58a1,1,0,0,0,.807-1.5ZM17,27.987h6a1,1,0,0,0,0-2H17A1,1,0,0,0,17,27.987Zm0,6H29a1,1,0,0,0,0-2H17A1,1,0,0,0,17,33.989Zm0.106,12.452a1,1,0,1,0,1.788-.895c-0.99-1.981-1.212-3.757-.6-4.754a1.845,1.845,0,0,1,1.7-.8,0.81,0.81,0,0,1,.767.324c0.745,1.073.037,4.346-.7,6.328A1,1,0,0,0,21.707,47.7c0.427-.427.89-0.851,1.293-1.2v0.49a1,1,0,0,0,1.707.707,12.473,12.473,0,0,1,1.433-1.226c-0.012.025-.024,0.049-0.036,0.073a1,1,0,0,0,.9,1.446h4a1,1,0,0,0,0-2H28.4a1.934,1.934,0,0,0-.18-1.351A1.392,1.392,0,0,0,27,43.993a3.893,3.893,0,0,0-2.009.843,1.154,1.154,0,0,0-.7-0.957,1.37,1.37,0,0,0-1.446.247c0.329-1.724.425-3.711-.433-4.949A2.776,2.776,0,0,0,20,37.991a3.816,3.816,0,0,0-3.4,1.75C15.6,41.356,15.784,43.8,17.106,46.441ZM44,32.988a1,1,0,0,0-1-1H33a1,1,0,0,0,0,2H43A1,1,0,0,0,44,32.988Z">
	</path>
</svg>