<svg xmlns="http://www.w3.org/2000/svg" xmlns:xlink="http://www.w3.org/1999/xlink" width="60" height="60"
	viewBox="0 0 60 60">
	<defs>
	</defs>
	<path class="cls-1"
		d="M21,40a5.9,5.9,0,0,1-1.653-1.5C17.714,36.708,15.246,34,11,34c-4.133,0-5,1.087-5,2a1,1,0,0,0,1.91.414A7.055,7.055,0,0,1,11,36c3.362,0,5.307,2.134,6.868,3.85C18.962,41.05,19.826,42,21,42H34a1,1,0,0,0,0-2H21ZM23.586,7.909A7.075,7.075,0,0,1,24,11c0,3.363-2.135,5.306-3.851,6.868C18.948,18.961,18,19.825,18,21V34a1,1,0,0,0,2,0V21a5.894,5.894,0,0,1,1.5-1.653C23.29,17.713,26,15.245,26,11c0-4.131-1.088-5-2-5A1,1,0,0,0,23.586,7.909ZM0,19a1,1,0,0,0,1,1H5.854A5.127,5.127,0,0,1,6,21V31a1,1,0,1,0,2,0V21a15.053,15.053,0,0,0-.894-3.934A19.155,19.155,0,0,1,6,12V3A1,1,0,0,1,8,3a1,1,0,1,0,2,0,1,1,0,0,1,2,0,1,1,0,1,0,2,0,1,1,0,0,1,2,0,1,1,0,0,0,2,0,1,1,0,0,1,2,0v8a1,1,0,1,0,2,0V3A3,3,0,0,0,17,.765a2.994,2.994,0,0,0-4,0,2.994,2.994,0,0,0-4,0A3,3,0,0,0,4,3V6H1A1,1,0,0,0,1,8H4v4a20.5,20.5,0,0,0,1.2,5.66c0.036,0.115.07,0.226,0.1,0.34H1A1,1,0,0,0,0,19Zm40.653,2.5C42.286,23.289,44.754,26,49,26c4.133,0,5-1.087,5-2a1,1,0,0,0-1.91-.414A7.07,7.07,0,0,1,49,24c-3.362,0-5.307-2.135-6.868-3.85C41.038,18.948,40.174,18,39,18H26a1,1,0,0,0,0,2H39A5.906,5.906,0,0,1,40.653,21.5ZM31,52H21a15,15,0,0,0-3.933.895A19.187,19.187,0,0,1,12,54H3a1,1,0,1,1,0-2,1,1,0,1,0,0-2,1,1,0,1,1,0-2,1,1,0,0,0,0-2,1,1,0,1,1,0-2,1,1,0,1,0,0-2,1,1,0,0,1,0-2h8a1,1,0,1,0,0-2H3A3,3,0,0,0,.766,43a2.994,2.994,0,0,0,0,4,2.993,2.993,0,0,0,0,4A3,3,0,0,0,3,56H6v3a1,1,0,0,0,2,0V56h4a20.437,20.437,0,0,0,5.659-1.2L18,54.7V59a1,1,0,0,0,2,0V54.145A5.081,5.081,0,0,1,21,54H31A1,1,0,0,0,31,52ZM59.234,9A3,3,0,0,0,57,4H54V1a1,1,0,1,0-2,0V4H48a20.466,20.466,0,0,0-5.659,1.2L42,5.3V1a1,1,0,1,0-2,0V5.853A5.009,5.009,0,0,1,39,6H29a1,1,0,0,0,0,2H39A15,15,0,0,0,42.933,7.1,19.157,19.157,0,0,1,48,6h9a1,1,0,1,1,0,2,1,1,0,1,0,0,2,1,1,0,1,1,0,2,1,1,0,1,0,0,2,1,1,0,0,1,0,2,1,1,0,1,0,0,2,1,1,0,1,1,0,2H49a1,1,0,0,0,0,2h8a3,3,0,0,0,2.234-5,2.993,2.993,0,0,0,0-4A2.995,2.995,0,0,0,59.234,9Zm-22.82,43.09A7.076,7.076,0,0,1,36,49c0-3.362,2.135-5.306,3.851-6.868C41.052,41.037,42,40.173,42,39V26a1,1,0,0,0-2,0V39a5.917,5.917,0,0,1-1.5,1.653C36.71,42.284,34,44.752,34,49c0,4.132,1.088,5,2,5A1,1,0,0,0,36.414,52.089ZM60,41a1,1,0,0,0-1-1H54.146A5.12,5.12,0,0,1,54,39V29a1,1,0,0,0-2,0V39a15.035,15.035,0,0,0,.894,3.933A19.15,19.15,0,0,1,54,48v9a1,1,0,0,1-2,0,1,1,0,0,0-2,0,1,1,0,0,1-2,0,1,1,0,0,0-2,0,1,1,0,0,1-2,0,1,1,0,0,0-2,0,1,1,0,0,1-2,0V49a1,1,0,0,0-2,0v8a3,3,0,0,0,5,2.235,3,3,0,0,0,4,0,3,3,0,0,0,4,0A3,3,0,0,0,56,57V54h3a1,1,0,1,0,0-2H56V48a20.492,20.492,0,0,0-1.2-5.661c-0.036-.115-0.07-0.226-0.105-0.34H59A1,1,0,0,0,60,41Z">
	</path>
</svg>