<svg xmlns="http://www.w3.org/2000/svg" xmlns:xlink="http://www.w3.org/1999/xlink" width="69.063"
	height="60" viewBox="0 0 69.063 60">
	<defs>
	</defs>
	<path data-name="Forma 1" class="cls-1"
		d="M68.622,15.467L54.569,1.381a4.7,4.7,0,0,0-6.661,0l-3.3,3.31a4.7,4.7,0,0,0-1.1,1.747L28.056,3.664h0A12.894,12.894,0,0,0,12.92,13.773l-0.713,3.543a7.223,7.223,0,1,0,14.161,2.861L26.8,18.01l6.929,0.607,18.1,18.135,3.279,3.287A1.705,1.705,0,0,1,52.7,42.454l-8.785-8.8A1.569,1.569,0,0,0,41.7,35.87l8.785,8.8a1.7,1.7,0,0,1-2.408,2.413l-8.785-8.8a1.569,1.569,0,0,0-2.216,2.22l8.785,8.805a1.711,1.711,0,0,1,0,2.413,1.7,1.7,0,0,1-2.409,0l-8.785-8.8a1.569,1.569,0,1,0-2.216,2.221l8.785,8.8a1.705,1.705,0,0,1-2.409,2.414L7.742,25.206l-4.1-4.114a1.569,1.569,0,1,0-2.216,2.22l4.1,4.114L9.993,31.9,7.531,34.372a4.286,4.286,0,0,0,0,6.051l0.8,0.8a4.235,4.235,0,0,0,2.592,1.233,4.256,4.256,0,0,0,1.229,2.6l0.8,0.8a4.239,4.239,0,0,0,2.592,1.228,4.252,4.252,0,0,0,1.23,2.6l0.8,0.805a4.233,4.233,0,0,0,2.592,1.232,4.247,4.247,0,0,0,1.229,2.6l0.8,0.806a4.267,4.267,0,0,0,6.037,0l2.462-2.468,5.9,5.914a4.831,4.831,0,0,0,8.248-3.225,4.818,4.818,0,0,0,4.623-4.637A4.813,4.813,0,0,0,54.1,46.083a4.81,4.81,0,0,0,3.22-1.408,4.861,4.861,0,0,0,0-6.856l-2.171-2.177L63.1,27.68l5.525-5.537A4.733,4.733,0,0,0,68.622,15.467ZM9.746,38.2a1.14,1.14,0,0,1,0-1.609l2.309-2.314,2.409,2.413-2.309,2.314a1.135,1.135,0,0,1-1.605,0Zm4.625,4.635a1.141,1.141,0,0,1,0-1.609l2.309-2.314,2.409,2.414L16.78,43.643a1.136,1.136,0,0,1-1.605,0ZM19,47.471a1.139,1.139,0,0,1,0-1.609L21.3,43.549l2.409,2.413L21.4,48.277a1.134,1.134,0,0,1-1.605,0Zm7.034,5.44a1.133,1.133,0,0,1-1.605,0l-0.8-.8a1.14,1.14,0,0,1,0-1.609l2.309-2.315L28.339,50.6Zm26.906-19.49L35.545,15.992a1.564,1.564,0,0,0-.971-0.455l-8.893-.779c-0.046,0-.092,0-0.137,0a1.567,1.567,0,0,0-1.535,1.259L23.3,19.557a4.089,4.089,0,1,1-8.016-1.62l0.713-3.543A9.754,9.754,0,0,1,27.47,6.75L27.5,6.756,42.73,9.488l1.875,1.879,15.168,15.2Zm13.47-13.5-4.417,4.427L46.821,9.147a1.584,1.584,0,0,1,0-2.235l3.3-3.31a1.575,1.575,0,0,1,2.23,0L66.406,17.686A1.584,1.584,0,0,1,66.406,19.922Zm-3.793-2.065a1.571,1.571,0,1,1-1.567,1.57A1.569,1.569,0,0,1,62.613,17.857Z"
		transform="translate(-0.969)"></path>
</svg>