<svg xmlns="http://www.w3.org/2000/svg" xmlns:xlink="http://www.w3.org/1999/xlink" width="70" height="60"
	viewBox="0 0 70 60">
	<defs>
	</defs>
	<path class="cls-1"
		d="M21,39.229a1.16,1.16,0,0,0,1.167-1.153v-8.4a2.294,2.294,0,0,0,1.167-1.987,2.333,2.333,0,0,0-4.667,0,2.294,2.294,0,0,0,1.167,1.987v8.4A1.16,1.16,0,0,0,21,39.229Zm-9.289-25.67a13.6,13.6,0,0,0,1.245,4.264c1.058,2.091,2.656,5.253,8.044,5.253s6.986-3.162,8.044-5.253a13.593,13.593,0,0,0,1.245-4.264A2.3,2.3,0,0,0,31.5,11.538V9.229a2.3,2.3,0,0,0-1.167-2V6.922a6.969,6.969,0,0,0-7-6.923H18.667a6.969,6.969,0,0,0-7,6.923V7.232a2.3,2.3,0,0,0-1.167,2v2.309A2.3,2.3,0,0,0,11.711,13.559Zm1.122-4.33A1.159,1.159,0,0,0,14,8.075V6.922a4.645,4.645,0,0,1,4.667-4.615h4.667A4.645,4.645,0,0,1,28,6.922V8.075a1.159,1.159,0,0,0,1.167,1.154v2.309A1.16,1.16,0,0,0,28,12.691a10.708,10.708,0,0,1-1.044,4.1c-1.214,2.4-2.285,3.978-5.956,3.978s-4.741-1.575-5.955-3.977A10.686,10.686,0,0,1,14,12.691a1.16,1.16,0,0,0-1.167-1.153V9.229h0Zm10.5,2.309H24.5a1.155,1.155,0,1,0,0-2.309H23.333A1.155,1.155,0,1,0,23.333,11.538Zm-5.833,0h1.167a1.155,1.155,0,1,0,0-2.309H17.5A1.155,1.155,0,1,0,17.5,11.538ZM8.167,39.229A1.16,1.16,0,0,0,7,40.383V58.845a1.167,1.167,0,0,0,2.333,0V40.383A1.16,1.16,0,0,0,8.167,39.229Zm53.744,0h0a1.161,1.161,0,0,0-1.167,1.15L60.667,58.841A1.16,1.16,0,0,0,61.829,60h0A1.16,1.16,0,0,0,63,58.849l0.072-18.46A1.161,1.161,0,0,0,61.91,39.229ZM51.273,10.019a1.169,1.169,0,0,0-2.212,0A3.928,3.928,0,0,1,45.5,12.691a1.16,1.16,0,0,0-1.167,1.154v4.616c0,3.854,2.662,9.23,7,9.23s7-5.376,7-9.23V13.845a1.16,1.16,0,0,0-1.167-1.154C57.116,12.691,52.15,12.619,51.273,10.019ZM56,18.461c0,3.135-2.081,6.922-4.667,6.922s-4.667-3.787-4.667-6.922v-3.6a6.352,6.352,0,0,0,3.589-2.21C51.89,14.264,54.5,14.769,56,14.928v3.533h0ZM67.139,31.154C64.853,28.9,61.418,27.7,57.2,27.7A1.187,1.187,0,0,0,56,28.856c0,0.235-.082,5.759-4.667,5.759s-4.665-5.523-4.667-5.758a1.167,1.167,0,0,0-2.333,0c0,2.579,1.26,7.279,5.833,7.968v5.863a1.167,1.167,0,0,0,2.333,0V36.828c3.937-.6,5.42-4.158,5.755-6.786a10.917,10.917,0,0,1,7.236,2.746,7.361,7.361,0,0,1,2.176,5.288V56.537a1.167,1.167,0,0,0,2.333,0V38.076A9.641,9.641,0,0,0,67.139,31.154ZM33.833,39.229a1.16,1.16,0,0,0-1.167,1.154V58.845a1.167,1.167,0,0,0,2.333,0V40.383A1.16,1.16,0,0,0,33.833,39.229ZM50.167,4.614H52.5c3.071,0,6.8,3.118,7,5.858l1.167,15a1.161,1.161,0,0,0,1.162,1.065l0.091,0A1.159,1.159,0,0,0,63,25.295l-1.167-15c-0.312-4.228-5.476-7.992-9.33-7.992H50.167c-4.247,0-8.954,4.022-9.33,7.988l-1.167,15A1.167,1.167,0,0,0,42,25.472l1.165-14.982C43.422,7.744,47.153,4.614,50.167,4.614ZM26.909,25.4a1.2,1.2,0,0,0-1.218.919L21,48.577,16.309,26.317a1.223,1.223,0,0,0-1.22-.919C8.96,25.4,4.271,26.7,1.88,29.055A6.012,6.012,0,0,0,0,33.46V56.537a1.159,1.159,0,0,0,1.167,1.153,1.159,1.159,0,0,0,1.167-1.153V33.46a3.746,3.746,0,0,1,1.2-2.773c1.818-1.794,5.684-2.861,10.69-2.972l5.636,26.734a0.064,0.064,0,0,1,0,.007v0.009c0.008,0.036.033,0.064,0.043,0.1a1.13,1.13,0,0,0,.134.309,1.112,1.112,0,0,0,.14.145,1.317,1.317,0,0,0,.176.17,1.172,1.172,0,0,0,.254.105,0.988,0.988,0,0,0,.156.067H20.77a1.128,1.128,0,0,0,.231,0,1.139,1.139,0,0,0,.232,0h0a0.915,0.915,0,0,0,.1-0.044,1.525,1.525,0,0,0,.624-0.443,1.125,1.125,0,0,0,.131-0.3,1.055,1.055,0,0,0,.045-0.1V54.456a0.055,0.055,0,0,1,0-.007l5.636-26.734c5.007,0.111,8.873,1.179,10.69,2.972a3.747,3.747,0,0,1,1.2,2.773V56.537a1.167,1.167,0,0,0,2.333,0V33.46a6.011,6.011,0,0,0-1.881-4.405C37.729,26.7,33.04,25.4,26.909,25.4Z">
	</path>
</svg>