<svg id="map" xmlns="http://www.w3.org/2000/svg" viewBox="0 0 997.27 533.34"><defs><style>.cls-1,.cls-2{fill:#fff;stroke:#3a3a3a;stroke-linecap:round;stroke-linejoin:round;}.cls-1{stroke-width:0.68px;}.cls-2{stroke-width:0.45px;}</style></defs><title>map svg</title><g id="g21404"><path id="path6622" class="cls-1" d="M92.4,381.71l-1.74,2.13,1.74-2.13" transform="translate(-64.79 -75.12)"/><path id="path6624" class="cls-1" d="M92.4,381.71l-1.74,2.13,1.74-2.13" transform="translate(-64.79 -75.12)"/><path id="path6628" class="cls-1" d="M103,399.39l1.12,4.11,2.77,3.47,1.28,0.11,0.51-2.7,0.54,2.35,1.89,0.74-1.88,3.44-1.08-.56-4,2.65,0.52,2.67-1.19,1.08-1.19-.26-0.36-2.54-2.14,2,1.93,6,2.57-.85,2.05-3.35,1.47,0.29,3.3-4.34,1.49,1.19-2.42,2.83,1.1,1,3.12-7.68-0.17-1.89-2.4-2.09-0.38-3.14-4.71-.88-2.43-4.46-1.27.87" transform="translate(-64.79 -75.12)"/><path id="path6644" class="cls-1" d="M157.88,368.51l0.83,0.66-0.83-.66" transform="translate(-64.79 -75.12)"/><path id="path6670" class="cls-1" d="M157.78,448.55l2.89,2.62,0.89-.54-3.78-2.09" transform="translate(-64.79 -75.12)"/><path id="path6690" class="cls-1" d="M157.78,448.55l3.78,2.09-0.89.54-2.89-2.62" transform="translate(-64.79 -75.12)"/></g><path id="path20277" class="cls-2" d="M91.49,367l-1.91-1.76,0.61-4.3-1.3-.83-1.46-8.45-2.93.9-6.15-4.42" transform="translate(-64.79 -75.12)"/><path id="path20750" class="cls-2" d="M1021.44,504.45l2.84,12.46,4.91,1.24,1.27-1.83,3,0.85,2.76,1.65" transform="translate(-64.79 -75.12)"/><path id="path6288" class="cls-2" d="M334.35,157.56l-2.75,2.15-1.05-3.81-2.14,1.41-3.53-2.06-4.19.18" transform="translate(-64.79 -75.12)"/><path id="path6384" class="cls-2" d="M911.73,607.7l-2.86-2.12" transform="translate(-64.79 -75.12)"/><path id="path6398" class="cls-2" d="M131.62,216.82l-9.29-22.55" transform="translate(-64.79 -75.12)"/><path id="path6432" class="cls-2" d="M184.92,226.43l3.82-.85,1.61,1.3,3-4.29,5.8-4.12,7.6-.78,2,1.19,0.86-1.81" transform="translate(-64.79 -75.12)"/><path id="path6558" class="cls-2" d="M1006.8,152.27l-3.89-1.78,3.89,1.78M906.16,91l-6.48,2.59-3.21,4.13-0.89,3.78,1.77,8.42,2.57,3.5,6.2,0.63,2.3-6.69,2.38-11.2-1.52-3.82L906.16,91h0ZM957,96.56l3.92,0.85,6.81-12.51L977.28,81l5.55-5.63,9.6,3-5.15,3.44,3.18,2.59,1.57,4.1-1.39,4.17,12,5.31,1.42,6.74-3,5.4L995,113.25l-3.54,4.85-4.87,1.76-4.38-1.26-2,1.37-0.29,4.46-3.09,8.36,3.48,7.38,2.27,8.43,10.69,2.15,5.25-1.23,4.41,1,3.89,1.77,3.41,5.08-0.15,3-6.52,5.25-1.73,3.56,0.72,19.46-4.29-2.3-5.08.67L992,185.21l-2.9,1.81-0.25,5.73-3.79,3.31,0,4.32-1.85.51,0.26,3.18L981.16,207l-5.06-1.79-9.86,5.07-2.42-10.08-4-.81-2.15,2.19-4.67-.66-2.9,3.93-4.83-.14-0.36,2.9-3.13,2.06-0.37,2.14-2.73-.83-3,1.7,1.16,2.49-5.18,1-0.15,2.14-2.13,1-0.07,3,1.54,0.19-1.51,2.58-5.24,2.76-5-.5-3.28,3.28-4.77-1.06-6.62,2.86-3.82-5.67-5.1,1.74-1.13-5.31-3.64-1.48-5.54,1.19-2.65-1.67-1.27-2.67,1.47-1.62-2.54-.17-0.45-4.52,5.78-9,1-3.9,4.17-3.12-2.15-3.69-2.51-1,0.26-1.47-3.52-.64-0.24-2.17-3.76,0-4.25-4.6,3.79-6.51,4.11-1.31,5.52-6.24,0.6-1.76-2.07-7,1-2.77,2.71-2,1.57-6.82,13-14.69,3.33-6.87,4.63-2.08,10.77-8.86,1.69-.54Z" transform="translate(-64.79 -75.12)"/><path id="path6560" class="cls-2" d="M123.59,192.07l7-.47,3.06,4.17,3.26,0.59-0.1,3.75,1.39,1.72-0.93,6.27,2.27,3.22-2,3.52-3.45,0L131.79,217l-0.64-1-6.63-14-2.11-7.37,1.17-2.49" transform="translate(-64.79 -75.12)"/><path id="path6562" class="cls-2" d="M137.16,201.3l-0.41-1.19,0.41,1.19" transform="translate(-64.79 -75.12)"/><path id="path6564" class="cls-2" d="M136.67,199.52l-0.05-1,0.05,1" transform="translate(-64.79 -75.12)"/><path id="path6566" class="cls-2" d="M209.47,204.87l8.31,4.13,4.12-.45L235,211.39,234.2,214l3,6.4,3.48,15.21,5.52,0.34,0.76,2.35,1.93-.54-1.52-1.64L249,234.9l2.76,3.24L251.47,240l2.92,0.17,2.2,3.61L255.1,245l1.88,1-2.16,1.64-4.51-.81-1.31,2-6.77,3.84,0.75,1.94-2.89,1.87,0.77,1.17-2.63,1.13-0.62-1.19-1.82,2.06-2.79-2-2.43.17-0.24-3-1.72-.86-0.51-2.14,1.29-2.35-1.92-1.16-0.12-2.68-4.06.64L221.77,245l1.68-5.17-1.95,0-0.32-1.8L218,239.56l-1.72-.3-0.84-2.14-4.69.79L209,234.47l-3.7,1.74-1.34-1.44-0.07-3.65,2-3.64-2.74-4.23,1.29-2.39-1.53-2,6.41-.26,0.9-3.18-2.66-5.79,1.94-4.79" transform="translate(-64.79 -75.12)"/><path id="path6568" class="cls-2" d="M222.56,220.15L220,224l0.76,2.78-1.37.19,1.77,0.85-1.89.94,3.07,2,0.18-2.23,1.64-.5,0.61-2-0.48-4.44-1.76-1.45" transform="translate(-64.79 -75.12)"/><path id="path6570" class="cls-2" d="M185.39,225.86l3.59-.28,1.75,1.23,2.66-4.26,6-4.61,4.64,1.71-0.89,3.6,2.74,4.23-2,3.64,0.87,4.34-1.48.9L201.5,235l-1.83,1.5,0.89,2.25-1.51.2,1.61,4.35-2.31.74,0.4,1.67-3.9.29-0.08,2.88-3.33,1.68,1,1.95-3.07.18-0.12,2.81-2.11.54,0.16,4.56-4.67,1.66-2.06,2.64-1.25-3.22-3-.34,1.25-3.23L177,255.38l-4.58-2.83v-1.39l2.62-1.1-0.58-2.56-1.86-1,1-2.09-1.86-2.6,7.47-6.85L178.12,233l6.05-1.88,1.22-5.29" transform="translate(-64.79 -75.12)"/><path id="path6572" class="cls-2" d="M318,153.94l2.8,2,3.74-1,3.43,2.15,2.74-1.47,1,4.13,2.48-2.17,3.52-.07,4,3.15,0.7,6.74-2.16,3.49,4.2,10.57,0.72,12.44-1,4.17,9.67,8.36-12.4,20.52-21-1.75L313.33,221l-6.86-10.68L305.81,193l-1.95-4-3.34.71-1.19-1.86,2.23-3.88L295,173.71l2.57-3.39,10.74-.72,2.59-5.86-0.46-3.8,3.33-3.31,4.69-.73L318,153.94" transform="translate(-64.79 -75.12)"/><path id="path6574" class="cls-2" d="M235,211.39l18.81,1.74,6.56-1.27,2.23-4,1.85-10.3,1.65,1,4.4-.81,1.39-4.44,4.29-2.48-0.9-1.79,1.15-1.61,1.56-.89,1.32,1,0.84-2.51,4.16-.9,0.43-1.22,1.61,1.72L295,173.71l6.53,10.23-2.23,3.88,1.19,1.86,3.34-.71,1.95,4,0.69,10.64-10.24,10.67-2,3.63-1.24,8.92L285.29,230l-2.58-2.24L280.86,233l-2.75,1.12-1.28,3.09,2.11,6.31-4.72,3,1.08,1.15-1.52,3.19-5.07,3.1-2.25-2.37v-2.23L255.1,245l1.37-1.43-2.08-3.38-2.92-.17,0.29-1.86L249,234.9l-1.63,1.17,1.52,1.64-1.94.54-0.76-2.35-5.52-.34-3.48-15.21-3-6.4,0.75-2.58" transform="translate(-64.79 -75.12)"/><path id="path6576" class="cls-2" d="M222.56,220.15l1.76,1.45,0.48,4.45L224.19,228l-1.65.56-0.18,2.23-3.07-2,1.89-.94-1.76-.85,1.37-.18L220,224l2.52-3.85" transform="translate(-64.79 -75.12)"/><path id="path6578" class="cls-2" d="M201.5,235l0.81,1.2,2.3-1,1.48,1.09,2.88-1.84,1.73,3.45,4.69-.79,1.3,2.37,4.49-1.49,0.32,1.8,1.95,0L221.77,245l1.51,1.23,3.89-.74,0.33,2.89,1.86,1.06-1.29,2.35,0.52,2.14,1.72,0.86-0.29,5.8,0.94,0.76-1.63.79,2.89,3.22-0.56,4.55-3.09-.15-2.82-3.41-3.32.35-0.85-2-2.06.79L219,261.63l-2.41-2.36-1.93-.14-0.06,1.46-3.25,1.47-2-1-2.63,1.5-1.46-3.12-4.33-.57L197.15,256l-3.71-.63-2-4.83,3.33-1.68,0.17-3,3.81-.21-0.4-1.67,2.31-.74L199,238.64l1.53,0.08-0.89-2.25,1.83-1.5" transform="translate(-64.79 -75.12)"/><path id="path6580" class="cls-2" d="M167.53,266.82l4-.1,1.94-3.18,5.85-1.9,2.15,4.82,1.67,0.24,0.22,1.91-1.09.05,2.93,2.14-1,.89,2.48,3.69,8.11,1.49,1.36,5.34,2.87,2.12-1,3.2L192,292.27l-5.36-.42-1,1.27-1.48,0-1.91-2.47-1.78,1.59-1.4-3.58-2.19-1.29-6,2.93-1.78-.85-2.37,1.25-5.07,0-0.41-3.38,2-1.54-2.46-5,3.42-1-0.41-5.16,1.94-3.46,2.12-.39-0.21-3.94" transform="translate(-64.79 -75.12)"/><path id="path6582" class="cls-2" d="M189.33,252.66l3.39-.22,0.69,2.89,2.13,1.23,1.61-.57,3.74,2.85,4.33,0.57,1.46,3.12,2.63-1.5,2,1,3.25-1.47,0.06-1.46,1.93,0.14,2.41,2.36,0.55,3.87,1.43-.9,1.92,2.3,2.87-.55,6.19,5.74,4.1-.92,2,1.13-1.71,6.63-3.69,0,0.06,3.43-2.5-1.24-0.26,1.46-1-.66-0.5,4.86-2.05,2.13,1.06,3.35-1.58-.34-1.4,2.15-2.63.69-0.32,1.59-1.08-1.45,0.63-3.26-2.89.28-2.08-2.15-2.44,1.83-0.4-2-6-2-1.62-4.8-1.81,2-1.16-.84-3.62,1.18-2.9-2.87-1.66-5.6-3.26.38-4.55-1.62-2.48-3.69,1-.89-2.93-2.14,1.1-.06-0.22-1.9-1.44,0-1-2.08,1.91-2.37,4.7-1.68L187.09,256l2.12-.57,0.12-2.81" transform="translate(-64.79 -75.12)"/><path id="path6584" class="cls-2" d="M161.41,286.83l-0.19.87,0.19-.87" transform="translate(-64.79 -75.12)"/><path id="path6586" class="cls-2" d="M149.89,283.1l2.76-.31,1.22,1.35-0.26,3.12,2.14,2.08,6,1.43,7.33-1.3,2.38,1.21,0.59,1.77-1.11,1,2,2-3.46,6.15,1.42,3.4L169,307.48l0.31,1.73-4.83-1.7-0.27,3.39-3.85.3-2.07,2-4.86-1.34L151.59,313l2.82-7.94-1.84-1.09-0.91-3-2.86-1-1.36-4.1-2.24,1.38-3.08-2.24,1.51-4.3,5.23-3.52,1-4" transform="translate(-64.79 -75.12)"/><path id="path6588" class="cls-2" d="M171,289.58l3.71-.31,2.12-1.89,2.19,1.29,1.4,3.58,1.78-1.59,2.14,2.48,2.25-1.34,2,1,4.05-1.11,2.14,2.27,1.11,4.14,3.45,0.53L199,303.77l-1.83,3-3.75,1.52-1-1.48-2.49,2.68-5.68-5.2,0,2.29-4.06,0-0.91,2.42-8.24-2-1.74-4.61,3.62-7-2-2,1.11-1-1-2.86" transform="translate(-64.79 -75.12)"/><path id="path6590" class="cls-2" d="M148.21,312.33l2.4,1.83,1.86-2.31,3.48,1.52,0.88-1.26,1,1.17,2.05-1,0.18,1.3,3.63,2.07-1.55,2.24,4.74,3.28-0.69,2.61,2,5.49-0.42,2.62,1.27-.15,1.25,1.59-0.4,2.09,3.18,2.75-1.56,2.24-3-1.53-2.5,4.25-0.78-3.64L160.28,335,159,336,154.79,334l-2.06-4.58-3.52.37-1.75-1.44-0.34-2.06,1.1-.58-1-1.64,1.51-1.11-2.24-1.79-1.86-4.68,3.11-1.5,0.46-2.65" transform="translate(-64.79 -75.12)"/><path id="path6600" class="cls-2" d="M230.46,257.8l2.54-.22,2.78,2,1.82-2.06,0.62,1.19,1.5-1.29,0.05,0.9,1.08-.74-0.77-1.17,2.89-1.87-0.75-1.94,8.19-5.87,4.4,0.85,2.16-1.64,7.61,2.16,4.14,5.81-5,9,0,1.84,1.89,1.22-0.3,2.25,0.86-.65,2.2,2,0.51,2.7,3.16,0.86,2.66,5.83,2.1-1.82,2.6,1.55,1,4,2.41,0.26,0,3h1.5l1.22,2.16,4.72-.68,1.05,1-1,.8,4.3,5.68,3.22-2.45,1.84,2.44-1.63,1.21L300,299l1.74,0.29,0.74,4.36-7.05,4.51-2.35-2.31V309l2.66,1.4-3.84,3,1,1.19-1.57,1.32-3.27-3.47-2.73,2.45-1.88-1.46-1.61,1.26-8.22-7.44-1.44-4.07-2-.35,1.08-1.32-1.55.34-0.27-2-2.56-.17,0.55-2.66-2.3-1.17,0.52-2.73-2,.52,0.52,1.41-1.43.94-5.63-2.89-2.26,2.31h-2.31l-4-3.81,0.88-6.22-2.21-3.65-2.56,1.56-3.81-4.52-2.61-1-1.84.74L238,272.3l-2-1.13-4.1.92-1.35-1.44,1.86-2.38-1.25-4.67-1.71-.19-0.16-1.26,1.63-.79-0.51-3.54" transform="translate(-64.79 -75.12)"/><path id="path6602" class="cls-2" d="M164.48,307.51l4,1.91,1.64-3,8.16,2.07,0.36,8.14,3.81,5.13-1.77,1.63,0.91,0.5-0.68,2-2.51,2.21-2.36.17-1.85,4.88-2.39-1-2.28,1.29L169,331.78l-1.27.15,0.42-2.62-2-5.49,0.69-2.61-4.69-3.15,1.74-2-4-2.64,0.49-2.24,3.92-.37,0.2-3.32" transform="translate(-64.79 -75.12)"/><path id="path6604" class="cls-2" d="M306.49,203.6l0,6.75L313.33,221l7.41,4.19,18.75,2.1,1.94-.42,12.4-20.52L343.77,229.8l-1.19,9,0.37,4.27,4,7.56,1.2,5.13L351,258l3.79-1.78,3.59,3.52-7.64,9,3,1.56-1.42,6.82,0.83,1.38-3,2.33-3-3.72-1.62,1.24-1.8-2.53-1.67,1.2-1.3-1.68-1.61,1.26-1-1.27,0.91-1.3-3.41-3.32-9.84-6.15,2.1,9.78-3.55,5.85,1.3,3.2-5.16,1L316.15,292l1.11,1.13,1.46-1.42,2.84,3,3.95-4.08,1.22,1.67,1.6-1.23,3.39,4.47-12.65,8.7,1.79,2.36L316,310.39,310.79,308l-1.92,1.58-1.79-2.39,0.91-1.65L305.12,302l-2.6,1.62-0.59-.77-0.15-3.59L300,299l-2.11-2.84,1.63-1.21-1.84-2.44-3.22,2.45-4.3-5.68,1-.8-1.06-1-4.72.68L284.19,286h-1.5l0-3-2.41-.26-0.52-3.46-3-2.06L274.65,279l-1.44-4.38-4.39-2.31-0.51-2.7-2.16-2-0.88.63,0.27-2.24-1.88-1.22,2.83-8.58,2.9-3.29,4.42-2.1,1.52-3.19-1.12-1.09,4.76-3.08-2-4.09,1.18-5.3,2.75-1.12,1.85-5.22,2.58,2.24,7.76-3.15,1.24-8.92,2-3.63,10.24-10.67" transform="translate(-64.79 -75.12)"/><path id="path6606" class="cls-2" d="M415,208.15l3.37-2.67,6.38-.72,0.62-2.66,2.26-1.61L437.1,198l2.36-4.74,9.36-2,8.1-7.36,8.5-.22,8.51-3.15,9.18,1.31,6.7,4.19,3.95,0.87,10.57-2.37,3.81,0.4,3.93,2.82,1.12,2.88-0.62,4.28-6.22,5-23.69-.56-6.73,1-18.07,6.54-19.27,9.45-5.82,8.52-1.23,5,1.5,8.4-0.87,3.28-5.27,2.07L418,236.8l-4.83-9.24-0.69-14.33,2.5-5.08" transform="translate(-64.79 -75.12)"/><path id="path6608" class="cls-2" d="M476,105.92l2.46-.59,6.9,2.16,5.28,3.79,2.93-1.4,2.87,0.89,2.1,3.61-2.38,3.56,0.47,1.76,5.74-5.42,7.53,1.82,4.8-1.26,3.87,1.47,10.79,10.13v10.19l-1.3,3.1-4.06,2.2-8.16-1.54-6.17,1.89-3.13,2.59-6.62-1.35-1.58-2,0.17-2.56-6.19-7.13L484,129.43l-7.4-9.19L476,105.92" transform="translate(-64.79 -75.12)"/><path id="path6610" class="cls-2" d="M455.77,94.47l3.76-2.39,2.13,2.27,0.08,2.78-3.58,1.17-2.39-3.83" transform="translate(-64.79 -75.12)"/><path id="path6612" class="cls-2" d="M199.05,285.09l3.62-1.18,1.16,0.84,1.81-2,1.62,4.8,6,2,0.4,2,2.44-1.83,2.08,2.15,3,0-0.76,3,1.36,1.81-2.58,1.79-4,6.25,1.77,3-0.87.88,1.36,1.45-0.5,1.83,2.9,1.62-3.64,6.3-3.38-1.27-1.73,1.68-1.63-1.47-4.92,1.32-2-2.14-1.84.84,0.08,1.56-3-.37,0.82-3.41,2.26-1.17-1.42-3.08,0.91-1.65-2.6-.36L196.88,306l2.31-3,2.82,1.24,2.21-1.88,0.32,1.1,1.73-.79L209,303.9l1.08-3.12L209,297.93l-2.65,2.86-2.2-1.31-1.36,1.58-0.84-2.47-2.26,2.94-1-.36,0.64-2.56-4-1.29L194.74,294l-2.2-1.44,0.09-1.25,3.67-1.82,2.75-4.38" transform="translate(-64.79 -75.12)"/><path id="path6618" class="cls-2" d="M146.7,326.32l2.51,3.44,3.52-.37,1.71,4.38L159,336l1.32-1.08,5.16,5L166,345l-2.07.29,2.08,3.36-1.29,1.44-0.8-1.12-1.12.72,0.44,4.16-2.64.7-3,5.64-3.73-.35,0.71-3.49-1.54-1,0.32-2.22-3.45-.26,2.79-8.36-6.89-3.5-0.51-5.65-3.39-2.31,1.21-3.42,2.58-.93,1-2.45" transform="translate(-64.79 -75.12)"/><path id="path6620" class="cls-2" d="M180.14,306.66l3.91,0.13,0.22-2.45,5.68,5.2,2.49-2.68,1,1.48,3.67-1.54,0.7,3.5,2.57,0.35-0.89,1.69,1.14,3.94-2,.31-1.21,5h-1.19l-0.57,2.58-1.61.34-1.71,3-1.63-.86-1.53,1.7-1.69-1-2.16,2.89-2.58-1.08-2.05-5.71,1.77-1.63L179,317.53l0.25-2.85-1-.66,0.73-2.64-1.14-1.73,1.71-.65,0.62-2.33" transform="translate(-64.79 -75.12)"/><path id="path6634" class="cls-2" d="M201.15,299.07l1.32,0.07,0.2,1.91,1.5-1.58,2.16,1.33,2.73-2.82-0.45,1.13,1.49,0.16-0.65,4.3-4.9-.16-0.35-1.1L202,304.19l-2.23-.77,1.38-4.36" transform="translate(-64.79 -75.12)"/><path id="path6636" class="cls-2" d="M232.61,278.89l5.7-1.17,2.61,1,3.81,4.53,2.56-1.56,2.21,3.65-0.88,6.22,3.56,3.2-1.08,3.79-7.19.8-1.78,2.71-2.35-.47-2.67,2.24-7.09-2.6L224,304l-1.62-3.44-1.66-.42,0.77-5,6.31-3.37-1.45-2.86,2.05-2.13,0.11-4.1,1.38-.1,0.26-1.46,2.63,1.14-0.19-3.33" transform="translate(-64.79 -75.12)"/><path id="path6638" class="cls-2" d="M176.13,328.25l5.73-2.56,0.91,3.4,2.58,1.08,2.09-2.86,1.86,0.95,1.44-1.7,2.18,1.57-0.52,3.26,4.18,0.89-0.31,4.67L188,341.71l0,8.74-4,.78-1.38-2.88-2.69-1.64-0.69-4.41-2.63-.64-0.54-3-6.2-3.19,1.94-3.3,3.32,0.52,1-4.43" transform="translate(-64.79 -75.12)"/><path id="path6640" class="cls-2" d="M168.3,339l3.14,1.44,1.21-3.31,3.39,1.51,0.75,3.28,2.41,0.38,0.89,4.79,2.49,1.26,3.08,5.06L184,355.26l0.51,1,3.43,2.07,1.71,5.36,1.59-.07-0.9,1.26,1.47,1.06,0.16,2.88-1.06,3.24-3.43-1.28-3-4.27-2.63.65-5.75-1.62,0.31,3.67-2.4,2.23-3.3.3-0.27,1.34-3.09-.7L164,373.52l-3.42-1.4-1.48-3-2.86-1.57,0.67-2.8L155.35,362l2.79-2,2.45-5.41,2.64-.7-0.44-4.16,1.12-.72,0.77,1.13,1.43-2.15-1.7-.42-0.5-2.25L166,345l-0.35-2.2,1.4-.22L168.3,339" transform="translate(-64.79 -75.12)"/><path id="path6646" class="cls-2" d="M219.19,298.47l2.48-.73-0.93,2.4,1.66,0.41L224,304l2.58-1.48,2.11,1.34,0.65,1.56-2.83,2.94,1.05,1.76,3.27,0.43,1.55,4.34,4.13,3.49-1.26,1.92,2.08,0.51,1.71,2.68-1.42,2.6,0.83,1.43-2.31-.91-0.93,1.33-5.8-.58-2.1,2.32-5.2,1-0.65-.87-0.64-3.12-1.7-.65,0.6-1.33L217,323.08l1.39-1.55-1.88-1.9,3.32-6.1L217,312l0.46-1.92-1.36-1.46,0.87-.88-1.8-2.74,4-6.54" transform="translate(-64.79 -75.12)"/><path id="path6648" class="cls-2" d="M197.88,320l2.9,0.34-0.07-1.54,1.83-.86,2.17,2.16,4.76-1.34,1.63,1.47,1.73-1.68,2.62,1.43,1.28-.6v1.54l1.73,0.78L217,323.08l2.72,1.64-0.6,1.33,1.7,0.65-0.29,1.6,2.54,3.57-0.86,1.41,2.45,1.71-3.21,2.67,0.16,2.74-1.67.07-0.65,1.44-3.58-1.58-0.53,1.31,1.93,0.24,0.1,2.6-2.67-2,0.07,1.87-1.88.75-5.71-4.86-2.79,2L202.1,342l-0.94-3.85-5-.74,0.42-5.12-2.84.14-2-1.84,0.74-3.87,3.22-2.59-0.22-1.53,2.42-2.58" transform="translate(-64.79 -75.12)"/><path id="path6652" class="cls-2" d="M227.36,302.12l5.83-.44,10.9,6.74,3-2.33,1.05,4.79,4.09,1.75-2.57,3.4,1.79,1.15,1.63-1.44-0.83,2.17L248.7,319l-2.27,4.29-2.25-2.16L241,324.34l-2.25-1-1.41-2.49-2.08-.51,1.27-1.89-4.1-3.5-1.6-4.36-3.27-.43-0.95-1.52,0.66-2.12,2.06-1.06L227,303.24l0.36-1.12" transform="translate(-64.79 -75.12)"/><path id="path6654" class="cls-2" d="M188.57,340.85l1.88,0.31L195.2,337l2.08,1.07,1.83-1.06,2.31,1.48,0.68,3.5,2.2,0.25,2.77-2,3.67,3.27,0.18,1.21-2.73,2,0.29,2-1.14.19,0.74,1.17-2.23,11.25-7,1.36-1.39,1.76-5.77,2.05-1.07-1,0.64-1.88-1.6.05-1.7-5.35L184,355.26l1.84-.93-1.67-3,4.12-1.47-1-3.92,1.18-5.06" transform="translate(-64.79 -75.12)"/><path id="path6656" class="cls-2" d="M238,302.62l1.87-1.08,1.89,0.78,2.19-3,7.1-.76,1.2-3.5,2.7,0.28,2.19-2.31,5.7,2.89,1.43-.94-0.52-1.41,2-.52-0.52,2.73,2.3,1.17-0.55,2.66,2.56,0.17,0.27,2,1.55-.34-1.08,1.32,2,0.35,1.44,4.07,3.2,3.43,2.34,0.56,2.69,3.46,1.61-1.26,1.88,1.46,2.73-2.45,3.27,3.47-2.43,1.9,0.83,1.08-1.57,1.29,1,1.66-1.39,3.11-1.69-1.67-1,1.33-1.2-.81-1.92,1.13-2.08-1.42-2.13,1.44-1.15-.66L273.45,327l-2.87-2.44-2.15.22,0.5-1.56-2.73-3.62-3.94,2.9-7-1.56L255,317.14l-2.8.58,1-2-1.69,1.44-1.74-1.07,2.69-3.16-4.23-2.08-1.05-4.79-3,2.33-7-4.25,0.88-1.54" transform="translate(-64.79 -75.12)"/><path id="path6664" class="cls-2" d="M353.84,206.39l8.94,6.73,1.79,4.34,4.17,4.43,2.12,7.08-2.69,5.34,8.28,6.45,10.82-.28,4.43,2.47,11.41,1.52,3.66,2.3L415.62,258l5,0.25,1.25-4.93,4.72-5.42,0.33-4.37,5.32-2.07,3.46,1.67,2.45,10.52L449,265l4.14,8-7,2.66-0.53,1.47,3.18,2.81-0.44,3.56-1.66,1L442.42,283l-1.1,1.9-4.18.1-0.28,1.86-2.27,1.44-2.94-1.22-3.42,3-8.29.89-7.82-4.3-21.5-15.71-10.79-10.13-3,.58-1-1-1.25,1.75-16.2-2.33-3.59-3.52L350.6,258l-2.4-2.25L347,250.6l-2.17-2.67-2.25-9.15,1.19-9,10.06-23.41" transform="translate(-64.79 -75.12)"/><path id="path6666" class="cls-2" d="M378.36,227.36l5.35-3.91,5.88,0.41,2.48,2.87,1,5.47-0.79,3.26-3.84,2.34-7,.59-4.9-6,1.79-5" transform="translate(-64.79 -75.12)"/><path id="path6672" class="cls-2" d="M222,330.61l5.38-.93,2.1-2.32,5.8,0.58,0.94-1.34,2,1.09,0.83-4.35,2,1,3.15-3.23,2.25,2.16L248.7,319l6.22-1.89,0,3.55,3.6,1.58,3.74,0.31,3.08-2.6,1.7,0.25,1.9,3.06-0.5,1.56,2.15-.22,2.87,2.44,5.89,8-5.06,2.79-3.72-3.62-5,5.39-5.29-3.09-1.87,2.06-2.47-.89-0.82,2.17,1.28,0.88-2.12,1.16-0.38,3.77-4.79,2.07,0.32,4.77-6.19,1.9-1.47-1.46,1.76-1.78-1.9-.41-2.44,1.83-3.57-.74-1.69,2.92-3.18-2.85,1-.85-1.89-2.42,0.7-3.28-1.59-4.58h-3.36L222.36,337l2.38-1.64-2.5-2.08,0.85-1.4L222,330.61" transform="translate(-64.79 -75.12)"/><path id="path6674" class="cls-2" d="M210.32,344.48l2.46,0.59L212.41,347l2.12,0.56-0.85.71,1-.6,2.17,2.32,1.27-1.62,2.56,2,0.81,2.58-1,2.46,1.91,3.79,1.52,0.9,0.92-2.26,2.44,0.24,2,3.73,2.28,1.75,2.59,0-0.73,6.29-1.3,1.31,1.24,4-5.15,6.18-2.68.17,0.13-2-2.25-1.1-4.42.75-0.82-2.86-2.35-.06-1.5-2L213,375l-1-5.23-3.6,1.15-1.79-4.75-2.88-1.5,0.1-1.92-1.77-.16,4.12-2,1.09-11.61,3-4.44" transform="translate(-64.79 -75.12)"/><path id="path6676" class="cls-2" d="M215.74,340.36l3.62,1.53,2.28-1.47-0.25-2.67,1.32-1.3-0.65,1.1,1.1-.53,2.45,3.83,3.33-.06,1.58,4.57-0.7,3.28,1.89,2.42-1,.86,2.8,2.79,2-2.87,3.6,0.73,2.34-1.8,2,0.38-1.74,2,2.37,1.26-0.18,1.19,1.32-.27-2.36,5.51L241.05,362l0.73,2.22-1.4.66-5.06-2.41-3.77,1.09L229,361.46l0.26-1.61-3.41-2.29-1.61,2.37-1.81-.77,0.18-1.31-1.82-1.3,0.76-3.65L219.58,349l-1.46-.62L216.76,350l-2.08-2.31-1,.6,0.88-.7-1.75-.41,0.9-.68-1.3.52L212,345.33l2.69-1-0.07-1.87,2.79,1.79-0.23-2.34-1.88-.1,0.47-1.45" transform="translate(-64.79 -75.12)"/><path id="path6680" class="cls-2" d="M192.31,365.77l9-3.83,2.54,0.78-0.1,1.92,2.88,1.5,1.79,4.75,3.6-1.15,1,5.23,1.27-.73,1.5,2,2.35,0,0.82,2.86,3.15-.86,3.46,1.16,1,4.5,4.31,3.33,2-1.14-0.09,1.54,2.24-.6,2.19,1.53-1.87.74,1.89,2.51-0.92,3.31,3.06,1.14-0.83,1.27,0.44,1.52,1.39-.12-0.56,3.46,2.24,2.7-1.45.85,2.72,3.67-1.58,3.62-1.62-.09V412l-1.74,1.5-3.48.31-4.47-.8-2.61-2-1.94,2.59-6-.76L218.74,411l-3.4,7.92-4.87-.45-0.77-1.92,1.55-9.12L208,405.92l1.07-1.51-2-1.52,0.86-3.22-4.38-.84-1.33-1.26,1.47-1.15-0.66-2.33-2.63.79-2.86-3,3.51-2,0.58-4.46-4-5-1.26.73-0.87-2.2L190.7,377l-0.47-5,1.47-1.63,0.61-4.59" transform="translate(-64.79 -75.12)"/><path id="path6546" class="cls-2" d="M66.48,360.14l5.09-1.22L72,363l-1.16.21,0.71,1.22-2.12,3.44-1.26-1-2.51,1L65,363.4l1.46-3.26" transform="translate(-64.79 -75.12)"/><path id="path6548" class="cls-2" d="M70.6,347l2.83-.58,4.92,1.72,6.15,4.42,2.93-.9,1.46,8.45,1.3,0.83-0.61,4.3L91.49,367l-1.27,5,2.94,0.44,4.36,6.51-4.85,2.54-2.24,2.71-3.32-1.68-3.34-4.93-5.29-1.44-2.67-3.29-6.61-1.07-3.34-3.55,2.34-1.38,1.26,1,2.12-3.44-0.71-1.22,1.14-.11-0.7-9.35L69,349.91l1.61-3" transform="translate(-64.79 -75.12)"/><path id="path6626" class="cls-2" d="M93.47,381.48l4-2.44L116,375.87l7.8,5.88-1.65,1.69,1.61,1.61-3,2.19,0.76-.64,1.52,2.32,2.23-1.17,4.55,5.76-2.38,2.08,1,1.06-1.93,2.94,3.16,4.64,1.08-.16-1.91,1.56L127,410.81l-1.49,0-1.79-2.41L122,410l-1.7,3.92,1.91,1.37-1.59,3.57,1.24,1.54-2.53,1.53-1.66-.65-0.23,4.2-2.11,0-0.09,2-4.89.07-1.71-5.14-1,1.43-4.68.77-1.59,1.88-3.56-4.78-5.13.93L94.08,406l-3.46-13.21,1.33-4.71-1.51-4,3-2.67" transform="translate(-64.79 -75.12)"/><path id="path6642" class="cls-2" d="M124.31,376.11l3.94-1.72,3.13,2.34,2.25-1.08,5.54,6.47,1.61-1.59,3.57-.22-0.48-1.69,1.06,0.32,1.6-2.53-0.66-1.61,3.14-1.08,0.5,1.6h1.37l-1.27-1.83,0.65-2.35,1.67,1.62,3.58,0.17,1-3,2.58-.8,1.48,3,3.42,1.4,3.33-1.12,3.09,0.7,1.12-1.4-0.37,9.87-6.38,4.07,1.94,2-0.65,5.48L163.54,395l-5.38-2.46-0.78,1.87-0.82-.67-2.63,1.88,3,3.37-2.51,7.27,4.58,5.44-1.46,2.44,0.83,1,1.51-1.15,3.11,0.33-3.33,4.38-2.7,1.84-6,.12L149.54,424l-1.09-.2L149,421.7l-2.94,1.4-2-1.92,0.13-5.23-2.35-1-1.62-5.42L138,412.16l-1.3-1.42-2.13.7-1-1.94L132,411.87l-3.74-3.54,0.47-2.7,1.91-1.56-2.2-1.09-2-4,1.93-2.31-1-1.06,2.38-2.08-4.55-5.76-2.23,1.16-2.39-2,3.15-1.88-1.61-1.61,1.65-1.69-2.1-2.07,0.84-2,2.47-.79-0.66-.79" transform="translate(-64.79 -75.12)"/><path id="path6650" class="cls-2" d="M103,399.39l1.27-.87,2.41,4.46,4.72,0.88,0.39,3.15,2.39,2.09,0.17,1.89-3.18,7.74-1-1.09,1.86-1.33-0.1-2.64-2.36,1L107.72,418l-1.47-.29L104.2,421l-2.65.84-1.85-6,2.14-2,0.36,2.54,1.16,0.29,1.22-1.11L104.07,413l4-2.65,1.08,0.56,1.88-3.44-1.89-.74-0.54-2.35-0.51,2.71-1.26-.09-2.79-3.49L103,399.39" transform="translate(-64.79 -75.12)"/><path id="path6658" class="cls-2" d="M103,424.64l4.68-.77,1-1.43,1.92,3.11-0.81,1.39,2.11,1.1,3.36-.53,0.11-2,2,0,1.5,1.18-0.78,2,3.39,4.46-4.63.18-0.2,1.25,1.9,1L117,438.21l-1.1,1-2.21-.87-4.66,2.8-4.79-5.25L104.17,433l-2.37-3.68-0.39-2.74,1.56-1.89" transform="translate(-64.79 -75.12)"/><path id="path6660" class="cls-2" d="M122,410l1.77-1.55,1.79,2.41,1.49,0,1.22-2.49L134,415l2.2-1.12,1.14,0.77-1.6,1.54,6.37,1.6,1.17,6,2.47,3.38-1.13,6.34,2.31,4.51,1.81,10.07-4.27,1.71-3.07-.74-0.92.76,1,1.73-1.69.92-2.75-.89,2.59,2.87-3.26,2.39-1.86-3.4-2.19,2.31-1.81-.67,0.85-2.14-3.47-3.38,2.79-1.08-2.13-.27L127.33,445l-3.1.62-3.05-2.82,0.6-2.46-3.67-.83L116.95,438l1.55-2.44-1.9-1,0.12-1.21,4.84-.69-3.52-4,0.78-2-2-2.61,0.85-2.87,1.66,0.65,2.53-1.53L120.6,419l1.6-3.7-1.91-1.37L122,410" transform="translate(-64.79 -75.12)"/><path id="path6662" class="cls-2" d="M176.06,365.57l5.79,1.61,2.61-.65,3,4.27h1.88l1.31,6.2,4.83,1.9,0.87,2.2,1.26-.73,4,5-0.58,4.46-3.51,2,2.86,3,2.63-.79,0.66,2.33-1.47,1.15,1.33,1.26,4.37,0.81-0.85,3.25,2,1.52L208,405.92l1.26,1.08-2.76.79-0.29,1.5-5.05-.31-5.43,4.25-0.71,3.9-6.3,1.52-1.5-5.62H181.1l-2.45-1.87L179.4,413l-2.55-2-5.47,2.26-1.69-1.69,1.32-1.27-0.88-1.85-2.9,3.64-1.85-2-2.25.48-1.78-1.16-2.74,2.29-4.19-5.5,2.51-7.27-3-3.39,2.61-1.86,0.82,0.67,0.78-1.87,5.38,2.46,2.55-1.87,0.65-5.48-1.94-2,6.26-3.84v-8l0.8-2,4.32-2.11-0.11-4.1" transform="translate(-64.79 -75.12)"/><path id="path6668" class="cls-2" d="M133.46,409.55l1.07,1.89,2.13-.7,1.3,1.42,2.28-2.61,1.62,5.42,2.35,1-0.11,5.29,1.94,1.86,2.94-1.4-0.53,2.08,1.09,0.2,1.48-3.31,6-.12,5.85-5-0.49-1.76L161.08,415l-3.53-.85,3.81-4.66,1.78,1.16,2.25-.48,1.28,2.17,3.47-3.77,0.88,1.85-1.32,1.27,1.69,1.69,3-1.12,1.12,6.19,1.38,0.77L174.84,423l0,5.54,4.55,0.93L180,431l-3.54-.68-1.94,5.71,0.55,5.2-3.84-.38-0.73,1.39-4.88-2.3-2.83,3.64-1.65-.61,0.67,2.85-1.43.83,1.09,3.1,5.64,3.66L165,456l0.66,3.23-2-.81L157,461.12l-2.91-3.49-0.58-3.76-5.06-5.7L149,446l-4.48-12.51,1.13-6.34-2.47-3.38-1.06-5.89-4.62-.47-1.86-1.26,1.69-1.44-1.23-.87-2.34,1-1.8-3,1.45-2.32" transform="translate(-64.79 -75.12)"/><path id="path6678" class="cls-2" d="M110.11,440.89l3.53-2.53,2.26,0.83,1.12-1,4.77,2.15-0.6,2.46,3.05,2.82,3.1-.62,1.19,3.15,2.17,0.32-3.6,1.46,0.52,1.7-2.35,2.49L122.68,453l0.31-1.25-2.79,1.31-0.13-2.25-5.4,1.68-2.13-1.21L112.3,446l-1.93-1.77-0.27-3.38" transform="translate(-64.79 -75.12)"/><path id="path6682" class="cls-2" d="M113,451.68l1.63,0.82,5.4-1.68,0.13,2.25,2.79-1.31L122.68,453l2.59,1.14,2.35-2.49-0.84-1,1-1.32,3.6,3.55-2,2.77-2.15-2.6-1.32.95-1.57,2.81,1.22,0.56-0.3,4-2.72,1.22-0.8-2.27-1.28,1.78-2.76-2.25-4.09-.86-0.91-2.55,1.68-.41L113,451.68" transform="translate(-64.79 -75.12)"/><path id="path6684" class="cls-2" d="M125.88,454l2.47-.29,1.7,5.55-4.12,5.41-3.25.67-0.76-1.72-1.66.81,1.45-4.15,0.8,2.27,2.72-1.22,0.3-4-1.22-.56,1.57-2.81" transform="translate(-64.79 -75.12)"/><path id="path6686" class="cls-2" d="M130.35,454.48l1.94,1.24,2.19-2.31,1.86,3.4,1.28-1.25,2.53,3.2,1.1,1.82-1,1.13,4.22,0.64-1.11,1.29,1,1.9-5.72,1.35-3.47,6.49-2.74-2.05-1.5,1.39-4.7-.22L123,468.94l0-3.58,2.94-.67,4.12-5.41-0.81-3.12,1.11-1.68" transform="translate(-64.79 -75.12)"/><path id="path6688" class="cls-2" d="M174.4,412.23l2.45-1.14,2.55,2-0.75-1.9,4,2.21,4.23-.52,1.62,2.24,0.2,3.57-3.11,1.55,2.55,5.43-1.7,1.43,0.58,0.9-1.9-.07L184,431l0.48,1.94,1.59-1.28,3.89,5.07-0.36,5.75-2.38,9.47-2.51-.88-0.87-1.93-1.65,2,2.61,5.25v7.09l-6.72-.52-3.57,1.18-4.33-4-3.79-.18L165,456l2.11-2.59-5.64-3.66-1.09-3.1,1.43-.83L161.11,443l1.65,0.61,2.83-3.64,4.88,2.3,0.73-1.39,3.84,0.38-0.55-5.2,1.94-5.71L180,431l-0.59-1.61-4.55-.93,0-5.54,2.05-3.78-1.38-.77-1.12-6.19" transform="translate(-64.79 -75.12)"/><path id="path6692" class="cls-2" d="M137,451.55l2.75,0.89,1.69-.92-1-1.73,0.92-.76,3.07,0.74,4-1.6,5.06,5.7,0.58,3.76,2.91,3.49-1.93.26,3.35,1.51,0.86,2.63L157.7,468l-2.71.5,2,2.85-0.73,2.6-5.18,1.35-5,4.42-3,18.63-6.3.55-3.25-1.16-4,1.43-3.3-4.22,0.87-9.79-1.82-.65L122,473.74l3.75-1.44,5.12,0.42,1.48-1.39,2.76,2,3.44-6.48,5.72-1.35-0.61-4-0.34.89-3.34-.94,1.21-.87-3.31-4.71,1.66-1.46L137,451.55" transform="translate(-64.79 -75.12)"/><path id="path6694" class="cls-2" d="M325.84,264.58l9.84,6.15,3.41,3.32-0.91,1.3,1,1.27,1.61-1.26,1.3,1.68,1.67-1.2,1.8,2.53,1.63-1.24,3,3.72,3-2.33-0.83-1.38,1.42-6.82-3-1.56,7.64-9,16.2,2.33,1.23-1.73,1,1,3.05-.59,8,8.06,31,21.71,9.39-.51,1.78-2.52,2.89-.64,1.65,1.42,2.31-1.44,0.3-1.86,4.19-.09,1.82-2.07,3.6,1.63-3.46,5.45,3.3,2-1,2.92-2.25-.56,0.21,2.77-6.12,1.51-1.71,2.71-10.95.6-6.85,5.26-5.8-.7-6.34,4.17-4.4,1.11L400,308.49l-4.84,1.25-0.38,1.91-2.6,1L391,318.41l-2.65,1.11-8.21,8.63,0.37,2.29L378,334.09l0.86,0.84-7.93,8.87-3.91.1-11.26-8.23-1.26.82-0.79-1-2.49,2.32-2-2.33-1.61,1.31-1.94-2.31-3.84,1.92-4.68-5.62-1.55,1.34-0.64-.76-1.29-1.61,1.54-1.34L333,325.7,331.38,327l-1.57-1.92-1.59,1.24-1.91-2.46-3.16,2.6,1.77,3.88-2,2-1.32-2L316,332l-0.34-2.59-3.36.4-5-2.8L301.44,332,300,330.57l1.8-1.54-1.89-3.27,1.9-1.5-2.49-3,3.54-4.42,3.52-.81L306,313.55l4.8-5.51,5.22,2.35,4.84-3.75-1.79-2.36,12.65-8.7-3.39-4.47-1.6,1.23-1.22-1.67-3.95,4.08-2.84-3-1.46,1.42L316.15,292l4.39-7.64,5.16-1-1.3-3.2,3.55-5.85-2.1-9.78" transform="translate(-64.79 -75.12)"/><path id="path6696" class="cls-2" d="M232.8,363.1l2.51-.67,5.7,2.3,0-2.77,2.5-2.8,0.93,3.27,3.14,2.28-1.18,2,1.51,0.61,2.45-1.26-0.29,1.42,2.74,0.26,0.78,3.25,2.37,2.14,1.51-1.69,3.16,1.11-1.31,4.66,2.58,3.24-1.06,3-2.61,2.39-2.51-.16-0.13,1.4-5-5.61-2.16,1.35-2.38-3.28-3.35,2.29-2-1.75-1.6.51,0.19,2.5-1.85,1.58,1.36,0.92L238.77,389l-3.7-1.88-2.24.6,0.27-1.5-2.29,1-4.21-3.24,0.54-1.42-1.28-.76,3-1,4.53-5.63-1.24-4,2.2-6.41-1.5-1.66" transform="translate(-64.79 -75.12)"/><path id="path6698" class="cls-2" d="M255.39,338.18l3,0.39,2.16-2,4.79,2.73,1.38,4.31,4.75,0.2,0.27,1.73,1.84,0.68,2-.9,2.6,2.29,0,1.52,3.49-1.53L279.43,351,282,353l-1.26,1.84,1.39,1.59-2.16,2.87,0.68,0.88-2.61.42-0.26-2.09-2.33,0v-1l-1.8,1L272.2,357l-1.49.25,0.13,1.29-3.14-.47-1.22,1.07-1.59-1-0.56,1.1-1.26-3.66,0.84-2.06-2.24-2.72L263,349l-9.49-3.4,0.74-3.69,2.13-1.16-1.27-.87,0.28-1.68" transform="translate(-64.79 -75.12)"/><path id="path6700" class="cls-2" d="M249.23,347.52l5-1.93,2.73,1.83,5.29,0.8L263,349l-1.33,1.78,2.24,2.72-0.09,5.83-2.73-.72-1.41,1.79-4.24-.51-1,1.31,2.38,0.24-0.56,2.67-1.64-.53-0.84,1.74-1.11-1.13-1,1.81,0.34-1.48-0.74,1-1.27-2.59-2.86,1.52-2.73-2-1-3.62,1.83-3.87-1.39.67,0.11-1.37,5.7-2.06-0.52-4.67" transform="translate(-64.79 -75.12)"/><path id="path6702" class="cls-2" d="M247.46,364.47l0.31,0.95-0.31-.95" transform="translate(-64.79 -75.12)"/><path id="path6704" class="cls-2" d="M293.11,305.81l2.35,2.31,9.65-6.13,2.87,3.58-0.91,1.65,1.79,2.39-3.36,4.79,0.84,1.57-2.86.28-4.2,5,2.49,3-1.9,1.5,1.89,3.27-1.8,1.54,0.9,1.1,4.68-4,1.36,0.74,0.37-1.41,5,2.8,3.36-.4L316,332l6.38-1.51,2.9,4.94,3.45,1.59,0.09,1.92-3,3.92-5.31,2.32L319.65,348l2.06,1.13,0.19,1.73-1.8.66-0.59,2.75-1.72.06L316.12,357l-3.57-1.88,0.57-2-1.2-.75-1.45,1.24-2.78-3.88-3.15-.39-2.4,1.68,0.06,2.61-1.89,1.14,0.07,1.42-4.57,1.47-2.5-1.73-1.91,1.82-0.77,5.56L288,364.9l-1-1.17-1.77,1.51-1.38,4.19,0.86,0.68-2,.68L281,367.28l1.44-2.3-1.17.48-0.62-1.15,1.51-4.4-2-.62,1.7-1.71-1.18-2.68L282,353l-2.56-2,2.27-3.32-3.53,1.49,0-1.52-2.6-2.29-2,.9-1.84-.68-0.27-1.73-4.74-.19,0.18-2L265,339.56l3.37-1.95,0.19-2,2-1.4,3.72,3.62,3-2.33,1.94,0-0.79-2.79-5-4.72,0.14-1.21,6.35-3.32,2.08,1.42,1.92-1.13,1.2,0.81,1-1.33,1.75,1.67,1.39-3.11-1-1.66,1.57-1.29-0.83-1.08,6.84-7.39-2.66-1.4v-3.19" transform="translate(-64.79 -75.12)"/><path id="path6706" class="cls-2" d="M247.31,364.27l2.73-1.36,1.2,2.59,0.83-1L251.73,366l1-1.81,1.12,1.14,0.82-1.72,1.65,0.5,0.56-2.67-2.38-.24,1-1.31,4.26,0.51,0.42-1.51,3.59,0.49,1.19-1.27,1.59,1,1.22-1.07,3.14,0.47-0.13-1.29,1.49-.25,1.42,1.52,1.8-1v1l2.33,0,0.26,2.09,2.37-.16-0.28-1.23,2,0.61-1.45,4.51,1.89,1.22-1.41,1.09,0.18,2.38,3.46,2.5-2.43-.47L282,372.92l2.08,0.61-0.55,1.18,1.85-.25,0.45,1.84L288,374.7l2.05,3.51,0.91-1.66,0.35,1.13,0.88-.66L291,374.65l3.89-.05,0.85-1.26,1,1.08L293.57,376,293,378.17l1,1.94,1-2.35,1.88,1.62-4.94,2.29,3.21,1.6,1.44,4.86-7.83,2.17-3.13-1.63,0.81,5-4.17,2.52-3.69,5.69-1.48.22,0.33-2.09-1.45-.34,0.65-2.23,1.33,0.7,0.36-1.5-1.61.09-1.14-4.36-3.25-.14-0.42-1.79,1.18-1.14-1.36-3.12-1.37-.06,0.74-.92-3.33-.57-2.11,1.82-0.73-1.7-2-.27,0.59-2.44-4.13-4.79,1.33-4.66-3.16-1.11L256,373.19l-2.37-2.14-0.78-3.25-2.74-.26,0.29-1.42L248,367.37l-1.51-.61,1.68-2.09-0.81-.39" transform="translate(-64.79 -75.12)"/><path id="path6708" class="cls-2" d="M239.24,380.65l1.6-.51,2,1.75,3.35-2.29,2.38,3.28,2.12-1.37,5,5.63,0.13-1.4,2.51,0.16,2-1.72,1.63-3.67,1.53,1.55-0.67,2.32,2,0.39,0.73,1.7,2.11-1.82,3.33,0.57-0.8.87,1.41,0.1,1.38,3.12-1.18,1.14,0.42,1.79,3.55,0.64-0.59,1.55-1.72-.61L272,395l0.33,2-7.15,3.71L265,402.6l-2.76,2.78-4.54-.09-1.87,2.33-1.74-1L252.88,409l-1.64-.26-2.39,3.13-6.45-.26,1-2L240.66,406l1.44-.87-2.24-2.7,0.56-3.46-1.39.12-0.11-3.28-2.56-.64,0.92-3.31-1.89-2.51,3.55-.59v-3.11l-1.36-.92,1.85-1.58-0.19-2.49" transform="translate(-64.79 -75.12)"/><path id="path6710" class="cls-2" d="M242.4,411.62l6.45,0.27,2.39-3.13,1.64,0.26,1.22-2.44,1.74,1,1.87-2.33,4.54,0.09,3.56-5.17,6.53-3.2-0.46-1.67,1.39-1.43,2.37,0.43,1.37,2.78,1.26-.47-0.37,1.5-1.33-.69-0.64,2.21,1.45,0.34L277,402.1l1.53-.15-1.64,3.79,0.18,6.29,3.47,5.59-1.8,5.24,1.78,1.11-1.35,1.38-0.67-1.14,1.06,2.73-1.7,2.32,1.77,1.67,3.59-2,0.71,2.17,1.54,0.28-2.23,3.3-2.86.48,2.28,0.51-0.84.24,1.25,2.52-2.4,2,0.55,1.5-1.64,1.64,1.25,0.65,0.71-2.14,1.17,4H287l1-1.16,2.25,4,3.26,1.36L298,444.9l1.79,1.44,0.59-2.25,0.82,3.26,2.19-1.86,1,2,2.77,0.52,1.73,2.38L308,452l-3.12.81-0.47,3.06,2.66,2.83-1.79,1.24,3.4,2.64L307.92,464l3.29,3.3,0.27,2.56-1-.32L306.64,474l-8.22-2.83-1.54-3.91-3.79,2.41-2.46-1,0.85-1.73-4.5-5.63,1.31-2.54-1-3.06-1.85.55-2.18-2.72-1.73,2.22-2-.66-0.46-4.11L275.55,449l-0.66,1.26L274.34,448l-9.61,1.86-2.36-6.16,1-1L261,439.16l-2.42,5-2.13-.2v-1.35l2.65-1.84L257.93,439l0.33-4.09-1.77-2.71,1-1.76-0.83-2.66-5.6-3.48,1.4-4.36-4-1.52-3.22,1.22,0.53-1.31-2.46-1.07,1.7-.84-0.18-1.23-2.45-3.56" transform="translate(-64.79 -75.12)"/><path id="path6712" class="cls-2" d="M291.39,357.77l1.91-1.82,4.77,1.7,4.12-4L302.14,351l4.08-1.86,4.24,4.46,1.44-1.25,1.22,0.76-0.57,2,3.57,1.88-1.79,2.3L314,363.76l-4,3.58,0.8,2.26-1.89.76,0.85,1-1.47,3.39-2.06-.65-2.5,1.82-0.83-1.64-1.58,2.49,1.71,0.67-1.25,5.36-4.22.93-0.71-1.14-2,.61L292,381.94l0.13-1,2.32,0.18,2.42-1.72-1.88-1.62-1,2.35-1-1.94,0.57-2.13,3.15-1.62-0.93-1.06-1.36,1.34-3.43-.05,1.19,2.37-0.88.66-0.35-1.13L290,378.21,288,374.7l-2.12,1.59-0.45-1.84-1.85.25,0.58-1.16-2.1-.63,0.35-1.92,2.46,0.49-1.18-.84,1.49-5.41,1.77-1.52,1,1.17,2.65-1.57,0.77-5.56" transform="translate(-64.79 -75.12)"/><path id="path6714" class="cls-2" d="M301.47,376.59l1.76,0.73-1.76-.73" transform="translate(-64.79 -75.12)"/><path id="path6716" class="cls-2" d="M323.15,326.48l3.16-2.6,1.91,2.46,1.59-1.24,1.57,1.92L333,325.7l2.28,2.76-1.54,1.34,1.29,1.61,0.64,0.76,1.55-1.34,4.68,5.62,3.84-1.92,1.94,2.31,1.61-1.31,2,2.33,2.49-2.32,0.79,1,1.26-.82L367,343.89l3.89,0.57-3.43,3.47-1.18,4.45-2.73,3.43L356.13,362l-0.65-.82-3.63,1.09-2.49,2.29,2.36,6.65-3.25,3.8,1.2,1.84-1.36,2.77-8.25,1.5-0.81,4.51-3,.56,0.28-1.57-2.91-1-4,6.33-6.12-1.57-0.44,3.05-2.69,3.5L317.78,396l-2.38-.8,0.1-4.53-3.55-.81,0.3-2.5-5.46-1.52-1.73-5.12-2.29,1.41L303,377.4l-1.7-.6,1.58-2.49L303.7,376l2.5-1.82,2.06,0.65,1.47-3.39-0.85-1,1.89-.76-0.8-2.26,4-3.58,0.32-4.44,2.53-4.19,2.65-.84,0.59-2.75,1.8-.66-0.19-1.73L319.65,348l0.62-2.52,8-5.21,0.44-3.26-0.89.45-4.56-4.16,1.65-3-1.77-3.88" transform="translate(-64.79 -75.12)"/><path id="path6718" class="cls-2" d="M301.47,376.59l1.76,0.73-1.76-.73" transform="translate(-64.79 -75.12)"/><path id="path6720" class="cls-2" d="M285.29,389l3.4,1.29,7.65-2-1-5.47,2.38,0.91,7.31-3,1.73,5.12,5.29,1.39L312,389.9l3.52,0.79,0.07,4.83,4.75-.55-0.79,3.62,2.08,0.41,2.69,2.91,1.75-.28,1.21,2.72,1.72-.7,1.74,1.26-3.94,3.33,1,1L326,411l1.8,0.19,0.5,1.68-3.53-.9-2.86,1.62,0.11-1.18-1.61-.33-0.57,1.48-1.15-.73,0.78,2.3-1.25.48-1.51-1.48,0-2.79-3.48,1.88,1.76-2.82,1.35,0-2.82-4-2.3-.45-2.09,1.47-0.19,2-1.52.59,1.86,8.67,3.78-.06,0.68,2.07,4.32-.16,1,1.27,4.39-1.81,2.15,2.06-5,2.77L318.42,429l-2.15-2.13-2.77,1.65-1.83-.56-3.43,3.77-2.6,6.47-1.11-.54-3.63,4.18-1.07,4.55L298,444.9l-4.54,5.37-3.23-1.32L288,445l-1,1.16h-4.26l-1.17-4-0.71,2.14-1.25-.64,1.64-1.64-0.55-1.51,2.4-2-1.25-2.53,0.84-.24-2.28-.51,2.86-.48,2.23-3.3-1.54-.28-0.71-2.17-3.59,2-1.77-1.67,1.7-2.32-1.06-2.73,0.67,1.14,1.35-1.38-1.78-1.11,1.8-5.24L277.11,412l-0.18-6.29,3.48-7.77,6-4.3L285.29,389" transform="translate(-64.79 -75.12)"/><path id="path6722" class="cls-2" d="M269.66,449.08l0.67-.52-0.67.52" transform="translate(-64.79 -75.12)"/><path id="path6724" class="cls-2" d="M339.38,428.13l1.21,1.35,1.19-.65-0.32-3,1.83-.09,0.38-1.45,3.09,1.14L346.28,424l1.77-2.14-0.5-5.89,1.19-1.85,4.62-1.37,0.34,1.38,4,0.82,0.46,1.74,1.66-.92,3.36,4.24,2.63-2.85,4,0.72-0.59,6.92-0.95.34,3.39,2.4,0.48,4.41,1.38-.4,1.36,2.4,2.17-.17,3.35,2.89-0.73,3.13,0.89,1.06,4.16,1.49-0.61,1.7,2.14,4.78-1.49,1.32-3-1.47-0.95,2.94L363.52,448l0.46-1.14-2.27.45-1.44-1.5-0.44,1-2.14-.71-1.26,2.45-3.69-3-4.87-1.28L347,445.38l-0.67-1.47-3.43-.71-0.84-2.57,2.73-1.77,0.41-2.15-4-1.18v-1.62l-3.55-1.3,1.7-4.48" transform="translate(-64.79 -75.12)"/><path id="path6726" class="cls-2" d="M309.05,407.5l2.09-1.47,2.3,0.45,2.82,4-1.36,0-1.75,2.81,3.66-1.78-0.16,2.7,1.51,1.48,1.25-.48-0.78-2.3,1.15,0.73,0.57-1.48,1.61,0.33-0.11,1.18,2.86-1.62,3.86,0.56L326,411l1.79-1.78L327,407.89l3.73-3-1.66-1.68,0.93,0.6,1-1.66,5.59,5.94,3.52,0.5-0.83,1,2.56,2.13,1.3-1.87,2,1.25,2.8,5.4-1.24,8.93-3.09-1.14-0.38,1.45-1.38-.31-0.12,3.42-1.19.65-1.21-1.35-0.49,3.06-1.29.63,3.61,2.09v1.62l4,1.18-0.4,2.15-2.72,1.66,0.81,2.5L337,441.54l-1.61,1.52,0.26-1.92-2.76-1.54-1.16.69V439l-2.26-.39-0.27-2-1.41-.1-0.54,1.37-1.82-1.24,0.54,2.53-3.35.54,3.92,4-2.37-1.17-1.93,1.89,3,2.57,2,3.58L326.48,452l-7.72-4.55-4.22,2.31,0.19,5.06-3.76.65-6.08-1.3,0-1.42L308,452l0.93-1.61-5.49-4.89-2.18,1.86,0-2.37-1.33-1,1-2.18,3.64-4.18,1.11,0.54,2.6-6.47,3.43-3.77,1.83,0.56,2.77-1.65,2.15,2.13,2.08-4.08,5-2.77-2.15-2.06L319,421.86l-1-1.27-4.32.16L313,418.68l-3.78.06-1.86-8.67,1.53-.59,0.19-2" transform="translate(-64.79 -75.12)"/><path id="path6728" class="cls-2" d="M323.17,388.63l6.46,1.34,4-6.33,2.91,1-0.28,1.57,3-.56,0.81-4.51,8.25-1.5,1.36-2.77L348.47,375l3.25-3.8-2.36-6.65,2.49-2.29,3.63-1.09,0.65,0.82,7.44-6.19,8.21-13.67,1.72-1,1.33,1,1,1.42-1.09,1.87,6.06,4.69,4.53,10.4L382,373.09l1.86,2.4-2.89,8.71,6.12,5.7-0.61,9.52,1.52,1.47-2.29,7.87-3.92-.37-1.9,1.34,0-1.46-4.83.23,0.52,1.48-2.83,2.64,0.74,1.3L371.75,417l1.26,1.37L371.48,420l-1.66-2.09-3.74-.77-2.87,2.9-3.36-4.24-1.66.92-0.46-1.74-4-.82-0.31-1.38-4.65,1.37L347.55,416l-2.35-4.89-2-1.25-1.3,1.87-2.56-2.13,0.83-1-3.59-.55-5.08-5.75-4.2,2L326,401.63l-1.75.28-4.83-3.37,0.65-4.48,2.94-2.6,0.11-2.82" transform="translate(-64.79 -75.12)"/><path id="path6730" class="cls-2" d="M380.15,328.14l8.22-8.63,2.64-1.1,1.14-5.74,2.54-.92,0.47-2L400,308.5l1.35,3.28L413,306.56l-0.4,5.62,1.7,1.76-4,6.18-2.46,1.29,3.92,3.86-1,2,15.63,4,3.43,2.89-2.46,3.29,3.8,4.79,5.09-1.49,2.08,1.92,1.27-.92L439.25,340l2.38,0.51,2.31,3.34,2.36,0.8,1.71,3-2.09,1.63,0.28,4.67,2.8,1.51-1.53,6.44,6.12,1.29,2.91-.9,1.29,3.92,4.19,1.87,0.88,2.28,7.51,1.63,2.47,3.22,2.24-.39,5.88,10,4.36-.54,6.52,1.9,1.18-2.23,5.61-2.83,2.19,0.18,0.47,4.11,2.13,2.69,2.84-.74,3.36,1.73,2.43,4.59,3.29-.74,2.67,5.25,0.32,5.82,6.61,4.32,0.41,1.91-2.27.78,0.12,1.16L513,415.67l-2.06-.12-2.37-3.29-2-.37-7.9,5-1.4-2.07-4.88-1.35,0.08-1.55-2-1.21-8.85-.27L481,407.62l-7.89-1.28-4.8-3.24-1.67,4.12-2.56,1.19L460,418.33l-5.63.43-2.5,1.76-0.71,3.18-5.07,2.46-12.52-7.9,1-3.19-2.72-1.43L431,407.8l-3.77-5.34,0.15-1.65-5.15-1.29-1-2.06-5-2.9-1.66.47,0.66,2.3-5.49.06-2.67,2.88-12.22-.41-1.54,3.2-3.21-.52-3.69-3.12,0.61-9.54-6.12-5.67,2.89-8.71-1.86-2.4,1.84-8.61,1.36-1.47-0.14-4.1-4.36-9-5.93-4.51,1.07-1.91-2.1-2.37,1.08-2.65,4.06-3.56-0.87-.84,2.49-3.57-0.34-2.37" transform="translate(-64.79 -75.12)"/><path id="path6732" class="cls-2" d="M413,306.56l4.81,0.67,6.25-5,11.65-.88,1.72-2.72,6.17-1.55-0.27-2.72,2.25,0.56,1-2.92-3.22-1.64,0.14-1.47,1.21-2.73,3.88-3.16,0.08-3.42L445.6,277l0.68-1.57,4.81-2.56,5.92,0.92L462.2,266l-0.5-5.18,2.17-4.36,5.23-4.7,7.78-2,7.75-10.08,6.59-4.13,1.91-3.23,5.63-.12,3.56,3.65,5.39-.09,12.64,4.51,2.6,2.79,0.22,2.86-2.46,4.41-5.41.51-0.35,4.44,8.44-3,0.87,6.49-1.52,3.45,6.36,6.36-1.63.18-1.17,2.8-2.83-.64-1.56,2.29,5,6.26-0.44,5.57-1.33,1.63,0.87,1.06-2.94-1L518.84,290l-0.85-.71-0.27,1.39-2.84,1.4v2.57l1.81,1,0.47,4.5,4.28,1.64L522,303.6l3.17-.07,1.25-2.22,0.81,1.63-1.12,1.82,2.84,1.38-1.06,1.17,1.46,5.49-1.46.78-0.55,3.38-2.87,4.65-3.31-.29,2.09,5.66-2.39,3.4,4.39,9-2,2.32,1.61,4.09-1.88,1.4,0.37,3.29,2.76,1,1.89,4.9-2.95,6.47,3.68,0.58,0.65,2.73,2.7-.64,1.3,1.21-1.2,9.74-3,1-2,3.39-1.79.52,1.72,3.3,1.67,0.49-2.33,5.65L518,398.63l-2.67-5.72-3.29.74-2.43-4.59-3.36-1.73-2.84.74-2.13-2.69-0.47-4.11-2.19-.18L493,383.91l-1.18,2.23-6.52-1.9-4.36.54-5.88-10-2.24.39L470.36,372l-7.5-1.63L462,368.06l-4.18-1.85-1.3-3.94-2.91.9-6.12-1.29,1.53-6.44-2.8-1.51-0.28-4.67,2.09-1.63-1.71-3-2.35-.78-2.3-3.34-2.38-.53,0.36,1.76-1.32,1-2-1.93-5.08,1.5-3.81-4.79,2.46-3.31-3.44-2.88-15.62-4,1-2-3.91-3.86,2.46-1.29,4-6.18-1.69-1.73,0.39-5.65" transform="translate(-64.79 -75.12)"/><path id="path6734" class="cls-2" d="M372.69,412.6l2.83-2.65L375,408.48l4.83-.23,0,1.46,1.91-1.35,3.91,0.38,2.29-7.87,5.37,2.17,1.54-3.2,11.05,0.73,3.83-3.2,5.49-.06-0.66-2.3,1.66-.47,5,2.9,1,2.05,5.14,1.29-0.15,1.65L431,407.8l0.79,5.84,2.72,1.43-0.95,3.22,12.73,8.59-8.64,3.59-7-3-2.86,1.11-4.09-2-0.59-1.7-5.32-1.41,2.31-3.73L418,416.7l-6.54,6.21v5.64l-3.05,1.34,1.35,2.48,1.55-1.71,1.5,0.49,1.19,9.39-2.76.75-2.06-1.64-0.42,2.12-2.86.19,0.78,2.08H405L404.31,448l-3.28.15,2.33,1.28-2.12-.32,0.29,3.14-6,3.69-2.62-4.18,0.67-1.59-1.74,1.3-3.53-3.18-0.52,2-2.65-3.24-0.4-4.73-2,0-3-2.59,0.73-3.13-3.35-2.89-2.17.17-1.36-2.4-1.38.4-0.48-4.41-3.39-2.4L370,419l1.49,0.94,1.52-1.54-1.36-.49,1.78-4-0.74-1.3" transform="translate(-64.79 -75.12)"/><path id="path6736" class="cls-2" d="M411.45,422.92L418,416.7l2.1,3.09-2.36,3.69,5.33,1.4,0.62,1.72,4.1,2,2.84-1.12,7,3,7.86-3.28,1.18,2.17-2.62.66,0.58,2.15-1.52.65,2.42,3.47-1.51,3.83,1,0.38,0.88,5.82-1.07,7.22-4.39,2.38,2,0.34-0.89,1.84,1,2.26-4.2-.87L434,461.66l0.27,1.57-1.78-.88,0.46,2-1,.22,1,1-2.3,1.44,0.49,5.53-0.93.91,1.31,0.45,1,4.7-1.44.35-1.93,5.28-2.51-.15v1.37l-3.72,1.19-1.7-1.08L419.42,487l-1.22-.7L416.59,489l-2.66-3.74-4.43,1.3-0.81-2.15,1.79-2.48,2.93,0.12,1.45-2.19-3.93,0-4-4.41-1,.92,0.8,1.6-2.18-.31,0.61-2.5,1.17,0-2.43-4.31-0.12,3.51-1-2.13-1.34-.73L400,473.14l-2.24-2.2-1.34.73-0.35-1.55,0.37-2,1.29,0.94,2.56-4.08-1.23-2.11,1.57-3.79L400.33,456l-2.46-1.06,0.51-1.54,3.14-1.18-0.29-3.14,2.12,0.32-2-1.92,2.93,0.48L405,444h1.73l-0.77-2.08,2.86-.18,0.42-2.12,2.06,1.64,2.76-.75-1.2-9.4-1.5-.48-1.75,1.64-1.15-2.42,3.29-1.8-0.26-5.17" transform="translate(-64.79 -75.12)"/><path id="path6738" class="cls-2" d="M396.79,455.61l1.16-.58-1.16.58" transform="translate(-64.79 -75.12)"/><path id="path6740" class="cls-2" d="M523.36,252.34l3.23-5.24,7.39-2.42,3.39,0.16,7.35-5.41,3.8,0.56,1.79-1.17,1.56-4.19,7.63-2.34,1.56-4.41,3.57-.16,2.13,1.59,0.29-3.49,1.45-1.42,3.92-.59,3.81,2.7,4.39-2,1.23-3.59,7.82-.53,1.17-5.37,9.61-7.42,3-.19,7.31,4.43,1.85-3.44,5.18-.86,4.9-5.41,4.73-2.23,14,3.88,1.82,2.56-0.79,4.12,1.71,1.12,7.5-1.8,7.69,1.68,4.84,3.36,3.28,7.4-0.11,10.22-5.88,7.39L655.2,245,661,246.9l0.42,1.36-3.69,4.1,2.14,1.51-4.28,3.46,2.31,1.46-0.77,1.7,1.92-.42,0,5.47,3.24,2.77-1,1.77,2.54,0.49,2.26,2.3,1.64,9.46,3.53,1.36L671,285.81l-10.17,7.92,1.32,2.88-3.09,1-1.23,2.31,1.48,2.47-0.76,3.28-5.1-.43-1.12,2.61-5.05,2.49-1.93-.56L644,312.06l4.42,7L650,339.28l-3.75,2.58-0.49,1.73-2.29.56,4,2.53,1,4.22-0.88,3.73,2.48,2.46-0.15,4.45,3.27,1.84L648,370.11l1.65,2.07-1.7-.24-0.8,4.33,2.65,2,2.42-1.9,4.92,3.26,1.47-.83,2.15,1.49,1.48-1.09,1.13,2.44-5.48,2.81-4.55-1.55,0.93,2.26-1.47,4.5,1.77,1.77L654,392.57l-1.25-.46,0.14,3.08-1.69.65,2.64,5,2.09,0.81-0.1,1.73-1.86,1.48,0.24,4.63-2.92,3,0.7,2-7.21,5,1.76,2.2L644,423.22l-0.88,3.2,1.67,5.72,5.74,2,0.42,5.08L648,439l-1.91,2.68,1.62,2.8,1.8,0.22,1.21,4.24-3.7,3.6,0.33,2.51L645,456.07l-1.9-2.25-2.17.78,0.54-1.88-4.15-1.82L636,448.22l0.76-.54-2.15-.5-1.31,1.73-2.17.18,0.7,5.91-9.91,8.73,0.25,1.77-2.23,1.3,1.15,5.05-1.46,1.24-2.6-2-2.36-6.92-2.74-.12-1.77,3.89-3.21.91-7.23-1.63L595,477.66l2.34,0.88-1.53,1.87,2.28,0.48,0.51,5.63-2.37-.09,0,2.52-1.66,2L593,489.81l-1.2,3.42-1.55.76,0.9,6.34-2.19.89,0.22,4.56-1.61,4.87-3.61-.79-3.4,3.44,7.57,9.85-1.93.95-1.55-1.5-1.15,2.16-2.92-1.15-2.68,1.95-1.43-1.47-1.51,1.27-2.48-.32-2,6.06-3.15.8-4.45,7.87-7,4.35-2.79.3-3.81-.17-7.88-3.35-1.9.44-2.14-3.58,3.62-5.56,3.07-.15,2.12-3.15,0.2-3.24,2.34-.28,1.72-2.1-3-6.44,1.49-3.57-1.76-5.89-2.35-2.27,0.54-2.54-3.21-1.18,0.22-2.07-2.63-1.61-5.55,1.09L531.66,497l0-2.74-2.84-1.87,6.84-4.82-1.77-6.11-2.36-1.27-0.85-3.58,1.89-.94-0.81-1.31,1.46-3.67-1.42-.68,1.8-.82,1.52-3.37,1.33,0.47,0.79-2,1.58,0.24,0.61-3.75-8.25-4.19-0.35-5.44,4-4.48,3.28-1.2-0.78-3.8-4.93-.31-1.63-5.8-2.2-.65-0.15-2.69-2.72-1.46L513,428.9l-0.62-1.09,2.49-4.76L513,415.65l10.22-3.5L523.06,411l2.41-1.07-0.54-1.62L518.32,404,518,398.63l9.45-9.36-0.31-2,1.67-2.15-1.63-.37-1.74-3.33,1.84-.56,1.91-3.32,3-1.05,1.11-7.24L533,366.11l-3.55.06-0.65-2.73-3.67-.56L528,356.4l-1.89-4.9-2.76-1-0.36-3.3,1.88-1.39-1.59-4.25,1.91-2.19-4.36-9,2.39-3.42-2.13-5.59,3.33,0.24,2.9-4.67,0.55-3.38,1.46-.78-1.46-5.49,1.06-1.18-2.84-1.37,1.12-1.82-0.78-1.6-1.28,2.2-3.19.08-0.5-1.75-4.28-1.62-0.49-4.52-1.81-1v-2.59l2.86-1.4,0.24-1.37,0.87,0.7,4.19-3.15,3,0.82-0.94-1,1.33-1.61,0.44-5.57-5-6.26,1.63-2.35,2.75,0.7,1.16-2.78,1.64-.24-6.37-6.32,1.52-3.45-0.87-6.49" transform="translate(-64.79 -75.12)"/><path id="path6742" class="cls-2" d="M584.71,155.65l1.19-2.22,2.28-.87,8.23,2,5.88-1.67,3.49,0.92,6.54,8.11-2.17,5.42,0.77,1.68,3.95,1.3,3.66,7,5.83,1.14,5.42,4.52,4.31,6.55,7.24,4.68,0.08,4.26-3.35,1.73-8.68-2.71-5,2.44-4.18-.41-5.11,3-4.43-.34-1.51-2.75,0.51-2.32L605,190.71l-8-3.72-6.69-.71-2.14-1.88-0.86-3.88-3.34-2.67-0.16-2.1,2-2.23-0.14-4.25,4.83-7.39-4.81-3.74-0.9-2.49" transform="translate(-64.79 -75.12)"/><path id="path6744" class="cls-2" d="M554.63,152.45l2.07-2.12,3.34-.39,4.44,3.72-1.64,2.1-3.3.52-4-1.41-0.88-2.42" transform="translate(-64.79 -75.12)"/><path id="path6746" class="cls-2" d="M542.58,165.06l2.06-2,2.94,0.47,4.42,4,0.18,2.79-2.52,1.46-4.25-1-2.4-2.6-0.44-3.11" transform="translate(-64.79 -75.12)"/><path id="path6748" class="cls-2" d="M543.38,226.63L545.1,225l2.79,0.45,2.34,2.8-0.47,2.91-2.07,1.12-2.2-.63-2.11-5" transform="translate(-64.79 -75.12)"/><path id="path6750" class="cls-2" d="M590.8,195.54l1.56-2.29,2.58-.5,2.18,1.38,0.31,2.83-1.6,1.81-2.42.2-2.61-3.44" transform="translate(-64.79 -75.12)"/><path id="path6752" class="cls-2" d="M531.93,231.82l1.62-2,2.63-.2,2.45,2.26,0.29,2.45-1.68,2-2.5.14-2.53-2.11-0.29-2.58" transform="translate(-64.79 -75.12)"/><path id="path6754" class="cls-2" d="M444.1,430l2.62-.66-0.63-3.21,5.07-2.46,0.71-3.18,4.85-2.76,3.28,0.57,4.1-9.9,2.56-1.21,1.65-4.13,4.8,3.2,7.82,1.31,0.69,2.85,8.77,0.26,2,1.21-0.08,1.55,4.88,1.35,1.4,2.07,7.61-4.88,2.33,0.25,2.37,3.29,2.44,1,1.5,6.46-1.67,2.15-0.34,3.57,12.89,2,2.72,1.46,0.15,2.69,2.2,0.65,1.63,5.8,4.93,0.31,0.78,3.8-3.29,1.2-4,4.47,0,4,0.39,1.44,4.87,2.93,3,0.56V464l-1.83.26L537.06,466l-1.9-.21-1.52,3.37-1.79.84,1.4,0.66-2.06,4-1.08-.94-5.67,2.82-0.13-1.64-1.83.62L521,474.42l0.42,1.25-1.07.3-6-2.44-5.61,3.57,0.6,1.06-3.13-.85L499,479.07l-0.74-1.24-1.94.16-3.51,4-1.23-.37-1.5-1.19,1.89-1.8-1.36-4.92,2.27-2.35L492,469.63l-2.25-.1-0.8,1.4-8.88-.15-1.47-4.47-7.15-.43-2.83-7.78-6.8-5.47L446,446.33l-0.88-5.82-1-.38,1.51-3.83-2.42-3.47,1.52-.65L444.1,430" transform="translate(-64.79 -75.12)"/><path id="path6756" class="cls-2" d="M432.21,462.67l2,0.56L434,461.66l4.49-2.16,4.2,0.87-1-2.26,0.88-1.85-2-.32,4.39-2.38,1.07-7.22,15.82,6.31,6.8,5.47,2.83,7.78,7.15,0.43,1.47,4.47,8.88,0.15,0.84-1.41,2.2,0.11,0.94,1.69-2.27,2.35,1.36,4.92-1.85,1.66,0.59,0.85,2.11,0.84,3.51-4,4.34,0.83-1,4,1.25,2.81L499.42,487l1.94,1.53-1.51,4.11,1.35,2.76-1.69.82,0.85,4.14L495.14,503l-7.55-1.1-1.34,2-1.49-2.06-4.58,2.82-2,3.38-2.83-2.28,0.57-.83-2.82-.88-0.48-1.37,1.51-2.19-2.38.18,0.95-1.32-3.22-2.14L469,493.48,464.76,496l-3.57-.28-4.37,3-8.09-1-0.27,1.65-2.2-.14L445.79,497l-2.19-.21,0.24,2.07-2.41.5-6.83-13.17,2.56,0.27,2.48-3.23-2.44.8-2.81-1.27-0.76,1.09-4.48.37,1.93-5.28,1.44-.35-1-4.7-1.31-.45,0.93-.91L430.61,467l2.3-1.44-0.7-2.94" transform="translate(-64.79 -75.12)"/><path id="path6758" class="cls-2" d="M442.2,499.38l1.72-.58-0.31-2,2.19,0.21,0.49,2.17,2.2,0.14,0.27-1.65,8.09,1,4.37-3,3.57,0.28,4.21-2.57,0.48,3.78,3.22,2.14-0.95,1.32,2.38-.18-1.51,2.19,0.48,1.37L475.9,505l-0.57.83,2.83,2.28,2-3.38,4.58-2.82,0.77,2,2.05-1.93,6.83,1.18,6.29-2.88,1.24,3.94,1.61-.1,3.19,3.8,1.07,5.44,2.87,2.53,1-.51-3,3.8,2.86,2.43-1.6,2.33,1.65,2.35-4.51,1.5,0.26,5-4.95,1L500.2,532l-1.1.52,0.11,2.11L495,538.27l-10.46,1.56-1.73,2.49-1.33-1.21,4,3.49-0.69,1.06,1.14,0.74L484.47,548l-3.37-.1-1.29-3.58-2.94-2.6-2.37-.53L473,542.53l-1.95-1-1.95,2L463,540.87l-2.85.13,0.44-2.89-3-.48,1.69-3.16L455.87,532l-0.74,1.37-1.69-.15L453.05,536l-3.77.56L448.92,538l-6.72-38.65" transform="translate(-64.79 -75.12)"/><path id="path6760" class="cls-2" d="M442.9,504.53l0.59,2.54-0.59-2.54" transform="translate(-64.79 -75.12)"/><path id="path6762" class="cls-2" d="M443.94,509.31l0.2,1.06-0.2-1.06" transform="translate(-64.79 -75.12)"/><path id="path6764" class="cls-2" d="M444.41,511.73l1.76,8.3-1.76-8.3" transform="translate(-64.79 -75.12)"/><path id="path6766" class="cls-2" d="M455.23,532.88l0.64-.87-0.64.87" transform="translate(-64.79 -75.12)"/><path id="path6768" class="cls-2" d="M455.9,532.05l1.07,0.8-1.07-.8" transform="translate(-64.79 -75.12)"/><path id="path6770" class="cls-2" d="M481.47,541.12l1.33,1.21,1.75-2.49,10.39-1.53,4.29-3.64-0.11-2.14,1.1-.49,2.24,1.7,4.95-1L506.64,529l2.1-2.59,2,0.21,4,3.89,2.2-1.17,2.37,2.28,1.57-.33-1,4.15-2.67.56-2,2.86,1.6,1.25-2.13,2.18,3.68,4.21,2.45-1,0.91-2.18,1.62,2.42-0.3,4.73,5.57,7.86-1.94,1.8-1.1-1.38-2.14,3.06,1.75,0.48,0.77,6.35-3.34,1.43-1.09-.94-0.4,1.54-2,.49-0.54-1.33L518,571.28l-5.22-1.37-2.66,3.55-5.07.61-1.11-.81,0.53-1.45-2.4-.78-1.07-4.2-1.62-.63,1.91-2.6-1.48-.5-4.26,3.77-4.72-3-2.87-.25L486.58,559l0.76-1.82-5.76-4.35,0.58-3.14-1.06-1.8,3.37,0.1,1.43-1.6-4.43-5.27" transform="translate(-64.79 -75.12)"/><path id="path6772" class="cls-2" d="M500,478.48l6.17-1.16,3.13,0.85-0.6-1.06,5.61-3.57,6,2.44,1.07-.32L521,474.41l1.46,1.15,1.83-.62,0.13,1.64,5.73-2.85,2,0.44,0.21,1.89-1.69.53,0.25,2.62,3,2.23,1.76,6.13-8.39,6.53,1.52,6.06-2.51,5.2-1.5.58,1.81,1.52,2-1.53,0.69,1.89,1.24-.59,0.7,1.19-2.32,3.16,1.41,2.72-1.55.12-3.1,5.12,2,1.59-1.57,3.66,2.18,2.9-5.61,6.64-2.35.65,0.87-3.49-1.8.13L517,529.34l-2.16,1.2L511,527.46l0.63-1.39L510,523.91l1.6-2.33-2.85-3.22,1.92-.72,1.09-2.29-1,.51-2.87-2.53-1.07-5.44-3.19-3.79-1.61.1-2.52-6.34,1.8-3-1.4-2.23,1.47-4.31-1.9-1.33,1.57-1.41-1.25-2.81,0.29-4.32" transform="translate(-64.79 -75.12)"/><path id="path6774" class="cls-2" d="M515.19,539.23l2.09-3.24,5.53-1.78,5.44-6.53-2.19-2.9,1.59-3.62-0.76-1.67-1.26.21,3.07-5.22,1.62-.19-1.41-2.72,2.33-3.16-0.7-1.19-1.24.59L528.63,506l-2,1.52-1.86-1.66,1.5-.43,2.34-4.44-1.4-6.51,2.14-2.09,2.3,1.91,0,2.74,1.44,1.27,2.36-.26,0.46,1.24,4.44-1.41,1.95,1.52-0.22,2.07,3.21,1.18-0.54,2.54,2.35,2.27,1.75,5.84-1.53,2.88,0.67,3.58,2.4,3.6-1.72,2.1-2.34.28-0.19,3.21L544,532l-3.11.18-3.65,4.68-3.07.4-1.44,2.33,0.62,2.8-1.69-.21-2.6,2.55-1.7-1.19-1.63.63,0.27-1.43-1.1,0-4,.86,0,1.86-2.51,1L515,543.3l2-3.19-1.74-.88" transform="translate(-64.79 -75.12)"/><path id="path6776" class="cls-2" d="M522.06,543.48l3.62-.84,0.1,1.57,1.42-.66,1.91,1.21,2.57-2.52,1.72,0.18-0.6-2.87,3.26-2.71L539,539l0.49,2.34,7.74,1.15,2,1.76,6.6-.13,7-4.35,4.45-7.87,3.15-.8,1.84-4.22-0.68-1.31,4.86-1.49,1.38,1.48,2.71-2,2.92,1.15,1.15-2.16,1.55,1.5,1.69-.61,0.74-2.11,4.55,2,2,3,5.45,2.06v1.73l4.91-.68,2.8,3-3,.43,0.51,2.41-2.72,3.85,0.09,1.92,2.73,1.62L604,546.57l-3.4,1.77L599.48,552,598,552l-2,5.54,1.6,2.28-0.26,2.54,2.67,2.35L599.8,567l-3.73,5.25-1-1.06-3.88,3.15-2.87-2-3.88-.84-0.93.9-4.71-2.56-2.92,1.83-4.53-2.37-3.17-.06-1.67-2.57-0.53-4.76-9.67-1L555,559.75l0.59-1.7-3.15.85-2.15-2.63-1,1.91-4-.32-3.64,3.22-4.16-.1-2.44,2.42-9.71,2.69,0-3.78-1.75-.48,2.14-3.06,1.1,1.38,1.94-1.8-5.58-7.87,0.35-4.62-1.44-2.38" transform="translate(-64.79 -75.12)"/><path id="path6778" class="cls-2" d="M580.53,513.33l3.4-3.46,3.62,0.78,1.54-4.41-0.15-5,2.2-.91L590.24,494l1.54-.76,1.19-3.4,1.64,1.14,1.66-2,0-2.52,2.37,0.09-0.42-5.44-2.37-.7,1.53-1.85-2.35-.86,4.71-10.45,7.21,1.64,3.23-.91,1.77-3.89,2.74,0.12,2.36,6.92,2.54,2,1.2-.6-0.82-5.72,1.43-.08,0.55-2.95,9.61-8.32-0.84-5.77,3.94-2.47,2.3,0.59L636.19,449l2.8,3.19,2.21,0.15-0.28,2.2,2.16-.75,1.94,2.23,2.32-1.07L647,452.48l3.7-3.61-1.22-4.24-1.83-.23-1.58-2.76,1.84-2.66,3,0.25-0.41-5.12-5.77-2-1.66-5.73,0.89-3.19,2.55-1.49-1.78-2.24,7.21-5-0.69-2,2.87-2.88-0.19-4.72,1.87-1.53,0.09-1.68-2.07-.8-2.65-5,1.67-.68-0.13-3.11,1.25,0.45,0.59-1.14-1.78-1.85,1.49-4.45-1-2.22,4.6,1.54,1.86-1.9,3.23-.23-0.44-2.67-1.25-.28,1.85-1.22,2.93,5.68-2.88.67-0.63,3.28,5.65-.29,2.28,2.38,2.6,6.78L671,400.53l1.49,1.85,2.79-.56,0.76,1.59L674.16,409l2.52,4.55-0.3,2.94,5.3,1.56L681,424.3l-1.46.46,0.69,1.06-2,5.07L678,438.62l-1.59,2.9,3.35,5,4.34,0.31,2.47-4.26,6.37-.27,1.86-1.08,1.6-3.67,0.52,3,2.5-.6-1,2.37,1.11,3.33,0.06-2.95,1,0.6,4.32-3.74v-4.44l3.29-2.72,2.09-6.32,2.25-1.26,0.49-3.55,3.08-1.51,6.12,0.87,3.55,3.67,2.39-.26-1.85,1.9,1.57,0.26,0.1,3.56,1.22,1,2.2-.06,1-1.48,1.3,1.24,0.27-2.71,1.26-.46,4,1.92,2.82,10.3,3,1.11,0.79,3.21-2.73,1.59-3.63-2-4,.63-1,1.67,1.32,1.72-1.11.5,0.82,2.94-2.09,2,1,2.19,1.39-.16,2,4.64,0.59-1.47,1.48,0.1-0.69,6.81L738,463.51l-3.27,3.92-3.42-1-1.67.93-2.81-1.16,3.18-2.91-2.44-1.18-1.73,2.17-4.09,1-0.95,6-4.42.8-1.62,2.72-3.1-1.69-4.42.9-2-3.42-1.72,1.77-2.5-.89-2,1-2.32-2.6-2,4.5-4.2.47-3.81-1.49-1.75,4-2.54-.06-5.14,3-0.48,3.26,3.72,3.84,2.14,0.32-3.08,1.92-0.93,5.59,1.88,3.43,0.19,6.67-1.07,1.78,4.18,1-0.36,1.26-5.9,15.45-13.51,13.06L660,545.07,652,548.64l0.28,4.53-3.25.24-3.1,2.23-0.3-4L641,550.9l-0.33-4-3.89-2.36L635,541.63l-5.21.15,0.26-1.27-4.52-4.11L619,532.27l-2.69-5.59-3.11.8L612.9,529l-3.74,1.24L608,532.09l-2.47-2.58-4.83.71-0.09-1.76-5.38-2.06-5.43-5-2.93.59-6.36-8.67" transform="translate(-64.79 -75.12)"/><path id="path6780" class="cls-2" d="M603.09,539.3l2.56-3.37-0.08-3.47,2.43,0.9,1.17-3.12,7.1-3.57,2.69,5.59,6.61,4.13,4.52,4.11-0.26,1.27,5.19-.17,1.73,2.94,3.89,2.36,0.33,4,4.64,0.69,0.3,4,3.1-2.23,3.25-.24L652,548.64l8.06-3.57,4.06-7.14,13.51-13.06,5.9-15.45,0.36-1.26-4.18-1,1.07-1.78-0.19-6.67-1.88-3.43,0.93-5.59,3.08-1.92-2.14-.32-3.72-3.84,0.48-3.26,5.14-3,2.54,0.06,1.75-4,3.81,1.49,4.2-.47,2-4.5,2.32,2.6,2-1,2.5,0.89,1.72-1.77,2,3.42,4.42-.9,3.1,1.69,1.62-2.72,4.42-.8,0.94-6,4.09-1,0.95-2,3.18,0.8-3.8,4-0.56,4.16,2.07,0.08,1.22,1.57-0.54,2,2.79,4.4,1.55,6.8,3.52-.5,4.51,3.65,1.35,2.93L741.48,496l-8,3.44L729.95,506l-8,6.8,2.11,4.54,2.19,0.54L726,519.33l1.87-.12-1.3,5.57-3.29,3.56-8.05,2.9-1,2.13-2.64-.66-2.2,4.55-5.26,3.35-1.94,4.07-6.16-.49-4.28,4.12-3-1.81-1.06,1.3-2.47-.51-1.7,3.37,1.75,1.6-3.62,5.07,5.68,2.82-5.78,3.25-1.72,2.45,0.47,2.37-4.45.26-4.52-3.91-4.14.55-7.89-1.71-8,2.82-2,2.32-7.39-.27-0.35-1.64-4.92-.89-3.16-3.64-1.94-9-6.17-1-6.52-3.71-5.81-.32-1-1.84L606.21,544l-1.52-2.82-1.43.12-0.18-2" transform="translate(-64.79 -75.12)"/><path id="path6788" class="cls-2" d="M745.54,216l0.4-3.05,3.29-1.15,5.21,2,1.57,2.85-1,2.51-2.42.93L747,217.85,745.54,216m20.72,0.64L766.13,214l1.83-2.58L763.43,209l-1.81-3.31,0.85-2.83,2.64-2.16,15.56,1.83,5.13,4.58v2.27l-2.39,2.63L774,215.24l-3.93,3-3.77-1.67m-28.35-14.7-2.13-7.57,1.76-1.72,3.21-.48,2.42-7.38,5.11-5.36,20.78-2.74L772.3,174l17-6.21,3.22,1,1.77,5.23-3,5.91-5.43,3.47-9.69.63-6.41,11.28-5.14,1.81-5.56,8-5.89.88-7.5-3.22-5.61,1.11-2.15-2m-94.5,142.21,2.3-.51,0.49-1.73,3.75-2.58-1.56-20.22-4.28-7.38,1.25-1.95,1.93,0.56,5-2.47,1.16-2.63,5.15,0.38,0.68-3.47-1.47-2.19,1.3-2.41,3-.89-1.29-2.9L671,285.79l0.23-2.06-3.56-1.39-1.64-9.46-2.26-2.31-2.54-.45,1-1.8L659,265.5l0-5.43-1.9.43,0.78-1.67-2.34-1.55,4.28-3.39-2.12-1.54,3.69-4.1L661,246.9,655.2,245l6.54-5.47,2.17-4,2.47-1.32,0.23,3.35,2.82,4.09,0.37,7.22,1.58,0.38,5.23-2.59,13-1.05,10.69,5,4.21-2.91,0.49-2.34-2.8-7.37,1.42-2.74,7.48-1.87,8.64,2.31,6.47-1.53,10.18,4.16,4.17,8.2,1.16,6,4.41,2.45,0.85,4.39,2.33,0.26,1.46-1.72-1.37-9.68,1.35-3.4,4.4-1.49,2.43,1.69,0.82,3.07,1.91,0.14,4.19-6.24,7-3.22,0.3-12.53,2.18-3.35-0.9-3.77,1.41-2.39,5.83-1.3,30.28-13.89,5,0.35,4,2.69,7.09-.74,6.13,1.54,7.72-12.4,6.78-6,6.82-3,1.26-4.08,4.22-4.87,7-1.41,2.22,1.35-0.51,3.72L862.16,183l0.15,1.58,4.86,4.61,1.36,0.54,3.42-2.91,2.65-4.26,4.23,4.6,3.79,0,0.23,2.18,3.45,0.58-0.2,1.52,2.51,1,2,2.89,0.11,1.1-4.1,2.83-7.25,14.77,0.91,2.69,2.54,0.17-1.47,1.63,1.26,2.65,2.65,1.67,5.56-1.19,3.62,1.48,1.11,5.29,3.83,2.45L896.49,234v4l-4.87-.52,0.58,2.38-3.81,1.51-2.83,3.82-2.49.43,0.47,2.73,1.28-.28,1.11,2.42-1.85.56L883,253.26l4.14,4.57L885,262.12l1.91,3.67,3.35,0.82-0.45,3.48,1.58,1.14-1,1.56-1.94-.69-1,3.77-3.36,2.83,1.07,2.13-3,.62-1.44-2.08-1.62,0-1.11,4-3,2.1-2.75.11L872,287.82l2.8,1,1.06,4-2.22.52-1.52-1.62-0.27,2.94-5.68,1.55,1.21,3.49-1.91,3.19,1.66,1.28,1.47,6.08,6.74,6.62-1.21,1.94,1.9,1.89-0.54,9.49-1.65.78-2.11-2.46L871.49,331l-1.23-1.75-2.88.44,0.41,3.05-1.95.38-0.58,2.05-2.92-1.23-1.25,1.86-7.63-2.56-1.66.53,0.12,1.81-1.24.72,2,4.66-1.08,1.65,1.29,7.11L849.43,354l0.72,1.56-1.29,2.4,1,3.26,2.29,1,2,6.49,4.05,6.32-1.12.44-1.14-1.9-1.87,2.31,0.64,2.62-2.82,5-7.49,1.66-0.4,6.23-3.44.25-0.91,1.69h-3.5L834,395l-1.2-.61-3,4.43,1.18,8.45-1.83.86,1.89,2.92-0.77,1.8,1.41,0.47-5,.71,6.87,4.17-1.55,2.36,0.8,3.62L830,426.2l3.27,0.65,4.22,3L837,431.4l1.53,2.39-2.07-.4,0.21,1.56-1.73-.17-0.17,1.71,1.18,6.7,1.79,2.17-10.18,3.87-2.63,2.24,0.7,2.58-3.6.85-2.31-1.2-4,1.2-1.12,2.67-2.59-.94-4.3,4-2.63.65-0.62-1.5-2.14-.46-1.74,1.56-2.88-1.3-5.1,2.22-6.32-4.83L781,458l-2.81-1.23-1.7,2.13-3.91-2.36-3.8,1.34-2.5-2.68-6.08,1.08-4.36,3.27-2.2-1.22,0.18-2-3-2.72,0.11-2.3-1.68,1.77-2-2.8-0.47-5.54L745,440.3l-2.84-.78-2.77-10.25-4.11-2-1.22.46-0.28,2.7-1.31-1.24-1,1.48-2.21.07-1.2-1-0.14-3.6-1.54-.27,1.85-1.87-2.38.27-3.57-3.68-6-.87-3.22,1.5-0.49,3.57-2.67,2,0.44,1.83-2.1,3.75L705,435.12v4.44l-4.24,3.69-1.11-.55-0.08,3-1.09-3.34,1-2.37-2.45.64-0.58-3-1.62,3.69L693,442.3l-6.33.26-2.53,4.28-4.31-.3-3.37-5,1.59-2.9,0.16-7.73,2-5.07-0.68-1.07,1.45-.45,0.73-6.29-5.3-1.51,0.29-3L674.16,409l1.86-5.67-0.75-1.54-2.83.56L671,400.54l2.13-3.89-2.62-6.79-2.3-2.38-5.63.29,0.63-3.28,2.88-.67-1.91-4.91-1-.77-2.42,2.15-2.12-1.48-1.78.73-4.68-3.17L650,378.25,649,376.67l-1.49.76,0.45-5.5,1.71,0.25L648,370.1l5.15-6.73-3.27-1.84,0.15-4.45-2.48-2.38,0.89-3.79-1-4.24-4-2.57" transform="translate(-64.79 -75.12)"/><path id="path6790" class="cls-2" d="M673.53,241.93l0.4-2.65,1.68-1.45,2.52,0.06,1.84,2-0.33,2.52-2.2,1.67L675,243.8l-1.43-1.87" transform="translate(-64.79 -75.12)"/><path id="path6792" class="cls-2" d="M680,566.42l2-3.39,5.4-2.88-5.68-2.82,3.62-5.07-1.75-1.6,1.7-3.37,2.47,0.51,1.06-1.3,3,1.81,4.28-4.12,6.16,0.49,1.94-4.07,5.27-3.35,2.2-4.55,2.8,0.58,0.81-2,8.05-2.9,3.29-3.56,1.3-5.57-1.87.12,0.19-1.46-2.19-.54-2.11-4.54,8-6.8,3.53-6.52,8-3.44,0.64-3.83-1.35-2.93-4.51-3.65-3.52.5-1.55-6.8-2.79-4.4,0.54-2-1.22-1.57-2.07-.08,0.43-3.69,1-1.4,7.66,1.24,3.35-3.93,0.94,1.4,1-.54-0.89-3.91,0.9-2.34-1.46-.1L738,459.46l-2-4.61-1.39.16-1-2.19,2.09-1.94-0.84-2.72,1.12-.74-1.31-1.71,2.05-2,3-.24,3.6,2,2.75-1.56,1.25,6.41,2,2.79,1.67-1.77-0.11,2.3,3,2.72-0.19,2L756,459.6l-0.88,2.17,1.84,0.46,1.17,2.3,2.19-.44,2.74,1.84-3,2.78,1.68,3.46,7-4.56,3,6.28,2.62-2.38,2.08,1.1,1.85,6.46-1.36,3.73,1.76-1.21,1.14,3,2.09,1-3.1,1.49,1.53,2.83-0.81,1.36L783,494l2.86,4.59-8.75,4.7-4.52,8.54,1,2.35,2.85-1.65,2.42,0.65-0.1,2.69,2,2.09-0.09,3.23-3.56,4.55-0.39,8.23-2.6,10.44,2.38,0.28L775.78,549l-4.53,2.51-4.37,7-7.32-.57-8-2.86-5.69,3.07-6.3-2.83-4.49.06-8.2,7.58-2.59,4.88-12,4.27-4.5,3.11-3.72-.39-1.45,1.52-9-1.4L687.88,576l-5.44-4-0.17-3.55-1.54.16L680,566.42" transform="translate(-64.79 -75.12)"/><path id="path6794" class="cls-2" d="M755.08,461.77l3.4-4.75,7.8-1.82,2.45,2.67,3.81-1.32,3.91,2.36,1.7-2.13,2.14,1.22,5.92-1.09,6.33,4.83,5.07-2.21,2.91,1.29,1.74-1.56,2.11,0.45,0.65,1.51,2.55-.59,4.39-4,2.59,0.95,1.11-2.67,4-1.2,4.51,1.08,1.87-1.36-1.16-2,3.66-3,7.46-3,3.37,0,7.94-5.39,5.63,2-1.27,3.4-1.81.87,1.44,1.55-2.16,1.43v2.51l-3.81,5.64,1.37,3.75L844.24,463l-0.31,5.72,8.24-1.44,3.2,6.3,2.39-1.68,1.36,1.12,0.87-2,5.4-2.62,3-6.27,3.32-.08L875,457.7l3.77,1.18-0.77.78,2.37,3L879.69,466l2.73,2.42-0.08,3.36-10.74,1.77,1.22,2.88,2.63,1.85-4,2.81-0.81,3.76-1,.22,1,0.9-0.68,1.51-5.92,4.6,2.66,3.82-1.48.15-1.26,2.74L864,507l2.79-.8,1.25,3.46,0.21-1.16,2.68-.23,2.12,1.73,0.64,2.72,1.42,0.32,0.84,2-1,1,2.92,2.58,0.15,2.49-2.28,1.42,0.9,3.39L871,530.34l-9-4.16-3,2.35-3.3-.41-0.51-1.38-4.32,2.7H846.4l-3.22-3.32-0.33-3.38-2.71-.32-2.27-5-4.49-2.59-0.9-3.46-0.69,1.25-1.41-3.39-5-4-0.17-2.6-2.29-.18,0.57-1.45-5.13-2.71,0.4-2.2-1.26.53-1.46-1.32-1.06.9-1.41-2.55-4-.28-1.72,2.13-11.33-2.26-10.83,5.21L783,494l-3.46-2.6,0.77-1.39-1.56-2.72,3.16-1.63-2.09-1-1.14-3-1.76,1.21,1.36-3.73-1.85-6.48-2.11-1.07-2.58,2.36-3-6.28-7,4.57L760,468.66l3-2.73-2.7-1.82-2.2.43-1.2-2.31-1.84-.46" transform="translate(-64.79 -75.12)"/><path id="path6796" class="cls-2" d="M843.86,468.67l0.37-5.62,2.47-1.68-1.36-3.81,3.8-5.61v-2.52l2.17-1.43-1.39-1.66,1.76-.78-0.28-1.63,1.7-1.55-5.59-2.25-8.78,5.55-2.8-2.48-1.05-8.39L836.6,435l-0.19-1.57,2.08,0.4L837,431.4l0.62-1.26-4.28-3.28-3.28-.59,2.84-2.15L832,420.55l1.59-2.31-6.87-4.06,5-.91-1.41-.47,0.77-1.8-1.9-2.92,1.83-.85-1.19-8.43,3-4.45L834,395l2.21-1.64,3.5,0,0.89-1.68,3.4-.23,0.46-6.3,7.47-1.64,2.8-5-0.59-2.67,1.81-2.23,1.16,1.91,1.1-.45-9.39-17.09,1.32-2.35L849.43,354l3.47-4.31-1.28-7.09,1.06-1.7-2.08-4,1.2-3.21,3.54-.58,5.73,2.62,1.23-1.86,3,1.23,0.58-2,1.83,0-0.27-3.39,2.86-.45,1.25,1.75,0.35-2.5,2,2.48,1.06-.39,1.62-6.7,3.44-.65,0.69-2.08,4.63-.18,5,2.41,3.86,4.72-0.75,1.73,1.93,3-2.38.75-0.34,5.53,3.75,1.35,2.12-3,4.89,1.88,1.91-1.11,1.79,1.19,3.24,7.37-2.94,5.76-6.26.71-7.53,5.28-5.69,7-0.41,9.21-2.18,6.37,1.6,6.2-4.77,20.93,1.08,3.66L876.11,436l3.6-2.82,3.83-7.48,7.4-2.45,2.5,1.37,1.47,5.12,2.6,1.35,3.86-.54L903,427l2.29-1,11.63,4.86,4.7-.83,4.2,2.83,10.49,19.81,0,6.33,1.76,5.55,6.18,6.39,6.26,14.45,2.32,7.47-2.08,11.35,1,5.78-7.06,1.8-0.19-1.86-1.47-.26,1.16-3.68-3.07-.64-0.31-2.63-1.4.8-1.74-2-1.61.19-1.48,4.84-2.45.93L931,510.28l3.51,0.73-0.67,2.23,5.68-1.71,1.45,2-2.69,6.3-3.81,1,1.23,3.35-1.31,4.3-2.94,2-2-.32L929,531.48l-2.81-1-2.68,2.21-0.28-1.81-3.77-.41-3.66,5.67,1.67,3.23-3,2.49-1.77-4.13,0.45-2.39-1.67-2.13,2.14-3.56,0.15-3.66L910,523.21l-0.24-8.49-3.21,1.8-2.12-1.11L902.79,518l-4.61,1-3.13-.16-1.13-2.14L891,515.38l-2,.69-0.88-1L885.39,517l-2.27-1.71-1.12.63,0.56,3.09-2-.24-1.83,2.75-6.41-12.32L869,508.16l-1,1.53-1.43-3.52-2.54,1-0.26-8.36,1.26-2.74,1.48-.13-2.66-3.84,5.88-4.54,1.62-6.45,4.05-2.84-2.65-1.82-1.23-2.86,11.23-2.27L882.2,468l-2.5-2,0.63-3.29-2.35-3,0.75-.84-3.86-1.16-3.08,4.38-3.25,0-2,2.81,0.33,1.76-6.91,4.4-0.87,2-1.36-1.14-2.39,1.7-3.21-6.3-3.86,1.5-4.45-.14" transform="translate(-64.79 -75.12)"/><path id="path6798" class="cls-2" d="M906.56,603.8l5.34-5.27-1-6.66-2-1.41-1.78-6.32-7.58-8.33,3.85-3.51,1.14-6.09,11.18-.81,0.72-1.93-1.85-4.86,1.65-2.43-1.39-2.52,1.07-7-2-3.93,3.58-3.43-1.7-3.15,0.85-2.84,2.83-2.9,3.77,0.41,0.28,1.81,2.69-2.21,2.8,1,0.43-1.36,2,0.32,2.93-2,1.3-4.29-1.23-3.35,3.81-1,2.69-6.3-1.45-2-5.68,1.71L934.5,511l-3.52-.76,1.22-2.87,2.45-.93,1.43-4.78,1.66-.24,1.74,2,1.61-.68,0.07,2.49,3.09,0.67-1.16,3.68,1.48,0.26,0.11,1.81,2.57-1.4,4.56-.35,0.15,1.11-1.29,5.41,1.7,6.72-0.21,11.9-5.26,25.83-0.72,13.33L937.65,590l-6.09,5.33-11.74,3-5.35,9.86-3.39-.75-2.51-3.81-2,.13" transform="translate(-64.79 -75.12)"/><path id="path6800" class="cls-2" d="M874.42,529.76L874.06,528l2.7-2.11-1-3.3,3.09-1.14,1.74-2.73,1.91,0.28-0.61-2.78,1.2-1,2.26,1.74,2.79-2,0.85,1,2.05-.68,2.78,1.24,1.2,2.2,3.13,0.16,4.69-1,1.54-2.55,2.08,1.1,2.9-2,0.95,0.9-0.55,2.65-4.8,2.48-3.48,5.69-3.78,2.27-0.83,3-1.32.35,0.5,3.34-7.35,4.48-1.05-.67-4.47,2.38L878.62,538l0.3-3.16-1.79-2.12-2.51-.5-0.21-2.49" transform="translate(-64.79 -75.12)"/><path id="path6806" class="cls-2" d="M1043.37,448.55l-0.62-11.49,1-4.48-4.08-8.78,1-2.84-5.88-5.68,3.91-4.82,0.59-2.83-0.55-1.78-4-1.29-1.63-2.13,1.15-3.3-1.6-4.91,1.92-5.59-4.16-1.24-1.37-2.37,1.48-2.94,4.34-1.62,0.18-2.14,6.73,0.37,1.34,9.87-1.1,9.48,3.28,4.4,0.84,4.64,0.54,10.46-2.14,3.66,2.87,3.08,2.09,8.68-0.31,14.72-2.45,2-3.3-1.12m-19.26,67.56-1.46-12.65,5.1-5.47,0.73-15.34,4.05-3.2,1.21-3.4,3.67-3.22,0.26-8.25,2.12-5.55-2.92-5.59,1.26-2,2.34-.37,4.46,2,0.91,6.33-1.41,12.73-3.69,5.34,0.27,2.53-2.93,5.16-2.59,9.63-0.6,5.1,4.38,5.34,0,3.28-3.67,9.87-5-1.63-5.61.37-0.85-1.09m-87.8-63.47-10.49-19.81-4.2-2.83,3.55-6.48-5.38-2.71-1.08-2.42,3.68-5.5,6.94,2.78,1.71,3.52,10.59,9,4.64,9.11L963,452.15l12.66,9.68,5.5,1.78,3,2.83,0.21,2.56-2.15,1.9-9.71-3.21-4.06,3.08,6.23,16.29,6.91,2.59,2.14,2.21,4.49,0,5.75,5.43,1.43,5.9-1.1,2.2-2.69.28-2.69-3-2.79-1L984,504.2l2.88,9-5.09,2.1-7.35-7.64-2.68-7.83-4.56-5.31-1.45-5.46L958,482.85,954.3,473,944,459.45l-0.5-3.89-3.92-2.7-3.23-.22" transform="translate(-64.79 -75.12)"/><path id="path6808" class="cls-2" d="M875.21,324.5l0.81-3.81-1.9-1.89,1.21-1.94-6.13-5.72-2.07-7-1.68-1.33,1.93-3.2-1-3.76,5.44-1.24,0.27-2.94,1.53,1.62,2.22-.52-1.06-4-2.82-1,0.28-2.19,2.77-.12,3-2.1,0.74-3.88,2-.1,1.41,2.08,3-.6-1.05-2.15,3.36-2.83,1-3.77,1.94,0.69,1-1.53-1.58-1.16,0.46-3.49-3.33-.8L885,262.08l2.07-4.24-4.15-4.58,1.11-2.23,1.85-.55L884.81,248l-1.26.29-0.47-2.77,2.5-.43,2.82-3.81,3.79-1.5-0.58-2.38,3.32,1,2.06-.91-0.5-3.5,2.87-3-2.23-2.31,3.45-1.92,3.9,5.69,6.62-2.86,4.77,1.06,3.58-3.36,4.88,0.52,5-2.71,1.49-2.57,1.4,1.62,3,0.09,1,3.1-1.06,1.93,3.18,1.5-0.07,1.78,4.24,1.35-0.18,2.26,2.64,1.36-0.49,3.21,1.4,1.23,4.28-.8,3.81,3.31L953,248.67l3.17-.48-0.34,1.73,3.54,1.47,6.36,9,1.13,10.78-3.05.41-1.32,2.71-7.54-1-5.27-4.78-3-.29-2,1.44L940,278.62l2.15,4.2-0.61,4.49,2,3.71-0.38,11.89,2.93,2.24,7.46-1.92,2.41,3-0.22,2.31-6.09,8.95-3.54,2.71-0.64,3.86-7.63,8.32-4.93,1.39-22.63,13-3.24-7.37-1.79-1.19-1.91,1.11-5-1.85-2,2.93-4-1.68,0.62-5.17,2.39-.77-1.93-3,0.78-1.7-3.9-4.78L882,320.69l-2,.64,0.32,1.56L878.59,324l-3.39.51" transform="translate(-64.79 -75.12)"/><path id="path6814" class="cls-2" d="M1050.56,279.92l-1-2.77,2.23-2.13,7.41-1.3,2.64,1.85-1.67,3.46-6.87,1.71-2.74-.81m-11.71,7.15-0.81-4.85,3.56-3.21,8.52,1.39,3.54,3-0.45,2.26-2.3,1.22-9.45,1.12-2.62-.92m-49.48,58.8-6.75-7.59-5.34-8.86-0.52-5.2-2.5-3.41,0.82-3.33-3.07-.76-1.35-2.55,1.94-7.8,2.35-2.93v-6.61l-4.87-17.16-0.21-7.78-0.37-1.15-2.68.4-1.13-10.78-6.37-9-3.54-1.46,0.34-1.73-3.17.48,0.93-4.23-3.81-3.31-4.28.8-1.4-1.23,0.49-3.21-2.64-1.36,0.18-2.26-4.24-1.35,0.07-1.78-3.18-1.5,1.06-1.93-1-3.1-5.85-1.88,0-2.82,2.14-1.17,0.18-2.16,5.18-1L936,212.48l2.67-1.5,2.77,0.81,0.36-2.13,3.12-2,0.34-2.9,4.83,0.14,2.92-3.94,4.67,0.66,2.15-2.19,4,0.81,2.43,10.08,10-5.1,4.87,1.82,2.35-2.9-0.22-3.23,1.84-.49,0-4.35,3.79-3.32,0.24-5.7,2.55-1.82,1.52,1.8,5-.68,4.31,2.31,0.24,5.66,3.46,12.46,0.2,9.53,4.08,6.47L1009,226l-9.61.73-3.88,4.38-1.14,7.58,2.33,7.91-2.29,3.49,0.41,7.83,4.85,3.29-0.7,8.68,7.23,8.32,2.26,6.55,7.06,1,6.94,4.84,0.58,5.7-4.77,2.85,2.5,5.06,3.51,2.73,5.31,0.82,2.13,2.2,0.69,6.45-5.06,5.37,0.2,5.14,1.51,3.52,9.07,6.54-0.26,2.14-2.63,1.63-2.2,4.59,7,12.43,1.32,5.55,0.38,15.39-8.89-1.56-8.61-7.34-8.89-4.91-26-19" transform="translate(-64.79 -75.12)"/></svg>