<svg xmlns="http://www.w3.org/2000/svg" width="67" height="48"><defs><linearGradient id="a" x1="33.5" y1="48" x2="33.5" gradientUnits="userSpaceOnUse"><stop offset="0" stop-color="#0093d8"/><stop offset="1" stop-color="#4ac7f4"/></linearGradient></defs><path d="M14.517 32.727A3.273 3.273 0 1017.867 36a3.316 3.316 0 00-3.35-3.273zm0 4.363A1.092 1.092 0 1115.633 36a1.106 1.106 0 01-1.116 1.09zM59.183 0H3.35A3.316 3.316 0 000 3.271v30.547a3.316 3.316 0 003.35 3.272 1.092 1.092 0 100-2.183 1.105 1.105 0 01-1.117-1.09v-3.272H3.35a1.092 1.092 0 100-2.183H2.233V3.271a1.105 1.105 0 011.117-1.09h48.017v2.182H5.583a1.091 1.091 0 100 2.181H6.7v13.091H5.583a1.091 1.091 0 100 2.182h45.784v4.364a1.117 1.117 0 002.233 0v-4.364h11.167v6.546H63.65a1.091 1.091 0 100 2.182h1.117v3.273a1.105 1.105 0 01-1.117 1.091h-3.439a7.639 7.639 0 100 2.182h3.439A3.316 3.316 0 0067 33.817V7.636A7.646 7.646 0 0059.183 0zM17.867 19.635H8.933V6.544h8.933v13.091zm11.167 0H20.1V6.544h8.933v13.091zm11.167 0h-8.934V6.544H40.2v13.091zm11.167 0h-8.935V6.544h8.933v13.091zm1.117 21.819A5.457 5.457 0 1158.067 36a5.527 5.527 0 01-5.584 5.455zm12.282-21.819H60.99l1.426-2.785a1.079 1.079 0 00-.5-1.463 1.127 1.127 0 00-1.5.488l-1.924 3.76H53.6V2.181h5.583a5.4 5.4 0 015.583 5.455v12zM42.433 36a1.105 1.105 0 00-1.117-1.092H22.244a7.638 7.638 0 100 2.183h19.073A1.1 1.1 0 0042.433 36zm-27.916 5.455A5.457 5.457 0 1120.1 36a5.527 5.527 0 01-5.583 5.455zm37.967-8.728A3.273 3.273 0 1055.833 36a3.316 3.316 0 00-3.35-3.273zm0 4.363A1.092 1.092 0 1153.6 36a1.106 1.106 0 01-1.117 1.09zM16.75 45.818H1.117a1.091 1.091 0 100 2.182H16.75a1.091 1.091 0 100-2.182zm26.8 0h-2.233a1.091 1.091 0 100 2.182h2.233a1.091 1.091 0 100-2.182zm22.333 0H48.017a1.091 1.091 0 100 2.182h17.866a1.091 1.091 0 100-2.182zm-31.267 0H23.45a1.091 1.091 0 100 2.182h11.167a1.091 1.091 0 100-2.182zm8.934-15.273a1.091 1.091 0 100-2.182h-20.1a1.091 1.091 0 100 2.182h20.1z" fill-rule="evenodd" fill="url(#a)"/></svg>