<svg xmlns="http://www.w3.org/2000/svg" width="60" height="55"><defs><linearGradient id="a" x1="30" y1="55" x2="30" gradientUnits="userSpaceOnUse"><stop offset="0" stop-color="#0093d8"/><stop offset="1" stop-color="#4ac7f4"/></linearGradient></defs><path d="M58.8 19.607H58c-.78-3.948-4.783-10.9-6.555-13.845a3.167 3.167 0 10-3.58 0c-1.772 2.945-5.774 9.9-6.555 13.845h-.8a1.194 1.194 0 00-1.2 1.192A10.341 10.341 0 0060 20.8a1.194 1.194 0 00-1.2-1.193zM49.659 2.384a.774.774 0 11-.776.774.776.776 0 01.776-.774zm0 5.037c2.021 3.405 5.141 9.079 5.913 12.186H43.751c.725-2.907 3.535-8.207 5.906-12.186zm0 21.307a7.956 7.956 0 01-7.86-6.737H57.52a7.957 7.957 0 01-7.861 6.737zm-9.021 19.42h-3.16v-3.027a1.194 1.194 0 00-1.2-1.192h-3.03v-33.3a4.5 4.5 0 001.344-2.987l5.054-1.085a1.192 1.192 0 10-.5-2.33l-5.069 1.089a4.536 4.536 0 00-8.542 1.833L12.9 9.861a3.162 3.162 0 10-4.347 4.463C6.779 17.269 2.777 24.221 2 28.17h-.8A1.194 1.194 0 000 29.362a10.341 10.341 0 0020.681 0 1.194 1.194 0 00-1.2-1.192h-.8c-.78-3.949-4.783-10.9-6.554-13.846a3.159 3.159 0 001.344-2.148L26.03 9.482a4.568 4.568 0 00.847 1.15v33.3h-3.036a1.194 1.194 0 00-1.2 1.192v3.027h-3.16a1.194 1.194 0 00-1.2 1.192v4.467A1.194 1.194 0 0019.486 55h21.152a1.194 1.194 0 001.2-1.192v-4.467a1.194 1.194 0 00-1.2-1.192zm-30.3-37.2a.774.774 0 11-.776.774.776.776 0 01.778-.776zm0 26.344a7.956 7.956 0 01-7.86-6.737H18.2a7.956 7.956 0 01-7.86 6.736zm5.912-9.121H4.432c.725-2.911 3.536-8.211 5.907-12.186 2.022 3.404 5.146 9.075 5.914 12.184zM30.062 5.276a2.139 2.139 0 11-2.145 2.14 2.145 2.145 0 012.145-2.14zm.8 6.592v32.061h-1.595V11.868a4.487 4.487 0 001.591 0zm-5.826 34.445h10.052v1.835H25.036v-1.835zm14.407 6.3H20.681v-2.081h18.762v2.084zm5.723-48.384a1.2 1.2 0 00-1.42-.915l-.871.186a1.192 1.192 0 10.5 2.331l.871-.187a1.192 1.192 0 00.92-1.415z" fill-rule="evenodd" fill="url(#a)"/></svg>