<svg xmlns="http://www.w3.org/2000/svg" width="68.063" height="60"><defs><linearGradient id="a" x1="35" y1="60" x2="35" gradientUnits="userSpaceOnUse"><stop offset="0" stop-color="#0093d8"/><stop offset="1" stop-color="#4ac7f4"/></linearGradient></defs><path d="M58.177 8.29H38.328V1.355A1.356 1.356 0 0036.972 0H5.558A1.356 1.356 0 004.2 1.355V19.7a1.355 1.355 0 001.356 1.355h18.7v4.626a1.355 1.355 0 00.837 1.251 1.339 1.339 0 00.519.1 1.36 1.36 0 00.959-.4l5.587-5.584H33.3v2.323a1.356 1.356 0 001.356 1.356h3.464l4.082 4.08a1.357 1.357 0 002.315-.959v-3.112h13.66a1.356 1.356 0 001.356-1.356V9.645a1.355 1.355 0 00-1.356-1.355zM35.616 18.347H31.6a1.356 1.356 0 00-.959.4l-3.669 3.666V19.7a1.356 1.356 0 00-1.356-1.356H6.914V2.71h28.7v15.637zm21.2 3.678H43.161a1.356 1.356 0 00-1.361 1.356v1.2l-2.16-2.158a1.355 1.355 0 00-.959-.4h-2.665v-.966h.956a1.355 1.355 0 001.356-1.357V11H56.82v11.025zM53.3 13.072H41.868a1.355 1.355 0 100 2.711H53.3a1.355 1.355 0 100-2.711zm0 4.07H41.868a1.355 1.355 0 100 2.71H53.3a1.355 1.355 0 100-2.71zM22.043 28.661a5.134 5.134 0 00-3.73-1.616h-3.456a5.109 5.109 0 00-5.1 5.44l.154 2.354.358 5.5a6.329 6.329 0 0012.632 0l.41-6.28.1-1.569a5.126 5.126 0 00-1.368-3.829zm-9.58 3.648a2.4 2.4 0 012.393-2.553h2.585l-.505 1.344c-.178.255-1.3 1.67-4.411 2.156zm7.731 7.852a3.617 3.617 0 01-7.218 0l-.276-4.187a10.509 10.509 0 005.242-2.049 5.085 5.085 0 00.671.409 10 10 0 001.915.677zm-.334-8.235a2.537 2.537 0 01-.275-.161l.471-1.257.007.007a2.367 2.367 0 01.646 1.729 5.327 5.327 0 01-.849-.318zM32.187 58.4l-.573-3.158a9.543 9.543 0 00-9.4-7.843h-1.722a1.357 1.357 0 00-.959.4l-2.948 2.947-2.948-2.946a1.358 1.358 0 00-.959-.4h-1.724a9.548 9.548 0 00-9.4 7.844L.983 58.4A1.355 1.355 0 002.318 60h28.535a1.355 1.355 0 001.334-1.6zM3.941 57.288l.283-1.56a6.832 6.832 0 016.73-5.616h1.162l3.51 3.508a1.359 1.359 0 001.918 0l3.51-3.508h1.162a6.832 6.832 0 016.73 5.616l.283 1.56H3.941zm54.932-28.627a5.133 5.133 0 00-3.73-1.616h-3.456a5.109 5.109 0 00-5.1 5.44l.154 2.354.359 5.5a6.329 6.329 0 0012.632 0l.41-6.28.1-1.571a5.124 5.124 0 00-1.369-3.827zm-9.579 3.648a2.4 2.4 0 012.393-2.553h2.585l-.506 1.344c-.178.255-1.3 1.67-4.411 2.156zm7.731 7.852a3.617 3.617 0 01-7.218 0l-.273-4.187a10.509 10.509 0 005.242-2.049 5.094 5.094 0 00.67.409 10.053 10.053 0 001.915.677zm-.335-8.235a2.544 2.544 0 01-.275-.161l.471-1.257.007.006a2.371 2.371 0 01.647 1.73 5.338 5.338 0 01-.85-.318zM69.017 58.4l-.573-3.158a9.543 9.543 0 00-9.4-7.843h-1.722a1.357 1.357 0 00-.959.4l-2.948 2.947-2.948-2.946a1.357 1.357 0 00-.959-.4h-1.724a9.543 9.543 0 00-9.4 7.843l-.57 3.157a1.355 1.355 0 001.334 1.6h28.535a1.355 1.355 0 001.334-1.6zm-28.245-1.112l.283-1.56a6.832 6.832 0 016.73-5.616h1.162l3.51 3.508a1.359 1.359 0 001.918 0l3.51-3.508h1.162a6.832 6.832 0 016.73 5.616l.283 1.56H40.772zM31.26 6.387h-.816a1.355 1.355 0 100 2.711h.816a1.355 1.355 0 100-2.711zm-5.576 0H11.269a1.355 1.355 0 100 2.711h14.416a1.355 1.355 0 100-2.711zm5.576 5.436H11.269a1.356 1.356 0 100 2.711H31.26a1.356 1.356 0 100-2.711z" transform="translate(-.969)" fill-rule="evenodd" fill="url(#a)"/></svg>