<svg xmlns="http://www.w3.org/2000/svg" xmlns:xlink="http://www.w3.org/1999/xlink" width="76.969" height="70" viewBox="0 0 76.969 70">
  <defs>
    <style>
      .cls-1 {
        fill-rule: evenodd;
        fill: url(#linear-gradient);
      }
    </style>
    <linearGradient id="linear-gradient" x1="729.485" y1="6722" x2="729.485" y2="6652" gradientUnits="userSpaceOnUse">
      <stop offset="0" stop-color="#0093d8"/>
      <stop offset="1" stop-color="#4ac7f4"/>
    </linearGradient>
  </defs>
  <path id="Forma_1" data-name="Forma 1" class="cls-1" d="M763.274,6656.73a16,16,0,0,0-22.716,0,16.285,16.285,0,0,0,0,22.9,15.954,15.954,0,0,0,5.362,3.58,9.66,9.66,0,0,1-1.946,2.09,31.335,31.335,0,0,0-6.1,5.98,16.477,16.477,0,0,0-1.02-3.58,16.167,16.167,0,0,0-11.275-9.72l-1.87-.45c-0.036-.16-0.072-0.32-0.108-0.47a22.288,22.288,0,0,0-18.879-17.15,1.622,1.622,0,0,0-.391,3.22,19.044,19.044,0,0,1,16.141,14.66c0.82,3.57,1.648,6.64,2.461,9.11a1.608,1.608,0,0,0,1.524,1.11,1.487,1.487,0,0,0,.506-0.08,1.618,1.618,0,0,0,1.019-2.04q-0.693-2.115-1.4-4.83l0.251,0.06a13.016,13.016,0,0,1,9.054,7.81,12.822,12.822,0,0,1-.908,11.67c-0.067.11-.134,0.22-0.2,0.33a1.628,1.628,0,0,0,.463,2.24,1.608,1.608,0,0,0,2.224-.47c0.085-.13.168-0.26,0.25-0.4a16.075,16.075,0,0,0,1.911-4.55,27.336,27.336,0,0,1,8.255-9.85,13.61,13.61,0,0,0,3.283-3.76,16.758,16.758,0,0,0,2.753.23,16.1,16.1,0,0,0,3.191-.32c-1.337,4.86-2.458,9.11-3.338,12.66-2.055,8.3-7.492,18.92-12.31,21.51a3.307,3.307,0,0,1-2.662.41c-23.19-10.72-27.86-21.81-28.792-26.09a1.605,1.605,0,0,0-1.726-1.26,15.946,15.946,0,0,1-9.463-6.84,16.108,16.108,0,0,1-2.285-11.97,1.607,1.607,0,1,0-3.15-.64,19.4,19.4,0,0,0,13.762,22.5,28.223,28.223,0,0,0,6.4,10.84c5.381,6.04,13.451,11.57,23.987,16.43a0.6,0.6,0,0,0,.124.05,5.755,5.755,0,0,0,1.96.35,7.041,7.041,0,0,0,3.358-.93c3.545-1.9,6.565-6.42,8.475-9.87a58.968,58.968,0,0,0,5.439-13.7c1-4.03,2.308-8.96,3.9-14.67a16.11,16.11,0,0,0,4.493-3.2A16.3,16.3,0,0,0,763.274,6656.73Zm-11.358,24.41a12.707,12.707,0,0,1-9.087-3.8,13.028,13.028,0,0,1,0-18.32,12.789,12.789,0,0,1,18.174,0,13.042,13.042,0,0,1,0,18.32A12.707,12.707,0,0,1,751.916,6681.14Zm-2.975-15.96a4.272,4.272,0,0,0,0,6,4.19,4.19,0,0,0,5.951,0h0a4.274,4.274,0,0,0,0-6A4.2,4.2,0,0,0,748.941,6665.18Zm3.679,3.71a0.993,0.993,0,0,1-1.408,0A1,1,0,1,1,752.62,6668.89Zm7.506-8.98a11.545,11.545,0,0,0-16.419,0,11.782,11.782,0,0,0,0,16.55,11.563,11.563,0,0,0,16.419,0A11.784,11.784,0,0,0,760.126,6659.91Zm-2.272,14.26a8.361,8.361,0,0,1-11.876,0,8.52,8.52,0,0,1,0-11.97,8.349,8.349,0,0,1,11.876,0A8.52,8.52,0,0,1,757.854,6674.17Z" transform="translate(-691 -6652)"/>
</svg>
