<svg xmlns="http://www.w3.org/2000/svg" xmlns:xlink="http://www.w3.org/1999/xlink" width="71" height="70" viewBox="0 0 71 70">
  <defs>
    <style>
      .cls-1 {
        fill-rule: evenodd;
        fill: url(#linear-gradient);
      }
    </style>
    <linearGradient id="linear-gradient" x1="1419.5" y1="6722" x2="1419.5" y2="6652" gradientUnits="userSpaceOnUse">
      <stop offset="0" stop-color="#0093d8"/>
      <stop offset="1" stop-color="#4ac7f4"/>
    </linearGradient>
  </defs>
  <path class="cls-1" d="M1455,6688.13v-9.03h-22.9v-1.13a7.969,7.969,0,0,0-7.07-7.85,7.81,7.81,0,0,0,2.49-5.7v-8.9a3.558,3.558,0,0,0-3.58-3.52,3.636,3.636,0,0,0-2.22.76,5.153,5.153,0,0,0-2.69-.76h-2.49a5.024,5.024,0,0,0-5.06,4.98v7.44a7.81,7.81,0,0,0,2.49,5.7,7.969,7.969,0,0,0-7.07,7.85v1.13H1384v9.03h2.29v24.84H1384V6722h71v-9.03h-2.29v-24.84H1455Zm-41.23-31.15a2.747,2.747,0,0,1,2.77-2.72h2.49a2.779,2.779,0,0,1,1.95.79l0.81,0.8,1.24-1.22a1.294,1.294,0,0,1,2.2.89v4.15a8.5,8.5,0,0,1-2.63-1.7l-0.81-.78-0.81.78a12.708,12.708,0,0,1-7.21,3v-3.99h0Zm0,7.44v-1.19a15.253,15.253,0,0,0,8.01-2.97,8.929,8.929,0,0,0,3.45,1.76v2.4A5.731,5.731,0,0,1,1413.77,6664.42Zm-4.58,13.55a5.694,5.694,0,0,1,5.73-5.65h9.16a5.694,5.694,0,0,1,5.73,5.65v1.13h-3.44v-2.26h-2.29v2.26h-9.16v-2.26h-2.29v2.26h-3.44v-1.13Zm43.52,41.77h-66.42v-4.51h66.42v4.51Zm-64.13-6.77v-24.84h5.73v24.84h-5.73Zm8.02,0v-24.84h5.72v24.84h-5.72Zm8.01,0v-24.84h5.73v24.84h-5.73Zm8.02,0v-24.84h5.72v24.84h-5.72Zm8.02,0v-24.84h5.72v24.84h-5.72Zm8.01,0v-24.84h5.73v24.84h-5.73Zm16.03-22.58v-2.26h5.73v24.84h-5.73v-20.33h-2.29v20.33h-5.72v-24.84h5.72v2.26h2.29Zm-58.4-4.52v-4.52h66.42v4.52h-66.42Zm61.84-15.81a12.512,12.512,0,0,1-1.03,5.14l2.05,1.01a14.619,14.619,0,0,0,1.27-6.15,12.477,12.477,0,0,0-1.23-4.93,10.868,10.868,0,0,1-1.06-4.1,7.531,7.531,0,0,1,1.96-4.85l-0.82-.79-0.81-.8a9.719,9.719,0,0,0-2.62,6.44,12.571,12.571,0,0,0,1.23,4.94A10.819,10.819,0,0,1,1448.13,6670.06Zm-58.4,0a12.512,12.512,0,0,1-1.03,5.14l2.05,1.01a14.619,14.619,0,0,0,1.27-6.15,12.649,12.649,0,0,0-1.23-4.93,10.686,10.686,0,0,1-1.06-4.1,7.548,7.548,0,0,1,1.95-4.85l-0.81-.79-0.81-.8a9.667,9.667,0,0,0-2.62,6.44,12.742,12.742,0,0,0,1.22,4.94A10.651,10.651,0,0,1,1389.73,6670.06Zm9.16,0a12.512,12.512,0,0,1-1.03,5.14l2.05,1.01a14.619,14.619,0,0,0,1.27-6.15,12.649,12.649,0,0,0-1.23-4.93,10.686,10.686,0,0,1-1.06-4.1,7.531,7.531,0,0,1,1.96-4.85l-0.82-.79-0.81-.8a9.667,9.667,0,0,0-2.62,6.44,12.742,12.742,0,0,0,1.22,4.94A10.651,10.651,0,0,1,1398.89,6670.06Zm40.08,0h2.29a12.649,12.649,0,0,0-1.23-4.93,10.686,10.686,0,0,1-1.06-4.1,7.531,7.531,0,0,1,1.96-4.85l-0.82-.79-0.81-.8a9.719,9.719,0,0,0-2.62,6.44,12.742,12.742,0,0,0,1.22,4.94A10.651,10.651,0,0,1,1438.97,6670.06Zm-1.03,5.15,2.05,1a13.339,13.339,0,0,0,1.08-3.72l-2.26-.34A11.435,11.435,0,0,1,1437.94,6675.21Z" transform="translate(-1384 -6652)"/>
</svg>
