<svg xmlns="http://www.w3.org/2000/svg" xmlns:xlink="http://www.w3.org/1999/xlink" width="74" height="70" viewBox="0 0 74 70">
  <defs>
    <style>
      .cls-1 {
        fill-rule: evenodd;
        fill: url(#linear-gradient);
      }
    </style>
    <linearGradient id="linear-gradient" x1="960" y1="6727" x2="960" y2="6657" gradientUnits="userSpaceOnUse">
      <stop offset="0" stop-color="#0093d8"/>
      <stop offset="1" stop-color="#4ac7f4"/>
    </linearGradient>
  </defs>
  <path id="Forma_1" data-name="Forma 1" class="cls-1" d="M943.513,6699.37a1.37,1.37,0,0,0,.1-1.32l-3.476-7.7a1.4,1.4,0,0,0-1.279-.82h-5.423a1.4,1.4,0,0,0-1.279.82l-3.477,7.7a1.373,1.373,0,0,0,.1,1.32,1.4,1.4,0,0,0,1.177.64H931.9a4.6,4.6,0,0,0-.372,1.81v0.76a4.51,4.51,0,0,0,.372,1.8h-7.5a1.4,1.4,0,0,0-1.4,1.39v19.83a1.4,1.4,0,0,0,1.4,1.4h17.8a1.4,1.4,0,0,0,1.4-1.4v-19.82a1.4,1.4,0,0,0-1.4-1.4H940.4a4.51,4.51,0,0,0,.372-1.8v-0.76a4.6,4.6,0,0,0-.372-1.81h1.94A1.4,1.4,0,0,0,943.513,6699.37Zm-9.17-7.06h3.609l2.216,4.91h-8.041Zm3.619,9.51v0.76a1.815,1.815,0,0,1-3.629,0v-0.76A1.815,1.815,0,0,1,937.962,6701.82Zm2.837,5.35v4.02H935.22a1.4,1.4,0,1,0,0,2.79H940.8v3.42H935.22a1.4,1.4,0,1,0,0,2.79H940.8v4.02h-15v-17.04h15Zm19.485-15.13a1.4,1.4,0,0,1-1.4,1.4h-0.347a1.4,1.4,0,1,1,0-2.79h0.347A1.394,1.394,0,0,1,960.284,6692.04Zm24.4-6.11a1.4,1.4,0,0,1-1.4,1.4h-0.348a1.4,1.4,0,1,1,0-2.79h0.348A1.4,1.4,0,0,1,984.685,6685.93Zm4.88,6.11a1.4,1.4,0,0,1-1.4,1.4h-0.347a1.4,1.4,0,1,1,0-2.79h0.347A1.394,1.394,0,0,1,989.565,6692.04Zm2.583-13.3h-7.023a1.375,1.375,0,0,0,.09-0.49,1.4,1.4,0,0,0-1.4-1.4h-8.9a1.4,1.4,0,0,0-1.4,1.4,1.375,1.375,0,0,0,.09.49H951.645a5.749,5.749,0,0,0,.858-3.03,5.842,5.842,0,0,0-5.852-5.82H934.534a5.763,5.763,0,0,0-3.047.86v-9.53a4.244,4.244,0,0,0-8.487,0v37.8a1.4,1.4,0,0,0,2.8,0v-37.8a1.439,1.439,0,0,1,2.878,0v24.03a1.4,1.4,0,0,0,2.8,0v-3.72H949.7v11.99a5.734,5.734,0,0,0,5.748,5.71H994.2v6.07H947.68a1.39,1.39,0,1,0,0,2.78h40.833v3.03a1.4,1.4,0,0,0,1.4,1.4H995.6a1.4,1.4,0,0,0,1.4-1.4v-27.54A4.849,4.849,0,0,0,992.148,6678.74Zm-45.5,0H934.534a3.03,3.03,0,1,1,0-6.06h12.117A3.03,3.03,0,1,1,946.651,6678.74Zm47.545,30.98h-2.879v-1.64H994.2v1.64Zm0-13.28h-38.75a2.935,2.935,0,0,1-2.943-2.92v-11.99h39.645a2.05,2.05,0,0,1,2.048,2.04v12.87Zm-14.391-4.4a1.4,1.4,0,0,1-1.4,1.4h-0.347a1.4,1.4,0,1,1,0-2.79H978.4A1.4,1.4,0,0,1,979.805,6692.04Zm-14.641-6.11a1.4,1.4,0,0,1-1.4,1.4h-0.347a1.4,1.4,0,1,1,0-2.79h0.347A1.394,1.394,0,0,1,965.164,6685.93Zm9.761,0a1.4,1.4,0,0,1-1.4,1.4h-0.348a1.4,1.4,0,1,1,0-2.79h0.348A1.4,1.4,0,0,1,974.925,6685.93Zm-4.88,6.11a1.4,1.4,0,0,1-1.4,1.4H968.3a1.4,1.4,0,1,1,0-2.79h0.348A1.4,1.4,0,0,1,970.045,6692.04Z" transform="translate(-923 -6657)"/>
</svg>
