<svg xmlns="http://www.w3.org/2000/svg" xmlns:xlink="http://www.w3.org/1999/xlink" width="70" height="70" viewBox="0 0 70 70">
  <defs>
    <style>
      .cls-1 {
        fill-rule: evenodd;
        fill: url(#linear-gradient);
      }
    </style>
    <linearGradient id="linear-gradient" x1="499" y1="6712" x2="499" y2="6642" gradientUnits="userSpaceOnUse">
      <stop offset="0" stop-color="#0093d8"/>
      <stop offset="1" stop-color="#4ac7f4"/>
    </linearGradient>
  </defs>
  <path id="Forma_1" data-name="Forma 1" class="cls-1" d="M523.749,6652.25A35,35,0,1,0,534,6677,34.773,34.773,0,0,0,523.749,6652.25Zm-1.6,47.89a32.732,32.732,0,1,1,9.587-23.14A32.488,32.488,0,0,1,522.145,6700.14Zm-4.871-32.65a1.145,1.145,0,0,0-.566,1.51,19.259,19.259,0,0,1,1.72,8,19.483,19.483,0,0,1-9.828,16.89v-41.08a1.137,1.137,0,0,0-1.9-.84,14.908,14.908,0,0,0-2.892,3.87,22.1,22.1,0,0,0-4.805-.54c-0.432,0-.86.02-1.285,0.04v-2.53a1.134,1.134,0,1,0-2.268,0v2.79a21.866,21.866,0,0,0-2.57.58v-3.37a1.134,1.134,0,1,0-2.268,0v4.18a23.364,23.364,0,0,0-2.57,1.29v-5.47a1.134,1.134,0,1,0-2.268,0v7.01a21.672,21.672,0,0,0-2.138,32.49,1.1,1.1,0,0,0,.8.34,1.136,1.136,0,0,0,.8-1.94,19.4,19.4,0,0,1,.532-27.92v4.53a3.551,3.551,0,0,0,2.419,3.37v28.08a3.553,3.553,0,0,0,7.106,0v-0.39a21.82,21.82,0,0,0,3.7.31,20.785,20.785,0,0,0,2.5-.14v0.22a3.553,3.553,0,0,0,7.105,0v-2.31A21.745,21.745,0,0,0,520.7,6677a21.528,21.528,0,0,0-1.921-8.94A1.143,1.143,0,0,0,517.274,6667.49Zm-21.827-9.59v5.87h-2.57v-5.21A18.406,18.406,0,0,1,495.447,6657.9Zm-4.838,1.58v4.29h-2.57v-2.8A19.119,19.119,0,0,1,490.609,6659.48Zm2.419,39.29a1.285,1.285,0,1,1-2.57,0v-29.03a1.135,1.135,0,0,0-1.134-1.13,1.29,1.29,0,0,1-1.285-1.29v-1.28h7.408v1.28a1.29,1.29,0,0,1-1.285,1.29,1.135,1.135,0,0,0-1.134,1.13v29.03Zm5.972-2.34a19.124,19.124,0,0,1-3.7-.36v-25.38a3.551,3.551,0,0,0,2.419-3.37v-9.71c0.425-.02.853-0.04,1.285-0.04a20.112,20.112,0,0,1,3.8.37c-4.069,9.68-3.745,24.37-3.725,25.14a1.133,1.133,0,0,0,1.134,1.1H501.5v12.09A20.777,20.777,0,0,1,499,6696.43Zm7.333,2.34a1.286,1.286,0,1,1-2.571,0v-15.72a1.136,1.136,0,0,0-1.134-1.14h-1.295a94.013,94.013,0,0,1,.682-11.12c0.817-6.54,2.292-11.57,4.318-14.8v42.78Zm5.237-36.58a18.913,18.913,0,0,1,2.244,2.24,1.134,1.134,0,1,0,1.728-1.47,21.5,21.5,0,0,0-2.5-2.5A1.134,1.134,0,0,0,511.57,6662.19Zm-26.087,39.22a28.048,28.048,0,0,1-10.645-10.46,1.133,1.133,0,1,0-1.963,1.13,30.3,30.3,0,0,0,11.507,11.31,1.093,1.093,0,0,0,.55.14A1.13,1.13,0,0,0,485.483,6701.41Zm27.464-48.57a26.867,26.867,0,0,1,2.322,1.5,1.157,1.157,0,0,0,.662.21,1.131,1.131,0,0,0,.663-2.05c-0.806-.58-1.651-1.13-2.511-1.63A1.137,1.137,0,0,0,512.947,6652.84Zm15.559,17.88a29.99,29.99,0,0,0-8.143-15.01,1.131,1.131,0,0,0-1.6-.01,1.142,1.142,0,0,0,0,1.61,27.739,27.739,0,0,1,7.531,13.88,1.139,1.139,0,0,0,1.108.9,0.961,0.961,0,0,0,.236-0.03A1.13,1.13,0,0,0,528.506,6670.72Z" transform="translate(-464 -6642)"/>
</svg>
