<svg xmlns="http://www.w3.org/2000/svg" xmlns:xlink="http://www.w3.org/1999/xlink" width="77" height="70" viewBox="0 0 77 70">
  <defs>
    <style>
      .cls-1 {
        fill-rule: evenodd;
        fill: url(#linear-gradient);
      }
    </style>
    <linearGradient id="linear-gradient" x1="1189.5" y1="6722" x2="1189.5" y2="6652" gradientUnits="userSpaceOnUse">
      <stop offset="0" stop-color="#0093d8"/>
      <stop offset="1" stop-color="#4ac7f4"/>
    </linearGradient>
  </defs>
  <path class="cls-1" d="M1226.77,6719.55a6.452,6.452,0,0,1-5.22-2.64,1.227,1.227,0,0,0-.99-0.5,1.213,1.213,0,0,0-.99.5,6.491,6.491,0,0,1-10.45,0,1.2,1.2,0,0,0-.98-0.5,1.213,1.213,0,0,0-.99.5,6.555,6.555,0,0,1-5.23,2.64,6.48,6.48,0,0,1-5.22-2.64,1.213,1.213,0,0,0-.99-0.5,1.2,1.2,0,0,0-.98.5,6.491,6.491,0,0,1-10.45,0,1.213,1.213,0,0,0-.99-0.5,1.246,1.246,0,0,0-.99.49,6.473,6.473,0,0,1-10.44.01,1.23,1.23,0,0,0-1.98,0,6.491,6.491,0,0,1-10.45,0,1.213,1.213,0,0,0-.99-0.5,1.227,1.227,0,0,0-.99.5,6.452,6.452,0,0,1-5.22,2.64,1.225,1.225,0,1,0,0,2.45,8.975,8.975,0,0,0,6.21-2.52,8.937,8.937,0,0,0,12.43.01,8.992,8.992,0,0,0,6.21,2.51,8.868,8.868,0,0,0,6.21-2.51,8.937,8.937,0,0,0,12.42,0,8.868,8.868,0,0,0,6.21,2.51,9,9,0,0,0,6.22-2.52,8.924,8.924,0,0,0,12.42.01,9.01,9.01,0,0,0,6.21,2.51A1.225,1.225,0,1,0,1226.77,6719.55Zm-74.54-8.04a8.975,8.975,0,0,0,6.21-2.52,9.027,9.027,0,0,0,3.27,2.01,0.6,0.6,0,0,0,.19.06,8.8,8.8,0,0,0,2.75.45,9.109,9.109,0,0,0,2.76-.44l0.18-.06a9.008,9.008,0,0,0,3.28-2.02,8.924,8.924,0,0,0,12.42.01,9.166,9.166,0,0,0,3.27,2.01c0.06,0.02.12,0.04,0.19,0.06a8.814,8.814,0,0,0,5.5,0,1.066,1.066,0,0,0,.19-0.07,9,9,0,0,0,3.27-2,8.868,8.868,0,0,0,6.21,2.51,9,9,0,0,0,6.22-2.52,8.912,8.912,0,0,0,12.42,0,8.975,8.975,0,0,0,6.21,2.52,1.225,1.225,0,1,0,0-2.45,6.434,6.434,0,0,1-5.22-2.65,1.246,1.246,0,0,0-.99-0.49,1.231,1.231,0,0,0-.99.49,6.476,6.476,0,0,1-10.45,0,1.213,1.213,0,0,0-.98-0.49,1.231,1.231,0,0,0-.99.49,6.536,6.536,0,0,1-5.23,2.65,6.462,6.462,0,0,1-5.22-2.65,1.231,1.231,0,0,0-.99-0.49,1.213,1.213,0,0,0-.98.49,6.793,6.793,0,0,1-1.54,1.49v-39.83a8.735,8.735,0,0,1,17.47,0,3.69,3.69,0,0,0,7.38,0,16.115,16.115,0,0,0-32.23,0v13.34h-17.47v-13.34a8.725,8.725,0,0,1,14.46-6.57,1.23,1.23,0,1,0,1.62-1.85,11.192,11.192,0,0,0-18.54,8.42v13.34h-2.46v-13.34a13.653,13.653,0,0,1,21.91-10.84,1.228,1.228,0,0,0,1.72-.24,1.216,1.216,0,0,0-.23-1.71,16.115,16.115,0,0,0-25.86,12.79v39.82a6.508,6.508,0,0,1-1.53-1.48,1.231,1.231,0,0,0-.99-0.49,1.246,1.246,0,0,0-.99.49,6.434,6.434,0,0,1-5.22,2.65A1.225,1.225,0,1,0,1152.23,6711.51Zm32.05-5.1a1.231,1.231,0,0,0-.99-0.49,1.213,1.213,0,0,0-.98.49,6.476,6.476,0,0,1-10.45,0,1.245,1.245,0,0,0-1.98,0,6.4,6.4,0,0,1-1.54,1.49v-6.89h17.47v6.89A6.552,6.552,0,0,1,1184.28,6706.41Zm1.53-17.65v4.9h-17.47v-4.9h17.47Zm-19.93,4.9h-2.46v-4.9h2.46v4.9Zm-2.46,2.45h22.39v2.45h-22.39v-2.45Zm24.85-28.04a13.655,13.655,0,0,1,27.31,0,1.23,1.23,0,0,1-2.46,0,11.2,11.2,0,0,0-22.39,0v40.86a5.884,5.884,0,0,1-2.46,0v-40.86h0Zm-2.46,15.79v2.45h-22.39v-2.45h22.39Zm-22.39,17.15h2.46v7.92a6.26,6.26,0,0,1-1.23.13,6.341,6.341,0,0,1-1.23-.13v-7.92Z" transform="translate(-1151 -6652)"/>
</svg>
