<svg xmlns="http://www.w3.org/2000/svg" width="70" height="70"><defs><linearGradient id="a" x1="499" y1="6712" x2="499" y2="6642" gradientUnits="userSpaceOnUse"><stop offset="0" stop-color="#0093d8"/><stop offset="1" stop-color="#4ac7f4"/></linearGradient></defs><path data-name="Forma 1" d="M523.749 6652.25A35 35 0 10534 6677a34.773 34.773 0 00-10.251-24.75zm-1.6 47.89a32.732 32.732 0 119.587-23.14 32.488 32.488 0 01-9.591 23.14zm-4.871-32.65a1.145 1.145 0 00-.566 1.51 19.259 19.259 0 011.72 8 19.483 19.483 0 01-9.828 16.89v-41.08a1.137 1.137 0 00-1.9-.84 14.908 14.908 0 00-2.892 3.87 22.1 22.1 0 00-4.805-.54c-.432 0-.86.02-1.285.04v-2.53a1.134 1.134 0 10-2.268 0v2.79a21.866 21.866 0 00-2.57.58v-3.37a1.134 1.134 0 10-2.268 0v4.18a23.364 23.364 0 00-2.57 1.29v-5.47a1.134 1.134 0 10-2.268 0v7.01a21.672 21.672 0 00-2.138 32.49 1.1 1.1 0 00.8.34 1.136 1.136 0 00.8-1.94 19.4 19.4 0 01.532-27.92v4.53a3.551 3.551 0 002.419 3.37v28.08a3.553 3.553 0 007.106 0v-.39a21.82 21.82 0 003.7.31 20.785 20.785 0 002.5-.14v.22a3.553 3.553 0 007.105 0v-2.31A21.745 21.745 0 00520.7 6677a21.528 21.528 0 00-1.921-8.94 1.143 1.143 0 00-1.505-.57zm-21.827-9.59v5.87h-2.57v-5.21a18.406 18.406 0 012.566-.66zm-4.838 1.58v4.29h-2.57v-2.8a19.119 19.119 0 012.566-1.49zm2.419 39.29a1.285 1.285 0 11-2.57 0v-29.03a1.135 1.135 0 00-1.134-1.13 1.29 1.29 0 01-1.285-1.29v-1.28h7.408v1.28a1.29 1.29 0 01-1.285 1.29 1.135 1.135 0 00-1.134 1.13v29.03zm5.972-2.34a19.124 19.124 0 01-3.7-.36v-25.38a3.551 3.551 0 002.419-3.37v-9.71c.425-.02.853-.04 1.285-.04a20.112 20.112 0 013.8.37c-4.069 9.68-3.745 24.37-3.725 25.14a1.133 1.133 0 001.134 1.1h1.283v12.09a20.777 20.777 0 01-2.5.16zm7.333 2.34a1.286 1.286 0 11-2.571 0v-15.72a1.136 1.136 0 00-1.134-1.14h-1.295a94.013 94.013 0 01.682-11.12c.817-6.54 2.292-11.57 4.318-14.8v42.78zm5.237-36.58a18.913 18.913 0 012.244 2.24 1.134 1.134 0 101.728-1.47 21.5 21.5 0 00-2.5-2.5 1.134 1.134 0 00-1.476 1.73zm-26.087 39.22a28.048 28.048 0 01-10.645-10.46 1.133 1.133 0 10-1.963 1.13 30.3 30.3 0 0011.507 11.31 1.093 1.093 0 00.55.14 1.13 1.13 0 00.547-2.12zm27.464-48.57a26.867 26.867 0 012.322 1.5 1.157 1.157 0 00.662.21 1.131 1.131 0 00.663-2.05 30.974 30.974 0 00-2.511-1.63 1.137 1.137 0 00-1.14 1.97zm15.559 17.88a29.99 29.99 0 00-8.143-15.01 1.131 1.131 0 00-1.6-.01 1.142 1.142 0 000 1.61 27.739 27.739 0 017.531 13.88 1.139 1.139 0 001.108.9.961.961 0 00.236-.03 1.13 1.13 0 00.864-1.34z" transform="translate(-464 -6642)" fill-rule="evenodd" fill="url(#a)"/></svg>