<svg xmlns="http://www.w3.org/2000/svg" width="71" height="70"><defs><linearGradient id="a" x1="1419.5" y1="6722" x2="1419.5" y2="6652" gradientUnits="userSpaceOnUse"><stop offset="0" stop-color="#0093d8"/><stop offset="1" stop-color="#4ac7f4"/></linearGradient></defs><path d="M1455 6688.13v-9.03h-22.9v-1.13a7.969 7.969 0 00-7.07-7.85 7.81 7.81 0 002.49-5.7v-8.9a3.558 3.558 0 00-3.58-3.52 3.636 3.636 0 00-2.22.76 5.153 5.153 0 00-2.69-.76h-2.49a5.024 5.024 0 00-5.06 4.98v7.44a7.81 7.81 0 002.49 5.7 7.969 7.969 0 00-7.07 7.85v1.13H1384v9.03h2.29v24.84H1384v9.03h71v-9.03h-2.29v-24.84h2.29zm-41.23-31.15a2.747 2.747 0 012.77-2.72h2.49a2.779 2.779 0 011.95.79l.81.8 1.24-1.22a1.294 1.294 0 012.2.89v4.15a8.5 8.5 0 01-2.63-1.7l-.81-.78-.81.78a12.708 12.708 0 01-7.21 3v-3.99zm0 7.44v-1.19a15.253 15.253 0 008.01-2.97 8.929 8.929 0 003.45 1.76v2.4a5.731 5.731 0 01-11.46 0zm-4.58 13.55a5.694 5.694 0 015.73-5.65h9.16a5.694 5.694 0 015.73 5.65v1.13h-3.44v-2.26h-2.29v2.26h-9.16v-2.26h-2.29v2.26h-3.44v-1.13zm43.52 41.77h-66.42v-4.51h66.42v4.51zm-64.13-6.77v-24.84h5.73v24.84h-5.73zm8.02 0v-24.84h5.72v24.84h-5.72zm8.01 0v-24.84h5.73v24.84h-5.73zm8.02 0v-24.84h5.72v24.84h-5.72zm8.02 0v-24.84h5.72v24.84h-5.72zm8.01 0v-24.84h5.73v24.84h-5.73zm16.03-22.58v-2.26h5.73v24.84h-5.73v-20.33h-2.29v20.33h-5.72v-24.84h5.72v2.26h2.29zm-58.4-4.52v-4.52h66.42v4.52h-66.42zm61.84-15.81a12.512 12.512 0 01-1.03 5.14l2.05 1.01a14.619 14.619 0 001.27-6.15 12.477 12.477 0 00-1.23-4.93 10.868 10.868 0 01-1.06-4.1 7.531 7.531 0 011.96-4.85l-.82-.79-.81-.8a9.719 9.719 0 00-2.62 6.44 12.571 12.571 0 001.23 4.94 10.819 10.819 0 011.06 4.09zm-58.4 0a12.512 12.512 0 01-1.03 5.14l2.05 1.01a14.619 14.619 0 001.27-6.15 12.649 12.649 0 00-1.23-4.93 10.686 10.686 0 01-1.06-4.1 7.548 7.548 0 011.95-4.85l-.81-.79-.81-.8a9.667 9.667 0 00-2.62 6.44 12.742 12.742 0 001.22 4.94 10.651 10.651 0 011.07 4.09zm9.16 0a12.512 12.512 0 01-1.03 5.14l2.05 1.01a14.619 14.619 0 001.27-6.15 12.649 12.649 0 00-1.23-4.93 10.686 10.686 0 01-1.06-4.1 7.531 7.531 0 011.96-4.85l-.82-.79-.81-.8a9.667 9.667 0 00-2.62 6.44 12.742 12.742 0 001.22 4.94 10.651 10.651 0 011.07 4.09zm40.08 0h2.29a12.649 12.649 0 00-1.23-4.93 10.686 10.686 0 01-1.06-4.1 7.531 7.531 0 011.96-4.85l-.82-.79-.81-.8a9.719 9.719 0 00-2.62 6.44 12.742 12.742 0 001.22 4.94 10.651 10.651 0 011.07 4.09zm-1.03 5.15l2.05 1a13.339 13.339 0 001.08-3.72l-2.26-.34a11.435 11.435 0 01-.87 3.06z" transform="translate(-1384 -6652)" fill-rule="evenodd" fill="url(#a)"/></svg>