<svg xmlns="http://www.w3.org/2000/svg" width="74" height="70"><defs><linearGradient id="a" x1="960" y1="6727" x2="960" y2="6657" gradientUnits="userSpaceOnUse"><stop offset="0" stop-color="#0093d8"/><stop offset="1" stop-color="#4ac7f4"/></linearGradient></defs><path data-name="Forma 1" d="M943.513 6699.37a1.37 1.37 0 00.1-1.32l-3.476-7.7a1.4 1.4 0 00-1.279-.82h-5.423a1.4 1.4 0 00-1.279.82l-3.477 7.7a1.373 1.373 0 00.1 1.32 1.4 1.4 0 001.177.64h1.944a4.6 4.6 0 00-.372 1.81v.76a4.51 4.51 0 00.372 1.8h-7.5a1.4 1.4 0 00-1.4 1.39v19.83a1.4 1.4 0 001.4 1.4h17.8a1.4 1.4 0 001.4-1.4v-19.82a1.4 1.4 0 00-1.4-1.4h-1.8a4.51 4.51 0 00.372-1.8v-.76a4.6 4.6 0 00-.372-1.81h1.94a1.4 1.4 0 001.173-.64zm-9.17-7.06h3.609l2.216 4.91h-8.041zm3.619 9.51v.76a1.815 1.815 0 01-3.629 0v-.76a1.815 1.815 0 013.629 0zm2.837 5.35v4.02h-5.579a1.4 1.4 0 100 2.79h5.58v3.42h-5.58a1.4 1.4 0 100 2.79h5.58v4.02h-15v-17.04h15zm19.485-15.13a1.4 1.4 0 01-1.4 1.4h-.347a1.4 1.4 0 110-2.79h.347a1.394 1.394 0 011.4 1.39zm24.4-6.11a1.4 1.4 0 01-1.4 1.4h-.348a1.4 1.4 0 110-2.79h.348a1.4 1.4 0 011.401 1.39zm4.88 6.11a1.4 1.4 0 01-1.4 1.4h-.347a1.4 1.4 0 110-2.79h.347a1.394 1.394 0 011.401 1.39zm2.583-13.3h-7.023a1.375 1.375 0 00.09-.49 1.4 1.4 0 00-1.4-1.4h-8.9a1.4 1.4 0 00-1.4 1.4 1.375 1.375 0 00.09.49h-21.959a5.749 5.749 0 00.858-3.03 5.842 5.842 0 00-5.852-5.82h-12.117a5.763 5.763 0 00-3.047.86v-9.53a4.244 4.244 0 00-8.487 0v37.8a1.4 1.4 0 002.8 0v-37.8a1.439 1.439 0 012.878 0v24.03a1.4 1.4 0 002.8 0v-3.72H949.7v11.99a5.734 5.734 0 005.748 5.71H994.2v6.07h-46.52a1.39 1.39 0 100 2.78h40.833v3.03a1.4 1.4 0 001.4 1.4h5.687a1.4 1.4 0 001.4-1.4v-27.54a4.849 4.849 0 00-4.852-4.83zm-45.5 0h-12.113a3.03 3.03 0 110-6.06h12.117a3.03 3.03 0 110 6.06zm47.545 30.98h-2.879v-1.64h2.887v1.64zm0-13.28h-38.75a2.935 2.935 0 01-2.943-2.92v-11.99h39.645a2.05 2.05 0 012.048 2.04v12.87zm-14.391-4.4a1.4 1.4 0 01-1.4 1.4h-.347a1.4 1.4 0 110-2.79h.346a1.4 1.4 0 011.405 1.39zm-14.641-6.11a1.4 1.4 0 01-1.4 1.4h-.347a1.4 1.4 0 110-2.79h.347a1.394 1.394 0 011.404 1.39zm9.761 0a1.4 1.4 0 01-1.4 1.4h-.348a1.4 1.4 0 110-2.79h.348a1.4 1.4 0 011.404 1.39zm-4.88 6.11a1.4 1.4 0 01-1.4 1.4h-.341a1.4 1.4 0 110-2.79h.348a1.4 1.4 0 011.397 1.39z" transform="translate(-923 -6657)" fill-rule="evenodd" fill="url(#a)"/></svg>