<svg xmlns="http://www.w3.org/2000/svg" width="76.969" height="70"><defs><linearGradient id="a" x1="729.485" y1="6722" x2="729.485" y2="6652" gradientUnits="userSpaceOnUse"><stop offset="0" stop-color="#0093d8"/><stop offset="1" stop-color="#4ac7f4"/></linearGradient></defs><path data-name="Forma 1" d="M763.274 6656.73a16 16 0 00-22.716 0 16.285 16.285 0 000 22.9 15.954 15.954 0 005.362 3.58 9.66 9.66 0 01-1.946 2.09 31.335 31.335 0 00-6.1 5.98 16.477 16.477 0 00-1.02-3.58 16.167 16.167 0 00-11.275-9.72l-1.87-.45c-.036-.16-.072-.32-.108-.47a22.288 22.288 0 00-18.879-17.15 1.622 1.622 0 00-.391 3.22 19.044 19.044 0 0116.141 14.66c.82 3.57 1.648 6.64 2.461 9.11a1.608 1.608 0 001.524 1.11 1.487 1.487 0 00.506-.08 1.618 1.618 0 001.019-2.04q-.693-2.115-1.4-4.83l.251.06a13.016 13.016 0 019.054 7.81 12.822 12.822 0 01-.908 11.67l-.2.33a1.628 1.628 0 00.463 2.24 1.608 1.608 0 002.224-.47c.085-.13.168-.26.25-.4a16.075 16.075 0 001.911-4.55 27.336 27.336 0 018.255-9.85 13.61 13.61 0 003.283-3.76 16.758 16.758 0 002.753.23 16.1 16.1 0 003.191-.32c-1.337 4.86-2.458 9.11-3.338 12.66-2.055 8.3-7.492 18.92-12.31 21.51a3.307 3.307 0 01-2.662.41c-23.19-10.72-27.86-21.81-28.792-26.09a1.605 1.605 0 00-1.726-1.26 15.946 15.946 0 01-9.463-6.84 16.108 16.108 0 01-2.285-11.97 1.607 1.607 0 10-3.15-.64 19.4 19.4 0 0013.762 22.5 28.223 28.223 0 006.4 10.84c5.381 6.04 13.451 11.57 23.987 16.43a.6.6 0 00.124.05 5.755 5.755 0 001.96.35 7.041 7.041 0 003.358-.93c3.545-1.9 6.565-6.42 8.475-9.87a58.968 58.968 0 005.439-13.7c1-4.03 2.308-8.96 3.9-14.67a16.11 16.11 0 004.493-3.2 16.3 16.3 0 00-.007-22.9zm-11.358 24.41a12.707 12.707 0 01-9.087-3.8 13.028 13.028 0 010-18.32 12.789 12.789 0 0118.174 0 13.042 13.042 0 010 18.32 12.707 12.707 0 01-9.087 3.8zm-2.975-15.96a4.272 4.272 0 000 6 4.19 4.19 0 005.951 0 4.274 4.274 0 000-6 4.2 4.2 0 00-5.951 0zm3.679 3.71a.993.993 0 01-1.408 0 1 1 0 111.408 0zm7.506-8.98a11.545 11.545 0 00-16.419 0 11.782 11.782 0 000 16.55 11.563 11.563 0 0016.419 0 11.784 11.784 0 000-16.55zm-2.272 14.26a8.361 8.361 0 01-11.876 0 8.52 8.52 0 010-11.97 8.349 8.349 0 0111.876 0 8.52 8.52 0 010 11.97z" transform="translate(-691 -6652)" fill-rule="evenodd" fill="url(#a)"/></svg>