<svg xmlns="http://www.w3.org/2000/svg" width="51" height="64"><path d="M44.653 0H1.133A1.131 1.131 0 000 1.127v8.5a1.133 1.133 0 002.267 0V2.255H43.52v54.3H2.267V13.84a1.133 1.133 0 00-2.267 0v43.842a1.131 1.131 0 001.133 1.127h4.081v4.062A1.131 1.131 0 006.347 64h3.136a1.128 1.128 0 100-2.257h-2v-2.934h37.17a1.131 1.131 0 001.133-1.127V1.127A1.131 1.131 0 0044.653 0zm5.214 5.189h-1.7a1.128 1.128 0 100 2.257h.566v54.3H14.318a1.128 1.128 0 100 2.257h35.549A1.131 1.131 0 0051 62.871V6.315a1.131 1.131 0 00-1.133-1.128zM18.161 8.575h-2.19V6.4a1.131 1.131 0 00-1.133-1.128H9.6A1.131 1.131 0 008.463 6.4v2.18h-2.19A1.13 1.13 0 005.14 9.7v5.217a1.131 1.131 0 001.133 1.133h2.19v2.179A1.131 1.131 0 009.6 19.357h5.242a1.131 1.131 0 001.133-1.127v-2.18h2.19a1.131 1.131 0 001.133-1.129V9.7a1.131 1.131 0 00-1.137-1.125zm-1.133 5.218h-2.19a1.131 1.131 0 00-1.138 1.128V17.1h-2.97v-2.18a1.131 1.131 0 00-1.13-1.127H7.407v-2.961H9.6A1.131 1.131 0 0010.73 9.7V7.524h2.97V9.7a1.131 1.131 0 001.133 1.128h2.19v2.961zm23.091 8.767H5.666a1.128 1.128 0 100 2.257h34.453a1.128 1.128 0 100-2.257zm-2.87 9.026H8.537a1.128 1.128 0 100 2.255h28.712a1.128 1.128 0 100-2.255zM40.12 6.767H29.694a1.128 1.128 0 100 2.256H40.12a1.128 1.128 0 100-2.256zm0 4.813H29.694a1.128 1.128 0 100 2.256H40.12a1.128 1.128 0 100-2.255zM37.249 36.8H8.537a1.128 1.128 0 100 2.255h28.712a1.128 1.128 0 100-2.255zm-15.262 5.214H8.537a1.128 1.128 0 100 2.255h13.45a1.128 1.128 0 100-2.255z" fill="#14355d" fill-rule="evenodd"/></svg>