<svg xmlns="http://www.w3.org/2000/svg" width="71" height="64"><path data-name="Forma 1" d="M69.817 24.888a8.294 8.294 0 01-8.194-7.15 8.248 8.248 0 005.828 2.409 1.185 1.185 0 000-2.371 5.928 5.928 0 01-5.917-5.926v-.03a5.844 5.844 0 003.55 1.216 1.185 1.185 0 000-2.371 3.556 3.556 0 01-3.55-3.555 1.183 1.183 0 10-2.367 0 3.556 3.556 0 01-3.55 3.555 1.185 1.185 0 000 2.371 5.844 5.844 0 003.55-1.216v.032a5.928 5.928 0 01-5.917 5.926 1.185 1.185 0 000 2.371 8.248 8.248 0 005.828-2.409 8.294 8.294 0 01-8.195 7.15 1.185 1.185 0 000 2.37 10.623 10.623 0 008.283-3.976v5.162a1.183 1.183 0 102.367 0v-5.164a10.623 10.623 0 008.283 3.976 1.185 1.185 0 00.001-2.37zm-60.35-1.606v5.162a1.183 1.183 0 102.367 0v-5.162a10.623 10.623 0 008.283 3.976 1.185 1.185 0 000-2.37 8.294 8.294 0 01-8.195-7.15 8.249 8.249 0 005.828 2.409 1.185 1.185 0 000-2.371 5.928 5.928 0 01-5.917-5.926v-.03a5.844 5.844 0 003.55 1.216 1.185 1.185 0 000-2.371 3.556 3.556 0 01-3.55-3.555 1.183 1.183 0 10-2.367 0 3.556 3.556 0 01-3.55 3.555 1.185 1.185 0 000 2.371 5.844 5.844 0 003.55-1.216v.032a5.928 5.928 0 01-5.916 5.925 1.185 1.185 0 000 2.371 8.248 8.248 0 005.828-2.409 8.294 8.294 0 01-8.195 7.15 1.185 1.185 0 000 2.37 10.623 10.623 0 008.284-3.977zm16.567-1.949a10.626 10.626 0 008.283-3.976v5.161a1.183 1.183 0 102.367 0v-5.162a10.626 10.626 0 008.283 3.976 1.185 1.185 0 000-2.371 8.293 8.293 0 01-8.195-7.15 8.246 8.246 0 005.828 2.41 1.185 1.185 0 000-2.37 5.929 5.929 0 01-5.917-5.926v-.032a5.846 5.846 0 003.55 1.217 1.185 1.185 0 000-2.371 3.557 3.557 0 01-3.55-3.556 1.183 1.183 0 10-2.367 0 3.557 3.557 0 01-3.55 3.556 1.185 1.185 0 000 2.371 5.846 5.846 0 003.55-1.217v.032a5.929 5.929 0 01-5.916 5.926 1.185 1.185 0 000 2.37 8.246 8.246 0 005.828-2.409 8.294 8.294 0 01-8.195 7.15 1.185 1.185 0 000 2.37zm39.847 26.073H55.513l-6.023-9.481h6.925a2.759 2.759 0 002.752-2.757v-2.782a2.759 2.759 0 00-2.752-2.757H15.769a2.759 2.759 0 00-2.752 2.757v2.782a2.759 2.759 0 002.752 2.757h6.925l-6.023 9.481H5.119a2.759 2.759 0 00-2.752 2.757v2.782A2.759 2.759 0 005.119 55.7H11.4l-3.227 5.079A2.095 2.095 0 009.938 64h4.946a2.087 2.087 0 001.765-.969L21.3 55.7h29.58l4.655 7.328A2.085 2.085 0 0057.3 64h4.946a2.095 2.095 0 001.764-3.22l-3.225-5.08h5.1a2.759 2.759 0 002.752-2.757v-2.78a2.759 2.759 0 00-2.756-2.757zm-13.173 0h-4.3l-6.024-9.481h4.3zm-7.1 0H26.575l6.025-9.481h6.985zM15.769 35.555a.386.386 0 01-.386-.387v-2.782a.386.386 0 01.386-.386h40.645a.386.386 0 01.386.386v2.782a.386.386 0 01-.386.387H15.769zm9.731 2.37h4.3l-6.024 9.481h-4.3zm-10.766 23.7h-4.3L14.2 55.7h4.3zm47.012 0h-4.3L53.684 55.7h4.3zm4.522-8.683a.387.387 0 01-.386.386H5.119a.387.387 0 01-.386-.386v-2.779a.386.386 0 01.386-.387H65.88a.386.386 0 01.387.387v2.782z" fill="#14355d" fill-rule="evenodd"/></svg>