<svg xmlns="http://www.w3.org/2000/svg" width="87" height="64"><path d="M60.437 30.627a1.782 1.782 0 002.514-.018c1.319-1.33 2.692-1.684 3.316-1.347.731.409.945 1.7.517 3.173A1.76 1.76 0 0068 34.633a1.6 1.6 0 00.5.071 1.79 1.79 0 001.711-1.259c.927-3.172.054-6.025-2.211-7.266-2.211-1.223-5.188-.461-7.577 1.95a1.757 1.757 0 00.014 2.498zm26.207-8.506a1.76 1.76 0 00-1.515-.71 41.308 41.308 0 01-22.142-5.263A39.861 39.861 0 0147.743.906 1.792 1.792 0 0046.335 0 1.767 1.767 0 0044.8.657a45.512 45.512 0 00-5.222 7.693 51.434 51.434 0 00-4.885 11.4 43 43 0 01-10.8 3.066 40.652 40.652 0 01-21.361-2.628 1.792 1.792 0 00-1.64.124 1.811 1.811 0 00-.839 1.418A49.886 49.886 0 00.481 31C2.3 43.21 8.04 53.932 15.831 59.675A20.585 20.585 0 0028.043 64a18.5 18.5 0 002.621-.2c5.723-.811 10.714-4.392 14.336-10.2a18.761 18.761 0 006.846 1.241 27.2 27.2 0 0012.408-3.314c7.274-3.775 13.87-10.35 18.577-18.538a.251.251 0 00.036-.07 75.66 75.66 0 004.047-9.145 1.822 1.822 0 00-.271-1.653zM43.054 49.8c-.018.017-.018.035-.036.053-.107.195-.214.39-.321.6-3.1 5.636-7.505 9.109-12.569 9.819-4.065.6-8.272-.585-12.176-3.473-7.059-5.188-12.265-15.024-13.941-26.313a45.7 45.7 0 01-.446-6.114A44.906 44.906 0 0024.406 26.3 46.472 46.472 0 0037.8 22.209a40.627 40.627 0 007.363-4.5c.071.266.16.549.232.816a.4.4 0 01.018.07 1.319 1.319 0 00.071.249c.018.07.036.123.054.194.018.035.018.089.035.124.018.106.054.213.071.319.428 1.718.731 3.349.963 4.767v.052c1.261 9.411-.023 18.662-3.553 25.5zm36.654-18.535c-8.379 14.569-22.784 22.774-33.017 19.176 0-.018.018-.018.018-.036a.18.18 0 00.036-.088c.053-.125.125-.248.178-.372.036-.089.071-.16.107-.247.071-.143.125-.285.2-.443.036-.088.089-.2.125-.284.053-.142.125-.284.178-.443a1.931 1.931 0 01.125-.284c.071-.16.125-.319.178-.48a1.35 1.35 0 00.089-.247c.071-.2.143-.373.214-.568l.053-.159c.089-.231.16-.479.25-.71v-.016c.16-.5.321-.993.464-1.507a18.049 18.049 0 006.668 1.277 16.117 16.117 0 008.557-2.34 1.751 1.751 0 00.553-2.446 1.774 1.774 0 00-2.46-.549 13.623 13.623 0 01-12.462.568h-.022a52.11 52.11 0 00.374-17.267v-.07c-.089-.532-.2-1.081-.3-1.666a2.17 2.17 0 012.175.054c.535.549.624 1.7.232 3.083a1.766 1.766 0 001.23 2.18 1.539 1.539 0 00.481.07 1.768 1.768 0 001.712-1.294c.767-2.711.374-5.015-1.123-6.521a5.356 5.356 0 00-5.473-1.062 45.019 45.019 0 00-1.337-4.467 1.765 1.765 0 00-1.23-1.116 1.943 1.943 0 00-.642-.054c-.053 0-.107.017-.143.017a.137.137 0 00-.071.017 1.815 1.815 0 00-.535.232c-.018.017-.036.017-.053.034a1.278 1.278 0 00-.178.143c-.2.178-.392.337-.588.5-.16.124-.321.266-.481.39a.065.065 0 00-.036.036 41.018 41.018 0 01-4.564 3.172 53.57 53.57 0 013.49-7.378c.018-.017.018-.035.036-.054a37.513 37.513 0 013.263-5.086A43.428 43.428 0 0061.2 19.285a45.386 45.386 0 0021.4 5.776 79.481 79.481 0 01-2.892 6.204zm-65.214 7.143a1.812 1.812 0 001.783-1.542c.16-1.294.838-2.11 1.373-2.162a2.958 2.958 0 012.5 1.807 1.791 1.791 0 002.407.727 1.77 1.77 0 00.731-2.393 6.387 6.387 0 00-5.954-3.687c-2.371.231-4.207 2.322-4.6 5.246a1.766 1.766 0 001.533 1.985 1 1 0 00.232.018zm16.063-1.932a1.2 1.2 0 00.249.017 1.78 1.78 0 001.765-1.524 2.263 2.263 0 011.391-2.056c.036 0 .089-.017.125-.017.785-.142 1.729.567 2.318 1.772a1.794 1.794 0 002.389.815 1.773 1.773 0 00.82-2.375c-1.3-2.64-3.673-4.094-6.044-3.722-2.282.248-4.136 2.34-4.528 5.087a1.766 1.766 0 001.515 2.003zm9.68 5.724a1.814 1.814 0 00-2.175 1.276 11.037 11.037 0 01-9.146 7.745A11.436 11.436 0 0117.774 46.4a1.793 1.793 0 00-2.46-.567 1.77 1.77 0 00-.57 2.445 14.68 14.68 0 0012.515 6.593 17.729 17.729 0 002.157-.142h.053a14.6 14.6 0 0012.052-10.366 1.8 1.8 0 00-1.284-2.163zM27.259 54.871z" fill="#14355d" fill-rule="evenodd"/></svg>