<svg xmlns="http://www.w3.org/2000/svg" width="61" height="64"><path d="M30.27 13.332a6.667 6.667 0 10-6.708-6.667 6.7 6.7 0 006.708 6.667zm0-10.666a4 4 0 11-4.025 4 4.016 4.016 0 014.025-4zM49.283 16a6.667 6.667 0 10-6.708-6.667A6.7 6.7 0 0049.283 16zm0-10.667a4 4 0 11-4.025 4 4.017 4.017 0 014.025-4.001zm11.686 32.838l-1.72-13.663a6.7 6.7 0 00-6.655-5.84H45.97a6.671 6.671 0 00-2.235.392 1.334 1.334 0 10.9 2.512 4.042 4.042 0 011.339-.236h6.625a4.021 4.021 0 013.993 3.5L58.307 38.5a1.334 1.334 0 01-1.331 1.5h-.984a1.336 1.336 0 00-1.339 1.238L53.4 58.668h-8.235l-.3-4.1a1.341 1.341 0 00-2.675.189l.388 5.343a1.345 1.345 0 001.339 1.238H54.65a1.337 1.337 0 001.336-1.238l1.253-17.44a4.03 4.03 0 002.753-1.343 3.98 3.98 0 00.977-3.146zm-18.41 10.9l-1.945-9.789a4.4 4.4 0 001.935-4.2l-1.774-12.606A7.08 7.08 0 0033.935 16h-6.853a7.072 7.072 0 00-6.84 6.443l-1.781 12.674a4.371 4.371 0 001.939 4.167l-1.945 9.789a1.326 1.326 0 00.279 1.1 1.344 1.344 0 001.036.488h4.562L26.5 62.9a1.342 1.342 0 001.32 1.1h5.367a1.352 1.352 0 001.328-1.1l2.165-12.232h4.562a1.342 1.342 0 001.036-.489 1.325 1.325 0 00.281-1.103zm-4.792-10.3L39.6 48h-4.055a1.338 1.338 0 00-1.32 1.1L32.06 61.333h-3.116L26.771 49.1a1.337 1.337 0 00-1.32-1.1H21.4l1.833-9.223a1.333 1.333 0 00-.974-1.547 1.628 1.628 0 01-1.14-1.774L22.9 22.778a4.413 4.413 0 014.175-4.112h6.853a4.427 4.427 0 014.172 4.146l1.778 12.608a1.639 1.639 0 01-1.135 1.808 1.337 1.337 0 00-.976 1.547zm-20.2 14.56a1.331 1.331 0 00-1.433 1.234l-.3 4.1H7.6l-1.25-17.43A1.341 1.341 0 005.01 40h-.985a1.326 1.326 0 01-1.006-.451 1.31 1.31 0 01-.325-1.049l1.72-13.663a4.019 4.019 0 013.993-3.5h6.625a3.9 3.9 0 011.012.149 1.351 1.351 0 001.64-.952 1.335 1.335 0 00-.958-1.629 6.619 6.619 0 00-1.7-.235H8.407a6.7 6.7 0 00-6.655 5.84L.032 38.169a3.99 3.99 0 00.977 3.145 4.037 4.037 0 002.753 1.343L5.015 60.1a1.341 1.341 0 001.336 1.238h10.733a1.342 1.342 0 001.339-1.241l.384-5.333a1.336 1.336 0 00-1.24-1.429zM11.718 16A6.667 6.667 0 105.01 9.332 6.7 6.7 0 0011.718 16zm0-10.667a4 4 0 11-4.025 4 4.017 4.017 0 014.025-4.001z" fill="#14355d" fill-rule="evenodd"/></svg>