<svg xmlns="http://www.w3.org/2000/svg" width="64" height="64"><path d="M61.085 17.246l-3.278-.505V4.128H32V0h-6.194v4.128H0v41.291h11.03L5.868 64H14.2l2.3-8.259h24.809L43.6 64h8.335l-5.158-18.581h11.03V24.547l3.278-.505a3.438 3.438 0 000-6.796zM27.871 2.063h2.065v2.065h-2.065V2.063zM12.635 61.934H8.583l4.587-16.515h4.052zm4.437-8.258l.574-2.064h16.419v-2.065H18.218l1.147-4.129h19.076l1.147 4.129h-3.459v2.065h4.033l.574 2.064H17.071zm32.152 8.258h-4.052l-4.588-16.515h4.052zm6.519-18.581H2.064V6.193h53.678v10.23l-2.448-.376a48.74 48.74 0 00-7.377-.564H19.824a17.071 17.071 0 00-6.4-1.031c-5.593 0-9.915 5.322-10.1 5.547l-.515.646.515.645c.182.226 4.5 5.549 10.1 5.549a17.081 17.081 0 006.4-1.032h26.093a48.718 48.718 0 007.377-.565l2.449-.376v18.487zM18.581 17.225v6.838a16.518 16.518 0 01-5.161.71c-3.55 0-6.659-2.824-7.905-4.128 1.246-1.305 4.355-4.129 7.905-4.129a16.543 16.543 0 015.161.709zM60.77 22l-7.79 1.2a46.631 46.631 0 01-7.063.539H20.645v-6.191h25.272a46.627 46.627 0 017.063.538l7.791 1.2A1.375 1.375 0 0160.77 22zm-9.157 17.225h2.064v2.064h-2.064v-2.064zm0-4.129h2.064v2.065h-2.064V35.1zm-4.129 4.129h2.064v2.064h-2.064v-2.064zm-4.129 0h2.065v2.064h-2.065v-2.064zm4.129-4.125h2.064v2.065h-2.064V35.1zm4.129-4.129h2.064v2.065h-2.064v-2.07z" fill="#14355d" fill-rule="evenodd"/></svg>