<svg xmlns="http://www.w3.org/2000/svg" width="64" height="64"><path d="M13.867 25.066a1.6 1.6 0 101.6-1.6 1.6 1.6 0 00-1.6 1.6zm2.133 0a.533.533 0 11-.533-.534.535.535 0 01.533.534zM52.326 11.5a1.064 1.064 0 001.133.292l1.38-.472.955 1.178a1.066 1.066 0 001.9-.671v-1.479l1.543-.771a1.067 1.067 0 000-1.909L57.689 6.9V5.422a1.066 1.066 0 00-1.93-.627l-.886 1.22-1.4-.5a1.067 1.067 0 00-1.334 1.437l.761 1.71-.756 1.677a1.067 1.067 0 00.182 1.161zm2.756-3.156a1.064 1.064 0 00.706-.119 1.074 1.074 0 00.357.289l.225.112-.225.112a1.078 1.078 0 00-.433.4A1.059 1.059 0 0055.2 9a.919.919 0 00-.123.007 1.072 1.072 0 00.006-.668zM30.933 6.2v10.865a1.067 1.067 0 102.133 0V6.2a3.2 3.2 0 10-2.133 0zM32 2.132A1.067 1.067 0 1130.933 3.2 1.068 1.068 0 0132 2.132zm14.933 22.934a1.6 1.6 0 101.6-1.6 1.6 1.6 0 00-1.6 1.6zm2.133 0a.533.533 0 11-.533-.534.535.535 0 01.534.534zm-10.133-8a1.6 1.6 0 10-1.6-1.6 1.6 1.6 0 001.6 1.599zm0-2.132a.533.533 0 11-.533.533.533.533 0 01.533-.534zm.846 9.287a1.065 1.065 0 001.508 0l9.6-9.6a1.066 1.066 0 00-1.508-1.508l-9.6 9.6a1.065 1.065 0 000 1.506zm-14.712-7.156a1.6 1.6 0 10-1.6-1.6 1.6 1.6 0 001.6 1.6zm0-2.132a.533.533 0 11-.533.533.533.533 0 01.533-.533zm-2.354 9.287a1.066 1.066 0 101.508-1.508l-9.578-9.582a1.067 1.067 0 00-1.509 1.507zm19.641 16.625a1.066 1.066 0 00-1.508 1.507l8.533 8.534a1.066 1.066 0 001.508-1.508zm-3.421 6.087a1.6 1.6 0 101.6 1.6 1.6 1.6 0 00-1.6-1.6zm0 2.134a.533.533 0 11.533-.534.534.534 0 01-.533.534zm11.2-10.133a1.6 1.6 0 10-1.6 1.6 1.6 1.6 0 001.6-1.601zm-2.133 0a.533.533 0 11.533.533.534.534 0 01-.533-.534zM4.706 8.328l1.22.886-.5 1.4a1.066 1.066 0 001 1.426 1.08 1.08 0 00.433-.091l1.712-.758 1.677.756a1.067 1.067 0 001.452-1.318l-.473-1.38 1.173-.955a1.067 1.067 0 00-.671-1.9h-1.47l-.771-1.539a1.111 1.111 0 00-1.909 0L6.807 6.4H5.333a1.067 1.067 0 00-.627 1.928zm3.715-.387l.112-.225.112.226a1.061 1.061 0 00.4.433 1.064 1.064 0 00-.125.635 1.09 1.09 0 00-.34-.055 1.051 1.051 0 00-.326.052 1.072 1.072 0 00-.123-.707 1.112 1.112 0 00.29-.358zM60.8 28.8a3.193 3.193 0 00-3 2.132H43.733a1.067 1.067 0 000 2.134H57.8a3.194 3.194 0 103-4.266zm0 4.266A1.067 1.067 0 1161.867 32a1.068 1.068 0 01-1.067 1.066zm-1.506 22.783l-1.22-.887.5-1.4a1.066 1.066 0 00-1.437-1.334l-1.712.759-1.677-.756a1.067 1.067 0 00-1.448 1.316l.473 1.383-1.179.953a1.067 1.067 0 00.672 1.9h1.474l.771 1.545a1.068 1.068 0 001.909 0l.771-1.545h1.474a1.066 1.066 0 00.629-1.934zm-3.715.387l-.112.224-.112-.224a1.058 1.058 0 00-.4-.434 1.059 1.059 0 00.126-.635 1.074 1.074 0 00.667 0 1.073 1.073 0 00.12.706 1.074 1.074 0 00-.289.362zM38.542 38.9a1.827 1.827 0 00.236-1.657c-.222-.845-.85-3.377-1.152-4.6l3.288-2.552a1.893 1.893 0 00.632-2.015 1.662 1.662 0 00-1.506-1.186c-.495-.04-3.105-.273-4.341-.383l-2.008-4.994a1.84 1.84 0 00-1.674-1.251 1.732 1.732 0 00-1.639 1.292c-.187.506-1.3 3.593-1.793 4.952l-4.635.394a1.643 1.643 0 00-1.479 1.183 1.839 1.839 0 00.619 1.943c.3.231 2.479 1.829 3.558 2.619l-1.322 4.539a1.779 1.779 0 00.136 1.687 1.85 1.85 0 002.507.194c.426-.3 2.869-2.043 4.037-2.876 1.162.83 3.586 2.564 4.032 2.873a2.284 2.284 0 001.267.419 1.54 1.54 0 001.237-.581zm-3.153-6.416s.628 2.549 1.054 4.251c-1.362-.969-3.816-2.724-3.816-2.724a1.067 1.067 0 00-1.241 0s-2.275 1.626-3.678 2.626l1.2-4.111a1.067 1.067 0 00-.395-1.159s-2.1-1.534-3.312-2.43l4.245-.36a1.068 1.068 0 00.913-.7l1.7-4.7 1.905 4.737a1.066 1.066 0 00.895.665s2.572.23 4.067.36l-3.156 2.447a1.068 1.068 0 00-.381 1.098zm-21.522 6.448a1.6 1.6 0 101.6-1.6 1.6 1.6 0 00-1.6 1.6zm2.133 0a.533.533 0 11-.533-.534.534.534 0 01.533.534zm-9.8-5.866h14.067a1.067 1.067 0 000-2.134H6.2a3.2 3.2 0 100 2.134zm-3 0A1.067 1.067 0 114.267 32 1.068 1.068 0 013.2 33.066zm8.474 19.616a1.066 1.066 0 00-1.133-.292l-1.38.472-.955-1.178a1.066 1.066 0 00-1.9.67v1.474l-1.539.772a1.067 1.067 0 000 1.909l1.543.771v1.475a1.067 1.067 0 00.737 1.014 1.071 1.071 0 001.192-.387l.886-1.221 1.4.5a1.066 1.066 0 001.335-1.436l-.76-1.711.756-1.677a1.067 1.067 0 00-.182-1.156zm-2.757 3.156a1.074 1.074 0 00-.706.119 1.086 1.086 0 00-.357-.29l-.225-.112.225-.112a1.072 1.072 0 00.433-.4 1.057 1.057 0 00.636.124 1.072 1.072 0 00-.006.671zm16.149-8.906a1.6 1.6 0 101.6 1.6 1.6 1.6 0 00-1.599-1.6zm0 2.134a.533.533 0 11.533-.534.534.534 0 01-.532.534zm8 8.729V41.6a1.067 1.067 0 10-2.133 0v16.2a3.2 3.2 0 102.134-.005zM32 61.865a1.066 1.066 0 111.067-1.065A1.067 1.067 0 0132 61.865zm-8.846-21.02a1.065 1.065 0 00-1.508 0l-8.534 8.533a1.066 1.066 0 001.508 1.508l8.533-8.534a1.064 1.064 0 00.001-1.507z" fill="#14355d" fill-rule="evenodd"/></svg>