<svg xmlns="http://www.w3.org/2000/svg" width="58" height="64"><path d="M57.3 23.5a1.445 1.445 0 00-1.418-.032L46.59 28.44v-4.258a1.433 1.433 0 00-1.437-1.428h-2.336A12.786 12.786 0 0034.716 0a12.889 12.889 0 00-12.522 9.8A9.721 9.721 0 005 15.954a9.6 9.6 0 002.824 6.8H6.512a1.432 1.432 0 00-1.437 1.428v6.485H1.437A1.434 1.434 0 000 32.1v5.617a1.433 1.433 0 001.437 1.428h3.638v6.486a1.433 1.433 0 001.437 1.428h16.951L15.675 61.91a1.426 1.426 0 00.61 1.928 1.441 1.441 0 001.938-.607l7.61-14.512 7.61 14.512a1.435 1.435 0 002.547-1.321L28.2 47.057h16.954a1.433 1.433 0 001.437-1.428v-4.262l9.292 4.972A1.437 1.437 0 0058 45.081V24.729a1.427 1.427 0 00-.7-1.229zM5.075 36.285h-2.2v-2.76h2.2v2.76zM34.716 2.856a9.949 9.949 0 11-10.007 9.949 9.99 9.99 0 0110.007-9.949zm-10.973 16.65a12.923 12.923 0 002.873 3.248H21.6a9.685 9.685 0 002.143-3.248zm-9.03-10.351a6.8 6.8 0 11-6.84 6.8 6.828 6.828 0 016.84-6.8zm29 21.68V44.2H7.948V25.612h35.769v5.224zm11.41 11.854l-8.536-4.567v-6.434l8.536-4.567v15.568zm-40.41-31.074a4.34 4.34 0 104.365 4.34 4.357 4.357 0 00-4.365-4.34zm0 6.107a1.768 1.768 0 111.779-1.768 1.775 1.775 0 01-1.779 1.768zm20-11.149a6.233 6.233 0 106.268 6.232 6.258 6.258 0 00-6.265-6.232zm0 9.607a3.375 3.375 0 113.395-3.375 3.388 3.388 0 01-3.392 3.375zM30.08 29.766H14.457a1.361 1.361 0 00-1.365 1.357v7.565a1.362 1.362 0 001.365 1.356H30.08a1.362 1.362 0 001.365-1.356v-7.564a1.361 1.361 0 00-1.365-1.358zm-1.365 7.565H15.822V32.48h12.893v4.851zm8.9-6.208a1.428 1.428 0 11-1.437 1.428 1.433 1.433 0 011.439-1.428zm0 4.707a1.428 1.428 0 11-1.437 1.428 1.433 1.433 0 011.439-1.428z" fill="#14355d" fill-rule="evenodd"/></svg>