<svg xmlns="http://www.w3.org/2000/svg" width="73" height="64"><path d="M71.478 44.19h-4.562v-1.526a4.576 4.576 0 00-4.563-4.572 4.527 4.527 0 00-1.521.265v-.265a4.563 4.563 0 10-9.125 0v6.1h-7.978a22.923 22.923 0 00-4.787-25.306 23.094 23.094 0 00-2.442-2.129V4.57A4.572 4.572 0 0031.938 0h-18.25a4.57 4.57 0 00-4.563 4.57v12.187A22.89 22.89 0 008.7 53.006a1.517 1.517 0 00.942.328h11.649v1.522a4.557 4.557 0 006.084 4.309v.263a4.563 4.563 0 109.125 0v-6.094h15.207v6.094a4.563 4.563 0 109.125 0v-.264a4.557 4.557 0 006.084-4.309v-1.521h4.562A1.525 1.525 0 0073 51.807v-6.094a1.522 1.522 0 00-1.522-1.523zM12.166 4.57a1.524 1.524 0 011.522-1.523h18.25a1.523 1.523 0 011.519 1.523v10.249c-.5-.263-1-.508-1.519-.733V7.617a3.049 3.049 0 00-3.044-3.047H16.728a3.047 3.047 0 00-3.041 3.047v6.468q-.775.338-1.522.733V4.57zm16.728 3.047v5.389a23.067 23.067 0 00-12.166 0V7.617h12.166zm-7.6 42.668H18.25a1.507 1.507 0 001.074-.447 1.524 1.524 0 00-1.072-2.6h3.039v3.05zm6.084 4.571a1.522 1.522 0 11-3.043 0V42.664a1.522 1.522 0 013.043 0v12.192zm6.082 4.572a1.521 1.521 0 11-3.041 0V38.092a1.521 1.521 0 113.041 0v21.336zm-1.522-25.906a4.572 4.572 0 00-4.563 4.57v.265a4.526 4.526 0 00-1.522-.265 4.576 4.576 0 00-4.562 4.572v1.526h-4.563a1.522 1.522 0 00-1.522 1.523v4.572h-5.027a19.766 19.766 0 1130.182-6.095H36.5v-6.1a4.573 4.573 0 00-4.562-4.568zm19.769 16.763H36.5v-3.05h15.207v3.05zm6.084-7.621v16.764a1.52 1.52 0 11-3.041 0V38.092a1.52 1.52 0 113.041 0v4.572zm6.084 12.192a1.522 1.522 0 11-3.043 0V42.664a1.522 1.522 0 113.043 0v12.192zm3.041-4.571v-3.05h3.039a1.524 1.524 0 00-1.074 2.6 1.513 1.513 0 001.076.447h-3.041z" fill="#14355d" fill-rule="evenodd"/></svg>