<svg xmlns="http://www.w3.org/2000/svg" width="64" height="64"><path data-name="Forma 1" d="M54.627 9.371A32 32 0 109.373 54.626 32 32 0 1054.627 9.371zm-1.466 43.79a29.927 29.927 0 01-42.322-42.323 29.927 29.927 0 0142.322 42.323zm-4.454-29.85a1.036 1.036 0 00-.517 1.371A17.622 17.622 0 0149.762 32a17.808 17.808 0 01-8.985 15.442V9.882a1.037 1.037 0 00-1.74-.761 13.52 13.52 0 00-2.645 3.533A19.947 19.947 0 0032 12.163c-.395 0-.786.013-1.175.036V9.882a1.037 1.037 0 00-2.073 0v2.549a19.634 19.634 0 00-2.35.537V9.882a1.037 1.037 0 00-2.073 0v3.825a19.728 19.728 0 00-2.35 1.18V9.882a1.037 1.037 0 00-2.073 0v6.406A19.824 19.824 0 0017.95 46a1.037 1.037 0 001.469-1.463A17.748 17.748 0 0119.9 19v4.148a3.253 3.253 0 002.212 3.079V51.9a3.248 3.248 0 006.5 0v-.36a19.979 19.979 0 005.668.159v.2a3.248 3.248 0 006.5 0v-2.108A19.886 19.886 0 0051.836 32a19.679 19.679 0 00-1.757-8.173 1.036 1.036 0 00-1.372-.516zm-19.955-8.776V19.9H26.4v-4.758a17.414 17.414 0 012.352-.607zm-4.424 1.445v3.92h-2.35v-2.558a17.63 17.63 0 012.35-1.362zM26.54 51.9a1.175 1.175 0 01-2.35 0V25.364a1.037 1.037 0 00-1.037-1.037 1.176 1.176 0 01-1.175-1.176v-1.173h6.773v1.174a1.177 1.177 0 01-1.175 1.176 1.037 1.037 0 00-1.037 1.037V51.9zM32 49.761a17.9 17.9 0 01-3.387-.325V26.231a3.253 3.253 0 002.212-3.079v-8.875c.389-.026.78-.04 1.175-.04a17.926 17.926 0 013.475.341c-3.721 8.843-3.424 22.274-3.406 22.977a1.037 1.037 0 001.036 1.009h1.175v11.051a17.866 17.866 0 01-2.28.146zm6.7 2.139a1.175 1.175 0 01-2.35 0V37.528a1.036 1.036 0 00-1.037-1.036h-1.18a85.87 85.87 0 01.623-10.17c.747-5.974 2.1-10.575 3.947-13.527V51.9zm4.788-33.45a17.827 17.827 0 012.051 2.052 1.037 1.037 0 101.58-1.342 19.848 19.848 0 00-2.29-2.289 1.036 1.036 0 10-1.337 1.584zM19.642 54.314a25.609 25.609 0 01-9.733-9.562 1.036 1.036 0 10-1.795 1.037 27.676 27.676 0 0010.521 10.337 1.037 1.037 0 101.007-1.812zm25.11-44.406c.727.42 1.441.882 2.123 1.372a1.036 1.036 0 101.211-1.68 26.842 26.842 0 00-2.3-1.485 1.037 1.037 0 10-1.034 1.793zm14.225 16.346a27.479 27.479 0 00-7.445-13.723 1.037 1.037 0 00-1.468 1.464 25.412 25.412 0 016.886 12.69 1.038 1.038 0 001.013.822 1.013 1.013 0 00.216-.024 1.036 1.036 0 00.798-1.229z" fill="#14355d" fill-rule="evenodd"/></svg>