<svg xmlns="http://www.w3.org/2000/svg" width="72" height="64"><path data-name="Forma 1" d="M71.635 63.384a1.64 1.64 0 01-1.28.614H60.8a1.65 1.65 0 01-1.526-2.267l2.014-5.02a1.646 1.646 0 113.051 1.233l-1.1 2.753h5.083l-.2-.913c-.48-2.227-2.557-9.5-9.153-9.5h-2.815c-6.6 0-8.673 7.269-9.153 9.5l-.2.913h5.083l-1.1-2.753a1.645 1.645 0 113.051-1.233l2.014 5.02A1.65 1.65 0 0154.324 64h-9.557a1.649 1.649 0 01-1.608-2l.626-2.912c1.606-7.464 6.345-12.1 12.368-12.1h2.814c6.022 0 10.762 4.636 12.368 12.1L71.963 62a1.651 1.651 0 01-.328 1.384zM29.678 22.44a8.36 8.36 0 015.823-8 1.642 1.642 0 011 0 8.4 8.4 0 010 16 1.649 1.649 0 01-1 0 8.362 8.362 0 01-5.823-8zm3.289 0A5.074 5.074 0 0036 27.1a5.1 5.1 0 000-9.328 5.072 5.072 0 00-3.032 4.668zM36 5.918a1.648 1.648 0 001.645-1.651V1.65a1.645 1.645 0 10-3.289 0v2.617A1.648 1.648 0 0036 5.918zm15.24 29.627a8.361 8.361 0 015.823-8 1.632 1.632 0 011 0 8.4 8.4 0 010 16 1.631 1.631 0 01-1 0 8.361 8.361 0 01-5.823-8zm3.289 0a5.074 5.074 0 003.032 4.665 5.1 5.1 0 000-9.328 5.072 5.072 0 00-3.032 4.663zm.263-24.574a1.641 1.641 0 002.247-.6l1.3-2.266a1.646 1.646 0 10-2.846-1.655l-1.3 2.266a1.654 1.654 0 00.599 2.255zM66.967 25.9a1.631 1.631 0 00.821-.221l2.257-1.308a1.649 1.649 0 00-1.645-2.864l-2.258 1.308a1.652 1.652 0 00.825 3.085zM8.116 35.545a8.361 8.361 0 015.823-8 1.632 1.632 0 011 0 8.4 8.4 0 010 16 1.631 1.631 0 01-1 0 8.361 8.361 0 01-5.823-8zm3.289 0a5.074 5.074 0 003.033 4.665 5.1 5.1 0 000-9.328 5.073 5.073 0 00-3.032 4.663zm3.555-25.178a1.646 1.646 0 102.85-1.651l-1.3-2.266a1.646 1.646 0 10-2.852 1.65zm-13.006 14l2.258 1.308a1.641 1.641 0 002.247-.6 1.654 1.654 0 00-.6-2.255L3.6 21.507a1.649 1.649 0 00-1.645 2.859zM32.274 43.6a1.645 1.645 0 10-3.051 1.232l1.1 2.754h-1.515a1.651 1.651 0 000 3.3h3.954a1.65 1.65 0 001.526-2.268zm-4.06 15.483c-1.606-7.464-6.345-12.1-12.368-12.1h-2.814c-6.023 0-10.763 4.636-12.368 12.1L.037 62a1.649 1.649 0 001.608 2H11.2a1.65 1.65 0 001.526-2.267l-2.014-5.02a1.645 1.645 0 10-3.051 1.233l1.1 2.753H3.682l.2-.913c.479-2.227 2.555-9.5 9.153-9.5h2.814c6.6 0 8.673 7.269 9.153 9.5l.2.913h-5.091l1.1-2.753a1.645 1.645 0 10-3.051-1.233l-2.015 5.02A1.65 1.65 0 0017.676 64h9.556a1.649 1.649 0 001.608-2zm17.811-14.372a1.645 1.645 0 103.121-1.043c-2.065-6.22-6.344-9.788-11.739-9.788h-2.814c-5.4 0-9.676 3.568-11.74 9.789a1.651 1.651 0 001.041 2.087 1.642 1.642 0 002.08-1.044c.933-2.812 3.294-7.53 8.619-7.53h2.814c5.324-.001 7.685 4.718 8.618 7.529zM45.4 49.24a1.647 1.647 0 00-1.645-1.65h-2.082l1.1-2.754a1.645 1.645 0 10-3.047-1.236l-2.014 5.02a1.65 1.65 0 001.526 2.268h4.517A1.648 1.648 0 0045.4 49.24z" fill="#14355d" fill-rule="evenodd"/></svg>