<svg xmlns="http://www.w3.org/2000/svg" width="69" height="64"><path data-name="Forma 1" d="M22.6 9.074c.014-.471.057-1.9 1.157-2.312s2.143.638 2.343.847a.891.891 0 01-.044 1.268.915.915 0 01-1.279-.04 2.193 2.193 0 00-.308-.258 3.413 3.413 0 00-.054.547 2.845 2.845 0 001.658 2.824.9.9 0 01.586.765c.5 5.9 5.2 7.811 7.392 7.811s6.892-1.91 7.392-7.811a.9.9 0 01.586-.765 2.813 2.813 0 001.659-2.824 3.3 3.3 0 00-.054-.548 2.111 2.111 0 00-.308.258.915.915 0 01-1.281.036A.889.889 0 0142 7.609c.2-.212 1.262-1.251 2.341-.847 1.1.41 1.144 1.841 1.157 2.312a4.609 4.609 0 01-2.3 4.294 9.775 9.775 0 01-9.147 8.953 9.777 9.777 0 01-9.151-8.953 4.611 4.611 0 01-2.3-4.294zm11.45 16.679s1.928-.421 1.928-2.122h-3.856c-.001 1.701 1.928 2.122 1.928 2.122zM34 42.493l3.768-3.026c-.4-1.945-2.2-13.525-2.326-13.715a3.39 3.39 0 01-1.391.575 3.4 3.4 0 01-1.39-.575c-.131.19-1.93 11.771-2.326 13.715zm6.38-33.548a.687.687 0 01.485.2.669.669 0 01.2.484c-.012.621-.12 2.71-1.046 3.455a4.009 4.009 0 01-2.41.771 2.7 2.7 0 01-2.024-.756 6.016 6.016 0 01-.991-2.444h-1.08a6.025 6.025 0 01-.991 2.444 2.7 2.7 0 01-2.025.756 4 4 0 01-2.409-.771c-.927-.744-1.036-2.832-1.047-3.455a.671.671 0 01.2-.484.689.689 0 01.485-.2h5.3a.681.681 0 01.516.235.624.624 0 01.072.132h.88a.616.616 0 01.072-.132.683.683 0 01.516-.235h5.3zM32.2 10.29h-3.756a3.482 3.482 0 00.5 1.752 2.506 2.506 0 002.572.152 5.488 5.488 0 00.684-1.904zm7.455 0H35.9a5.5 5.5 0 00.684 1.9 2.508 2.508 0 002.573-.152 3.553 3.553 0 00.499-1.748zm1.673-4.49a.9.9 0 00.837.96h.068a.9.9 0 00.9-.832 4.566 4.566 0 00-1.8-4.209.906.906 0 00-1.242.257.894.894 0 00.243 1.239 2.83 2.83 0 01.994 2.585zM26.476 7.137a.9.9 0 00.907-.9c0-4.233 3.45-4.438 3.826-4.446h7.764A.9.9 0 0039.88.9a.9.9 0 00-.907-.9H31.2c-1.946.025-5.627 1.364-5.627 6.24a.9.9 0 00.903.897zM9.347 40.527a9.778 9.778 0 009.148 8.954 9.776 9.776 0 009.147-8.954 4.6 4.6 0 002.3-4.294c-.015-.47-.057-1.9-1.157-2.312-1.079-.4-2.14.634-2.341.847a.888.888 0 00.042 1.263A.915.915 0 0027.77 36a2.115 2.115 0 01.308-.259 3.4 3.4 0 01.054.548 2.816 2.816 0 01-1.659 2.825.9.9 0 00-.586.765c-.5 5.9-5.2 7.81-7.392 7.81S11.6 45.776 11.1 39.875a.9.9 0 00-.586-.765 2.847 2.847 0 01-1.658-2.825 3.289 3.289 0 01.054-.547 2.124 2.124 0 01.3.256.915.915 0 001.282.043.89.89 0 00.043-1.267c-.2-.213-1.255-1.254-2.34-.847-1.1.411-1.144 1.841-1.157 2.311a4.6 4.6 0 002.309 4.293zm7.192 10.264a2.376 2.376 0 001.9 2.122 2.376 2.376 0 001.9-2.122h-3.8zm-.939-.381a.91.91 0 00-1.206-.43l-1.972.916-.179-3.231a.907.907 0 00-1.81.1l.038.694C8.146 49.329 0 53.1 0 63.1a.9.9 0 00.907.9.9.9 0 00.907-.9 13.489 13.489 0 018.765-12.77l.111 1.99a.9.9 0 00.44.72.917.917 0 00.851.043L15.17 51.6a.892.892 0 00.43-1.19zm4.8-25.882a.906.906 0 00.666-.288 13.759 13.759 0 015.669-3.673.9.9 0 00.57-1.137.908.908 0 00-1.149-.564 15.586 15.586 0 00-6.422 4.156.89.89 0 00.051 1.268.911.911 0 00.624.238zM7.949 60.394a.9.9 0 00-.907.9V63.1a.907.907 0 001.814 0v-1.81a.9.9 0 00-.907-.896zm21.092 0a.9.9 0 00-.907.9V63.1a.907.907 0 001.814 0v-1.81a.9.9 0 00-.908-.896zm-2.63-11.937l.038-.694a.907.907 0 00-1.81-.1L24.46 50.9l-1.972-.916a.91.91 0 00-1.206.43.892.892 0 00.435 1.193l3.189 1.481a.926.926 0 00.386.085.906.906 0 00.465-.127.891.891 0 00.44-.72l.111-1.99A13.488 13.488 0 0135.072 63.1a.907.907 0 001.814 0c0-10-8.147-13.771-10.475-14.643zM10.32 33.336a.894.894 0 00.136.01.9.9 0 00.9-.763 4.825 4.825 0 011.044-2.378.889.889 0 00-.121-1.262.915.915 0 00-1.279.119 6.608 6.608 0 00-1.445 3.254.9.9 0 00.765 1.02zm3.415-3.94h7.421c.373.004 3.644.204 3.644 4.223a.907.907 0 001.814 0c0-4.7-3.552-5.993-5.442-6.017h-7.436a.9.9 0 100 1.798zm.72-2.483h7.332c.189 0 4.622.019 5.148 4.461a.9.9 0 00.9.793.98.98 0 00.106-.006.9.9 0 00.8-.995 6.769 6.769 0 00-6.96-6.046h-7.325a.9.9 0 100 1.793zm24.725 25.67a.9.9 0 00-.907.9v9.586a.907.907 0 001.814 0v-9.59a.9.9 0 00-.907-.896zm22.754 0a.9.9 0 00-.907.9v9.586a.907.907 0 001.814 0v-9.59a.9.9 0 00-.907-.896zM50.608 15.465a10.186 10.186 0 019.83 8.34 1.464 1.464 0 01.462.085c1.1.41 1.147 1.84 1.16 2.31a4.61 4.61 0 01-2.3 4.295 9.778 9.778 0 01-9.148 8.953 9.778 9.778 0 01-9.15-8.948 4.608 4.608 0 01-2.3-4.295c.014-.47.057-1.9 1.157-2.312a1.443 1.443 0 01.462-.085 10.187 10.187 0 019.827-8.343zm-8.115 9.112c.072.067.133.127.166.16A.891.891 0 0142.615 26a.914.914 0 01-1.282-.042 2.137 2.137 0 00-.306-.257 3.425 3.425 0 00-.054.549 2.843 2.843 0 001.658 2.824.9.9 0 01.586.766c.5 5.9 5.2 7.81 7.392 7.81S57.5 35.745 58 29.845a.9.9 0 01.586-.766 2.814 2.814 0 001.658-2.824 3.255 3.255 0 00-.054-.546 2.146 2.146 0 00-.307.258A.917.917 0 0158.6 26a.889.889 0 01-.042-1.264c.032-.033.093-.093.166-.16a8.368 8.368 0 00-8.116-7.317 8.366 8.366 0 00-8.116 7.318zm2.153 5.446a4.816 4.816 0 01-.967-3.375.676.676 0 01.677-.606h12.51a.676.676 0 01.677.607 4.814 4.814 0 01-.968 3.374 3.533 3.533 0 01-4.908-.016 3.216 3.216 0 01-.517-.807h-1.081a3.006 3.006 0 01-2.986 1.81 3.16 3.16 0 01-2.438-.987zm6.121-2.172a5.642 5.642 0 01-.04-.464h-.234c-.006.141-.019.3-.041.464h.314zm1.321-.463a2.86 2.86 0 00.6 1.728 1.847 1.847 0 001.452.545 1.826 1.826 0 001.427-.537 2.913 2.913 0 00.623-1.736h-4.1zm-7.053 0a2.9 2.9 0 00.622 1.736 2.183 2.183 0 002.882-.011 2.872 2.872 0 00.593-1.724h-4.1zM69 53.07v10.022a.907.907 0 01-1.814 0V53.07a13.249 13.249 0 00-4.875-10.67c-4.1 4.226-8.037 6.372-11.7 6.372-3.693 0-7.662-2.179-11.8-6.471a12.994 12.994 0 00-4.693 8.353.907.907 0 01-1.8-.238A14.956 14.956 0 0142.58 38.222a.915.915 0 01.98.27c.04.043 3.662 4.208 7.05 4.208s6.9-4.157 6.939-4.2a.914.914 0 01.961-.286C58.613 38.247 69 41.47 69 53.07zm-8.171-11.745a14.591 14.591 0 00-2.312-1.2c-1.152 1.233-4.427 4.375-7.908 4.375s-6.841-3.155-8.007-4.374a13.71 13.71 0 00-2.293 1.124c3.709 3.8 7.174 5.735 10.3 5.735 3.103-.005 6.542-1.92 10.22-5.66zM16 58.568l5.3 2.5c-.159-.907-.344-1.964-.531-3.022l-4.289-2.178c-.147.839-.313 1.775-.48 2.7zm1.066-5.656a10.487 10.487 0 00-.241 1.11l3.55 1.805c-.29-1.6-.526-2.842-.576-2.914a3.288 3.288 0 01-1.367.574 3.3 3.3 0 01-1.363-.574zM15.21 63.1h6.2l-5.729-2.7c-.204 1.168-.381 2.168-.471 2.7zm3.39-26.538V40.8h-1.116a.9.9 0 100 1.793h2.022a.9.9 0 00.907-.9v-5.131a.907.907 0 00-1.813 0z" fill="#14355d" fill-rule="evenodd"/></svg>