<svg xmlns="http://www.w3.org/2000/svg" width="82.031" height="63"><path data-name="Forma 1" d="M4.214 34.238H6.7a4.228 4.228 0 014.218 4.23v5.358h13.66v-8.519c-4.98-1.612-8.137-8.288-8.137-17.5 0-9.909 3.646-16.891 9.289-17.788A1.387 1.387 0 0125.947 0h54.639a1.367 1.367 0 011.341 1.118 8.424 8.424 0 01-1.7 6.456C78.676 9.45 76.242 10.543 73 10.853a31.989 31.989 0 01.754 6.951c0 9.984-4.2 17.8-9.562 17.8H35.509v17.76a4.153 4.153 0 01-4.143 4.153h-2.643a4.138 4.138 0 01-3.879-2.739H10.921v3.988A4.228 4.228 0 016.7 63H4.212a4.228 4.228 0 01-4.218-4.231v-20.3a4.23 4.23 0 014.22-4.231zm21.85-31.5c-3.274.6-6.54 5.046-6.854 13.7h28.029l5.061-5.081a1.36 1.36 0 01.966-.4h10.115l.04-.057c.139-.224.3-.451.464-.678.092-.124.194-.247.294-.371.045-.056.087-.112.134-.168s.111-.129.168-.193.109-.136.171-.2c.023-.026.053-.044.079-.069q.23-.248.481-.5a20.418 20.418 0 011.956-1.693c.119-.092.236-.184.359-.276a45.358 45.358 0 016.619-4.011H26.063zM62.83 15.976a10.407 10.407 0 001.37 5.578 10.413 10.413 0 001.366-5.578 13.23 13.23 0 00-.287-2.812.142.142 0 01-.023.019 1.354 1.354 0 01-.413.337 1.073 1.073 0 01-.1.047 1.35 1.35 0 01-.541.126h-1.185a13.647 13.647 0 00-.187 2.283zM78.111 5.847a5.049 5.049 0 001.081-2.428 63.025 63.025 0 00-7.313 3.72c.134.337.257.686.377 1.039 2.736-.178 4.702-.957 5.855-2.331zM71.025 17.8a27.144 27.144 0 00-1.484-9.136l-.082.057a20.139 20.139 0 00-2.153 1.784 14.491 14.491 0 01.988 5.468c0 4.621-1.915 8.673-4.1 8.673s-4.1-4.052-4.1-8.673a16.429 16.429 0 01.169-2.283h-2.617a30.49 30.49 0 00-.279 4.109c0 8.484 3.672 15.065 6.83 15.065 3.228.004 6.828-6.183 6.828-15.064zM59.178 32.868c-.038-.045-.072-.1-.111-.149a13.145 13.145 0 01-.757-1.016c-.041-.061-.083-.112-.124-.175-.28-.428-.545-.89-.8-1.373-.068-.129-.13-.267-.2-.4a24.384 24.384 0 01-.518-1.155q-.107-.254-.209-.515A27.376 27.376 0 0156 26.8c-.046-.145-.1-.284-.142-.432a26.947 26.947 0 01-.483-1.818c-.029-.125-.049-.254-.077-.378q-.162-.762-.288-1.555c-.033-.213-.062-.425-.092-.64a31.948 31.948 0 01-.16-1.453c-.018-.209-.04-.415-.053-.626a30.866 30.866 0 01-.077-2.1v-4.103h-.8l-5.063 5.077a1.365 1.365 0 01-.966.4H19.206c.314 8.652 3.58 13.1 6.855 13.7h33.117zM28.724 54.781h2.643a1.414 1.414 0 001.411-1.414v-17.76h-5.463v17.76a1.414 1.414 0 001.409 1.414zm-4.142-2.739v-5.478H10.923v5.478h13.66zM2.727 58.768a1.49 1.49 0 001.486 1.491H6.7a1.49 1.49 0 001.49-1.491v-20.3a1.489 1.489 0 00-1.49-1.492H4.214a1.489 1.489 0 00-1.486 1.49v20.3zm35.515-32.747a1.37 1.37 0 101.366 1.37 1.368 1.368 0 00-1.366-1.37zm5.464 0a1.37 1.37 0 101.366 1.37 1.368 1.368 0 00-1.366-1.37zm5.464 0a1.37 1.37 0 101.366 1.37 1.367 1.367 0 00-1.366-1.37z" fill="#14355d" fill-rule="evenodd"/></svg>