<svg xmlns="http://www.w3.org/2000/svg" width="64" height="64"><path d="M16.989 57.754a5.333 5.333 0 00-10.045-1.432 4.544 4.544 0 00-.544-.332V38.4a1.067 1.067 0 00-2.133 0v17.066a4.267 4.267 0 000 8.534H16a3.2 3.2 0 00.989-6.246zM16 61.865H4.267a2.134 2.134 0 010-4.267 2.319 2.319 0 012.2 1.44 1.067 1.067 0 002.066-.373 3.2 3.2 0 016.4 0A1.066 1.066 0 0016 59.732a1.067 1.067 0 010 2.133zM62.933 8.533H42.667a1.066 1.066 0 100 2.133h19.2V33.69L32.754 4.579a1.073 1.073 0 00-1.515 0L2.133 33.69V10.665h11.734A1.067 1.067 0 0014.933 9.6V5.333a1.067 1.067 0 00-1.067-1.067H12.8V2.132h6.4v2.134h-1.067a1.067 1.067 0 00-1.067 1.067V9.6a1.067 1.067 0 001.067 1.066h3.2a1.066 1.066 0 100-2.133H19.2V6.4h1.067a1.067 1.067 0 001.067-1.066V1.066A1.067 1.067 0 0020.267 0h-8.534a1.067 1.067 0 00-1.067 1.067v4.265A1.067 1.067 0 0011.733 6.4H12.8v2.133H1.067A1.067 1.067 0 000 9.6v26.666a1.067 1.067 0 001.821.754L32 6.837l30.179 30.182A1.066 1.066 0 0064 36.266V9.6a1.067 1.067 0 00-1.067-1.067zm-3.2 46.933V38.4a1.067 1.067 0 00-2.133 0v17.59a4.557 4.557 0 00-.544.331 5.333 5.333 0 00-10.045 1.432A3.208 3.208 0 0044.8 60.8a3.13 3.13 0 00.2 1.066H26.667a1.066 1.066 0 100 2.133h33.066a4.266 4.266 0 100-8.533zm0 6.4H48a1.067 1.067 0 010-2.134 1.066 1.066 0 001.067-1.066 3.2 3.2 0 016.4 0 1.067 1.067 0 002.066.373 2.319 2.319 0 012.2-1.44 2.133 2.133 0 110 4.266zM36.267 21.332A4.267 4.267 0 1032 25.6a4.271 4.271 0 004.267-4.268zm-6.4 0A2.133 2.133 0 1132 23.465a2.136 2.136 0 01-2.133-2.133zm22.4 14.934h-8.534a1.067 1.067 0 00-1.066 1.066v11.734H41.6a1.066 1.066 0 100 2.133h12.8a1.066 1.066 0 100-2.133h-1.067V37.332a1.067 1.067 0 00-1.066-1.066zm-1.067 12.8h-6.4V44.8h6.4v4.267zm0-6.4h-6.4V38.4h6.4v4.267zm-8.533 16A1.068 1.068 0 0041.6 57.6h-3.2V37.332a1.067 1.067 0 00-1.067-1.066H26.667a1.067 1.067 0 00-1.067 1.066V57.6h-3.2a1.068 1.068 0 00-1.067 1.067v4.267a1.067 1.067 0 002.133 0v-3.2H41.6a1.066 1.066 0 001.067-1.069zm-6.4-11.733H35.2a1.067 1.067 0 000 2.134h1.067V57.6h-8.534V38.4h8.533v8.534zm-16-10.667h-8.534a1.067 1.067 0 00-1.067 1.066v11.734H9.6a1.066 1.066 0 100 2.133h12.8a1.066 1.066 0 100-2.133h-1.067V37.332a1.067 1.067 0 00-1.066-1.066zm-1.067 12.8h-6.4V44.8h6.4v4.267zm0-6.4h-6.4V38.4h6.4v4.267z" fill="#14355d" fill-rule="evenodd"/></svg>