<svg xmlns="http://www.w3.org/2000/svg" width="55" height="64"><path data-name="Forma 1" d="M16.64 43.719a10.453 10.453 0 00-5.768-19.092A10.453 10.453 0 005.1 43.719 7.1 7.1 0 000 50.543v12.429A1.02 1.02 0 001.017 64h19.711a1.02 1.02 0 001.017-1.026V50.543a7.1 7.1 0 00-5.105-6.824zm-3.424 3.2L11.982 45.5h2.469zM9.276 45.5l2.45 2.818-2.293 1.724L8.327 45.5h.949zm7.492.448c.129.059.256.123.379.193l-.362 3.742-2.078-1.565zM2.569 35.062a8.3 8.3 0 118.3 8.384 8.353 8.353 0 01-8.3-8.384zm-.536 15.481a5.038 5.038 0 014.215-4.982l1.576 6.476a1.015 1.015 0 00.987.781 1.008 1.008 0 00.608-.2L12.2 50.52v11.427H7.052V51.772a1.017 1.017 0 10-2.033 0v10.175H2.033v-11.4zm17.679 11.4h-5.479V50.52l2.781 2.094a1.007 1.007 0 001.019.116 1.027 1.027 0 00.6-.84l.379-3.918a5.048 5.048 0 01.7 2.571v11.4zM16.5 53.426a1.012 1.012 0 00-1.918.119A1.041 1.041 0 0015 54.673a1.021 1.021 0 001.178-.036 1.039 1.039 0 00.325-1.211c-.025-.062.027.061-.003 0zm-5.991-20.273a1.012 1.012 0 00-1.877 0 1.042 1.042 0 00.278 1.172 1.018 1.018 0 001.2.086 1.038 1.038 0 00.4-1.258zm4.771.785a1.013 1.013 0 001.924-.144 1.044 1.044 0 00-.372-1.067 1.016 1.016 0 00-1.211-.012 1.04 1.04 0 00-.341 1.223zm26.22-9.969a1.014 1.014 0 001.036.031 1.027 1.027 0 00.528-.9v-2.384H44.1a3.177 3.177 0 003.158-3.189V6.8A3.176 3.176 0 0044.1 3.61H33.567v-.423A3.177 3.177 0 0030.409 0H11.753a3.177 3.177 0 00-3.158 3.187v10.729a3.176 3.176 0 003.158 3.184h1.034v2.389a1.027 1.027 0 00.528.9 1.007 1.007 0 001.035-.035l5.056-3.254h2.878v.424a3.177 3.177 0 003.158 3.189h11zm-22.39-8.917a1.015 1.015 0 00-.546.16l-3.744 2.409v-1.543a1.022 1.022 0 00-1.02-1.026h-2.047a1.131 1.131 0 01-1.125-1.136V3.187a1.131 1.131 0 011.125-1.135h18.656a1.131 1.131 0 011.125 1.135v.423h-6.092a3.165 3.165 0 00-2.981 2.137H14.7a1.026 1.026 0 000 2.053h7.58v1.717H14.7a1.026 1.026 0 000 2.052h7.58v3.483h-3.17zm5.207 2.476V6.8a1.131 1.131 0 011.125-1.136H44.1A1.131 1.131 0 0145.222 6.8v10.727a1.131 1.131 0 01-1.122 1.136h-2.053a1.021 1.021 0 00-1.017 1.026v1.543l-3.744-2.408a1 1 0 00-.546-.161h-11.3a1.131 1.131 0 01-1.123-1.136zm4.077-6.116h12.752a1.027 1.027 0 000-2.053H28.394a1.027 1.027 0 000 2.053zm13.769 2.741a1.021 1.021 0 00-1.017-1.025H28.394a1.026 1.026 0 000 2.052h12.752a1.021 1.021 0 001.016-1.027zM49.9 43.719a10.337 10.337 0 10-11.535 0 7.1 7.1 0 00-5.1 6.824v12.429A1.02 1.02 0 0034.272 64h19.711A1.02 1.02 0 0055 62.972V50.543a7.1 7.1 0 00-5.1-6.824zM47.752 45.5a4.262 4.262 0 01-7.249 0h7.249zM35.824 35.062a8.3 8.3 0 118.3 8.384 8.353 8.353 0 01-8.3-8.384zm-.536 15.481a5.051 5.051 0 013.1-4.667 6.3 6.3 0 0011.472 0 5.051 5.051 0 013.1 4.667v3.643h-3.554v-2.414a1.017 1.017 0 10-2.033 0v10.175H35.288v-11.4zm14.118 11.4v-5.704h3.561v5.707h-3.561zM44.49 33.938a1.014 1.014 0 001.925-.141 1.042 1.042 0 00-.421-1.106 1.023 1.023 0 00-1.284.127 1.052 1.052 0 00-.22 1.119c.026.063-.025-.062 0 .001zm-4.712-.594a1.076 1.076 0 00-.151-.369 1.019 1.019 0 10-.345 1.462 1.038 1.038 0 00.5-1.093c-.017-.066.009.067-.004 0zm4.55 3.718a.806.806 0 00-1.15 0 1.429 1.429 0 01-2.034 0 .806.806 0 00-1.15 0 .825.825 0 000 1.16 3.047 3.047 0 004.334 0 .826.826 0 00-.001-1.16z" fill="#14355d" fill-rule="evenodd"/></svg>