<svg xmlns="http://www.w3.org/2000/svg" width="64" height="64"><path d="M11.734 54.4a1.067 1.067 0 00.754-1.821l-8.594-8.59a6.132 6.132 0 01-1.761-4.524v-16a2.133 2.133 0 114.267 0v8.443a1.067 1.067 0 102.133 0v-8.442a4.267 4.267 0 00-8.533 0v16a8.241 8.241 0 002.446 6.088l8.534 8.532a1.061 1.061 0 00.754.314zm12.8 3.2H7.467A1.066 1.066 0 006.4 58.665v4.267a1.067 1.067 0 102.133 0v-3.2h14.934v3.2a1.067 1.067 0 102.133 0v-4.267a1.067 1.067 0 00-1.066-1.065zM6.465 38.378a4.377 4.377 0 001.314 2.909l5.333 5.333a1.066 1.066 0 101.508-1.507l-5.333-5.336a2.249 2.249 0 01-.69-1.486 1.922 1.922 0 011.963-1.963 2.252 2.252 0 011.487.693l7.516 7.513a6.247 6.247 0 011.772 4.533V54.4a1.067 1.067 0 002.133 0v-5.334a8.382 8.382 0 00-2.446-6.088l-7.467-7.466a4.37 4.37 0 00-2.908-1.312 4.053 4.053 0 00-4.182 4.178zm36.569 4.548a8.4 8.4 0 00-2.5 6.14V54.4a1.067 1.067 0 002.133 0v-5.334a6.257 6.257 0 011.821-4.58l7.466-7.466a2.255 2.255 0 011.488-.692 1.925 1.925 0 011.964 1.888 2.224 2.224 0 01-.693 1.563l-5.333 5.333a1.066 1.066 0 101.508 1.507l5.334-5.332a4.345 4.345 0 001.318-3.072 4.057 4.057 0 00-4.186-4.015 4.373 4.373 0 00-2.909 1.314zM51.2 11.732A11.735 11.735 0 0028.826 6.78a1.067 1.067 0 101.934.9 9.6 9.6 0 0118.306 4.05c0 6.261-6.371 16.214-17.066 22.246-10.7-6.031-17.066-15.982-17.066-22.244a9.606 9.606 0 0113.443-8.8 1.067 1.067 0 00.855-1.954A11.738 11.738 0 0012.8 11.732c0 6.887 6.549 17.781 18.69 24.4a1.065 1.065 0 001.022 0C44.65 29.513 51.2 18.621 51.2 11.732zm8.533 7.468a4.271 4.271 0 00-4.267 4.266v8.443a1.067 1.067 0 102.133 0v-8.443a2.133 2.133 0 114.267 0v16a6.138 6.138 0 01-1.821 4.579l-8.533 8.533a1.066 1.066 0 101.508 1.508l8.467-8.472A8.254 8.254 0 0064 39.466v-16a4.271 4.271 0 00-4.267-4.266zm-3.2 38.4H39.467a1.066 1.066 0 00-1.067 1.065v4.267a1.067 1.067 0 102.133 0v-3.2h14.933v3.2a1.067 1.067 0 102.133 0v-4.267a1.067 1.067 0 00-1.066-1.065zM41.252 6.7A5.39 5.39 0 0144.5 9.953a1.069 1.069 0 001 .711 1.052 1.052 0 00.357-.062 1.068 1.068 0 00.648-1.362 7.441 7.441 0 00-4.542-4.546 1.067 1.067 0 10-.711 2.006z" fill="#14355d" fill-rule="evenodd"/></svg>