<svg xmlns="http://www.w3.org/2000/svg" width="56" height="60" viewBox="0 0 56 60">
  <defs>
    <style>
      .cls-1 {
        fill: #0a9adc;
        fill-rule: evenodd;
      }
    </style>
  </defs>
  <path id="Forma_1" data-name="Forma 1" class="cls-1" d="M55.86,33.379l-3.669-7.341a1.342,1.342,0,0,0-1.726-.632l-3.731,1.589a2.662,2.662,0,0,0-5.005.653c-0.145.748-.241,1.569-0.333,2.364a11.631,11.631,0,0,1-.9,4.039,6.626,6.626,0,0,0-.893,3.2,10.3,10.3,0,0,1-7.9,2.711c-0.925-.139-2.163-0.394-3.474-0.665-0.986-.2-2.046-0.422-3.13-0.626a13.907,13.907,0,0,0-.18-14.264L24.04,22.979c0.076-.122.152-0.244,0.229-0.367A18.859,18.859,0,0,0,26.842,9.14a6.057,6.057,0,0,0-.18-0.689A12,12,0,0,0,15.779.117l-2.313-.108A12.014,12.014,0,0,0,1.873,7.248a16.425,16.425,0,0,0,.845,14.56A23.6,23.6,0,0,0,.048,32.251C-0.308,39.111,1.271,47.305,4.741,56.6c0.013,0.034.027,0.069,0.043,0.1a5.431,5.431,0,0,0,3.553,2.852A11.769,11.769,0,0,0,11.729,60a29.529,29.529,0,0,0,7.683-1.241,49.97,49.97,0,0,0,11.553-4.935c7.769-4.647,18.137-10.29,18.241-10.347a1.341,1.341,0,0,0,.441-0.386l6.1-8.327A1.334,1.334,0,0,0,55.86,33.379Zm-8.2,7.9c-1.675.915-10.952,6-18.073,10.257C23.333,55.275,13.616,58.366,9.117,57a2.876,2.876,0,0,1-1.887-1.39C0.656,37.96,2.569,28.49,4.506,24.205c0.268,0.337.529,0.681,0.775,1.032A1.338,1.338,0,0,0,7.475,23.7C7.048,23.1,6.587,22.5,6.1,21.936a9.7,9.7,0,0,1-.835-1.075A13.749,13.749,0,0,1,4.341,8.289a9.322,9.322,0,0,1,9-5.61l2.313,0.108A9.307,9.307,0,0,1,24.1,9.248a3.491,3.491,0,0,1,.1.376A16.2,16.2,0,0,1,22,21.2c-0.895,1.428-1.706,2.782-2.412,4.021a1.339,1.339,0,0,0,2.331,1.319q0.272-.48.567-0.98L22.633,25.8a11.237,11.237,0,0,1-.412,12.391,26.7,26.7,0,0,0-4.3-.307,1.336,1.336,0,1,0,.071,2.671,48.394,48.394,0,0,1,9.695,1.354C29.09,42.2,30.3,42.451,31.3,42.6a8.605,8.605,0,0,0,1.266.086,13.7,13.7,0,0,0,7.3-2.2,16.058,16.058,0,0,0,.493,1.923,1.339,1.339,0,0,0,2.543-.843,14.848,14.848,0,0,1-.54-2.469,5.84,5.84,0,0,1,.4-3.632,12.825,12.825,0,0,0,1.292-5.148c0.087-.746.169-1.452,0.287-2.08a19.713,19.713,0,0,1,.074,8.124,1.339,1.339,0,0,0,2.619.565c0.014-.066.13-0.609,0.243-1.454l2.539-1.933a1.337,1.337,0,1,0-1.626-2.124l-0.69.525a19.591,19.591,0,0,0-.153-2.3l3.007-1.28L53.1,33.843Z"/>
</svg>
