<svg xmlns="http://www.w3.org/2000/svg" width="61" height="50" viewBox="0 0 61 50">
  <defs>
    <style>
      .cls-1 {
        fill: #0a9adc;
        fill-rule: evenodd;
      }
    </style>
  </defs>
  <path class="cls-1" d="M56.816,8.2H41.876V5.312A5.082,5.082,0,0,0,37.076,0H24.924a5.082,5.082,0,0,0-4.8,5.314V8.2H4.184A4.43,4.43,0,0,0,0,12.828v32.54A4.429,4.429,0,0,0,4.184,50H56.816A4.429,4.429,0,0,0,61,45.368V12.828A4.429,4.429,0,0,0,56.816,8.2Zm-34.3-2.885a2.552,2.552,0,0,1,2.41-2.668H37.076a2.552,2.552,0,0,1,2.41,2.668V8.2H22.514V5.312Zm36.1,40.056a1.9,1.9,0,0,1-1.794,1.985H4.184A1.9,1.9,0,0,1,2.39,45.368V19.843l19.351,9.851a4.962,4.962,0,0,0,4.717,4.432h9.084a4.962,4.962,0,0,0,4.717-4.432l11.462-6.153a1.389,1.389,0,0,0,.554-1.768,1.146,1.146,0,0,0-1.6-.613L39.989,26.9a4.824,4.824,0,0,0-4.448-3.355H26.458A4.823,4.823,0,0,0,22.011,26.9L2.39,16.9V12.828a1.9,1.9,0,0,1,1.794-1.986H56.816a1.9,1.9,0,0,1,1.794,1.986v32.54h0ZM24.068,28.835a2.53,2.53,0,0,1,2.39-2.645h9.084a2.658,2.658,0,0,1,0,5.29H26.458A2.53,2.53,0,0,1,24.068,28.835Zm32.884-9.572a1.146,1.146,0,0,0-1.6-.613l-0.733.393a1.389,1.389,0,0,0-.554,1.768,1.19,1.19,0,0,0,1.076.746,1.088,1.088,0,0,0,.521-0.133L56.4,21.03A1.389,1.389,0,0,0,56.952,19.263Z"/>
</svg>
