<svg xmlns="http://www.w3.org/2000/svg" width="60" height="60" viewBox="0 0 60 60">
  <defs>
    <style>
      .cls-1 {
        fill: #0a9adc;
        fill-rule: evenodd;
      }
    </style>
  </defs>
  <path class="cls-1" d="M32.5,40H25a1.249,1.249,0,1,0,0,2.5h7.5A1.249,1.249,0,0,0,32.5,40ZM60,1.249A1.25,1.25,0,0,0,57.865.365L39.432,18.8A14.63,14.63,0,0,0,35,16.15V7.5h1.252V0h-15V7.5H22.5v8.65c-6.578,2.516-10,8.887-10,16.351V45.731L0.366,57.864a1.25,1.25,0,0,0,1.768,1.768L12.5,49.267V58.75A1.25,1.25,0,0,0,13.75,60h30A1.25,1.25,0,0,0,45,58.75V32.5a18.7,18.7,0,0,0-3.832-11.9L59.634,2.133A1.244,1.244,0,0,0,60,1.249ZM23.75,2.5h10V5h-10V2.5ZM17.185,23.74a12.062,12.062,0,0,1,6.208-5.256L25,17.87V7.5h7.5V17.87l1.606,0.614a12.172,12.172,0,0,1,3.554,2.084L30.732,27.5h-15.1A15.053,15.053,0,0,1,17.185,23.74ZM15,32.5a20.67,20.67,0,0,1,.15-2.5H28.232l-5,5H21.25a1.25,1.25,0,0,0-.437,2.42L15,43.23V32.5ZM42.5,55v2.5H15V50H42.5v5Zm0-22.5v15H15V46.767L24.268,37.5H36.251a1.251,1.251,0,0,0,0-2.5H26.768l5-5H42.349A20.671,20.671,0,0,1,42.5,32.5Zm-0.633-5h-7.6l5.122-5.121a13.113,13.113,0,0,1,.925,1.363A14.985,14.985,0,0,1,41.865,27.5Z"/>
</svg>
