<svg width="204" height="290" fill="none" xmlns="http://www.w3.org/2000/svg"><path d="M0 0h204v290H0z"/><path d="M62.49 227H30.81v-25.2h6.48v20.16h6.12V201.8h6.48v20.16h6.12V201.8h6.48V227zm20.7 0h-7.02l9.54-25.2h7.2l9.54 25.2h-7.02l-1.62-4.5h-9l-1.62 4.5zm3.24-9.18h5.76l-2.88-8.46-2.88 8.46zm51.66 9.18h-6.48v-10.26h-9V227h-6.48v-25.2h6.48v9.9h9v-9.9h6.48V227zm35.657-.36c-5.352.48-9.792.72-13.32.72-2.352 0-4.08-.552-5.184-1.656-1.104-1.104-1.656-2.832-1.656-5.184V209c0-2.52.564-4.344 1.692-5.472 1.152-1.152 2.988-1.728 5.508-1.728h12.96v5.04h-11.52c-1.44 0-2.16.72-2.16 2.16v11.52c0 .552.156.996.468 1.332.336.312.756.468 1.26.468h1.656l1.872-.072 1.944-.072a78.057 78.057 0 002.556-.144 611.52 611.52 0 013.924-.252v4.86z" fill="#000"/><circle cx="198.5" cy="215.5" r="5.5" fill="#57B1BD"/><circle cx="5.5" cy="215.5" r="5.5" fill="#57B1BD"/><path d="M15 0h172v172H15z"/><circle cx="101" cy="86" r="82.5" stroke="#000" stroke-width="7"/><path d="M19.115 5.76h162.947v162.125H19.115z"/><path d="M19.115 5.76h162.947v162.125H19.115z"/><path d="M19.115 5.76h162.947v162.125H19.115z"/><path d="M22.974 11.036H174.52v128.187H22.974z"/><path d="M133.301 61.326s-15.962.528-15.435 17.232c0 .176 15.786-.879 15.435-17.232zm11.576 22.859s-12.278-4.923-17.54 7.913c0 0 12.278 4.572 17.54-7.913zm-102.96 6.682s-10.349-8.264-18.943 2.638c0 0 10.524 7.737 18.943-2.638zm19.119 6.858s-9.297-9.495-19.12.176c0 .176 9.473 9.144 19.12-.176zm-7.718-63.302s-10.524 8.088-1.93 19.166c0-.176 9.998-8.44 1.93-19.166zm38.764-18.639s-9.998-8.792-19.12 1.582c0 0 10.174 8.44 19.12-1.582zm-37.536 99.173s-14.558-2.461-17.014 12.661c-.175 0 14.207 1.934 17.014-12.661zm102.785-78.952s-12.98 9.496-3.158 23.035c0 0 12.454-9.67 3.158-23.035zm-24.03 13.715s-14.383-7.209-21.925 7.738c0 0 14.383 6.858 21.925-7.737zm0-29.365s-14.909 5.979-8.77 21.629c.175 0 14.558-6.33 8.77-21.629zm-23.679 45.543s-14.208 7.385-6.666 22.332c.176 0 14.033-7.737 6.666-22.332zm-41.219 48.884s14.558 6.857 21.574-8.441c0 .176-14.559-6.154-21.575 8.441zm41.394-9.32s1.228 16.001 17.891 14.771c.175 0-1.579-15.826-17.891-14.771zm23.855 3.517s-3.859 15.65 12.278 19.694c0 0 3.332-15.65-12.278-19.694zm-58.234 30.244s15.436-4.22 11.05-20.573c-.175 0-15.26 4.748-11.05 20.573zm77.703-39.563s14.734 6.33 21.399-9.144c0 0-14.734-5.803-21.399 9.143zm5.262-18.64s15.962.176 16.137-16.704c0 0-15.786.351-16.137 16.704zm-91.91.704s7.893 14.067 22.451 5.802c0 0-8.244-13.715-22.45-5.802zM54.721 59.392s.877 16.001 17.716 15.122c0-.176-1.403-16.001-17.716-15.122zm-23.153-4.22s-6.314 14.77 9.297 21.276c0 0 5.612-14.77-9.297-21.276zM78.4 42.511S73.49 57.81 89.45 62.91c0 .176 4.386-15.123-11.05-20.398zM65.245 26.158s4.034 15.474 20.347 11.254c0 0-4.56-15.298-20.347-11.254zm36.308-15.122s-8.419 13.716 5.789 22.508c0 .175 8.068-13.716-5.789-22.508z" fill="#57B1BD"/><path d="M19.115 5.76h162.947v162.125H19.115z"/><path d="M116.813 5.76s8.77 25.146-10.699 42.73c-17.54 15.825-12.805 44.487-6.49 55.038 11.401 18.99 10.699 48.532-6.14 64.357" stroke="#000" stroke-width="5" stroke-miterlimit="10"/><path d="M107.341 167.709c-16.312-15.298-18.241-45.191-7.191-62.599.526-.879 1.228-1.934 1.754-2.989 1.754-3.693 8.77-14.77 30.169-21.98 25.959-8.792 36.308-22.86 39.29-36.399" stroke="#000" stroke-width="5" stroke-miterlimit="10"/><path d="M138.037 12.794s16.838 39.388-3.333 66.468m-32.449 22.156s15.084-8.089 31.572 0c16.488 8.088 31.221 12.484 48.235-1.759" stroke="#000" stroke-width="4" stroke-miterlimit="10"/><path d="M146.456 106.693s19.645 11.605 19.119 29.893M73.49 99.132s-15.962 7.737-13.857 27.607m68.932-27.431s18.066 1.582 25.258-14.771" stroke="#000" stroke-width="3" stroke-miterlimit="10"/><path d="M98.922 101.418s-15.084-8.089-31.572 0c-16.488 8.088-31.221 12.484-48.235-1.759m22.977-71.391S38.935 84.01 75.594 98.604" stroke="#000" stroke-width="4" stroke-miterlimit="10"/><path d="M20.76 66.66s11.05 18.206 35.389 16.323m27.689-57.704s20.346 4.748 20.522 24.97M61.737 37.94s6.315 27.782 32.45 34.464" stroke="#000" stroke-width="3" stroke-miterlimit="10"/></svg>