<svg xmlns="http://www.w3.org/2000/svg" width="60" height="60"><defs><linearGradient id="a" x1="30" y1="60" x2="30" gradientUnits="userSpaceOnUse"><stop offset="0" stop-color="#0093d8"/><stop offset="1" stop-color="#4ac7f4"/></linearGradient></defs><path d="M51.613 39.963l-21.249 3.6-6.035-5.872a1.079 1.079 0 00-.758-.306H12.857a1.056 1.056 0 00-1.072-1.043H0v2.085h6.429v14.6H0v2.085h11.786a1.056 1.056 0 001.072-1.043h2.961l11.455 5.574a3.574 3.574 0 003.33-.1l23.374-13.279a3.356 3.356 0 00.489-5.551 3.568 3.568 0 00-2.854-.75zM10.714 53.02H8.571v-14.6h2.143v14.6zM52.9 44.462L29.524 57.731a1.389 1.389 0 01-1.292.04l-11.681-5.683a1.1 1.1 0 00-.48-.11h-3.214V39.466h10.271l8.442 8.215a1.892 1.892 0 01.573 1.347 1.935 1.935 0 01-1.959 1.907 2 2 0 01-1.386-.557l-5.541-5.393-1.515 1.474 5.541 5.393a4.13 4.13 0 002.9 1.168 4.053 4.053 0 004.1-3.992 3.915 3.915 0 00-1.2-2.822l-.868-.844 19.761-3.345a1.378 1.378 0 011.108.291 1.3 1.3 0 01-.184 2.154zM60 7.146V5.06h-6.73a1.031 1.031 0 00-.77 0h-4.286c-.593 0-1.071 0-1.071 1.042h-2.962L32.726.368A3.57 3.57 0 0029.4.392L6.022 13.62a3.327 3.327 0 00-.49 5.519 3.552 3.552 0 002.252.8 3.678 3.678 0 00.6-.054l21.248-3.6 6.038 6.035a1.3 1.3 0 00.758.465h10.715a1.806 1.806 0 001.071 1.043H60v-2.086h-6.429V7.146H60zM36.872 20.7l-8.441-8.375a2.053 2.053 0 01-.574-1.429A1.984 1.984 0 0131.2 9.488l5.541 5.381 1.515-1.48L32.717 8a4.129 4.129 0 00-2.9-1.171 4.052 4.052 0 00-4.1 3.991 3.913 3.913 0 001.2 2.822l.867.844-19.763 3.34a1.38 1.38 0 01-1.109-.291 1.3 1.3 0 01.188-2.154L30.476 2.112a1.394 1.394 0 011.292-.04l11.681 5.844a1.427 1.427 0 00.48.272h3.214V20.7H36.872zM49.286 7.146h2.143v14.6h-2.143v-14.6zM30 24.92a4.725 4.725 0 00-6.168.122 4.023 4.023 0 000 5.981l5.429 5.029a1.093 1.093 0 001.477 0l5.429-5.029a4.023 4.023 0 000-5.982A4.724 4.724 0 0030 24.92zm4.691 4.592L30 33.856l-4.691-4.344a1.978 1.978 0 010-2.961 2.505 2.505 0 013.347 0l.6.559a1.094 1.094 0 001.478 0l.6-.559a2.51 2.51 0 013.348 0 1.977 1.977 0 01.009 2.96zm-17.123-7.6l-1.777-1.165a16.606 16.606 0 00-1.15 1.919l1.919.934a14.34 14.34 0 011.007-1.687zM13.216 33.5a16.255 16.255 0 00.615 2.14l2.02-.694a14.352 14.352 0 01-.538-1.873zm-.041-6.63l2.1.4a14.2 14.2 0 01.513-1.879l-2.03-.669a16.4 16.4 0 00-.583 2.148zm-.318 3.216q0 .608.045 1.207l2.136-.147Q15 30.618 15 30.083q0-.444.027-.883l-2.139-.128c-.02.336-.031.672-.031 1.014zm31.29-4.868a14.144 14.144 0 01.537 1.872l2.1-.423a16.688 16.688 0 00-.614-2.141zm-1.713 13.03l1.774 1.169A16.477 16.477 0 0045.36 37.5l-1.919-.929a14.164 14.164 0 01-1.007 1.677zm1.775-3.474l2.03.67a16.185 16.185 0 00.587-2.149l-2.1-.4a14.317 14.317 0 01-.517 1.879zm2.934-4.688c0-.409-.015-.816-.045-1.22l-2.136.152c.026.35.04.705.039 1.065q0 .442-.027.88l2.139.129q.029-.503.03-1.006z" fill="url(#a)"/></svg>