<svg xmlns="http://www.w3.org/2000/svg" width="58" height="60"><path data-name="Forma 1" class="cls-1" d="M57 57.987h-6.771v-2.061c0-4.72-1.247-8.365-3.706-10.829a10.912 10.912 0 00-7.229-3.149H34.3v-3.211a14.022 14.022 0 006.433-5.481 16.744 16.744 0 002.368-6.02 1.029 1.029 0 00.01-.144v-.216a3.516 3.516 0 001.794-1.076c1.411-1.578 1.329-4.065 1.228-5.062a2.616 2.616 0 00-.983-1.841 3.755 3.755 0 00-2.037-.7v-8.6c0-3.163-1.3-5.28-3.964-6.467a1.1 1.1 0 01-.749-.965 2.067 2.067 0 01.093-.794 1.011 1.011 0 00-.387-1.21.99.99 0 00-1.249.139c-1.424 1.456-2.845 1.483-5.926 1.4a42.866 42.866 0 00-7.8.361 8.9 8.9 0 00-7.44 5.747 12.306 12.306 0 00-.823 4.664v5.713a3.75 3.75 0 00-2.045.705 2.616 2.616 0 00-.983 1.841c-.1 1-.182 3.484 1.228 5.062a3.51 3.51 0 001.816 1.084v.211a1 1 0 00.01.144 16.745 16.745 0 002.368 6.02 14.024 14.024 0 006.438 5.485v3.211h-4.987a10.9 10.9 0 00-7.236 3.152c-2.459 2.465-3.706 6.11-3.706 10.829v2.062H1A1.005 1.005 0 001 60h56a1.005 1.005 0 000-2.013zm-8.766-2.062v2.062h-13.15V43.96h4.036v3.9a3.7 3.7 0 00-2.029 1.921 5.766 5.766 0 00-.533 1.758 1.044 1.044 0 00-.006.113v2.738a1 1 0 101.993 0v-2.673c.044-.291.34-1.892 1.572-2.043 1.231.152 1.528 1.748 1.572 2.043v2.671a1 1 0 101.993 0V51.65a1.044 1.044 0 00-.006-.113 5.766 5.766 0 00-.533-1.758 3.7 3.7 0 00-2.029-1.921v-3.616a8.838 8.838 0 014.005 2.282c2.068 2.076 3.117 5.237 3.117 9.402zM29 48.3a5.272 5.272 0 004.092-1.953v11.64h-8.249V46.259A5.274 5.274 0 0029 48.3zm15.151-27.361a4.959 4.959 0 01-.725 3.509 1.6 1.6 0 01-.313.27V20.21a1.667 1.667 0 01.815.273.593.593 0 01.223.456zM17.546 8.554a6.934 6.934 0 015.87-4.5 41.168 41.168 0 017.464-.341c2.253.058 4.049.1 5.669-.713a3.109 3.109 0 001.8 1.961c1.945.866 2.775 2.25 2.775 4.625v5.624a5.418 5.418 0 01-3.879-1.734 6.161 6.161 0 01-1.011-4.5 1.008 1.008 0 00-.563-1.1.99.99 0 00-1.2.291c-1.8 2.3-4.381 3.175-7.656 2.6a15.485 15.485 0 01-4.657-1.687.994.994 0 00-1.466.583 6.726 6.726 0 01-3.828 4.707v-1.975a10.2 10.2 0 01.682-3.841zm-3 15.894a4.96 4.96 0 01-.725-3.509.592.592 0 01.223-.456 1.687 1.687 0 01.838-.275v4.524a1.579 1.579 0 01-.332-.284zm4.43 7.781a15.128 15.128 0 01-2.1-5.22V16.486a8.189 8.189 0 005.334-5.117 17.357 17.357 0 004.2 1.367 9.743 9.743 0 007.827-1.548 6.98 6.98 0 001.458 3.56 7.363 7.363 0 005.424 2.484v9.776a15.122 15.122 0 01-2.1 5.22 12.152 12.152 0 01-9.927 5.656h-.185a12.153 12.153 0 01-9.927-5.655zm9.83 7.666h.379a16.822 16.822 0 003.119-.492v3.54a3.308 3.308 0 11-6.616 0V39.4a16.821 16.821 0 003.122.495zM18.326 49.94a1.766 1.766 0 11-1.75 1.767 1.76 1.76 0 011.75-1.767zm-8.562 5.986c0-9.079 5.051-11.271 7.565-11.8v3.937a3.743 3.743 0 101.993 0V43.96h3.528v14.027H9.764v-2.061zm12.162-38.4a1.2 1.2 0 11-1.189 1.2 1.2 1.2 0 011.189-1.199zm14.147 0a1.2 1.2 0 11-1.189 1.2 1.195 1.195 0 011.19-1.198zm-.9 13.64a1.011 1.011 0 00-.15-1.413.989.989 0 00-1.4.151c-.011.013-1.208 1.333-4.381 1.333a7.728 7.728 0 01-4.982-1.45.989.989 0 00-1.4.07 1.013 1.013 0 00.065 1.421 9.6 9.6 0 006.319 1.971c4.15.001 5.763-1.868 5.933-2.082zm-6.43-5.366h.514a2.406 2.406 0 002.392-2.414 1 1 0 10-1.993 0 .4.4 0 01-.4.4h-.513a.4.4 0 01-.4-.4 1 1 0 10-1.993 0 2.406 2.406 0 002.393 2.414zM18.326 51.08a.626.626 0 11-.62.627.623.623 0 01.62-.627z"/></svg>