<svg xmlns="http://www.w3.org/2000/svg" width="70" height="60"><path class="cls-1" d="M21 39.229a1.16 1.16 0 001.167-1.153v-8.4a2.294 2.294 0 001.167-1.987 2.333 2.333 0 00-4.667 0 2.294 2.294 0 001.167 1.987v8.4A1.16 1.16 0 0021 39.229zm-9.289-25.67a13.6 13.6 0 001.245 4.264c1.058 2.091 2.656 5.253 8.044 5.253s6.986-3.162 8.044-5.253a13.593 13.593 0 001.245-4.264 2.3 2.3 0 001.211-2.021V9.229a2.3 2.3 0 00-1.167-2v-.307a6.969 6.969 0 00-7-6.923h-4.666a6.969 6.969 0 00-7 6.923v.31a2.3 2.3 0 00-1.167 2v2.309a2.3 2.3 0 001.211 2.018zm1.122-4.33A1.159 1.159 0 0014 8.075V6.922a4.645 4.645 0 014.667-4.615h4.667A4.645 4.645 0 0128 6.922v1.153a1.159 1.159 0 001.167 1.154v2.309A1.16 1.16 0 0028 12.691a10.708 10.708 0 01-1.044 4.1c-1.214 2.4-2.285 3.978-5.956 3.978s-4.741-1.575-5.955-3.977A10.686 10.686 0 0114 12.691a1.16 1.16 0 00-1.167-1.153V9.229zm10.5 2.309H24.5a1.155 1.155 0 100-2.309h-1.167a1.155 1.155 0 100 2.309zm-5.833 0h1.167a1.155 1.155 0 100-2.309H17.5a1.155 1.155 0 100 2.309zM8.167 39.229A1.16 1.16 0 007 40.383v18.462a1.167 1.167 0 002.333 0V40.383a1.16 1.16 0 00-1.166-1.154zm53.744 0a1.161 1.161 0 00-1.167 1.15l-.077 18.462A1.16 1.16 0 0061.829 60 1.16 1.16 0 0063 58.849l.072-18.46a1.161 1.161 0 00-1.162-1.16zm-10.638-29.21a1.169 1.169 0 00-2.212 0 3.928 3.928 0 01-3.561 2.672 1.16 1.16 0 00-1.167 1.154v4.616c0 3.854 2.662 9.23 7 9.23s7-5.376 7-9.23v-4.616a1.16 1.16 0 00-1.167-1.154c-.05 0-5.016-.072-5.893-2.672zM56 18.461c0 3.135-2.081 6.922-4.667 6.922s-4.667-3.787-4.667-6.922v-3.6a6.352 6.352 0 003.589-2.21C51.89 14.264 54.5 14.769 56 14.928v3.533zm11.139 12.693C64.853 28.9 61.418 27.7 57.2 27.7a1.187 1.187 0 00-1.2 1.156c0 .235-.082 5.759-4.667 5.759s-4.665-5.523-4.667-5.758a1.167 1.167 0 00-2.333 0c0 2.579 1.26 7.279 5.833 7.968v5.863a1.167 1.167 0 002.333 0v-5.86c3.937-.6 5.42-4.158 5.755-6.786a10.917 10.917 0 017.236 2.746 7.361 7.361 0 012.176 5.288v18.461a1.167 1.167 0 002.333 0V38.076a9.641 9.641 0 00-2.86-6.922zm-33.306 8.075a1.16 1.16 0 00-1.167 1.154v18.462a1.167 1.167 0 002.333 0V40.383a1.16 1.16 0 00-1.166-1.154zM50.167 4.614H52.5c3.071 0 6.8 3.118 7 5.858l1.167 15a1.161 1.161 0 001.162 1.065h.091A1.159 1.159 0 0063 25.295l-1.167-15c-.312-4.228-5.476-7.992-9.33-7.992h-2.336c-4.247 0-8.954 4.022-9.33 7.988l-1.167 15a1.167 1.167 0 002.33.181l1.165-14.982c.257-2.746 3.988-5.876 7.002-5.876zM26.909 25.4a1.2 1.2 0 00-1.218.919L21 48.577l-4.691-22.26a1.223 1.223 0 00-1.22-.919C8.96 25.4 4.271 26.7 1.88 29.055A6.012 6.012 0 000 33.46v23.077a1.159 1.159 0 001.167 1.153 1.159 1.159 0 001.167-1.153V33.46a3.746 3.746 0 011.2-2.773c1.818-1.794 5.684-2.861 10.69-2.972l5.636 26.734a.064.064 0 010 .007v.009c.008.036.033.064.043.1a1.13 1.13 0 00.134.309 1.112 1.112 0 00.14.145 1.317 1.317 0 00.176.17 1.172 1.172 0 00.254.105.988.988 0 00.156.067h.007a1.128 1.128 0 00.231 0 1.139 1.139 0 00.232 0 .915.915 0 00.1-.044 1.525 1.525 0 00.624-.443 1.125 1.125 0 00.131-.3 1.055 1.055 0 00.045-.1v-.018a.055.055 0 010-.007l5.636-26.734c5.007.111 8.873 1.179 10.69 2.972a3.747 3.747 0 011.2 2.773v23.077a1.167 1.167 0 002.333 0V33.46a6.011 6.011 0 00-1.881-4.405C37.729 26.7 33.04 25.4 26.909 25.4z"/></svg>