<svg xmlns="http://www.w3.org/2000/svg" width="69.063" height="60"><path data-name="Forma 1" class="cls-1" d="M67.653 15.467L53.6 1.381a4.7 4.7 0 00-6.661 0l-3.3 3.31a4.7 4.7 0 00-1.1 1.747L27.087 3.664a12.894 12.894 0 00-15.136 10.109l-.713 3.543a7.224 7.224 0 1014.161 2.861l.432-2.167 6.929.607 18.1 18.135 3.279 3.287a1.705 1.705 0 01-2.408 2.415l-8.785-8.8a1.569 1.569 0 00-2.215 2.216l8.785 8.8a1.704 1.704 0 01-2.408 2.413l-8.785-8.8a1.569 1.569 0 00-2.216 2.22l8.785 8.805a1.711 1.711 0 010 2.413 1.7 1.7 0 01-2.409 0l-8.785-8.8a1.569 1.569 0 10-2.216 2.221l8.785 8.8a1.705 1.705 0 01-2.409 2.414L6.773 25.206l-4.1-4.114a1.569 1.569 0 10-2.216 2.22l4.1 4.114L9.024 31.9l-2.462 2.472a4.286 4.286 0 000 6.051l.8.8a4.235 4.235 0 002.592 1.233 4.256 4.256 0 001.229 2.6l.8.8a4.239 4.239 0 002.592 1.228 4.252 4.252 0 001.23 2.6l.8.805a4.233 4.233 0 002.592 1.232 4.247 4.247 0 001.229 2.6l.8.806a4.267 4.267 0 006.037 0l2.462-2.468 5.9 5.914a4.831 4.831 0 008.248-3.225 4.818 4.818 0 004.623-4.637 4.813 4.813 0 004.635-4.628 4.81 4.81 0 003.22-1.408 4.861 4.861 0 000-6.856l-2.171-2.177 7.951-7.962 5.525-5.537a4.733 4.733 0 00-.003-6.676zM8.777 38.2a1.14 1.14 0 010-1.609l2.309-2.314 2.409 2.413-2.309 2.314a1.135 1.135 0 01-1.605 0zm4.625 4.635a1.141 1.141 0 010-1.609l2.309-2.314 2.409 2.414-2.309 2.317a1.136 1.136 0 01-1.605 0zm4.629 4.636a1.139 1.139 0 010-1.609l2.3-2.313 2.409 2.413-2.309 2.315a1.134 1.134 0 01-1.605 0zm7.034 5.44a1.133 1.133 0 01-1.605 0l-.8-.8a1.14 1.14 0 010-1.609l2.309-2.315L27.37 50.6zm26.906-19.49L34.576 15.992a1.564 1.564 0 00-.971-.455l-8.893-.779h-.137a1.567 1.567 0 00-1.535 1.259l-.709 3.54a4.089 4.089 0 11-8.016-1.62l.713-3.543A9.754 9.754 0 0126.501 6.75l.03.006 15.23 2.732 1.875 1.879 15.168 15.2zm13.47-13.5l-4.417 4.427L45.852 9.147a1.584 1.584 0 010-2.235l3.3-3.31a1.575 1.575 0 012.23 0l14.055 14.084a1.584 1.584 0 010 2.236zm-3.793-2.065a1.571 1.571 0 11-1.567 1.57 1.569 1.569 0 011.563-1.569z"/></svg>