<svg xmlns="http://www.w3.org/2000/svg" width="56" height="60"><path class="cls-1" d="M34 20.984a1 1 0 001 1h10a1 1 0 000-2H35a1 1 0 00-1 1zm6 6a1 1 0 001 1h6a1 1 0 000-2h-6a1 1 0 00-1 1.003zm-1-11a1 1 0 000-2h-2a1 1 0 000 2h2zm-12 10a1 1 0 000 2h10a1 1 0 000-2H27zM32 54H13a3 3 0 01-3-3V4.978a1 1 0 00-1-1 5.006 5.006 0 00-5 5 1 1 0 002 0 3.007 3.007 0 012-2.83V51a5.006 5.006 0 005 5h19a1 1 0 100-2zM17 21.985h14a1 1 0 000-2H17a1 1 0 000 2zm0-6h4a1 1 0 000-2h-4a1 1 0 000 1.998zm16-2h-8a1 1 0 000 2h8a1 1 0 000-2.004zM47 0H9a9.013 9.013 0 00-9 8.97v.044a9.038 9.038 0 004.5 7.763 1 1 0 101-1.73A6.99 6.99 0 019 2h38a7.01 7.01 0 017 7v42.019a2.917 2.917 0 01-.409 1.471 1 1 0 00.355 1.368.988.988 0 00.506.139 1 1 0 00.863-.493A4.911 4.911 0 0056 51.019V9a9.011 9.011 0 00-9-9zm3 46a6 6 0 10-6 6 6.007 6.007 0 006-6.006zm-6 4a4 4 0 114-4 4 4 0 01-4 4zm-1.8 3a1 1 0 00-1.366.366L38.676 57.1l-.342-.516a.993.993 0 00-.774-.447l-.618-.037 2.189-3.8a1 1 0 00-1.733-1l-3 5.194a1 1 0 00.807 1.5l1.736.106.959 1.45a1 1 0 00.834.449h.031a1 1 0 00.836-.5l2.963-5.134A1 1 0 0042.195 53zm8.433-1.646a1 1 0 00-1.733 1l2.158 3.746-.618.037a1 1 0 00-.775.447l-.34.516-2.142-3.715a1 1 0 10-1.733 1L48.4 59.5a1 1 0 00.836.5h.031a1 1 0 00.833-.45l.96-1.45 1.732-.1a1 1 0 00.807-1.5zM17 27.987h6a1 1 0 000-2h-6a1 1 0 000 2zm0 6h12a1 1 0 000-2H17a1 1 0 000 2.002zm.106 12.452a1 1 0 101.788-.895c-.99-1.981-1.212-3.757-.6-4.754a1.845 1.845 0 011.7-.8.81.81 0 01.767.324c.745 1.073.037 4.346-.7 6.328a1 1 0 001.646 1.058c.427-.427.89-.851 1.293-1.2v.49a1 1 0 001.707.707 12.473 12.473 0 011.433-1.226 4.993 4.993 0 01-.036.073 1 1 0 00.9 1.446h4a1 1 0 000-2H28.4a1.934 1.934 0 00-.18-1.351 1.392 1.392 0 00-1.22-.646 3.893 3.893 0 00-2.009.843 1.154 1.154 0 00-.7-.957 1.37 1.37 0 00-1.446.247c.329-1.724.425-3.711-.433-4.949A2.776 2.776 0 0020 37.991a3.816 3.816 0 00-3.4 1.75c-1 1.615-.816 4.059.506 6.7zM44 32.988a1 1 0 00-1-1H33a1 1 0 000 2h10a1 1 0 001-1z"/></svg>