<svg xmlns="http://www.w3.org/2000/svg" width="60" height="60"><path class="cls-1" d="M21 40a5.9 5.9 0 01-1.653-1.5C17.714 36.708 15.246 34 11 34c-4.133 0-5 1.087-5 2a1 1 0 001.91.414A7.055 7.055 0 0111 36c3.362 0 5.307 2.134 6.868 3.85C18.962 41.05 19.826 42 21 42h13a1 1 0 000-2H21zm2.586-32.091A7.075 7.075 0 0124 11c0 3.363-2.135 5.306-3.851 6.868C18.948 18.961 18 19.825 18 21v13a1 1 0 002 0V21a5.894 5.894 0 011.5-1.653C23.29 17.713 26 15.245 26 11c0-4.131-1.088-5-2-5a1 1 0 00-.414 1.909zM0 19a1 1 0 001 1h4.854A5.127 5.127 0 016 21v10a1 1 0 102 0V21a15.053 15.053 0 00-.894-3.934A19.155 19.155 0 016 12V3a1 1 0 012 0 1 1 0 102 0 1 1 0 012 0 1 1 0 102 0 1 1 0 012 0 1 1 0 002 0 1 1 0 012 0v8a1 1 0 102 0V3a3 3 0 00-5-2.235 2.994 2.994 0 00-4 0 2.994 2.994 0 00-4 0A3 3 0 004 3v3H1a1 1 0 000 2h3v4a20.5 20.5 0 001.2 5.66c.036.115.07.226.1.34H1a1 1 0 00-1 1zm40.653 2.5C42.286 23.289 44.754 26 49 26c4.133 0 5-1.087 5-2a1 1 0 00-1.91-.414A7.07 7.07 0 0149 24c-3.362 0-5.307-2.135-6.868-3.85C41.038 18.948 40.174 18 39 18H26a1 1 0 000 2h13a5.906 5.906 0 011.653 1.5zM31 52H21a15 15 0 00-3.933.895A19.187 19.187 0 0112 54H3a1 1 0 110-2 1 1 0 100-2 1 1 0 110-2 1 1 0 000-2 1 1 0 110-2 1 1 0 100-2 1 1 0 010-2h8a1 1 0 100-2H3a3 3 0 00-2.234 5 2.994 2.994 0 000 4 2.993 2.993 0 000 4A3 3 0 003 56h3v3a1 1 0 002 0v-3h4a20.437 20.437 0 005.659-1.2l.341-.1V59a1 1 0 002 0v-4.855A5.081 5.081 0 0121 54h10a1 1 0 000-2zM59.234 9A3 3 0 0057 4h-3V1a1 1 0 10-2 0v3h-4a20.466 20.466 0 00-5.659 1.2L42 5.3V1a1 1 0 10-2 0v4.853A5.009 5.009 0 0139 6H29a1 1 0 000 2h10a15 15 0 003.933-.9A19.157 19.157 0 0148 6h9a1 1 0 110 2 1 1 0 100 2 1 1 0 110 2 1 1 0 100 2 1 1 0 010 2 1 1 0 100 2 1 1 0 110 2h-8a1 1 0 000 2h8a3 3 0 002.234-5 2.993 2.993 0 000-4 2.995 2.995 0 000-4zm-22.82 43.09A7.076 7.076 0 0136 49c0-3.362 2.135-5.306 3.851-6.868C41.052 41.037 42 40.173 42 39V26a1 1 0 00-2 0v13a5.917 5.917 0 01-1.5 1.653C36.71 42.284 34 44.752 34 49c0 4.132 1.088 5 2 5a1 1 0 00.414-1.911zM60 41a1 1 0 00-1-1h-4.854A5.12 5.12 0 0154 39V29a1 1 0 00-2 0v10a15.035 15.035 0 00.894 3.933A19.15 19.15 0 0154 48v9a1 1 0 01-2 0 1 1 0 00-2 0 1 1 0 01-2 0 1 1 0 00-2 0 1 1 0 01-2 0 1 1 0 00-2 0 1 1 0 01-2 0v-8a1 1 0 00-2 0v8a3 3 0 005 2.235 3 3 0 004 0 3 3 0 004 0A3 3 0 0056 57v-3h3a1 1 0 100-2h-3v-4a20.492 20.492 0 00-1.2-5.661l-.105-.34H59A1 1 0 0060 41z"/></svg>