<svg xmlns="http://www.w3.org/2000/svg" width="44" height="60"><path class="cls-1" d="M35.458 37.292a2.154 2.154 0 01.371-.65 5.173 5.173 0 011.855-.807c1.246-.387 2.661-.825 3.373-2.083.7-1.239.369-2.7.078-3.987a5.407 5.407 0 01-.239-2.086 5.235 5.235 0 011.181-1.6C42.978 25.1 44 23.984 44 22.5s-1.022-2.6-1.923-3.58a5.29 5.29 0 01-1.181-1.6 5.508 5.508 0 01.239-2.087c.291-1.287.623-2.748-.078-3.99-.711-1.258-2.124-1.7-3.373-2.081a5.146 5.146 0 01-1.853-.807 5.329 5.329 0 01-.789-1.895c-.376-1.275-.8-2.72-2.033-3.447s-2.642-.383-3.9-.083a5.149 5.149 0 01-2.038.245A5.24 5.24 0 0125.5 1.967C24.543 1.044 23.455 0 22 0s-2.537 1.045-3.5 1.968a5.275 5.275 0 01-1.567 1.209 5.087 5.087 0 01-2.033-.246c-1.264-.3-2.688-.637-3.9.08s-1.657 2.173-2.033 3.45a5.374 5.374 0 01-.789 1.9 5.16 5.16 0 01-1.855.807c-1.246.388-2.662.825-3.373 2.084-.7 1.239-.369 2.7-.078 3.987a5.4 5.4 0 01.24 2.085 5.218 5.218 0 01-1.18 1.6c-.9.983-1.923 2.1-1.923 3.58s1.022 2.6 1.923 3.579a5.292 5.292 0 011.18 1.6 5.511 5.511 0 01-.24 2.088c-.291 1.287-.623 2.748.078 3.99.711 1.258 2.124 1.695 3.373 2.081a5.158 5.158 0 011.853.807 2.131 2.131 0 01.371.647L.1 58.273a1.27 1.27 0 00.3 1.392 1.207 1.207 0 00.829.335 1.167 1.167 0 00.547-.134l9.141-4.675 6.743 4.6a1.209 1.209 0 001.821-.6l2.669-7.28 2.359 7.238a1.252 1.252 0 00.765.787 1.2 1.2 0 001.073-.142l6.743-4.6 9.141 4.675a1.184 1.184 0 00.548.133 1.208 1.208 0 00.831-.332 1.272 1.272 0 00.3-1.393zm-14.6 11.015l-3.126 8.525-6.051-4.125a1.2 1.2 0 00-1.225-.077L3.6 56.137 9.812 40.7A3.39 3.39 0 0011 41.985c1.22.723 2.644.383 3.9.083a5.046 5.046 0 012.038-.247 5.237 5.237 0 011.562 1.211c.345.33.714.662 1.1.97a1.408 1.408 0 00.017.142l1.315 4.038c-.019.046-.055.078-.073.125zM22 42.5a4.06 4.06 0 01-1.826-1.291 6.465 6.465 0 00-2.605-1.8 3.759 3.759 0 00-1-.127 9.85 9.85 0 00-2.222.353 4 4 0 01-2.126.19 4.2 4.2 0 01-.919-2.008 6.78 6.78 0 00-1.4-2.941 6.533 6.533 0 00-2.874-1.432 4.039 4.039 0 01-1.962-.944 4.365 4.365 0 01.188-2.175 7.013 7.013 0 00.22-3.3 6.7 6.7 0 00-1.762-2.666A4.152 4.152 0 012.449 22.5a4.164 4.164 0 011.264-1.867 6.657 6.657 0 001.762-2.666 7.007 7.007 0 00-.22-3.295 4.356 4.356 0 01-.189-2.172 4.046 4.046 0 011.967-.94 6.54 6.54 0 002.874-1.433 6.847 6.847 0 001.4-2.937 4.243 4.243 0 01.917-2.011 4.1 4.1 0 012.124.193 6.524 6.524 0 003.222.228 6.517 6.517 0 002.608-1.8A4.04 4.04 0 0122 2.5a4.056 4.056 0 011.826 1.29 6.47 6.47 0 002.605 1.8 6.514 6.514 0 003.219-.225 4.027 4.027 0 012.126-.19A4.2 4.2 0 0132.7 7.19a6.774 6.774 0 001.4 2.94 6.525 6.525 0 002.874 1.432 4.027 4.027 0 011.965.938 4.362 4.362 0 01-.188 2.175 7.017 7.017 0 00-.22 3.3 6.7 6.7 0 001.762 2.666 4.155 4.155 0 011.26 1.859 4.17 4.17 0 01-1.264 1.868 6.644 6.644 0 00-1.762 2.665 7.009 7.009 0 00.22 3.3 4.358 4.358 0 01.188 2.173 4.066 4.066 0 01-1.967.939 6.546 6.546 0 00-2.874 1.432 6.846 6.846 0 00-1.4 2.938 4.233 4.233 0 01-.917 2.009 4.072 4.072 0 01-2.124-.192 6.523 6.523 0 00-3.221-.225 6.508 6.508 0 00-2.608 1.8A4.042 4.042 0 0122 42.5zm11.547 10.132a1.2 1.2 0 00-1.224.078l-6 4.092-3.871-11.88a6.011 6.011 0 003.05-1.89 5.235 5.235 0 011.567-1.209 5.11 5.11 0 012.038.245c1.264.3 2.688.637 3.9-.081a3.37 3.37 0 001.185-1.287L40.4 56.141zM36.668 22.5A14.85 14.85 0 0022 7.5a14.85 14.85 0 00-14.664 15A14.849 14.849 0 0022 37.5a14.849 14.849 0 0014.668-15zM22 35A12.376 12.376 0 019.783 22.5 12.376 12.376 0 0122 10a12.376 12.376 0 0112.22 12.5A12.376 12.376 0 0122 35z"/></svg>