<svg xmlns="http://www.w3.org/2000/svg" width="60" height="60"><path class="cls-1" d="M15.927 54.145A5 5 0 006.51 52.8a4.157 4.157 0 00-.51-.307V36a1 1 0 10-2 0v16a4 4 0 100 8h11a3 3 0 00.927-5.855zM15 58H4a2 2 0 110-4 2.173 2.173 0 012.063 1.35A1 1 0 008 55a3 3 0 016 0 1 1 0 001 1 1 1 0 110 2zM59 8H40a1 1 0 100 2h18v21.585L30.707 4.292a1.006 1.006 0 00-1.42 0L2 31.584V10h11a1 1 0 001-1V5a1 1 0 00-1-1h-1V2h6v2h-1a1 1 0 00-1 1v4a1 1 0 001 1h3a1 1 0 100-2h-2V6h1a1 1 0 001-1V1a1 1 0 00-1-1h-8a1 1 0 00-1 1v4a1 1 0 001 1h1v2H1a1 1 0 00-1 1v25a1 1 0 001.707.707L30 6.409l28.3 28.3A1 1 0 0059 35a1 1 0 001-1V9a1 1 0 00-1-1zm-3 44V36a1 1 0 10-2 0v16.493a4.159 4.159 0 00-.51.308 5 5 0 00-9.417 1.344A3.006 3.006 0 0042 57a2.929 2.929 0 00.185 1H25a1 1 0 000 2h31a4 4 0 100-8zm0 6H45a1 1 0 110-2 1 1 0 001-1 3 3 0 116 0 1 1 0 001.937.349A2.173 2.173 0 0156 54a2 2 0 110 4zM34 20a4 4 0 10-4 4 4 4 0 004-4zm-6 0a2 2 0 112 2 2 2 0 01-2-2zm21 14h-8a1 1 0 00-1 1v11h-1a1 1 0 000 2h12a1 1 0 000-2h-1V35a1 1 0 00-1-1zm-1 12h-6v-4h6v4zm0-6h-6v-4h6v4zm-8 15a1 1 0 00-1-1h-3V35a1 1 0 00-1-1H25a1 1 0 00-1 1v19h-3a1 1 0 00-1 1v4a1 1 0 002 0v-3h17a1 1 0 001-1zm-6-11h-1a1 1 0 100 2h1v8h-8V36h8v8zM19 34h-8a1 1 0 00-1 1v11H9a1 1 0 000 2h12a1 1 0 000-2h-1V35a1 1 0 00-1-1zm-1 12h-6v-4h6v4zm0-6h-6v-4h6v4z"/></svg>