<svg xmlns="http://www.w3.org/2000/svg" width="87" height="64" viewBox="0 0 87 64">
  <defs>
    <style>
      .cls-1 {
        fill: #14355d;
        fill-rule: evenodd;
      }
    </style>
  </defs>
  <path class="cls-1" d="M60.437,30.627a1.782,1.782,0,0,0,2.514-.018c1.319-1.33,2.692-1.684,3.316-1.347,0.731,0.409.945,1.7,0.517,3.173A1.76,1.76,0,0,0,68,34.633a1.6,1.6,0,0,0,.5.071h0a1.79,1.79,0,0,0,1.711-1.259c0.927-3.172.054-6.025-2.211-7.266-2.211-1.223-5.188-.461-7.577,1.95A1.757,1.757,0,0,0,60.437,30.627Zm26.207-8.506h0a1.76,1.76,0,0,0-1.515-.71,41.308,41.308,0,0,1-22.142-5.263A39.861,39.861,0,0,1,47.743.906,1.792,1.792,0,0,0,46.335,0,1.767,1.767,0,0,0,44.8.657,45.512,45.512,0,0,0,39.578,8.35a51.434,51.434,0,0,0-4.885,11.4,43,43,0,0,1-10.8,3.066A40.652,40.652,0,0,1,2.532,20.188a1.792,1.792,0,0,0-1.64.124A1.811,1.811,0,0,0,.053,21.73,49.886,49.886,0,0,0,.481,31C2.3,43.21,8.04,53.932,15.831,59.675A20.585,20.585,0,0,0,28.043,64a18.5,18.5,0,0,0,2.621-.2C36.387,62.989,41.378,59.408,45,53.6a18.761,18.761,0,0,0,6.846,1.241,27.2,27.2,0,0,0,12.408-3.314c7.274-3.775,13.87-10.35,18.577-18.538a0.251,0.251,0,0,0,.036-0.07,75.66,75.66,0,0,0,4.047-9.145A1.822,1.822,0,0,0,86.643,22.121ZM43.054,49.8c-0.018.017-.018,0.035-0.036,0.053-0.107.195-.214,0.39-0.321,0.6-3.1,5.636-7.505,9.109-12.569,9.819h0c-4.065.6-8.272-.585-12.176-3.473C10.893,51.611,5.687,41.775,4.011,30.486a45.7,45.7,0,0,1-.446-6.114A44.906,44.906,0,0,0,24.406,26.3,46.472,46.472,0,0,0,37.8,22.209a40.627,40.627,0,0,0,7.363-4.5c0.071,0.266.16,0.549,0.232,0.816a0.4,0.4,0,0,1,.018.07,1.319,1.319,0,0,0,.071.249c0.018,0.07.036,0.123,0.054,0.194,0.018,0.035.018,0.089,0.035,0.124,0.018,0.106.054,0.213,0.071,0.319,0.428,1.718.731,3.349,0.963,4.767V24.3C47.868,33.711,46.584,42.962,43.054,49.8ZM79.708,31.265h0C71.329,45.834,56.924,54.039,46.691,50.441c0-.018.018-0.018,0.018-0.036a0.18,0.18,0,0,0,.036-0.088c0.053-.125.125-0.248,0.178-0.372,0.036-.089.071-0.16,0.107-0.247,0.071-.143.125-0.285,0.2-0.443,0.036-.088.089-0.2,0.125-0.284,0.053-.142.125-0.284,0.178-0.443a1.931,1.931,0,0,1,.125-0.284c0.071-.16.125-0.319,0.178-0.48a1.35,1.35,0,0,0,.089-0.247c0.071-.2.143-0.373,0.214-0.568l0.053-.159c0.089-.231.16-0.479,0.25-0.71V46.064c0.16-.5.321-0.993,0.464-1.507a18.049,18.049,0,0,0,6.668,1.277,16.117,16.117,0,0,0,8.557-2.34,1.751,1.751,0,0,0,.553-2.446,1.774,1.774,0,0,0-2.46-.549,13.623,13.623,0,0,1-12.462.568H49.74A52.11,52.11,0,0,0,50.114,23.8v-0.07c-0.089-.532-0.2-1.081-0.3-1.666a2.17,2.17,0,0,1,2.175.054c0.535,0.549.624,1.7,0.232,3.083a1.766,1.766,0,0,0,1.23,2.18,1.539,1.539,0,0,0,.481.07,1.768,1.768,0,0,0,1.712-1.294c0.767-2.711.374-5.015-1.123-6.521a5.356,5.356,0,0,0-5.473-1.062,45.019,45.019,0,0,0-1.337-4.467,1.765,1.765,0,0,0-1.23-1.116,1.943,1.943,0,0,0-.642-0.054c-0.053,0-.107.017-0.143,0.017a0.137,0.137,0,0,0-.071.017,1.815,1.815,0,0,0-.535.232c-0.018.017-.036,0.017-0.053,0.034a1.278,1.278,0,0,0-.178.143c-0.2.178-.392,0.337-0.588,0.5-0.16.124-.321,0.266-0.481,0.39a0.065,0.065,0,0,0-.036.036,41.018,41.018,0,0,1-4.564,3.172A53.57,53.57,0,0,1,42.68,10.1c0.018-.017.018-0.035,0.036-0.054a37.513,37.513,0,0,1,3.263-5.086A43.428,43.428,0,0,0,61.2,19.285,45.386,45.386,0,0,0,82.6,25.061C81.776,27.047,80.814,29.139,79.708,31.265ZM14.494,38.408a1.812,1.812,0,0,0,1.783-1.542c0.16-1.294.838-2.11,1.373-2.162a2.958,2.958,0,0,1,2.5,1.807,1.791,1.791,0,0,0,2.407.727,1.77,1.77,0,0,0,.731-2.393,6.387,6.387,0,0,0-5.954-3.687c-2.371.231-4.207,2.322-4.6,5.246a1.766,1.766,0,0,0,1.533,1.985,1,1,0,0,0,.232.018h0Zm16.063-1.932a1.2,1.2,0,0,0,.249.017h0a1.78,1.78,0,0,0,1.765-1.524,2.263,2.263,0,0,1,1.391-2.056c0.036,0,.089-0.017.125-0.017,0.785-.142,1.729.567,2.318,1.772a1.794,1.794,0,0,0,2.389.815,1.773,1.773,0,0,0,.82-2.375c-1.3-2.64-3.673-4.094-6.044-3.722-2.282.248-4.136,2.34-4.528,5.087A1.766,1.766,0,0,0,30.557,36.476Zm9.68,5.724a1.814,1.814,0,0,0-2.175,1.276,11.037,11.037,0,0,1-9.146,7.745A11.436,11.436,0,0,1,17.774,46.4a1.793,1.793,0,0,0-2.46-.567,1.77,1.77,0,0,0-.57,2.445,14.68,14.68,0,0,0,12.515,6.593,17.729,17.729,0,0,0,2.157-.142h0.053A14.6,14.6,0,0,0,41.521,44.363,1.8,1.8,0,0,0,40.237,42.2ZM27.259,54.871h0Z"/>
</svg>
