<svg xmlns="http://www.w3.org/2000/svg" width="64" height="64" viewBox="0 0 64 64">
  <defs>
    <style>
      .cls-1 {
        fill: #14355d;
        fill-rule: evenodd;
      }
    </style>
  </defs>
  <path class="cls-1" d="M61.085,17.246l-3.278-.505V4.128H32V0H25.806V4.128H0V45.419H11.03L5.868,64H14.2L16.5,55.741H41.309L43.6,64h8.335L46.777,45.419h11.03V24.547l3.278-.505A3.438,3.438,0,0,0,61.085,17.246ZM27.871,2.063h2.065V4.128H27.871V2.063ZM12.635,61.934H8.583l4.587-16.515h4.052Zm4.437-8.258,0.574-2.064H34.065V49.547H18.218l1.147-4.129H38.441l1.147,4.129H36.129v2.065h4.033l0.574,2.064H17.071Zm32.152,8.258H45.172L40.584,45.419h4.052Zm6.519-18.581H2.064V6.193H55.742v10.23l-2.448-.376a48.74,48.74,0,0,0-7.377-.564H19.824a17.071,17.071,0,0,0-6.4-1.031c-5.593,0-9.915,5.322-10.1,5.547l-0.515.646,0.515,0.645c0.182,0.226,4.5,5.549,10.1,5.549a17.081,17.081,0,0,0,6.4-1.032H45.917a48.718,48.718,0,0,0,7.377-.565l2.449-.376V43.353h0ZM18.581,17.225v6.838a16.518,16.518,0,0,1-5.161.71c-3.55,0-6.659-2.824-7.905-4.128,1.246-1.305,4.355-4.129,7.905-4.129A16.543,16.543,0,0,1,18.581,17.225ZM60.77,22L52.98,23.2a46.631,46.631,0,0,1-7.063.539H20.645V17.548H45.917a46.627,46.627,0,0,1,7.063.538l7.791,1.2A1.375,1.375,0,0,1,60.77,22ZM51.613,39.225h2.064v2.064H51.613V39.225Zm0-4.129h2.064v2.065H51.613V35.1Zm-4.129,4.129h2.064v2.064H47.484V39.225Zm-4.129,0h2.065v2.064H43.355V39.225ZM47.484,35.1h2.064v2.065H47.484V35.1Zm4.129-4.129h2.064v2.065H51.613V30.966Z"/>
</svg>
