<svg xmlns="http://www.w3.org/2000/svg" width="69" height="64" viewBox="0 0 69 64">
  <defs>
    <style>
      .cls-1 {
        fill: #14355d;
        fill-rule: evenodd;
      }
    </style>
  </defs>
  <path id="Forma_1" data-name="Forma 1" class="cls-1" d="M22.6,9.074c0.014-.471.057-1.9,1.157-2.312S25.9,7.4,26.1,7.609a0.891,0.891,0,0,1-.044,1.268,0.915,0.915,0,0,1-1.279-.04,2.193,2.193,0,0,0-.308-0.258,3.413,3.413,0,0,0-.054.547,2.845,2.845,0,0,0,1.658,2.824,0.9,0.9,0,0,1,.586.765c0.5,5.9,5.2,7.811,7.392,7.811s6.892-1.91,7.392-7.811a0.9,0.9,0,0,1,.586-0.765,2.813,2.813,0,0,0,1.659-2.824,3.3,3.3,0,0,0-.054-0.548,2.111,2.111,0,0,0-.308.258,0.915,0.915,0,0,1-1.281.036A0.889,0.889,0,0,1,42,7.609c0.2-.212,1.262-1.251,2.341-0.847,1.1,0.41,1.144,1.841,1.157,2.312a4.609,4.609,0,0,1-2.3,4.294,9.775,9.775,0,0,1-9.147,8.953A9.777,9.777,0,0,1,24.9,13.368,4.611,4.611,0,0,1,22.6,9.074ZM34.05,25.753s1.928-.421,1.928-2.122H32.122C32.121,25.332,34.05,25.753,34.05,25.753ZM34,42.493l3.768-3.026c-0.4-1.945-2.2-13.525-2.326-13.715a3.39,3.39,0,0,1-1.391.575,3.4,3.4,0,0,1-1.39-.575c-0.131.19-1.93,11.771-2.326,13.715ZM40.38,8.945a0.687,0.687,0,0,1,.485.2,0.669,0.669,0,0,1,.2.484c-0.012.621-.12,2.71-1.046,3.455a4.009,4.009,0,0,1-2.41.771,2.7,2.7,0,0,1-2.024-.756,6.016,6.016,0,0,1-.991-2.444H33.514a6.025,6.025,0,0,1-.991,2.444,2.7,2.7,0,0,1-2.025.756,4,4,0,0,1-2.409-.771c-0.927-.744-1.036-2.832-1.047-3.455a0.671,0.671,0,0,1,.2-0.484,0.689,0.689,0,0,1,.485-0.2h5.3a0.681,0.681,0,0,1,.516.235,0.624,0.624,0,0,1,.072.132h0.88a0.616,0.616,0,0,1,.072-0.132,0.683,0.683,0,0,1,.516-0.235h5.3ZM32.2,10.29H28.444a3.482,3.482,0,0,0,.5,1.752,2.506,2.506,0,0,0,2.572.152A5.488,5.488,0,0,0,32.2,10.29Zm7.455,0H35.9a5.5,5.5,0,0,0,.684,1.9,2.508,2.508,0,0,0,2.573-.152A3.553,3.553,0,0,0,39.656,10.29ZM41.328,5.8a0.9,0.9,0,0,0,.837.96c0.023,0,.045,0,0.068,0a0.9,0.9,0,0,0,.9-0.832,4.566,4.566,0,0,0-1.8-4.209,0.906,0.906,0,0,0-1.242.257,0.894,0.894,0,0,0,.243,1.239A2.83,2.83,0,0,1,41.328,5.8ZM26.476,7.137a0.9,0.9,0,0,0,.907-0.9c0-4.233,3.45-4.438,3.826-4.446h7.764A0.9,0.9,0,0,0,39.88.9,0.9,0.9,0,0,0,38.973,0H31.2c-1.946.025-5.627,1.364-5.627,6.24A0.9,0.9,0,0,0,26.476,7.137ZM9.347,40.527a9.778,9.778,0,0,0,9.148,8.954,9.776,9.776,0,0,0,9.147-8.954,4.6,4.6,0,0,0,2.3-4.294c-0.015-.47-0.057-1.9-1.157-2.312-1.079-.4-2.14.634-2.341,0.847a0.888,0.888,0,0,0,.042,1.263A0.915,0.915,0,0,0,27.77,36a2.115,2.115,0,0,1,.308-0.259,3.4,3.4,0,0,1,.054.548,2.816,2.816,0,0,1-1.659,2.825,0.9,0.9,0,0,0-.586.765c-0.5,5.9-5.2,7.81-7.392,7.81S11.6,45.776,11.1,39.875a0.9,0.9,0,0,0-.586-0.765,2.847,2.847,0,0,1-1.658-2.825,3.289,3.289,0,0,1,.054-0.547,2.124,2.124,0,0,1,.3.256,0.915,0.915,0,0,0,1.282.043,0.89,0.89,0,0,0,.043-1.267c-0.2-.213-1.255-1.254-2.34-0.847-1.1.411-1.144,1.841-1.157,2.311A4.6,4.6,0,0,0,9.347,40.527Zm7.192,10.264a2.376,2.376,0,0,0,1.9,2.122,2.376,2.376,0,0,0,1.9-2.122H16.539ZM15.6,50.41a0.91,0.91,0,0,0-1.206-.43l-1.972.916-0.179-3.231a0.907,0.907,0,0,0-1.81.1l0.038,0.694C8.146,49.329,0,53.1,0,63.1a0.9,0.9,0,0,0,.907.9,0.9,0.9,0,0,0,.907-0.9A13.489,13.489,0,0,1,10.579,50.33l0.111,1.99a0.9,0.9,0,0,0,.44.72,0.917,0.917,0,0,0,.851.043L15.17,51.6A0.892,0.892,0,0,0,15.6,50.41Zm4.8-25.882a0.906,0.906,0,0,0,.666-0.288,13.759,13.759,0,0,1,5.669-3.673,0.9,0.9,0,0,0,.57-1.137,0.908,0.908,0,0,0-1.149-.564,15.586,15.586,0,0,0-6.422,4.156,0.89,0.89,0,0,0,.051,1.268A0.911,0.911,0,0,0,20.409,24.528ZM7.949,60.394a0.9,0.9,0,0,0-.907.9V63.1a0.907,0.907,0,0,0,1.814,0v-1.81A0.9,0.9,0,0,0,7.949,60.394Zm21.092,0a0.9,0.9,0,0,0-.907.9V63.1a0.907,0.907,0,0,0,1.814,0v-1.81A0.9,0.9,0,0,0,29.04,60.394ZM26.411,48.457l0.038-.694a0.907,0.907,0,0,0-1.81-.1L24.46,50.9l-1.972-.916a0.91,0.91,0,0,0-1.206.43,0.892,0.892,0,0,0,.435,1.193l3.189,1.481a0.926,0.926,0,0,0,.386.085,0.906,0.906,0,0,0,.465-0.127,0.891,0.891,0,0,0,.44-0.72l0.111-1.99A13.488,13.488,0,0,1,35.072,63.1a0.907,0.907,0,0,0,1.814,0C36.886,53.1,28.739,49.329,26.411,48.457ZM10.32,33.336a0.894,0.894,0,0,0,.136.01,0.9,0.9,0,0,0,.9-0.763A4.825,4.825,0,0,1,12.4,30.205a0.889,0.889,0,0,0-.121-1.262A0.915,0.915,0,0,0,11,29.062a6.608,6.608,0,0,0-1.445,3.254A0.9,0.9,0,0,0,10.32,33.336Zm3.415-3.94h7.421C21.529,29.4,24.8,29.6,24.8,33.619a0.907,0.907,0,0,0,1.814,0c0-4.7-3.552-5.993-5.442-6.017H13.736A0.9,0.9,0,1,0,13.736,29.4Zm0.72-2.483h7.332c0.189,0,4.622.019,5.148,4.461a0.9,0.9,0,0,0,.9.793,0.98,0.98,0,0,0,.106-0.006,0.9,0.9,0,0,0,.8-0.995,6.769,6.769,0,0,0-6.96-6.046H14.456A0.9,0.9,0,1,0,14.456,26.913ZM39.18,52.583a0.9,0.9,0,0,0-.907.9v9.586a0.907,0.907,0,0,0,1.814,0V53.479A0.9,0.9,0,0,0,39.18,52.583Zm22.754,0a0.9,0.9,0,0,0-.907.9v9.586a0.907,0.907,0,0,0,1.814,0V53.479A0.9,0.9,0,0,0,61.934,52.583ZM50.608,15.465h0a10.186,10.186,0,0,1,9.83,8.34,1.464,1.464,0,0,1,.462.085C62,24.3,62.047,25.73,62.06,26.2a4.61,4.61,0,0,1-2.3,4.295,9.778,9.778,0,0,1-9.148,8.953A9.778,9.778,0,0,1,41.462,30.5a4.608,4.608,0,0,1-2.3-4.295c0.014-.47.057-1.9,1.157-2.312a1.443,1.443,0,0,1,.462-0.085A10.187,10.187,0,0,1,50.608,15.465Zm-8.115,9.112c0.072,0.067.133,0.127,0.166,0.16A0.891,0.891,0,0,1,42.615,26a0.914,0.914,0,0,1-1.282-.042,2.137,2.137,0,0,0-.306-0.257,3.425,3.425,0,0,0-.054.549,2.843,2.843,0,0,0,1.658,2.824,0.9,0.9,0,0,1,.586.766c0.5,5.9,5.2,7.81,7.392,7.81S57.5,35.745,58,29.845a0.9,0.9,0,0,1,.586-0.766,2.814,2.814,0,0,0,1.658-2.824,3.255,3.255,0,0,0-.054-0.546,2.146,2.146,0,0,0-.307.258A0.917,0.917,0,0,1,58.6,26a0.889,0.889,0,0,1-.042-1.264c0.032-.033.093-0.093,0.166-0.16a8.368,8.368,0,0,0-8.116-7.317h0A8.366,8.366,0,0,0,42.492,24.577Zm2.153,5.446a4.816,4.816,0,0,1-.967-3.375,0.676,0.676,0,0,1,.677-0.606h12.51a0.676,0.676,0,0,1,.677.607,4.814,4.814,0,0,1-.968,3.374,3.533,3.533,0,0,1-4.908-.016A3.216,3.216,0,0,1,51.15,29.2H50.069a3.006,3.006,0,0,1-2.986,1.81A3.16,3.16,0,0,1,44.645,30.023Zm6.121-2.172c-0.021-.167-0.034-0.322-0.04-0.464H50.493c-0.006.141-.019,0.3-0.041,0.464h0.314Zm1.321-.463a2.86,2.86,0,0,0,.6,1.728,1.847,1.847,0,0,0,1.452.545,1.826,1.826,0,0,0,1.427-.537,2.913,2.913,0,0,0,.623-1.736h-4.1Zm-7.053,0a2.9,2.9,0,0,0,.622,1.736,2.183,2.183,0,0,0,2.882-.011,2.872,2.872,0,0,0,.593-1.724h-4.1ZM69,53.07V63.092a0.907,0.907,0,0,1-1.814,0V53.07A13.249,13.249,0,0,0,62.311,42.4c-4.1,4.226-8.037,6.372-11.7,6.372-3.693,0-7.662-2.179-11.8-6.471a12.994,12.994,0,0,0-4.693,8.353,0.907,0.907,0,0,1-1.8-.238A14.956,14.956,0,0,1,42.58,38.222a0.915,0.915,0,0,1,.98.27C43.6,38.535,47.222,42.7,50.61,42.7s6.9-4.157,6.939-4.2a0.914,0.914,0,0,1,.961-0.286C58.613,38.247,69,41.47,69,53.07ZM60.829,41.325a14.591,14.591,0,0,0-2.312-1.2C57.365,41.358,54.09,44.5,50.609,44.5s-6.841-3.155-8.007-4.374a13.71,13.71,0,0,0-2.293,1.124c3.709,3.8,7.174,5.735,10.3,5.735C53.712,46.98,57.151,45.065,60.829,41.325ZM16,58.568l5.3,2.5c-0.159-.907-0.344-1.964-0.531-3.022l-4.289-2.178C16.333,56.707,16.167,57.643,16,58.568Zm1.066-5.656a10.487,10.487,0,0,0-.241,1.11l3.55,1.805c-0.29-1.6-.526-2.842-0.576-2.914a3.288,3.288,0,0,1-1.367.574A3.3,3.3,0,0,1,17.069,52.913ZM15.21,63.1h6.2l-5.729-2.7C15.477,61.568,15.3,62.568,15.21,63.1ZM18.6,36.562V40.8H17.484a0.9,0.9,0,1,0,0,1.793h2.022a0.9,0.9,0,0,0,.907-0.9V36.562A0.907,0.907,0,0,0,18.6,36.562Z"/>
</svg>
