<svg xmlns="http://www.w3.org/2000/svg" width="61" height="64" viewBox="0 0 61 64">
  <defs>
    <style>
      .cls-1 {
        fill: #14355d;
        fill-rule: evenodd;
      }
    </style>
  </defs>
  <path class="cls-1" d="M30.27,13.332a6.667,6.667,0,1,0-6.708-6.667A6.7,6.7,0,0,0,30.27,13.332Zm0-10.666a4,4,0,1,1-4.025,4A4.016,4.016,0,0,1,30.27,2.666ZM49.283,16a6.667,6.667,0,1,0-6.708-6.667A6.7,6.7,0,0,0,49.283,16Zm0-10.667a4,4,0,1,1-4.025,4A4.017,4.017,0,0,1,49.283,5.332ZM60.969,38.171l-1.72-13.663a6.7,6.7,0,0,0-6.655-5.84H45.97a6.671,6.671,0,0,0-2.235.392,1.334,1.334,0,1,0,.9,2.512,4.042,4.042,0,0,1,1.339-.236h6.625a4.021,4.021,0,0,1,3.993,3.5L58.307,38.5A1.334,1.334,0,0,1,56.976,40H55.992a1.336,1.336,0,0,0-1.339,1.238L53.4,58.668H45.165l-0.3-4.1a1.341,1.341,0,0,0-2.675.189L42.578,60.1a1.345,1.345,0,0,0,1.339,1.238H54.65A1.337,1.337,0,0,0,55.986,60.1L57.239,42.66a4.03,4.03,0,0,0,2.753-1.343A3.98,3.98,0,0,0,60.969,38.171Zm-18.41,10.9-1.945-9.789a4.4,4.4,0,0,0,1.935-4.2L40.775,22.476A7.08,7.08,0,0,0,33.935,16H27.082a7.072,7.072,0,0,0-6.84,6.443L18.461,35.117A4.371,4.371,0,0,0,20.4,39.284l-1.945,9.789a1.326,1.326,0,0,0,.279,1.1,1.344,1.344,0,0,0,1.036.488h4.562L26.5,62.9a1.342,1.342,0,0,0,1.32,1.1h5.367a1.352,1.352,0,0,0,1.328-1.1L36.68,50.668h4.562a1.342,1.342,0,0,0,1.036-.489A1.325,1.325,0,0,0,42.559,49.076Zm-4.792-10.3L39.6,48H35.545a1.338,1.338,0,0,0-1.32,1.1L32.06,61.333H28.944L26.771,49.1a1.337,1.337,0,0,0-1.32-1.1H21.4l1.833-9.223a1.333,1.333,0,0,0-.974-1.547,1.628,1.628,0,0,1-1.14-1.774L22.9,22.778a4.413,4.413,0,0,1,4.175-4.112h6.853A4.427,4.427,0,0,1,38.1,22.812L39.878,35.42a1.639,1.639,0,0,1-1.135,1.808A1.337,1.337,0,0,0,37.767,38.775Zm-20.2,14.56a1.331,1.331,0,0,0-1.433,1.234l-0.3,4.1H7.6l-1.25-17.43A1.341,1.341,0,0,0,5.01,40H4.025a1.326,1.326,0,0,1-1.006-.451A1.31,1.31,0,0,1,2.694,38.5l1.72-13.663a4.019,4.019,0,0,1,3.993-3.5h6.625a3.9,3.9,0,0,1,1.012.149,1.351,1.351,0,0,0,1.64-.952,1.335,1.335,0,0,0-.958-1.629,6.619,6.619,0,0,0-1.7-.235H8.407a6.7,6.7,0,0,0-6.655,5.84L0.032,38.169a3.99,3.99,0,0,0,.977,3.145,4.037,4.037,0,0,0,2.753,1.343L5.015,60.1a1.341,1.341,0,0,0,1.336,1.238H17.084a1.342,1.342,0,0,0,1.339-1.241l0.384-5.333A1.336,1.336,0,0,0,17.567,53.335ZM11.718,16A6.667,6.667,0,1,0,5.01,9.332,6.7,6.7,0,0,0,11.718,16Zm0-10.667a4,4,0,1,1-4.025,4A4.017,4.017,0,0,1,11.718,5.332Z"/>
</svg>
