<svg xmlns="http://www.w3.org/2000/svg" width="58" height="64" viewBox="0 0 58 64">
  <defs>
    <style>
      .cls-1 {
        fill: #14355d;
        fill-rule: evenodd;
      }
    </style>
  </defs>
  <path class="cls-1" d="M57.3,23.5a1.445,1.445,0,0,0-1.418-.032l-9.292,4.972V24.182a1.433,1.433,0,0,0-1.437-1.428H42.817A12.786,12.786,0,0,0,34.716,0,12.889,12.889,0,0,0,22.194,9.8,9.721,9.721,0,0,0,5,15.954a9.6,9.6,0,0,0,2.824,6.8H6.512a1.432,1.432,0,0,0-1.437,1.428v6.485H1.437A1.434,1.434,0,0,0,0,32.1v5.617a1.433,1.433,0,0,0,1.437,1.428H5.075v6.486a1.433,1.433,0,0,0,1.437,1.428H23.463L15.675,61.91a1.426,1.426,0,0,0,.61,1.928,1.441,1.441,0,0,0,1.938-.607l7.61-14.512,7.61,14.512A1.435,1.435,0,0,0,35.99,61.91L28.2,47.057H45.154a1.433,1.433,0,0,0,1.437-1.428V41.367l9.292,4.972A1.437,1.437,0,0,0,58,45.081V24.729A1.427,1.427,0,0,0,57.3,23.5ZM5.075,36.285h-2.2v-2.76h2.2v2.76ZM34.716,2.856a9.949,9.949,0,1,1-10.007,9.949A9.99,9.99,0,0,1,34.716,2.856ZM23.743,19.506a12.923,12.923,0,0,0,2.873,3.248H21.6A9.685,9.685,0,0,0,23.743,19.506ZM14.713,9.155a6.8,6.8,0,1,1-6.84,6.8A6.828,6.828,0,0,1,14.713,9.155Zm29,21.68V44.2H7.948V25.612H43.717v5.224Zm11.41,11.854-8.536-4.567V31.688l8.536-4.567V42.689ZM14.713,11.615a4.34,4.34,0,1,0,4.365,4.34A4.357,4.357,0,0,0,14.713,11.615Zm0,6.107a1.768,1.768,0,1,1,1.779-1.768A1.775,1.775,0,0,1,14.713,17.722Zm20-11.149a6.233,6.233,0,1,0,6.268,6.232A6.258,6.258,0,0,0,34.716,6.573Zm0,9.607a3.375,3.375,0,1,1,3.395-3.375A3.388,3.388,0,0,1,34.716,16.18ZM30.08,29.766H14.457a1.361,1.361,0,0,0-1.365,1.357v7.565a1.362,1.362,0,0,0,1.365,1.356H30.08a1.362,1.362,0,0,0,1.365-1.356V31.124A1.361,1.361,0,0,0,30.08,29.766Zm-1.365,7.565H15.822V32.48H28.715v4.851h0Zm8.9-6.208a1.428,1.428,0,1,1-1.437,1.428A1.433,1.433,0,0,1,37.617,31.123Zm0,4.707a1.428,1.428,0,1,1-1.437,1.428A1.433,1.433,0,0,1,37.617,35.83Z"/>
</svg>
