<svg xmlns="http://www.w3.org/2000/svg" width="68" height="64" viewBox="0 0 68 64">
  <defs>
    <style>
      .cls-1 {
        fill: #14355d;
        fill-rule: evenodd;
      }
    </style>
  </defs>
  <path id="Forma_1" data-name="Forma 1" class="cls-1" d="M5.805,33.609a1.509,1.509,0,0,1-1.518,1.5H1.518a1.5,1.5,0,1,1,0-3h2.77A1.509,1.509,0,0,1,5.805,33.609ZM20.254,46.765a1.489,1.489,0,0,0,.392,1.145,1.528,1.528,0,0,0,1.119.487H24.69a1.5,1.5,0,1,0,0-3H23.6c1.172-3.752,5.143-6.932,10.458-8.24,5.315,1.308,9.286,4.488,10.458,8.24H43.434a1.5,1.5,0,1,0,0,3h2.925a1.528,1.528,0,0,0,1.119-.487,1.489,1.489,0,0,0,.392-1.145,12.321,12.321,0,0,0-4.261-8.023,20.427,20.427,0,0,0-9.205-4.59,1.534,1.534,0,0,0-.683,0,20.429,20.429,0,0,0-9.206,4.59A12.32,12.32,0,0,0,20.254,46.765ZM55.01,14.34a1.524,1.524,0,0,0,1.073-.44l1.958-1.937a1.487,1.487,0,0,0,0-2.121,1.531,1.531,0,0,0-2.146,0L53.937,11.78a1.487,1.487,0,0,0,0,2.121A1.521,1.521,0,0,0,55.01,14.34ZM34,5.737a1.509,1.509,0,0,0,1.518-1.5V1.5a1.518,1.518,0,0,0-3.035,0V4.237A1.509,1.509,0,0,0,34,5.737ZM11.917,13.9a1.53,1.53,0,0,0,2.146,0,1.487,1.487,0,0,0,0-2.121L12.1,9.843a1.53,1.53,0,0,0-2.146,0,1.488,1.488,0,0,0,0,2.122ZM30.553,58.108a1.509,1.509,0,0,0-1.518,1.5V61H18.11a3.546,3.546,0,1,1,0-7.091H31.957a1.5,1.5,0,1,0,0-3H18.11A6.547,6.547,0,1,0,18.11,64H30.553a1.509,1.509,0,0,0,1.518-1.5v-2.89A1.509,1.509,0,0,0,30.553,58.108Zm35.93-26h-2.77a1.5,1.5,0,1,0,0,3h2.77A1.5,1.5,0,1,0,66.482,32.108ZM34,9.486A24.687,24.687,0,0,0,9.2,34a24.234,24.234,0,0,0,3.918,13.232,1.529,1.529,0,0,0,2.1.451,1.49,1.49,0,0,0,.457-2.073A21.263,21.263,0,0,1,12.235,34a21.766,21.766,0,0,1,43.53,0,21.26,21.26,0,0,1-3.438,11.61,1.489,1.489,0,0,0,.457,2.073,1.528,1.528,0,0,0,2.1-.451A24.23,24.23,0,0,0,58.8,34,24.687,24.687,0,0,0,34,9.486ZM33.6,31.154a7.287,7.287,0,0,1,0-13.931,1.538,1.538,0,0,1,.921,0,7.287,7.287,0,0,1,0,13.931A1.529,1.529,0,0,1,33.6,31.154Zm0.461-3.032a4.292,4.292,0,0,0,0-7.866A4.292,4.292,0,0,0,34.062,28.122ZM50.014,50.907H36.167a1.5,1.5,0,1,0,0,3H50.014a3.546,3.546,0,1,1,0,7.091H39.089v-1.39a1.518,1.518,0,0,0-3.035,0V62.5A1.509,1.509,0,0,0,37.571,64H50.014A6.547,6.547,0,1,0,50.014,50.907Z"/>
</svg>
