<svg xmlns="http://www.w3.org/2000/svg" width="64" height="64" viewBox="0 0 64 64">
  <defs>
    <style>
      .cls-1 {
        fill: #14355d;
        fill-rule: evenodd;
      }
    </style>
  </defs>
  <path id="Forma_1" data-name="Forma 1" class="cls-1" d="M54.627,9.371A32,32,0,1,0,9.373,54.626,32,32,0,1,0,54.627,9.371ZM53.161,53.161A29.927,29.927,0,0,1,10.839,10.838,29.927,29.927,0,0,1,53.161,53.161Zm-4.454-29.85a1.036,1.036,0,0,0-.517,1.371A17.622,17.622,0,0,1,49.762,32a17.808,17.808,0,0,1-8.985,15.442V9.882a1.037,1.037,0,0,0-1.74-.761,13.52,13.52,0,0,0-2.645,3.533A19.947,19.947,0,0,0,32,12.163c-0.395,0-.786.013-1.175,0.036V9.882a1.037,1.037,0,0,0-2.073,0v2.549a19.634,19.634,0,0,0-2.35.537V9.882a1.037,1.037,0,0,0-2.073,0v3.825a19.728,19.728,0,0,0-2.35,1.18V9.882a1.037,1.037,0,0,0-2.073,0v6.406A19.824,19.824,0,0,0,17.95,46a1.037,1.037,0,0,0,1.469-1.463A17.748,17.748,0,0,1,19.9,19v4.148a3.253,3.253,0,0,0,2.212,3.079V51.9a3.248,3.248,0,0,0,6.5,0v-0.36a19.979,19.979,0,0,0,5.668.159v0.2a3.248,3.248,0,0,0,6.5,0V49.791A19.886,19.886,0,0,0,51.836,32a19.679,19.679,0,0,0-1.757-8.173A1.036,1.036,0,0,0,48.707,23.311ZM28.752,14.535V19.9H26.4V15.142A17.414,17.414,0,0,1,28.752,14.535ZM24.328,15.98V19.9h-2.35V17.342A17.63,17.63,0,0,1,24.328,15.98ZM26.54,51.9a1.175,1.175,0,0,1-2.35,0V25.364a1.037,1.037,0,0,0-1.037-1.037,1.176,1.176,0,0,1-1.175-1.176V21.978h6.773v1.174a1.177,1.177,0,0,1-1.175,1.176,1.037,1.037,0,0,0-1.037,1.037V51.9ZM32,49.761a17.9,17.9,0,0,1-3.387-.325V26.231a3.253,3.253,0,0,0,2.212-3.079V14.277c0.389-.026.78-0.04,1.175-0.04a17.926,17.926,0,0,1,3.475.341c-3.721,8.843-3.424,22.274-3.406,22.977a1.037,1.037,0,0,0,1.036,1.009h1.175V49.615A17.866,17.866,0,0,1,32,49.761ZM38.7,51.9a1.175,1.175,0,0,1-2.35,0V37.528a1.036,1.036,0,0,0-1.037-1.036H34.133a85.87,85.87,0,0,1,.623-10.17c0.747-5.974,2.1-10.575,3.947-13.527V51.9Zm4.788-33.45a17.827,17.827,0,0,1,2.051,2.052,1.037,1.037,0,1,0,1.58-1.342,19.848,19.848,0,0,0-2.29-2.289A1.036,1.036,0,1,0,43.492,18.455ZM19.642,54.314a25.609,25.609,0,0,1-9.733-9.562,1.036,1.036,0,1,0-1.795,1.037A27.676,27.676,0,0,0,18.635,56.126,1.037,1.037,0,1,0,19.642,54.314ZM44.752,9.908c0.727,0.42,1.441.882,2.123,1.372A1.036,1.036,0,1,0,48.086,9.6c-0.737-.531-1.509-1.03-2.3-1.485A1.037,1.037,0,1,0,44.752,9.908ZM58.977,26.254a27.479,27.479,0,0,0-7.445-13.723,1.037,1.037,0,0,0-1.468,1.464,25.412,25.412,0,0,1,6.886,12.69,1.038,1.038,0,0,0,1.013.822,1.013,1.013,0,0,0,.216-0.024A1.036,1.036,0,0,0,58.977,26.254Z"/>
</svg>
