<svg xmlns="http://www.w3.org/2000/svg" width="64" height="64" viewBox="0 0 64 64">
  <defs>
    <style>
      .cls-1 {
        fill: #14355d;
        fill-rule: evenodd;
      }
    </style>
  </defs>
  <path class="cls-1" d="M13.867,25.066a1.6,1.6,0,1,0,1.6-1.6A1.6,1.6,0,0,0,13.867,25.066Zm2.133,0a0.533,0.533,0,1,1-.533-0.534A0.535,0.535,0,0,1,16,25.066ZM52.326,11.5a1.064,1.064,0,0,0,1.133.292l1.38-.472,0.955,1.178a1.066,1.066,0,0,0,1.9-.671V10.348l1.543-.771a1.067,1.067,0,0,0,0-1.909L57.689,6.9V5.422a1.066,1.066,0,0,0-1.93-.627L54.873,6.015l-1.4-.5a1.067,1.067,0,0,0-1.334,1.437L52.9,8.662l-0.756,1.677A1.067,1.067,0,0,0,52.326,11.5Zm2.756-3.156a1.064,1.064,0,0,0,.706-0.119,1.074,1.074,0,0,0,.357.289l0.225,0.112-0.225.112a1.078,1.078,0,0,0-.433.4A1.059,1.059,0,0,0,55.2,9a0.919,0.919,0,0,0-.123.007A1.072,1.072,0,0,0,55.083,8.339ZM30.933,6.2V17.065a1.067,1.067,0,1,0,2.133,0V6.2A3.2,3.2,0,1,0,30.933,6.2ZM32,2.132A1.067,1.067,0,1,1,30.933,3.2,1.068,1.068,0,0,1,32,2.132ZM46.933,25.066a1.6,1.6,0,1,0,1.6-1.6A1.6,1.6,0,0,0,46.933,25.066Zm2.133,0a0.533,0.533,0,1,1-.533-0.534A0.535,0.535,0,0,1,49.067,25.066Zm-10.133-8a1.6,1.6,0,1,0-1.6-1.6A1.6,1.6,0,0,0,38.933,17.065Zm0-2.132a0.533,0.533,0,1,1-.533.533A0.533,0.533,0,0,1,38.933,14.933Zm0.846,9.287a1.065,1.065,0,0,0,1.508,0l9.6-9.6a1.066,1.066,0,0,0-1.508-1.508l-9.6,9.6A1.065,1.065,0,0,0,39.779,24.219ZM25.067,17.065a1.6,1.6,0,1,0-1.6-1.6A1.6,1.6,0,0,0,25.067,17.065Zm0-2.132a0.533,0.533,0,1,1-.533.533A0.533,0.533,0,0,1,25.067,14.933Zm-2.354,9.287a1.066,1.066,0,1,0,1.508-1.508l-9.578-9.582a1.067,1.067,0,0,0-1.509,1.507ZM42.354,40.845a1.066,1.066,0,0,0-1.508,1.507l8.533,8.534a1.066,1.066,0,0,0,1.508-1.508Zm-3.421,6.087a1.6,1.6,0,1,0,1.6,1.6A1.6,1.6,0,0,0,38.933,46.932Zm0,2.134a0.533,0.533,0,1,1,.533-0.534A0.534,0.534,0,0,1,38.933,49.066Zm11.2-10.133a1.6,1.6,0,1,0-1.6,1.6A1.6,1.6,0,0,0,50.133,38.932Zm-2.133,0a0.533,0.533,0,1,1,.533.533A0.534,0.534,0,0,1,48,38.932ZM4.706,8.328l1.22,0.886-0.5,1.4a1.066,1.066,0,0,0,1,1.426,1.08,1.08,0,0,0,.433-0.091l1.712-.758,1.677,0.756A1.067,1.067,0,0,0,11.7,10.629l-0.473-1.38L12.4,8.294a1.067,1.067,0,0,0-.671-1.9H10.259L9.488,4.855a1.111,1.111,0,0,0-1.909,0L6.807,6.4H5.333A1.067,1.067,0,0,0,4.706,8.328Zm3.715-.387,0.112-.225L8.645,7.942a1.061,1.061,0,0,0,.4.433,1.064,1.064,0,0,0-.125.635,1.09,1.09,0,0,0-.34-0.055,1.051,1.051,0,0,0-.326.052A1.072,1.072,0,0,0,8.131,8.3,1.112,1.112,0,0,0,8.421,7.942ZM60.8,28.8a3.193,3.193,0,0,0-3,2.132H43.733a1.067,1.067,0,0,0,0,2.134H57.8A3.194,3.194,0,1,0,60.8,28.8Zm0,4.266A1.067,1.067,0,1,1,61.867,32,1.068,1.068,0,0,1,60.8,33.066ZM59.294,55.849l-1.22-.887,0.5-1.4a1.066,1.066,0,0,0-1.437-1.334l-1.712.759-1.677-.756A1.067,1.067,0,0,0,52.3,53.547l0.473,1.383-1.179.953a1.067,1.067,0,0,0,.672,1.9h1.474l0.771,1.545a1.068,1.068,0,0,0,1.909,0l0.771-1.545h1.474A1.066,1.066,0,0,0,59.294,55.849Zm-3.715.387-0.112.224-0.112-.224a1.058,1.058,0,0,0-.4-0.434,1.059,1.059,0,0,0,.126-0.635,1.074,1.074,0,0,0,.667,0,1.073,1.073,0,0,0,.12.706A1.074,1.074,0,0,0,55.579,56.235ZM38.542,38.9a1.827,1.827,0,0,0,.236-1.657c-0.222-.845-0.85-3.377-1.152-4.6l3.288-2.552a1.893,1.893,0,0,0,.632-2.015,1.662,1.662,0,0,0-1.506-1.186c-0.495-.04-3.105-0.273-4.341-0.383l-2.008-4.994a1.84,1.84,0,0,0-1.674-1.251,1.732,1.732,0,0,0-1.639,1.292c-0.187.506-1.3,3.593-1.793,4.952L23.95,26.9a1.643,1.643,0,0,0-1.479,1.183,1.839,1.839,0,0,0,.619,1.943c0.3,0.231,2.479,1.829,3.558,2.619l-1.322,4.539a1.779,1.779,0,0,0,.136,1.687,1.85,1.85,0,0,0,2.507.194c0.426-.3,2.869-2.043,4.037-2.876,1.162,0.83,3.586,2.564,4.032,2.873a2.284,2.284,0,0,0,1.267.419A1.54,1.54,0,0,0,38.542,38.9Zm-3.153-6.416s0.628,2.549,1.054,4.251c-1.362-.969-3.816-2.724-3.816-2.724a1.067,1.067,0,0,0-1.241,0s-2.275,1.626-3.678,2.626l1.2-4.111a1.067,1.067,0,0,0-.395-1.159s-2.1-1.534-3.312-2.43l4.245-.36a1.068,1.068,0,0,0,.913-0.7s1.1-3.039,1.7-4.7l1.905,4.737a1.066,1.066,0,0,0,.895.665s2.572,0.23,4.067.36L35.77,31.386A1.068,1.068,0,0,0,35.389,32.484ZM13.867,38.932a1.6,1.6,0,1,0,1.6-1.6A1.6,1.6,0,0,0,13.867,38.932Zm2.133,0a0.533,0.533,0,1,1-.533-0.534A0.534,0.534,0,0,1,16,38.932ZM6.2,33.066H20.267a1.067,1.067,0,0,0,0-2.134H6.2A3.2,3.2,0,1,0,6.2,33.066Zm-3,0A1.067,1.067,0,1,1,4.267,32,1.068,1.068,0,0,1,3.2,33.066Zm8.474,19.616a1.066,1.066,0,0,0-1.133-.292l-1.38.472L8.206,51.684a1.066,1.066,0,0,0-1.9.67v1.474L4.767,54.6a1.067,1.067,0,0,0,0,1.909L6.31,57.28v1.475a1.067,1.067,0,0,0,.737,1.014,1.071,1.071,0,0,0,1.192-.387l0.886-1.221,1.4,0.5a1.066,1.066,0,0,0,1.335-1.436L11.1,55.514l0.756-1.677A1.067,1.067,0,0,0,11.674,52.681ZM8.917,55.838a1.074,1.074,0,0,0-.706.119,1.086,1.086,0,0,0-.357-0.29l-0.225-.112,0.225-.112a1.072,1.072,0,0,0,.433-0.4,1.057,1.057,0,0,0,.636.124A1.072,1.072,0,0,0,8.917,55.838Zm16.149-8.906a1.6,1.6,0,1,0,1.6,1.6A1.6,1.6,0,0,0,25.067,46.932Zm0,2.134a0.533,0.533,0,1,1,.533-0.534A0.534,0.534,0,0,1,25.067,49.066Zm8,8.729V41.6a1.067,1.067,0,1,0-2.133,0v16.2A3.2,3.2,0,1,0,33.067,57.795ZM32,61.865A1.066,1.066,0,1,1,33.067,60.8,1.067,1.067,0,0,1,32,61.865Zm-8.846-21.02a1.065,1.065,0,0,0-1.508,0l-8.534,8.533a1.066,1.066,0,0,0,1.508,1.508l8.533-8.534A1.064,1.064,0,0,0,23.154,40.845Z"/>
</svg>
