<svg xmlns="http://www.w3.org/2000/svg" width="55" height="64" viewBox="0 0 55 64">
  <defs>
    <style>
      .cls-1 {
        fill: #14355d;
        fill-rule: evenodd;
      }
    </style>
  </defs>
  <path id="Forma_1" data-name="Forma 1" class="cls-1" d="M16.64,43.719a10.453,10.453,0,0,0-5.768-19.092A10.453,10.453,0,0,0,5.1,43.719,7.1,7.1,0,0,0,0,50.543V62.972A1.02,1.02,0,0,0,1.017,64H20.728a1.02,1.02,0,0,0,1.017-1.026V50.543A7.1,7.1,0,0,0,16.64,43.719Zm-3.424,3.2L11.982,45.5h2.469ZM9.276,45.5l2.45,2.818L9.433,50.042,8.327,45.5H9.276Zm7.492,0.448c0.129,0.059.256,0.123,0.379,0.193l-0.362,3.742-2.078-1.565ZM2.569,35.062a8.3,8.3,0,1,1,8.3,8.384A8.353,8.353,0,0,1,2.569,35.062ZM2.033,50.543a5.038,5.038,0,0,1,4.215-4.982l1.576,6.476a1.015,1.015,0,0,0,.987.781,1.008,1.008,0,0,0,.608-0.2L12.2,50.52V61.947H7.052V51.772a1.017,1.017,0,1,0-2.033,0V61.947H2.033v-11.4Zm17.679,11.4H14.233V50.52l2.781,2.094a1.007,1.007,0,0,0,1.019.116,1.027,1.027,0,0,0,.6-0.84l0.379-3.918a5.048,5.048,0,0,1,.7,2.571v11.4h0ZM16.5,53.426a1.012,1.012,0,0,0-1.918.119A1.041,1.041,0,0,0,15,54.673a1.021,1.021,0,0,0,1.178-.036,1.039,1.039,0,0,0,.325-1.211C16.478,53.364,16.53,53.487,16.5,53.426ZM10.509,33.153a1.012,1.012,0,0,0-1.877,0,1.042,1.042,0,0,0,.278,1.172,1.018,1.018,0,0,0,1.2.086,1.038,1.038,0,0,0,.4-1.258h0Zm4.771,0.785a1.013,1.013,0,0,0,1.924-.144,1.044,1.044,0,0,0-.372-1.067,1.016,1.016,0,0,0-1.211-.012,1.04,1.04,0,0,0-.341,1.223h0ZM41.5,23.969A1.014,1.014,0,0,0,42.536,24a1.027,1.027,0,0,0,.528-0.9V20.716H44.1a3.177,3.177,0,0,0,3.158-3.189V6.8A3.176,3.176,0,0,0,44.1,3.61H33.567V3.187A3.177,3.177,0,0,0,30.409,0H11.753A3.177,3.177,0,0,0,8.595,3.187V13.916A3.176,3.176,0,0,0,11.753,17.1h1.034v2.389a1.027,1.027,0,0,0,.528.9,1.007,1.007,0,0,0,1.035-.035L19.406,17.1h2.878v0.424a3.177,3.177,0,0,0,3.158,3.189h11ZM19.11,15.052a1.015,1.015,0,0,0-.546.16L14.82,17.621V16.078A1.022,1.022,0,0,0,13.8,15.052H11.753a1.131,1.131,0,0,1-1.125-1.136V3.187a1.131,1.131,0,0,1,1.125-1.135H30.409a1.131,1.131,0,0,1,1.125,1.135V3.61H25.442a3.165,3.165,0,0,0-2.981,2.137H14.7a1.026,1.026,0,0,0,0,2.053h7.58V9.517H14.7a1.026,1.026,0,0,0,0,2.052h7.58v3.483H19.11Zm5.207,2.476V6.8a1.131,1.131,0,0,1,1.125-1.136H44.1A1.131,1.131,0,0,1,45.222,6.8V17.527A1.131,1.131,0,0,1,44.1,18.663H42.047a1.021,1.021,0,0,0-1.017,1.026v1.543l-3.744-2.408a1,1,0,0,0-.546-0.161h-11.3A1.131,1.131,0,0,1,24.317,17.527Zm4.077-6.116H41.146a1.027,1.027,0,0,0,0-2.053H28.394A1.027,1.027,0,0,0,28.394,11.412Zm13.769,2.741a1.021,1.021,0,0,0-1.017-1.025H28.394a1.026,1.026,0,0,0,0,2.052H41.146A1.021,1.021,0,0,0,42.162,14.153ZM49.9,43.719a10.337,10.337,0,1,0-11.535,0,7.1,7.1,0,0,0-5.1,6.824V62.972A1.02,1.02,0,0,0,34.272,64H53.983A1.02,1.02,0,0,0,55,62.972V50.543A7.1,7.1,0,0,0,49.9,43.719ZM47.752,45.5a4.262,4.262,0,0,1-7.249,0h7.249ZM35.824,35.062a8.3,8.3,0,1,1,8.3,8.384A8.353,8.353,0,0,1,35.824,35.062ZM35.288,50.543a5.051,5.051,0,0,1,3.1-4.667,6.3,6.3,0,0,0,11.472,0,5.051,5.051,0,0,1,3.1,4.667v3.643H49.406V51.772a1.017,1.017,0,1,0-2.033,0V61.947H35.288v-11.4h0Zm14.118,11.4V56.239h3.561v5.707H49.406ZM44.49,33.938a1.014,1.014,0,0,0,1.925-.141,1.042,1.042,0,0,0-.421-1.106,1.023,1.023,0,0,0-1.284.127,1.052,1.052,0,0,0-.22,1.119C44.516,34,44.465,33.875,44.49,33.938Zm-4.712-.594a1.076,1.076,0,0,0-.151-0.369,1.019,1.019,0,1,0-.345,1.462,1.038,1.038,0,0,0,.5-1.093C39.765,33.278,39.791,33.411,39.778,33.344Zm4.55,3.718a0.806,0.806,0,0,0-1.15,0,1.429,1.429,0,0,1-2.034,0,0.806,0.806,0,0,0-1.15,0,0.825,0.825,0,0,0,0,1.16,3.047,3.047,0,0,0,4.334,0A0.826,0.826,0,0,0,44.327,37.062Z"/>
</svg>
