<svg xmlns="http://www.w3.org/2000/svg" width="73" height="64" viewBox="0 0 73 64">
  <defs>
    <style>
      .cls-1 {
        fill: #14355d;
        fill-rule: evenodd;
      }
    </style>
  </defs>
  <path class="cls-1" d="M71.478,44.19H66.916V42.664a4.576,4.576,0,0,0-4.563-4.572,4.527,4.527,0,0,0-1.521.265V38.092a4.563,4.563,0,1,0-9.125,0v6.1H43.729a22.923,22.923,0,0,0-4.787-25.306A23.094,23.094,0,0,0,36.5,16.757V4.57A4.572,4.572,0,0,0,31.938,0H13.688A4.57,4.57,0,0,0,9.125,4.57V16.757A22.89,22.89,0,0,0,8.7,53.006a1.517,1.517,0,0,0,.942.328H21.291v1.522a4.557,4.557,0,0,0,6.084,4.309v0.263a4.563,4.563,0,1,0,9.125,0V53.334H51.707v6.094a4.563,4.563,0,1,0,9.125,0V59.164a4.557,4.557,0,0,0,6.084-4.309V53.334h4.562A1.525,1.525,0,0,0,73,51.807V45.713A1.522,1.522,0,0,0,71.478,44.19ZM12.166,4.57a1.524,1.524,0,0,1,1.522-1.523h18.25A1.523,1.523,0,0,1,33.457,4.57V14.819c-0.5-.263-1-0.508-1.519-0.733V7.617A3.049,3.049,0,0,0,28.894,4.57H16.728a3.047,3.047,0,0,0-3.041,3.047v6.468q-0.775.338-1.522,0.733V4.57ZM28.894,7.617v5.389h0a23.067,23.067,0,0,0-12.166,0V7.617H28.894Zm-7.6,42.668H18.25a1.507,1.507,0,0,0,1.074-.447,1.524,1.524,0,0,0-1.072-2.6h3.039v3.05Zm6.084,4.571a1.522,1.522,0,1,1-3.043,0V42.664a1.522,1.522,0,0,1,3.043,0V54.856Zm6.082,4.572a1.521,1.521,0,1,1-3.041,0V38.092a1.521,1.521,0,1,1,3.041,0V59.428ZM31.938,33.522a4.572,4.572,0,0,0-4.563,4.57v0.265a4.526,4.526,0,0,0-1.522-.265,4.576,4.576,0,0,0-4.562,4.572V44.19H16.728a1.522,1.522,0,0,0-1.522,1.523v4.572H10.179A19.766,19.766,0,1,1,40.361,44.19H36.5v-6.1A4.573,4.573,0,0,0,31.938,33.522ZM51.707,50.285H36.5v-3.05H51.707v3.05h0Zm6.084-7.621V59.428a1.52,1.52,0,1,1-3.041,0V38.092a1.52,1.52,0,1,1,3.041,0v4.572Zm6.084,12.192a1.522,1.522,0,1,1-3.043,0V42.664a1.522,1.522,0,1,1,3.043,0V54.856Zm3.041-4.571v-3.05h3.039a1.524,1.524,0,0,0-1.074,2.6,1.513,1.513,0,0,0,1.076.447H66.916Z"/>
</svg>
