<svg xmlns="http://www.w3.org/2000/svg" width="72" height="64" viewBox="0 0 72 64">
  <defs>
    <style>
      .cls-1 {
        fill: #14355d;
        fill-rule: evenodd;
      }
    </style>
  </defs>
  <path id="Forma_1" data-name="Forma 1" class="cls-1" d="M71.635,63.384a1.64,1.64,0,0,1-1.28.614H60.8a1.65,1.65,0,0,1-1.526-2.267l2.014-5.02a1.646,1.646,0,1,1,3.051,1.233l-1.1,2.753h5.083l-0.2-.913c-0.48-2.227-2.557-9.5-9.153-9.5H56.154c-6.6,0-8.673,7.269-9.153,9.5l-0.2.913h5.083l-1.1-2.753a1.645,1.645,0,1,1,3.051-1.233l2.014,5.02A1.65,1.65,0,0,1,54.324,64H44.767a1.649,1.649,0,0,1-1.608-2l0.626-2.912c1.606-7.464,6.345-12.1,12.368-12.1h2.814c6.022,0,10.762,4.636,12.368,12.1L71.963,62A1.651,1.651,0,0,1,71.635,63.384ZM29.678,22.44a8.36,8.36,0,0,1,5.823-8,1.642,1.642,0,0,1,1,0,8.4,8.4,0,0,1,0,16,1.649,1.649,0,0,1-1,0A8.362,8.362,0,0,1,29.678,22.44Zm3.289,0A5.074,5.074,0,0,0,36,27.1a5.1,5.1,0,0,0,0-9.328A5.072,5.072,0,0,0,32.968,22.44ZM36,5.918a1.648,1.648,0,0,0,1.645-1.651V1.65a1.645,1.645,0,1,0-3.289,0V4.267A1.648,1.648,0,0,0,36,5.918ZM51.24,35.545a8.361,8.361,0,0,1,5.823-8,1.632,1.632,0,0,1,1,0,8.4,8.4,0,0,1,0,16,1.631,1.631,0,0,1-1,0A8.361,8.361,0,0,1,51.24,35.545Zm3.289,0a5.074,5.074,0,0,0,3.032,4.665,5.1,5.1,0,0,0,0-9.328A5.072,5.072,0,0,0,54.529,35.545Zm0.263-24.574a1.641,1.641,0,0,0,2.247-.6l1.3-2.266A1.646,1.646,0,1,0,55.493,6.45l-1.3,2.266A1.654,1.654,0,0,0,54.792,10.971ZM66.967,25.9a1.631,1.631,0,0,0,.821-0.221l2.257-1.308A1.649,1.649,0,0,0,68.4,21.507l-2.258,1.308A1.652,1.652,0,0,0,66.967,25.9ZM8.116,35.545a8.361,8.361,0,0,1,5.823-8,1.632,1.632,0,0,1,1,0,8.4,8.4,0,0,1,0,16,1.631,1.631,0,0,1-1,0A8.361,8.361,0,0,1,8.116,35.545Zm3.289,0a5.074,5.074,0,0,0,3.033,4.665,5.1,5.1,0,0,0,0-9.328A5.073,5.073,0,0,0,11.406,35.545Zm3.555-25.178A1.646,1.646,0,1,0,17.81,8.716l-1.3-2.266A1.646,1.646,0,1,0,13.658,8.1Zm-13.006,14,2.258,1.308a1.641,1.641,0,0,0,2.247-.6,1.654,1.654,0,0,0-.6-2.255L3.6,21.507A1.649,1.649,0,0,0,1.955,24.366ZM32.274,43.6a1.645,1.645,0,1,0-3.051,1.232l1.1,2.754H28.808a1.651,1.651,0,0,0,0,3.3h3.954a1.65,1.65,0,0,0,1.526-2.268Zm-4.06,15.483c-1.606-7.464-6.345-12.1-12.368-12.1H13.032c-6.023,0-10.763,4.636-12.368,12.1L0.037,62a1.649,1.649,0,0,0,1.608,2H11.2a1.65,1.65,0,0,0,1.526-2.267l-2.014-5.02a1.645,1.645,0,1,0-3.051,1.233l1.1,2.753H3.682l0.2-.913c0.479-2.227,2.555-9.5,9.153-9.5h2.814c6.6,0,8.673,7.269,9.153,9.5l0.2,0.913H20.111l1.1-2.753a1.645,1.645,0,1,0-3.051-1.233l-2.015,5.02A1.65,1.65,0,0,0,17.676,64h9.556a1.649,1.649,0,0,0,1.608-2ZM46.025,44.711a1.645,1.645,0,1,0,3.121-1.043c-2.065-6.22-6.344-9.788-11.739-9.788H34.593c-5.4,0-9.676,3.568-11.74,9.789a1.651,1.651,0,0,0,1.041,2.087,1.642,1.642,0,0,0,2.08-1.044c0.933-2.812,3.294-7.53,8.619-7.53h2.814C42.731,37.181,45.092,41.9,46.025,44.711ZM45.4,49.24a1.647,1.647,0,0,0-1.645-1.65H41.673l1.1-2.754A1.645,1.645,0,1,0,39.726,43.6l-2.014,5.02a1.65,1.65,0,0,0,1.526,2.268h4.517A1.648,1.648,0,0,0,45.4,49.24Z"/>
</svg>
