<svg xmlns="http://www.w3.org/2000/svg" width="64" height="64" viewBox="0 0 64 64">
  <defs>
    <style>
      .cls-1 {
        fill: #14355d;
        fill-rule: evenodd;
      }
    </style>
  </defs>
  <path class="cls-1" d="M16.989,57.754A5.333,5.333,0,0,0,6.944,56.322,4.544,4.544,0,0,0,6.4,55.99V38.4a1.067,1.067,0,0,0-2.133,0V55.466a4.267,4.267,0,0,0,0,8.534H16A3.2,3.2,0,0,0,16.989,57.754ZM16,61.865H4.267a2.134,2.134,0,0,1,0-4.267,2.319,2.319,0,0,1,2.2,1.44,1.067,1.067,0,0,0,2.066-.373,3.2,3.2,0,0,1,6.4,0A1.066,1.066,0,0,0,16,59.732,1.067,1.067,0,0,1,16,61.865ZM62.933,8.533H42.667a1.066,1.066,0,1,0,0,2.133h19.2V33.69L32.754,4.579a1.073,1.073,0,0,0-1.515,0L2.133,33.69V10.665H13.867A1.067,1.067,0,0,0,14.933,9.6V5.333a1.067,1.067,0,0,0-1.067-1.067H12.8V2.132h6.4V4.266H18.133a1.067,1.067,0,0,0-1.067,1.067V9.6a1.067,1.067,0,0,0,1.067,1.066h3.2a1.066,1.066,0,1,0,0-2.133H19.2V6.4h1.067a1.067,1.067,0,0,0,1.067-1.066V1.066A1.067,1.067,0,0,0,20.267,0H11.733a1.067,1.067,0,0,0-1.067,1.067V5.332A1.067,1.067,0,0,0,11.733,6.4H12.8V8.533H1.067A1.067,1.067,0,0,0,0,9.6L0,36.266a1.067,1.067,0,0,0,1.821.754L32,6.837,62.179,37.019A1.066,1.066,0,0,0,64,36.266V9.6A1.067,1.067,0,0,0,62.933,8.533Zm-3.2,46.933V38.4a1.067,1.067,0,0,0-2.133,0V55.99a4.557,4.557,0,0,0-.544.331,5.333,5.333,0,0,0-10.045,1.432A3.208,3.208,0,0,0,44.8,60.8a3.13,3.13,0,0,0,.2,1.066H26.667a1.066,1.066,0,1,0,0,2.133H59.733A4.266,4.266,0,1,0,59.733,55.466Zm0,6.4H48a1.067,1.067,0,0,1,0-2.134,1.066,1.066,0,0,0,1.067-1.066,3.2,3.2,0,0,1,6.4,0,1.067,1.067,0,0,0,2.066.373,2.319,2.319,0,0,1,2.2-1.44A2.133,2.133,0,1,1,59.733,61.865ZM36.267,21.332A4.267,4.267,0,1,0,32,25.6,4.271,4.271,0,0,0,36.267,21.332Zm-6.4,0A2.133,2.133,0,1,1,32,23.465,2.136,2.136,0,0,1,29.867,21.332Zm22.4,14.934H43.733a1.067,1.067,0,0,0-1.066,1.066V49.066H41.6a1.066,1.066,0,1,0,0,2.133H54.4a1.066,1.066,0,1,0,0-2.133H53.333V37.332A1.067,1.067,0,0,0,52.267,36.266ZM51.2,49.066H44.8V44.8h6.4v4.267Zm0-6.4H44.8V38.4h6.4v4.267Zm-8.533,16A1.068,1.068,0,0,0,41.6,57.6H38.4V37.332a1.067,1.067,0,0,0-1.067-1.066H26.667A1.067,1.067,0,0,0,25.6,37.332V57.6H22.4a1.068,1.068,0,0,0-1.067,1.067v4.267a1.067,1.067,0,0,0,2.133,0v-3.2H41.6A1.066,1.066,0,0,0,42.667,58.665Zm-6.4-11.733H35.2a1.067,1.067,0,0,0,0,2.134h1.067V57.6H27.733V38.4h8.533v8.534Zm-16-10.667H11.733a1.067,1.067,0,0,0-1.067,1.066V49.066H9.6a1.066,1.066,0,1,0,0,2.133H22.4a1.066,1.066,0,1,0,0-2.133H21.333V37.332A1.067,1.067,0,0,0,20.267,36.266ZM19.2,49.066H12.8V44.8h6.4v4.267Zm0-6.4H12.8V38.4h6.4v4.267Z"/>
</svg>
