<svg xmlns="http://www.w3.org/2000/svg" width="64" height="64" viewBox="0 0 64 64">
  <defs>
    <style>
      .cls-1 {
        fill: #14355d;
        fill-rule: evenodd;
      }
    </style>
  </defs>
  <path class="cls-1" d="M11.734,54.4a1.067,1.067,0,0,0,.754-1.821L3.894,43.989a6.132,6.132,0,0,1-1.761-4.524v-16a2.133,2.133,0,1,1,4.267,0v8.443a1.067,1.067,0,1,0,2.133,0V23.466a4.267,4.267,0,0,0-8.533,0v16a8.241,8.241,0,0,0,2.446,6.088l8.534,8.532A1.061,1.061,0,0,0,11.734,54.4Zm12.8,3.2H7.467A1.066,1.066,0,0,0,6.4,58.665v4.267a1.067,1.067,0,1,0,2.133,0v-3.2H23.467v3.2a1.067,1.067,0,1,0,2.133,0V58.665A1.067,1.067,0,0,0,24.534,57.6ZM6.465,38.378a4.377,4.377,0,0,0,1.314,2.909l5.333,5.333a1.066,1.066,0,1,0,1.508-1.507L9.287,39.777a2.249,2.249,0,0,1-.69-1.486,1.922,1.922,0,0,1,1.963-1.963,2.252,2.252,0,0,1,1.487.693l7.516,7.513a6.247,6.247,0,0,1,1.772,4.533V54.4a1.067,1.067,0,0,0,2.133,0V49.066a8.382,8.382,0,0,0-2.446-6.088l-7.467-7.466A4.37,4.37,0,0,0,10.647,34.2,4.053,4.053,0,0,0,6.465,38.378Zm36.569,4.548a8.4,8.4,0,0,0-2.5,6.14V54.4a1.067,1.067,0,0,0,2.133,0V49.066a6.257,6.257,0,0,1,1.821-4.58l7.466-7.466a2.255,2.255,0,0,1,1.488-.692,1.925,1.925,0,0,1,1.964,1.888,2.224,2.224,0,0,1-.693,1.563l-5.333,5.333a1.066,1.066,0,1,0,1.508,1.507l5.334-5.332a4.345,4.345,0,0,0,1.318-3.072A4.057,4.057,0,0,0,53.354,34.2a4.373,4.373,0,0,0-2.909,1.314ZM51.2,11.732A11.735,11.735,0,0,0,28.826,6.78a1.067,1.067,0,1,0,1.934.9,9.6,9.6,0,0,1,18.306,4.05c0,6.261-6.371,16.214-17.066,22.246C21.3,27.945,14.934,17.994,14.934,11.732a9.606,9.606,0,0,1,13.443-8.8A1.067,1.067,0,0,0,29.232.978,11.738,11.738,0,0,0,12.8,11.732c0,6.887,6.549,17.781,18.69,24.4a1.065,1.065,0,0,0,1.022,0C44.65,29.513,51.2,18.621,51.2,11.732ZM59.733,19.2a4.271,4.271,0,0,0-4.267,4.266v8.443a1.067,1.067,0,1,0,2.133,0V23.466a2.133,2.133,0,1,1,4.267,0v16a6.138,6.138,0,0,1-1.821,4.579l-8.533,8.533a1.066,1.066,0,1,0,1.508,1.508l8.467-8.472A8.254,8.254,0,0,0,64,39.466v-16A4.271,4.271,0,0,0,59.733,19.2Zm-3.2,38.4H39.467A1.066,1.066,0,0,0,38.4,58.665v4.267a1.067,1.067,0,1,0,2.133,0v-3.2H55.466v3.2a1.067,1.067,0,1,0,2.133,0V58.665A1.067,1.067,0,0,0,56.533,57.6ZM41.252,6.7A5.39,5.39,0,0,1,44.5,9.953a1.069,1.069,0,0,0,1,.711,1.052,1.052,0,0,0,.357-0.062,1.068,1.068,0,0,0,.648-1.362,7.441,7.441,0,0,0-4.542-4.546A1.067,1.067,0,1,0,41.252,6.7Z"/>
</svg>
