<svg xmlns="http://www.w3.org/2000/svg" width="51" height="64" viewBox="0 0 51 64">
  <defs>
    <style>
      .cls-1 {
        fill: #14355d;
        fill-rule: evenodd;
      }
    </style>
  </defs>
  <path class="cls-1" d="M44.653,0H1.133A1.131,1.131,0,0,0,0,1.127v8.5a1.133,1.133,0,0,0,2.267,0V2.255H43.52v54.3H2.267V13.84A1.133,1.133,0,0,0,0,13.84V57.682a1.131,1.131,0,0,0,1.133,1.127H5.214v4.062A1.131,1.131,0,0,0,6.347,64H9.483a1.128,1.128,0,1,0,0-2.257h-2V58.809H44.653a1.131,1.131,0,0,0,1.133-1.127V1.127A1.131,1.131,0,0,0,44.653,0Zm5.214,5.189h-1.7a1.128,1.128,0,1,0,0,2.257h0.566v54.3H14.318a1.128,1.128,0,1,0,0,2.257H49.867A1.131,1.131,0,0,0,51,62.871V6.315A1.131,1.131,0,0,0,49.867,5.187ZM18.161,8.575h-2.19V6.4a1.131,1.131,0,0,0-1.133-1.128H9.6A1.131,1.131,0,0,0,8.463,6.4v2.18H6.273A1.13,1.13,0,0,0,5.14,9.7v5.217A1.131,1.131,0,0,0,6.273,16.05h2.19v2.179A1.131,1.131,0,0,0,9.6,19.357h5.242a1.131,1.131,0,0,0,1.133-1.127V16.05h2.19a1.131,1.131,0,0,0,1.133-1.129V9.7A1.131,1.131,0,0,0,18.161,8.575Zm-1.133,5.218h-2.19A1.131,1.131,0,0,0,13.7,14.921V17.1H10.73v-2.18A1.131,1.131,0,0,0,9.6,13.793H7.407V10.832H9.6A1.131,1.131,0,0,0,10.73,9.7V7.524H13.7V9.7a1.131,1.131,0,0,0,1.133,1.128h2.19v2.961h0ZM40.119,22.56H5.666a1.128,1.128,0,1,0,0,2.257H40.119A1.128,1.128,0,1,0,40.119,22.56Zm-2.87,9.026H8.537a1.128,1.128,0,1,0,0,2.255H37.249A1.128,1.128,0,1,0,37.249,31.586ZM40.12,6.767H29.694a1.128,1.128,0,1,0,0,2.256H40.12A1.128,1.128,0,1,0,40.12,6.767Zm0,4.813H29.694a1.128,1.128,0,1,0,0,2.256H40.12A1.128,1.128,0,1,0,40.12,11.581ZM37.249,36.8H8.537a1.128,1.128,0,1,0,0,2.255H37.249A1.128,1.128,0,1,0,37.249,36.8ZM21.987,42.014H8.537a1.128,1.128,0,1,0,0,2.255h13.45A1.128,1.128,0,1,0,21.987,42.014Z"/>
</svg>
