<svg xmlns="http://www.w3.org/2000/svg" width="71" height="64" viewBox="0 0 71 64">
  <defs>
    <style>
      .cls-1 {
        fill: #14355d;
        fill-rule: evenodd;
      }
    </style>
  </defs>
  <path id="Forma_1" data-name="Forma 1" class="cls-1" d="M69.817,24.888a8.294,8.294,0,0,1-8.194-7.15,8.248,8.248,0,0,0,5.828,2.409,1.185,1.185,0,0,0,0-2.371,5.928,5.928,0,0,1-5.917-5.926V11.82a5.844,5.844,0,0,0,3.55,1.216,1.185,1.185,0,0,0,0-2.371,3.556,3.556,0,0,1-3.55-3.555,1.183,1.183,0,1,0-2.367,0,3.556,3.556,0,0,1-3.55,3.555,1.185,1.185,0,0,0,0,2.371,5.844,5.844,0,0,0,3.55-1.216v0.032a5.928,5.928,0,0,1-5.917,5.926,1.185,1.185,0,0,0,0,2.371,8.248,8.248,0,0,0,5.828-2.409,8.294,8.294,0,0,1-8.195,7.15,1.185,1.185,0,0,0,0,2.37,10.623,10.623,0,0,0,8.283-3.976v5.162a1.183,1.183,0,1,0,2.367,0V23.282a10.623,10.623,0,0,0,8.283,3.976A1.185,1.185,0,0,0,69.817,24.888ZM9.467,23.282v5.162a1.183,1.183,0,1,0,2.367,0V23.282a10.623,10.623,0,0,0,8.283,3.976,1.185,1.185,0,0,0,0-2.37,8.294,8.294,0,0,1-8.195-7.15,8.249,8.249,0,0,0,5.828,2.409,1.185,1.185,0,0,0,0-2.371,5.928,5.928,0,0,1-5.917-5.926V11.82a5.844,5.844,0,0,0,3.55,1.216,1.185,1.185,0,0,0,0-2.371,3.556,3.556,0,0,1-3.55-3.555,1.183,1.183,0,1,0-2.367,0,3.556,3.556,0,0,1-3.55,3.555,1.185,1.185,0,0,0,0,2.371,5.844,5.844,0,0,0,3.55-1.216v0.032A5.928,5.928,0,0,1,3.55,17.777a1.185,1.185,0,0,0,0,2.371,8.248,8.248,0,0,0,5.828-2.409,8.294,8.294,0,0,1-8.195,7.15,1.185,1.185,0,0,0,0,2.37A10.623,10.623,0,0,0,9.467,23.282Zm16.567-1.949a10.626,10.626,0,0,0,8.283-3.976v5.161a1.183,1.183,0,1,0,2.367,0V17.356a10.626,10.626,0,0,0,8.283,3.976,1.185,1.185,0,0,0,0-2.371,8.293,8.293,0,0,1-8.195-7.15A8.246,8.246,0,0,0,42.6,14.221a1.185,1.185,0,0,0,0-2.37,5.929,5.929,0,0,1-5.917-5.926V5.893a5.846,5.846,0,0,0,3.55,1.217,1.185,1.185,0,0,0,0-2.371,3.557,3.557,0,0,1-3.55-3.556,1.183,1.183,0,1,0-2.367,0,3.557,3.557,0,0,1-3.55,3.556,1.185,1.185,0,0,0,0,2.371,5.846,5.846,0,0,0,3.55-1.217V5.925A5.929,5.929,0,0,1,28.4,11.851a1.185,1.185,0,0,0,0,2.37,8.246,8.246,0,0,0,5.828-2.409,8.294,8.294,0,0,1-8.195,7.15A1.185,1.185,0,0,0,26.033,21.332ZM65.881,47.406H55.513l-6.023-9.481h6.925a2.759,2.759,0,0,0,2.752-2.757V32.386a2.759,2.759,0,0,0-2.752-2.757H15.769a2.759,2.759,0,0,0-2.752,2.757v2.782a2.759,2.759,0,0,0,2.752,2.757h6.925l-6.023,9.481H5.119a2.759,2.759,0,0,0-2.752,2.757v2.782A2.759,2.759,0,0,0,5.119,55.7H11.4L8.173,60.779A2.095,2.095,0,0,0,9.938,64h4.946a2.087,2.087,0,0,0,1.765-.969L21.3,55.7H50.88l4.655,7.328A2.085,2.085,0,0,0,57.3,64h4.946a2.095,2.095,0,0,0,1.764-3.22L60.785,55.7h5.1a2.759,2.759,0,0,0,2.752-2.757V50.163A2.759,2.759,0,0,0,65.881,47.406Zm-13.173,0h-4.3l-6.024-9.481h4.3Zm-7.1,0H26.575L32.6,37.925h6.985ZM15.769,35.555a0.386,0.386,0,0,1-.386-0.387V32.386A0.386,0.386,0,0,1,15.769,32H56.414a0.386,0.386,0,0,1,.386.386v2.782a0.386,0.386,0,0,1-.386.387H15.769ZM25.5,37.925h4.3l-6.024,9.481h-4.3Zm-10.766,23.7h-4.3L14.2,55.7h4.3Zm47.012,0h-4.3L53.684,55.7h4.3Zm4.522-8.683a0.387,0.387,0,0,1-.386.386H5.119a0.387,0.387,0,0,1-.386-0.386V50.163a0.386,0.386,0,0,1,.386-0.387H65.88a0.386,0.386,0,0,1,.387.387v2.782Z"/>
</svg>
